<svg xmlns="http://www.w3.org/2000/svg" viewBox="0 0 1600 1200"><defs><style>.cls-1{fill:#fff;}.cls-2{fill:#161616;}.cls-3{fill:#e8e8e8;}.cls-4{fill:#5222d0;}.cls-5,.cls-7{fill:#ec615b;}.cls-10,.cls-11,.cls-12,.cls-6,.cls-8,.cls-9{fill:#707070;}.cls-6{opacity:0.25;}.cls-7{stroke:#000;stroke-miterlimit:10;stroke-width:5px;}.cls-8{opacity:0.28;}.cls-9{opacity:0.18;}.cls-10{opacity:0.2;}.cls-11{opacity:0.19;}.cls-12{opacity:0.33;}.cls-13{fill:#898989;opacity:0.13;}.cls-14{fill:#757575;opacity:0.21;}</style></defs><g id="blanket"><path class="cls-1" d="M71.36,941.84c28.35,10.72,65.31,24.2,108.89,38.74,64.12,21.4,146.61,46.46,243.85,69.8,171.67,41.2,308.71,57.7,372.57,64.34,42.37,4.41,77.8,7.12,102.78,8.79,18.5-8.13,48.38-21.42,84.84-38.4,32.94-15.33,156.31-73.28,398.84-208.66,35.06-19.57,85.23-47.8,145.67-82.63-29.4-3.1-73-7.54-125.86-12.26-119-10.62-200.44-15.14-246.32-18.18-81.75-5.41-199-15.92-348.7-38.46-40.68,16-104.92,39.81-186,63.1-85.76,24.66-97.06,22-208.48,52.45C364.21,854,356.39,857.23,201.3,903.39,145.71,919.93,100.39,933.3,71.36,941.84Z"/><path class="cls-2" d="M78.72,953.14a2931.65,2931.65,0,0,0,316.94,99.72,2936.72,2936.72,0,0,0,324.32,63q91.9,12.53,184.48,19.21c1.93.14,1.92-2.86,0-3a2928.5,2928.5,0,0,1-329.1-42.65,2934,2934,0,0,1-320.76-79.16q-88.47-27.21-175.09-60c-1.8-.69-2.59,2.21-.79,2.89Z"/><path class="cls-2" d="M908,1134.66c84.83-37.06,168.1-77.59,250.27-120.21,81.94-42.51,162.8-87.08,243.23-132.37q68.05-38.31,135.84-77.11a1.5,1.5,0,0,0-1.51-2.59c-80.49,45.87-161,91.74-242.21,136.3-80.89,44.38-162.52,87.46-245.48,127.86q-70.17,34.18-141.65,65.53c-1.77.77-.24,3.36,1.51,2.59Z"/><path class="cls-2" d="M82.55,953.07q142.13-47.49,286.69-87.2,72.24-19.83,145-37.69c48.28-11.91,96.56-23.81,144.25-37.95q79.89-23.68,157.58-54c1.78-.69,1-3.6-.8-2.89q-69.49,27.09-140.88,49c-47.21,14.45-95,26.72-142.91,38.53-97,23.92-193.48,49.64-289.17,78.39q-80.67,24.24-160.56,50.95c-1.82.61-1,3.51.8,2.89Z"/><path class="cls-2" d="M817,734.1c46.19,7.46,92.33,15.4,138.63,22.16,45.54,6.66,91.38,9.75,137.25,13.15l283.28,21,159,11.76c1.92.14,1.92-2.86,0-3L1252.9,778.25l-140.15-10.37c-46.19-3.42-92.55-6-138.49-12-52.33-6.87-104.38-16.23-156.47-24.64-1.89-.3-2.71,2.59-.8,2.89Z"/><path class="cls-3" d="M186,938.51c95.32,32.13,190.75,64.28,288.16,89.55,48.29,12.52,97,23.34,146.25,31.55,50.77,8.47,102,13.84,153.12,19.67l174.31,19.88c1.92.22,1.9-2.79,0-3l-154.5-17.62c-51.73-5.9-103.59-11.16-155.06-19.09-98.74-15.21-195.45-41.25-290.71-71-53.85-16.81-107.31-34.82-160.77-52.84-1.83-.62-2.62,2.27-.8,2.89Z"/><path class="cls-3" d="M343.18,897.53a2637.41,2637.41,0,0,0,264.71,77.39,2639.17,2639.17,0,0,0,268.91,49q76.91,9.93,154.3,15.31c1.93.13,1.92-2.87,0-3a2631.82,2631.82,0,0,1-273.34-33.47A2639.4,2639.4,0,0,1,490.85,941.3Q416.75,920.12,344,894.64c-1.83-.64-2.61,2.25-.8,2.89Z"/><path class="cls-3" d="M574.31,844l6.11,3.12c1.72.87,3.24-1.72,1.52-2.59l-6.11-3.12c-1.72-.88-3.24,1.71-1.52,2.59Z"/><path class="cls-3" d="M573.32,854.26c64.53,27.83,132,48.18,200.51,63.5S912,943.55,981.76,952.22c39.85,4.95,79.77,9.31,119.7,13.66,1.91.2,1.9-2.8,0-3-70.29-7.65-140.61-15.36-210.49-26.25-68.77-10.73-137.18-24.55-203.92-44.45a1016.2,1016.2,0,0,1-112.21-40.51c-1.76-.75-3.29,1.83-1.52,2.59Z"/><path class="cls-3" d="M666.11,795.4A2023.26,2023.26,0,0,0,864.8,854.21a2021,2021,0,0,0,203.87,38.17q57.6,7.75,115.56,12.18c1.92.15,1.92-2.85,0-3a2019.33,2019.33,0,0,1-206.06-26.49,2020.21,2020.21,0,0,1-200.81-47.13q-55.73-16.11-110.45-35.43c-1.82-.64-2.61,2.26-.8,2.89Z"/><path class="cls-3" d="M778,761.7c70.9,16.91,141.69,34.38,212.74,50.67,69.86,16,141.9,19.58,213.2,24.77q61.45,4.49,123,7.93c1.93.11,1.93-2.89,0-3q-108.17-6.08-216.14-15.3c-36.28-3.1-72.31-7-107.93-14.75-35-7.64-69.85-16.43-104.73-24.75L778.74,758.8c-1.87-.44-2.67,2.45-.79,2.9Z"/></g><g id="background"><path class="cls-1" d="M108,934.46a102.26,102.26,0,0,1-31.57-54.72L75,881.64a22.11,22.11,0,0,1,17.31,11.49l2.59-1.51C85.53,875,76.05,858,71.35,839.36a92.85,92.85,0,0,1-2.62-16l-1.9,1.45a16.3,16.3,0,0,1,10,9.83l2.74-1.16A197,197,0,0,1,62.86,771.8q-.9-9-1-18.11L60,755.13c4.14,1.4,6.55,5.4,8.41,9.1,2.5,5,4.71,10.12,7,15.18l14.84,32.2q14.74,32,29.48,63.95l16.73,36.28c.81,1.76,3.39.23,2.59-1.51L109,845l-30.1-65.31c-2.64-5.72-5.12-11.55-8-17.16-2.23-4.42-5.23-8.67-10.11-10.31a1.52,1.52,0,0,0-1.9,1.45A200.54,200.54,0,0,0,70,817.84c2,5.83,4.35,11.56,6.91,17.18.7,1.54,3.31.45,2.74-1.15A19.54,19.54,0,0,0,67.62,822a1.49,1.49,0,0,0-1.89,1.44c1.45,19.68,9.41,38,18.55,55.2,2.6,4.89,5.29,9.72,8,14.54,1,1.69,3.51.19,2.59-1.51a25.18,25.18,0,0,0-19.9-13,1.52,1.52,0,0,0-1.45,1.9,106.28,106.28,0,0,0,22.22,45.51,102.81,102.81,0,0,0,10.13,10.53c1.42,1.3,3.55-.82,2.12-2.12Z"/><path class="cls-1" d="M115.42,857.18a82.62,82.62,0,0,1-4.07-32.32l-2.79.76L121.1,843.7c.91,1.31,3.29.56,2.74-1.16A222.14,222.14,0,0,1,113.23,784c-.25-5.61-.28-11.24-.11-16.85l-2.56,1.06c5.51,5.47,8.51,12.75,11,20,3,8.61,5.84,17.29,8.75,25.94q8.9,26.43,17.8,52.88l10.1,30c.61,1.82,3.51,1,2.89-.8L143,842.35c-6-17.8-11.93-35.63-18-53.41-2.81-8.23-6.06-16.61-12.34-22.86a1.52,1.52,0,0,0-2.56,1.07,225.81,225.81,0,0,0,6.18,59.74q2,8.31,4.65,16.45l2.74-1.16L111.15,824.1a1.52,1.52,0,0,0-2.8.76A85.11,85.11,0,0,0,112.52,858c.62,1.82,3.51,1,2.9-.79Z"/><path class="cls-1" d="M158.57,880.13a19.18,19.18,0,0,1,2.87-17.28h-2.59a189,189,0,0,1,15.56,46.25c.38,1.89,3.27,1.09,2.9-.8a192.51,192.51,0,0,0-15.87-47,1.52,1.52,0,0,0-2.59,0,22,22,0,0,0-3.18,19.59c.59,1.83,3.49,1.05,2.9-.8Z"/><path class="cls-1" d="M1441.56,789.4,1436,760.53l-2.82-14.68a57.75,57.75,0,0,1-1.46-11.17c0-3.58.8-7.52,3.8-9.83l-2-.54,4.68,6.66c1.1,1.57,3.7.07,2.59-1.51l-4.68-6.66a1.51,1.51,0,0,0-2-.54c-6.2,4.77-5.74,13.14-4.54,20.09,1.75,10.1,3.86,20.16,5.79,30.23l3.39,17.62c.36,1.89,3.25,1.09,2.89-.8Z"/><path class="cls-1" d="M1448.89,750.64c-2.92-19.39-5.76-38.87-6.06-58.51a173.08,173.08,0,0,1,1.79-28.86,132.94,132.94,0,0,1,2.93-14.09c.63-2.37,1.31-4.74,2.11-7,.16-.47.43-1.57,1.09-1.49s1.28,1.47,1.49,2a61.24,61.24,0,0,1,2.09,7.93l2.14,8.4,4.42,17.29c.48,1.9,3.21,1.07,2.89-.8a133.61,133.61,0,0,1,8.06-72.1,130.35,130.35,0,0,1,9.43-18.69l-2.74-.36c1.75,10.69,2.22,21.53,2.58,32.33q.53,16.46,1,32.91l2.07,66.18,1.17,37.21c.06,1.92,3.06,1.93,3,0l-2.08-66.43q-1-33.22-2.09-66.43c-.38-12.23-.81-24.47-2.78-36.57-.22-1.33-2.13-1.37-2.75-.35A136.64,136.64,0,0,0,1459,655a134.65,134.65,0,0,0,1.91,21.21l2.89-.8c-2.78-10.88-5.34-21.83-8.34-32.65-.49-1.8-1.44-3.8-3.15-4.74a3.6,3.6,0,0,0-4.85,1.65c-1.15,2.06-1.66,4.66-2.29,6.91q-1.07,3.75-1.89,7.56c-4.43,20.36-4,41.42-1.94,62.05,1.19,11.78,2.92,23.5,4.68,35.21.28,1.91,3.18,1.1,2.89-.79Z"/><path class="cls-1" d="M1490.18,712.67a47.59,47.59,0,0,1,9.43-31.3l-2,.54c4.15,2.6,5.9,7.32,6.75,11.93,1,5.62,1,11.48,1.13,17.17q.6,20.64-.2,41.28-.45,11.69-1.36,23.34c-.15,1.92,2.85,1.91,3,0q1.65-21.33,1.8-42.73.08-10.7-.23-21.39c-.17-6-.15-12.16-1.19-18.11-1-5.54-3.25-11-8.18-14.08a1.56,1.56,0,0,0-2.06.54,50.14,50.14,0,0,0-9.84,32.81c.11,1.92,3.11,1.93,3,0Z"/><path class="cls-1" d="M1511.39,773.94a46,46,0,0,1,8.7-24.37l-2.79-.76q2.45,21.24,3.15,42.62c.06,1.92,3.06,1.93,3,0q-.71-21.36-3.15-42.62a1.52,1.52,0,0,0-2.8-.76,48.92,48.92,0,0,0-9.11,25.89c-.11,1.93,2.89,1.92,3,0Z"/><path class="cls-1" d="M616,693.89a233.48,233.48,0,0,1-14.12-38.06q-2.7-9.78-4.53-19.77c-.6-3.32-1.15-6.66-1.61-10-.25-1.84-.51-4.53.78-6.09,2-2.38,4.55,2.88,5.3,4.09l6.44,10.27a1.51,1.51,0,0,0,2.75-1.16q-6.93-26.42-13.85-52.83l-3.9-14.89a1.5,1.5,0,0,0-2.89.8l13.84,52.83,3.9,14.89,2.74-1.16-6.44-10.27c-1.5-2.4-3.14-5.8-6.33-6.12-2.57-.25-4.32,1.66-5,3.94-.86,2.73-.34,5.56.06,8.32A233.59,233.59,0,0,0,603.75,672a241,241,0,0,0,9.62,23.37c.83,1.74,3.42.22,2.59-1.51Z"/><path class="cls-1" d="M592.13,553.6a180.64,180.64,0,0,1,17.21,40.18,1.51,1.51,0,0,0,2.9-.8c-7.2-27.21-14.5-54.81-15-83.12-.06-3.81,0-7.64.21-11.45.17-3,.59-6.18,3-8.15h-2.12a35.6,35.6,0,0,1,6.07,12c1.58,4.82,2.92,9.72,4.35,14.59l9.08,30.94,18.25,62.11,10.28,35c.54,1.85,3.44,1.06,2.89-.8l-18.45-62.83q-9.23-31.42-18.46-62.84c-1.64-5.6-3.17-11.24-5-16.79a39.77,39.77,0,0,0-6.91-13.5,1.53,1.53,0,0,0-2.12,0c-2.22,1.79-3.2,4.54-3.61,7.28a70.73,70.73,0,0,0-.52,9.87,187.75,187.75,0,0,0,1.09,21.85,327.65,327.65,0,0,0,7.83,42.69c1.94,8,4,16,6.14,23.95l2.9-.8a185,185,0,0,0-17.52-40.9,1.5,1.5,0,0,0-2.59,1.52Z"/><path class="cls-1" d="M648.4,625.15a163.22,163.22,0,0,1,1.08-34.65h-2.89a390.41,390.41,0,0,1,16.22,58.14c.38,1.89,3.27,1.09,2.9-.8a390.78,390.78,0,0,0-16.23-58.14c-.44-1.22-2.67-1.62-2.89,0a166.78,166.78,0,0,0-1.19,35.45c.14,1.91,3.14,1.93,3,0Z"/><path class="cls-1" d="M664,622a43.85,43.85,0,0,1,10.44,32.91c-.19,1.92,2.81,1.91,3,0a46.77,46.77,0,0,0-11.32-35c-1.27-1.45-3.39.67-2.12,2.12Z"/><path class="cls-1" d="M1002.08,678.89a109.69,109.69,0,0,1-4.92-45.72,107.73,107.73,0,0,1,2.2-13c.43-1.88-2.46-2.68-2.89-.8a112.51,112.51,0,0,0-.74,47.18,109.77,109.77,0,0,0,3.46,13.13c.6,1.82,3.5,1,2.89-.8Z"/><path class="cls-1" d="M1013.27,665.3q-2.89-24.76-3.71-49.72t.48-49.86q.74-14.06,2.12-28.07c.19-1.92-2.81-1.91-3,0q-2.46,24.83-2.84,49.78t1.34,49.85q1,14,2.61,28c.22,1.9,3.22,1.92,3,0Z"/><path class="cls-1" d="M1036.74,688.17V602.42a1.5,1.5,0,0,0-3,0v85.75a1.5,1.5,0,0,0,3,0Z"/><path class="cls-1" d="M1042,706.08l11.67-62.81,3.31-17.84c.35-1.89-2.54-2.7-2.89-.8l-11.67,62.81-3.31,17.84c-.36,1.89,2.54,2.7,2.89.8Z"/><path class="cls-1" d="M159.32,1140.55a239.4,239.4,0,0,1-42.74-58.07q-4.78-9.11-8.76-18.62a1.55,1.55,0,0,0-1.85-1,1.5,1.5,0,0,0-1,1.84A243.25,243.25,0,0,0,143,1127.23q6.75,8,14.18,15.44a1.5,1.5,0,0,0,2.12-2.12Z"/><path class="cls-1" d="M93.94,1003.07q17.49,20,33,41.69t29,44.78q7.53,12.95,14.34,26.28c.77,1.49,3.31.46,2.75-1.16a80.71,80.71,0,0,0-11.26-21.4c-1.14-1.53-3.74,0-2.59,1.52a78,78,0,0,1,10.95,20.68l2.74-1.16q-12.19-23.83-26.64-46.45t-30.92-43.65Q106,1012.32,96.06,1001c-1.27-1.46-3.38.67-2.12,2.12Z"/><path class="cls-1" d="M126.81,1022.48a262.36,262.36,0,0,1,49.53,63.72q5.58,10.07,10.26,20.6c.68,1.53,3.36.43,2.74-1.16l-6.09-15.58c-.69-1.78-3.6-1-2.89.79l6.09,15.59,2.74-1.16A265.24,265.24,0,0,0,145,1036.85q-7.65-8.6-16-16.49c-1.41-1.32-3.53.79-2.13,2.12Z"/><path class="cls-1" d="M179.25,1074a4.9,4.9,0,0,1,1.56-5.64h-2.12a124.13,124.13,0,0,1,23.44,43.81c.55,1.85,3.45,1.06,2.89-.79a127.66,127.66,0,0,0-24.21-45.14,1.54,1.54,0,0,0-2.12,0,7.87,7.87,0,0,0-2,9.28c.76,1.76,3.35.24,2.59-1.52Z"/><path class="cls-1" d="M1244.5,1109.34a181.14,181.14,0,0,1-2-67.49,73.65,73.65,0,0,1,1.7-9c.34-1.18,1.77-4.78,3.55-3.93s3.26-1.76,1.52-2.59c-4.81-2.3-7.6,3.69-8.36,7.45a184.22,184.22,0,0,0-2.61,55.77,188.35,188.35,0,0,0,3.36,20.57c.41,1.88,3.31,1.08,2.89-.8Z"/><path class="cls-1" d="M1257.9,1068a425.44,425.44,0,0,1,8.38-53.95c4-17.51,9.58-34.75,17.49-50.91a173.5,173.5,0,0,1,15.65-26l-2.75-1.16-12.36,88.55-3.53,25.23c-.25,1.86,2.5,2.73,2.9.8a132.08,132.08,0,0,1,16.79-42.36l-2.8-.75a196,196,0,0,1-1.45,35.5c-.2,1.48,2.17,2,2.79.76a54.61,54.61,0,0,0,5.4-19.5c.16-1.92-2.84-1.91-3,0a50.63,50.63,0,0,1-5,18l2.8.75a196,196,0,0,0,1.45-35.5,1.51,1.51,0,0,0-2.79-.76,134.66,134.66,0,0,0-17.1,43.07l2.9.8L1296,962l3.53-25.23a1.51,1.51,0,0,0-2.74-1.16,189.09,189.09,0,0,0-24.95,48.25,300,300,0,0,0-13.11,53.44c-1.62,10.2-2.86,20.46-3.87,30.73-.19,1.92,2.81,1.91,3,0Z"/><path class="cls-1" d="M1341.43,950.62q-5.88,24.92-11.87,49.79t-12.12,49.73q-3.43,14-6.92,28c-.47,1.88,2.43,2.68,2.89.8q6.18-24.83,12.25-49.69t12-49.76q3.35-14,6.66-28c.44-1.88-2.45-2.68-2.9-.8Z"/><path class="cls-1" d="M1324.82,1058.89l-5.72,34.93c-.31,1.89,2.58,2.7,2.89.8l5.73-34.93c.31-1.89-2.58-2.7-2.9-.8Z"/><path class="cls-1" d="M95,304.64c14.23-13.9,32.46-26.18,52.68-28.46a53.55,53.55,0,0,1,28.82,4.73c9.29,4.34,17.46,10.65,25.66,16.7,7.72,5.69,15.6,11,24.28,15.11a124,124,0,0,0,25.87,8.88,133.79,133.79,0,0,0,54.43.77,124.94,124.94,0,0,0,50.05-21.43q2.71-2,5.31-4.11c1.5-1.22-.63-3.33-2.12-2.12a120.72,120.72,0,0,1-49,23.7,130.43,130.43,0,0,1-54.58,1,121.48,121.48,0,0,1-25.94-8.12A133.39,133.39,0,0,1,206,296.72c-8.21-6-16.23-12.36-25.27-17.06a57.52,57.52,0,0,0-28.42-6.82c-20.29.66-39,11.53-54,24.61q-2.81,2.46-5.47,5.07c-1.38,1.35.74,3.47,2.12,2.12Z"/><path class="cls-1" d="M567.48,307.42A132,132,0,0,0,609.27,323a136.68,136.68,0,0,0,44.62,1.12,129.16,129.16,0,0,0,24.58-5.94c1.81-.63,1-3.53-.8-2.89a129.61,129.61,0,0,1-43,7.17,133.29,133.29,0,0,1-43.22-7.32A127.23,127.23,0,0,1,569,304.83a1.5,1.5,0,0,0-1.52,2.59Z"/><path class="cls-1" d="M307.71,273c14.23-4.58,23.42-16.58,31.88-28.19,4.45-6.09,8.85-12.28,14.08-17.74a66.67,66.67,0,0,1,19.27-13.88A72.32,72.32,0,0,1,419,207.58c15.85,3.38,28.9,13.21,42,22.17,12.44,8.51,25.95,16.87,41.48,17.18,15.26.31,28.86-7.41,41.54-15,12.85-7.72,26.19-16.24,41.6-17.06,13.61-.72,26.7,4.28,38.68,10.25,12.59,6.27,24.46,13.91,37.12,20,11.51,5.58,24,10,37,9.22a51.36,51.36,0,0,0,9.63-1.51c1.8-.46,1.25-2.52-.55-2.06-13.07,3.31-26.24.3-38.39-4.89-13-5.53-24.87-13.15-37.28-19.76-11.69-6.24-24.13-12-37.47-13.28-14.76-1.44-28.21,3.71-40.84,10.87-13.18,7.47-26,17.1-41.11,20.16-15.87,3.21-30.47-3.56-43.48-12S443.44,213,428.5,207.79a74.79,74.79,0,0,0-82.79,24.74c-9.13,11.35-16.52,25-28.68,33.5a36.94,36.94,0,0,1-9.87,4.93c-1.75.56-1.23,2.63.55,2.06Z"/><path class="cls-1" d="M898.78,321.94a37.43,37.43,0,0,1,23.59,9.18c6.24,5.49,10.14,13,15.47,19.25a34.2,34.2,0,0,0,9.43,8,33.54,33.54,0,0,0,11.79,3.74c8.53,1.11,17.1-.69,24.91-4.13,9.56-4.21,17.85-10.71,26-17.16,1.52-1.21-.62-3.32-2.12-2.13-13.53,10.76-28.92,22.25-47.2,20.59a30.48,30.48,0,0,1-11.5-3.32,31.5,31.5,0,0,1-9.16-7.69c-5.29-6.22-9.15-13.63-15.32-19.1a40.69,40.69,0,0,0-25.86-10.2c-1.93-.05-1.93,2.95,0,3Z"/><path class="cls-1" d="M1277.51,303.59c12.33-11.21,28.66-24.8,46.48-18.43,7.43,2.65,13.42,8.25,18.75,13.88,5.78,6.1,11,12.68,17.41,18.21,13.18,11.46,30.53,19.48,48.27,16a54.66,54.66,0,0,0,22.84-11,72.25,72.25,0,0,0,9.35-8.82c2.76-3.1,5.18-6.47,7.83-9.66s5.4-6.13,9-8.11a16.2,16.2,0,0,1,11.1-1.75c8.06,1.66,14.41,8.16,19.45,14.27,1.3,1.58,2.54,3.21,3.75,4.87s3.73.05,2.59-1.51c-5-6.84-10.7-13.79-18.22-17.93a22.3,22.3,0,0,0-11.13-3,20.08,20.08,0,0,0-11.33,3.94c-6.89,5-11.17,12.73-17,18.81-6,6.27-13.2,11.66-21.35,14.79a43.56,43.56,0,0,1-25.94,1.72,62.91,62.91,0,0,1-23.89-12.08c-6.83-5.38-12.42-11.95-18.26-18.34-5.47-6-11.39-12-18.77-15.62a32.21,32.21,0,0,0-24.82-1.37c-8.67,3-16.18,8.6-23.07,14.51-1.73,1.49-3.43,3-5.12,4.54-1.43,1.3.7,3.42,2.12,2.12Z"/><path class="cls-1" d="M1190.94,249.8c3.74,7.46,12.4,10.2,20.27,9.49a29.56,29.56,0,0,0,11.77-3.53,53.15,53.15,0,0,0,11.9-9.54c7.34-7.44,13.68-15.86,22.86-21.19,8.31-4.82,18.54-7.52,28-4.61,8.43,2.59,14.43,9.63,20.7,15.42,5.82,5.38,12.77,10.6,21.16,9.68,7.18-.8,12.65-5.62,17.18-10.89,4.72-5.47,8.75-11.73,14.43-16.29a19.34,19.34,0,0,1,8.91-4.17c5.71-.93,11.38,1.49,16.41,3.92,11.57,5.58,23,11.38,34.55,17.07l8.51,4.22c1.73.85,3.25-1.74,1.52-2.6l-34.51-17.06c-9.23-4.56-20.07-11.55-30.7-7.52-6.7,2.55-11.47,8.22-15.83,13.66s-8.56,11.49-14.75,14.81a16.27,16.27,0,0,1-9.85,1.82,22.7,22.7,0,0,1-10.42-4.92c-6.72-5.16-12-12-19.18-16.6-8.19-5.28-18.14-5.83-27.33-3-9.86,3-17.88,9.19-24.85,16.6-6.7,7.13-13.25,15.87-22.53,19.78-6.82,2.87-16.26,3.37-22.24-1.68a13.59,13.59,0,0,1-3.37-4.34c-.87-1.73-3.46-.21-2.59,1.51Z"/><path class="cls-1" d="M134,537.58c8.14-10.22,18.48-21,32-23.31,13.88-2.35,26,6.61,34.94,16.16,9.26,9.85,16.57,21.54,27.55,29.7a41.39,41.39,0,0,0,18.85,8,51.08,51.08,0,0,0,21.83-1.92c14.56-4.39,26.64-14.1,37.89-24,1.45-1.27,2.89-2.56,4.34-3.84s-.68-3.4-2.12-2.12c-11.29,10-23,20.57-37.41,25.87A51.06,51.06,0,0,1,250,565.41a38.62,38.62,0,0,1-19.13-7.19c-11.13-7.88-18.42-19.78-27.6-29.62-9-9.67-20.94-18.62-34.88-17.62-13.64,1-24.72,10.59-33.25,20.5-1.12,1.31-2.21,2.64-3.29,4s.92,3.63,2.13,2.12Z"/><circle class="cls-4" cx="581.52" cy="149.77" r="10.26"/><circle class="cls-4" cx="951.94" cy="500.43" r="5.09"/><circle class="cls-4" cx="1423.1" cy="450.44" r="6.3"/><circle class="cls-4" cx="199.01" cy="662.84" r="11.11"/><circle class="cls-5" cx="236.08" cy="491.86" r="8.56"/><circle class="cls-5" cx="1073.59" cy="321.78" r="14.48"/><circle class="cls-5" cx="696.22" cy="489.09" r="5.79"/><circle class="cls-5" cx="1244.14" cy="107.89" r="10.78"/><circle class="cls-5" cx="1377.83" cy="514.09" r="14.5"/></g><g id="items"><path class="cls-1" d="M844,1013.59a23.63,23.63,0,0,0-13.7,4.14c-6.73,4.85-8.46,12.36-10.2,19.91-1.52,6.59-3.14,13.65-.49,22.07,3.66,11.65,12.89,17.64,15.51,19.28,14.5,9.11,30.3,5.08,36.76,3.43s13.45-3.44,18.93-9.94c6.79-8,6.6-17.91,6.55-21.08-.07-3.8-2.48-10.25-7.31-23.15-1.71-4.58-2.65-6.75-4.87-8.77-4.89-4.44-11.75-4.3-15.08-4a17.26,17.26,0,0,0,7.19-4.79,17.81,17.81,0,0,0,4.27-9.74,20.16,20.16,0,0,0-1.42-10.61,47.23,47.23,0,0,0-9.57,8,48.41,48.41,0,0,0-10.4,18.19q-.4-14.62-.82-29.27l-6.16-4.2-.81,25.35a23.07,23.07,0,0,0-6.46-11.12c-1.76-1.61-3.09-2.23-11.88-7.36l-5.88-3.46A113.11,113.11,0,0,0,844,1013.59Z"/><path class="cls-1" d="M917,935.69a5,5,0,0,0,5.61,7.78,27.11,27.11,0,0,0-9.3,9,5.7,5.7,0,0,1,8.28-1.07,5.63,5.63,0,0,1,.54,7.17,159.75,159.75,0,0,0,70.92,2.9,72.27,72.27,0,0,0,25.51-8.83,70.93,70.93,0,0,0,7.75-5.2,8.72,8.72,0,0,0,1.49-4.89c-.06-5.23-5.19-8.09-5.43-8.22a7.11,7.11,0,0,0,3.25-3.44,7.62,7.62,0,0,0-.7-6.73c-5.33-.67-10.79-1.28-16.34-1.83q-16.44-1.64-31.79-2.33-18.09,5.09-36.93,9.93Q928.29,933,917,935.69Z"/><path class="cls-1" d="M795.26,632.46a18.07,18.07,0,0,1,.24,3.61,6.17,6.17,0,0,0-.18-3.43A1.27,1.27,0,0,1,795.26,632.46Z"/><path class="cls-1" d="M930.75,721.58c-1.07-20.86-1.5-41.07-1.42-60.59q-7-.94-14.08-2.06c-14.32-2.25-28.07-4.86-41.23-7.74l-3.33-31.51c-14.09-3.6-26.13-6-35.24-7.56-43.09-7.5-59.74-4-70.87,0-2.55.93-4.6,1.83-5.94,2.44Q758,644,757.36,673.32l-29.83,12.47q-.13,8.7-.2,17.47-.26,34.29.44,67.55c6.35,4.55,11.86,7.91,15.79,10.18a202.36,202.36,0,0,0,48.75,19.89c5.32,1.41,9.74,2.36,12.61,2.94,2.77-1.17,6.81-2.88,11.68-5,32.95-14.24,60.61-27.79,81.62-38.63,8.91-4.6,20.43-10.67,33.78-18.06Q931.3,732,930.75,721.58Zm-118.3-61.94a4.67,4.67,0,0,1-1.81,2.4c-2.09,1.33-5.49.66-8.17-1.95l-37.33,10.5-.39-56.39a186,186,0,0,1,91,8.56q2.73,14,5.45,28Z"/><path class="cls-2" d="M844.36,1012.15c-12.29-1.81-20.17,8.22-23.86,18.71-4.39,12.48-5.86,27,2,38.46,15.66,22.83,46.46,19.21,67.34,6.54a1.5,1.5,0,0,0-1.52-2.59c-18.24,11.07-43.53,15.46-59.9-1.43-8.41-8.68-9.86-20.37-7.36-31.84,2.38-10.91,8.47-27,22.52-25,1.89.28,2.71-2.61.8-2.89Z"/><path class="cls-2" d="M847.14,1011.42c-9.1-5.95-13.58-16-17.72-25.68l-2.36,1.82c4.32,3.52,9.88,4.49,14.35,7.71a22.36,22.36,0,0,1,9,18.78c0,1.93,3,1.93,3,0a25.48,25.48,0,0,0-5.92-17.19c-5-6-12.51-6.71-18.29-11.42a1.51,1.51,0,0,0-2.35,1.82c4.37,10.2,9.2,20.48,18.79,26.75,1.62,1.06,3.13-1.54,1.52-2.59Z"/><path class="cls-2" d="M854.54,1012.55a123.55,123.55,0,0,0,.11-29.46l-2.79.76a7.13,7.13,0,0,0,3,2.45c3.74,1.85,3.32,4.54,3.31,8.34l-.05,20.39a1.5,1.5,0,0,0,3,0c0-8.09.16-16.19.06-24.28,0-1.82,0-3.48-1.17-4.93-1.48-1.77-4.24-1.65-5.59-3.48-.77-1-3-.9-2.8.75a123.55,123.55,0,0,1-.11,29.46c-.23,1.91,2.77,1.89,3,0Z"/><path class="cls-2" d="M863.16,1015c.07-3.25.11-7,2.46-9.56,2-2.11,5.24-3.36,7.52-5.16a38.05,38.05,0,0,0,9.14-10.67l-2.74-1.15c-2,5,1.41,10,0,15.17a15.23,15.23,0,0,1-14.06,11.06c-1.93,0-1.93,3,0,3a18,18,0,0,0,14.57-8.15,17.69,17.69,0,0,0,2.94-8.08c.38-4.09-2.11-8.31-.55-12.2.64-1.61-1.9-2.58-2.74-1.16a36.27,36.27,0,0,1-6.24,8c-2.66,2.5-5.78,3.88-8.58,6.11-4.08,3.24-4.6,7.88-4.71,12.82,0,1.93,3,1.93,3,0Z"/><path class="cls-2" d="M872.72,1017c11.89.24,20.18,13.31,22.37,23.77,2.41,11.57-.87,23.22-6.91,33.14-1,1.65,1.59,3.16,2.59,1.51,7-11.44,10.39-25.29,6.45-38.41-3.25-10.81-12.25-22.76-24.5-23-1.93,0-1.93,3,0,3Z"/><path class="cls-2" d="M845.36,1015.33a46.28,46.28,0,0,0,22.11,2.67c1.9-.23,1.92-3.23,0-3a44.71,44.71,0,0,1-21.31-2.56c-1.81-.68-2.6,2.22-.8,2.89Z"/><path class="cls-2" d="M915.29,937.25c-2.22,3.86,1,6.18,4.51,7.14a157.36,157.36,0,0,0,21.78,3.85,227.79,227.79,0,0,0,48.06.92c1.91-.17,1.92-3.17,0-3a229.45,229.45,0,0,1-35.85.3q-9.21-.66-18.36-2.1-4.65-.74-9.29-1.67c-1.12-.22-9.76-1.31-8.26-3.92a1.5,1.5,0,0,0-2.59-1.52Z"/><path class="cls-2" d="M917.64,938.19c12.9.31,25.34,2.45,38.07,4.27,11.56,1.65,23,.65,34.61-.57,1.9-.2,1.92-3.2,0-3-12.56,1.33-24.83,2.19-37.37.13a253.65,253.65,0,0,0-35.31-3.83c-1.93-.05-1.93,2.95,0,3Z"/><path class="cls-2" d="M988.88,940.51a14.29,14.29,0,0,0,.68,6.52c.63,1.82,3.53,1,2.89-.79a12.39,12.39,0,0,1-.57-5.73c.11-.81-.76-1.49-1.5-1.5a1.54,1.54,0,0,0-1.5,1.5Z"/><path class="cls-2" d="M917.36,937.13q30-7.29,59.79-15.64a1.5,1.5,0,0,0-.8-2.89q-29.76,8.35-59.79,15.64c-1.88.45-1.08,3.35.8,2.89Z"/><path class="cls-2" d="M976.78,920.87q23.69,3,47.54,3.74c1.93.06,1.93-2.94,0-3q-23.85-.76-47.54-3.74c-1.91-.24-1.9,2.77,0,3Z"/><path class="cls-2" d="M990.7,941.64a88.71,88.71,0,0,0,34.61-15.16c1.55-1.12.06-3.72-1.51-2.59a86.75,86.75,0,0,1-33.9,14.85c-1.89.39-1.09,3.28.8,2.9Z"/><path class="cls-2" d="M992.77,949.23a63.47,63.47,0,0,0,34-16.44c1.42-1.32-.71-3.44-2.12-2.13A60.78,60.78,0,0,1,992,946.34c-1.9.29-1.09,3.18.8,2.89Z"/><path class="cls-2" d="M1025,929.1a1.5,1.5,0,0,0,0-3,1.5,1.5,0,0,0,0,3Z"/><path class="cls-2" d="M1023.38,924.21l.84,8.14c.2,1.9,3.2,1.92,3,0l-.84-8.14c-.19-1.9-3.19-1.92-3,0Z"/><path class="cls-2" d="M921,944.25a14.51,14.51,0,0,0-9,7.52,1.51,1.51,0,0,0,2,2.05c6.16-2.66,9.31.69,14.65,2.7,3.93,1.47,8.58.87,12.68.87l31.66-.07c9,0,18.93,1.25,27.57-1.65,9.41-3.15,18.65-6.95,27.95-10.42,1.79-.67,1-3.57-.8-2.89-9.54,3.56-19,7.53-28.71,10.67-4.89,1.59-10,1.26-15.12,1.27l-16.82,0c-10.55,0-21.13.31-31.67.06a17.19,17.19,0,0,1-8.36-2.2,18.73,18.73,0,0,0-5.29-2.21,15.14,15.14,0,0,0-9.25,1.24l2,2a11.51,11.51,0,0,1,7.21-6.13c1.83-.58,1.05-3.47-.8-2.9Z"/><path class="cls-2" d="M1021,935.14l5.43,8.21c1.06,1.61,3.66.1,2.59-1.51l-5.43-8.22c-1.06-1.6-3.66-.1-2.59,1.52Z"/><path class="cls-2" d="M920.5,953.51a5.33,5.33,0,0,1,.14,4.71,1.53,1.53,0,0,0,1.05,1.84c10.71,4.36,22.45,4.73,33.87,4.91A282.29,282.29,0,0,0,993,963c1.89-.22,1.92-3.22,0-3a284.91,284.91,0,0,1-35.52,2c-11.78-.11-24-.33-35-4.83l1,1.85a8.78,8.78,0,0,0-.15-6.3c-.67-1.79-3.57-1-2.89.79Z"/><path class="cls-2" d="M991.19,955.94l1,5c.37,1.89,3.27,1.09,2.9-.8l-1-5c-.36-1.89-3.26-1.09-2.89.8Z"/><path class="cls-2" d="M994.32,962.79c10.85-5.34,23.79-5.76,33-14.24,1.43-1.31-.7-3.43-2.12-2.12-8.89,8.17-21.9,8.6-32.4,13.77-1.74.86-.22,3.44,1.51,2.59Z"/><path class="cls-2" d="M726.23,686.56q-.63,23.63-.85,47.24-.12,11.82-.11,23.63c0,5.05-1.35,12,2.69,15.92,4.25,4.14,10.88,6.85,16.08,9.6q9.42,5,19.23,9.14a257.11,257.11,0,0,0,39.91,13.23c1.88.46,2.68-2.43.8-2.89a257,257,0,0,1-37.1-12c-11.82-4.87-24.53-10.4-35-17.82-4.1-2.9-3.61-6.7-3.61-11.19,0-3.28,0-6.57,0-9.85q0-10.83.15-21.65.23-21.66.81-43.31c0-1.93-3-1.93-3,0Z"/><path class="cls-2" d="M802.49,706.1a480.08,480.08,0,0,0-.88,96.63c.18,1.91,3.18,1.93,3,0a480.08,480.08,0,0,1,.88-96.63c.21-1.91-2.79-1.9-3,0Z"/><path class="cls-2" d="M805.31,805.26a1334.91,1334.91,0,0,0,127.45-61.81c1.69-.94.18-3.53-1.51-2.59a1329.74,1329.74,0,0,1-126.73,61.51c-1.75.74-1,3.64.79,2.89Z"/><path class="cls-2" d="M876,684.58q27.9-9.35,55.12-20.5c1.76-.72,1-3.63-.8-2.89q-27.21,11.14-55.12,20.5c-1.82.61-1,3.51.8,2.89Z"/><path class="cls-2" d="M804.06,705.2q29.24-7.07,58-16.08c1.84-.58,1-3.47-.79-2.89q-28.71,9-58,16.08c-1.88.45-1.08,3.35.8,2.89Z"/><path class="cls-2" d="M928.47,664.06q-.09,19.31.29,38.61.18,9.41.49,18.8c.11,3.3.22,6.6.35,9.9.07,1.74,1.24,7.16.13,8.32l1.82-.23.39.59-1.5,1.5.3,0c1.89-.24,1.91-3.24,0-3l-.3,0a1.55,1.55,0,0,0-1.5,1.5,2,2,0,0,0,1.09,2,1.53,1.53,0,0,0,1.82-.24c1.11-1.15,1-1.87,1-3.52,0-3.61-.3-7.26-.43-10.88q-.37-10.38-.61-20.78-.48-21.28-.37-42.57a1.5,1.5,0,0,0-3,0Z"/><path class="cls-2" d="M727.13,687.24a262.35,262.35,0,0,0,76.57,19.09c1.92.18,1.91-2.82,0-3a260.28,260.28,0,0,1-75.77-19c-1.78-.75-2.56,2.16-.8,2.89Z"/><path class="cls-2" d="M728.7,684.61q35.49-9.95,70.55-21.34c1.82-.59,1-3.49-.8-2.89q-35.06,11.4-70.55,21.34a1.5,1.5,0,0,0,.8,2.89Z"/><path class="cls-2" d="M799.68,662.52c20.11,6.55,41.16,8.51,62.06,11,1.91.23,1.9-2.77,0-3-20.64-2.41-41.4-4.37-61.26-10.84-1.84-.6-2.63,2.3-.8,2.89Z"/><path class="cls-2" d="M803.31,703.8a581.64,581.64,0,0,0,59.07-28.55c1.69-.94.18-3.53-1.52-2.59a575.22,575.22,0,0,1-58.35,28.25c-1.75.73-1,3.63.8,2.89Z"/><path class="cls-2" d="M801.48,704.89c3.34-4,9.65-5.94,14.18-8.23L830.75,689l30.16-15.25c1.72-.87.2-3.46-1.52-2.59l-31.93,16.14L812.38,695c-4.34,2.2-9.81,4-13,7.81-1.24,1.46.87,3.6,2.12,2.12Z"/><path class="cls-2" d="M727.61,685.68a297.2,297.2,0,0,0,72.54,17.79c1.91.22,1.89-2.78,0-3a294.59,294.59,0,0,1-71.74-17.68c-1.8-.69-2.59,2.21-.8,2.89Z"/><path class="cls-2" d="M811.37,665.9a13,13,0,0,0,3.34-6.38l-2.21.9c7.57,3.4,15.52,1.48,23.43,3,8.59,1.65,16.79,4.44,25.55,5.25,1.92.18,1.91-2.82,0-3-8.49-.78-16.44-3.48-24.75-5.14-7.51-1.5-15.55.52-22.71-2.69a1.53,1.53,0,0,0-2.21.9,10.08,10.08,0,0,1-2.56,5c-1.3,1.42.81,3.55,2.12,2.12Z"/><path class="cls-2" d="M874.85,669.12c9.22-.22,18.42-.77,27.59-1.72q5.89-.61,11.76-1.44,3.3-.45,6.6-1l3.76-.62a3.12,3.12,0,0,0,3.4-2.13l1.82-.23-.33-.15c-1.75-.79-3.27,1.8-1.51,2.59l.33.15a1.56,1.56,0,0,0,1.81-.24,2,2,0,0,0,.79-1.82,1.51,1.51,0,0,0-.75-1.3c-2.45-1.26-5.68.13-8.24.55q-8.26,1.37-16.6,2.31c-10.11,1.14-20.26,1.79-30.43,2-1.93,0-1.94,3,0,3Z"/><path class="cls-2" d="M812.05,661.09c16,5.25,33,4.55,49.48,7,1.89.28,2.7-2.61.8-2.89-16.48-2.49-33.51-1.8-49.48-7-1.84-.6-2.63,2.3-.8,2.9Z"/><path class="cls-2" d="M814.23,659.44l45.45-6.27c1.9-.26,1.09-3.15-.8-2.89l-45.44,6.27c-1.91.26-1.1,3.15.79,2.89Z"/><path class="cls-2" d="M875.79,670.62c17.11-.17,34-2.78,50.87-5.5,1.9-.3,1.09-3.19-.8-2.89-16.6,2.67-33.22,5.22-50.07,5.39a1.5,1.5,0,0,0,0,3Z"/><path class="cls-2" d="M813.82,663.12c16.18-.12,31.66,5.12,47.65,6.85,1.91.21,1.9-2.79,0-3-16-1.73-31.45-7-47.65-6.85a1.5,1.5,0,0,0,0,3Z"/><path class="cls-2" d="M873.62,652.63c9.52,1.33,18.8,3.87,28.28,5.45,9,1.5,18.49.87,27,4.35,1.78.73,2.56-2.17.79-2.89-8.61-3.52-18-2.85-27-4.35-9.48-1.57-18.76-4.13-28.29-5.45-1.88-.26-2.7,2.63-.79,2.89Z"/><path class="cls-2" d="M759.74,671.22c-1.8-14.59-1.48-29.28-1.3-44,0-3.2-1-7.91,1.44-10.08s7.41-2.22,10.61-2.68a175.39,175.39,0,0,1,23.35-1.73,168.24,168.24,0,0,1,42.2,5.11c3.47.87,6.93,1.86,10.35,3,3,.94,7.86,1.62,9.8,4.19,1.73,2.28,1.89,7.42,2.31,10.18.5,3.3.9,6.6,1.58,9.87.39,1.89,3.29,1.09,2.89-.79-.8-3.84-1.2-7.72-1.84-11.59-.5-3-.85-8-2.83-10.46-1.46-1.8-5.5-2.41-7.7-3.16-4-1.36-8-2.57-12-3.64a171.84,171.84,0,0,0-48.36-5.59A180.35,180.35,0,0,0,766,612.18c-5.22.86-10,.78-10.5,6.82-.7,8.53-.25,17.46-.22,26a220.36,220.36,0,0,0,1.46,26.19c.24,1.89,3.24,1.92,3,0Z"/><path class="cls-2" d="M765.77,671.32l.74-56.61a1.5,1.5,0,0,0-3,0l-.74,56.61a1.5,1.5,0,0,0,3,0Z"/><path class="cls-2" d="M759.4,615.89c16.44-7.93,37.06-5,54.71-4.06,18.75,1,37.43,3.21,55.22,9.47,1.83.64,2.61-2.26.8-2.9-18.61-6.55-38.25-8.68-57.85-9.66-17.83-.9-37.79-3.45-54.4,4.56-1.74.84-.22,3.43,1.52,2.59Z"/><path class="cls-2" d="M873.7,681.73c0,2.07.08,4.14.11,6.22,0,1.93,3,1.93,3,0,0-2.08-.06-4.15-.11-6.22s-3-1.94-3,0Z"/><path class="cls-2" d="M869.19,619.68q1.57,13,2.66,26.14c.15,1.91,3.15,1.93,3,0q-1.08-13.1-2.66-26.14c-.23-1.9-3.23-1.92-3,0Z"/><path class="cls-2" d="M860.27,644q1.86,23.82,1.91,47.71a1.5,1.5,0,0,0,3,0q0-23.88-1.91-47.71c-.15-1.91-3.15-1.93-3,0Z"/><path class="cls-2" d="M872,645.89q1.2,19.83,1.44,39.69a1.5,1.5,0,0,0,3,0q-.24-19.86-1.44-39.69c-.11-1.92-3.12-1.93-3,0Z"/><path class="cls-2" d="M862.29,689.68c0,8.53-.11,17.07,0,25.6.07,5.76,2.61,4.75,7.82,3.88,5.63-.95,9.21-.3,8.4-6.49a153.11,153.11,0,0,1-1.14-26.21c.07-1.93-2.93-1.93-3,0a153,153,0,0,0,.2,17c.19,2.84.55,5.65.83,8.47a9,9,0,0,1,.2,2.3c.34.9,0,1.27-.87,1.12l-2.71.46c-1,.16-6.18,1.76-6.73,1.43s0-7.81,0-8.85V689.68a1.5,1.5,0,0,0-3,0Z"/><path class="cls-2" d="M749.57,687.21a254,254,0,0,0,42.91,9.42c1.91.25,1.89-2.75,0-3a250.5,250.5,0,0,1-42.11-9.31c-1.85-.58-2.64,2.32-.8,2.89Z"/></g><g id="guy"><g id="hand_left" data-name="hand left"><path class="cls-1" d="M380.12,552c-4.62,1.27-11.29,5.16-19,22.47a116.7,116.7,0,0,0-8.83,28.85c-10,74.95-7,10.93-10.14,67.13-4.48,81.35-6.72,122-10.35,213.55-.81,20.33-1.55,36.71-2,46.32a29.86,29.86,0,0,0-20-.6,27.11,27.11,0,0,0-19.72,3.85c-.36-.08-8-1.78-12.42,3.19a10.32,10.32,0,0,0-2.33,4.74A26.43,26.43,0,0,0,264,945.62a26,26,0,0,0-6.44,6,29,29,0,0,0,6.3,2c4.43.88,7,.28,10.43.49a27,27,0,0,1,11.6,3.58c-3.86,1.56-6.23,4.74-6,7.74.29,3.54,4.07,5.5,4.5,5.71,4.47,2.23,8.16-.59,16.3-2.24,5.74-1.16,5.27,0,18.47-.73a153.15,153.15,0,0,0,18.44-1.71c11.28-1.91,19-3.22,25.07-8.71,4.11-3.71,6.29-8.29,9.24-19.7,5.79-22.41,6.35-37.76,6.35-37.76.51-14.13,1-.14,12.59-88.13,2.53-19.21,3.8-28.81,5.43-42.61,5.6-47.21,8.09-80.55,8.72-89.28,5.95-81.76-1.83-53.61.83-85.36A64.86,64.86,0,0,0,401,566.5c-5.05-12-10.65-14.09-12.76-14.68A14.94,14.94,0,0,0,380.12,552Z"/><path class="cls-6" d="M391.39,553.61c.76,9.2,1.72,22.48,2.41,38.48,3.33,76.77,6.54,107-16.43,228.95-13.87,73.72-9.81,119.16-32.85,127.73-3.31,1.23-31.18,10.69-49.29,1.59a50.26,50.26,0,0,0-11.13-4.24c-10.19-2.54-23.42-2.34-25.21,2.33a5.15,5.15,0,0,0,2,5.54c2.08,1.37,4.95.11,6.8-.43,3.74-1.09,9.49-1,18.26,4.17-4.42,2.85-6.48,7.1-5.39,10,1.28,3.45,6.57,4.08,8.32,4.29,6,.71,9.52-1.93,14.8-3.57,6.78-2.09,7,.37,19.65-.2A101.6,101.6,0,0,0,348.2,964c7.34-2.24,11-3.36,14.52-6.21,8.69-7.06,10-18.82,10.47-23.33,2.71-24,9.24-47.52,10.66-71.61,1.41-23.86,2.25-9.73,11.31-83.64,3.77-30.79,5.71-50.26,8.26-75.82,1.82-18.24,3.2-33.36,4-53,.05-1.24-.17-16.54-.62-47.14-.23-15.83-.58-28.72-8.77-41.36A51.11,51.11,0,0,0,391.39,553.61Z"/><path class="cls-2" d="M384.76,550c-21.41-.08-28.16,31.08-32.39,46.85-6.72,25.12-9.84,51-12,76.9-4.79,56.76-7.5,113.76-9.15,170.69q-1.41,48.48-1.46,97a1.5,1.5,0,0,0,3,0q.12-81.68,4-163.28,1.94-40.54,4.82-81c1.83-25.77,3.81-51.62,8.62-77A277,277,0,0,1,361,579.21c3.82-10.81,10.14-26.25,23.79-26.2a1.5,1.5,0,0,0,0-3Z"/><path class="cls-2" d="M384.48,552.44c11,1.69,14.28,14.75,16.47,23.93A207.8,207.8,0,0,1,406.14,615c1.18,24.79-.88,49.63-3,74.31-4.45,52.41-11.05,104.62-18.44,156.69-4.16,29.38-8.57,58.72-13,88.06-.29,1.89,2.6,2.7,2.89.79,8.15-54.24,16.31-108.49,22.91-163,3.34-27.48,6.28-55,8.62-82.59,2.25-26.54,4.48-53.31,2.65-79.94-.94-13.59-2.79-27.44-6.73-40.52-2.53-8.4-7.24-17.84-16.81-19.3-1.89-.29-2.7,2.6-.8,2.89Z"/><path class="cls-2" d="M328.3,966.52c-6.18.54-12.31-.18-18.48-.11s-11.18,2-17.06,3.46c-3.36.82-8.58,1.38-10.47-2.47s1.49-6.58,4.9-8c5.51-2.35,11.73-3.47,17.5-5.06a1.5,1.5,0,0,0-.8-2.89c-5.55,1.53-34.45,6.86-23.4,18.82,4.71,5.09,11.59,3,17.27,1.2,10.12-3.23,20.19-1,30.54-1.91,1.9-.17,1.92-3.17,0-3Z"/><path class="cls-2" d="M286.69,956.44a48,48,0,0,0-25.82-4c-1.89.23-1.92,3.23,0,3a45.24,45.24,0,0,1,24.3,3.54c1.75.78,3.28-1.81,1.52-2.59Z"/><path class="cls-2" d="M259.41,951.57c-1.11-1.28,4-4.1,4.73-4.39,1.06-.41,2.15-.77,3.24-1.08a49.38,49.38,0,0,1,8.88-1.61,134.57,134.57,0,0,1,14.76-.33c1.93,0,1.93-3,0-3-9-.13-18.31-.25-26.87,2.84-3.69,1.33-10.92,5-6.87,9.69,1.27,1.46,3.38-.67,2.13-2.12Z"/><path class="cls-2" d="M276.79,941.12c-2.34-7.23,21.47-4.35,24.09-3.74,1.87.44,2.68-2.46.79-2.9-5.1-1.19-31.53-4.15-27.77,7.43.59,1.83,3.49,1.05,2.89-.79Z"/><path class="cls-2" d="M290.86,934.88a20.14,20.14,0,0,1,21.6-1.23c1.7.94,3.21-1.65,1.52-2.59a23.17,23.17,0,0,0-24.64,1.23c-1.57,1.09-.07,3.7,1.52,2.59Z"/><path class="cls-2" d="M310.22,931.17a29.67,29.67,0,0,1,19.16.6c1.81.67,2.6-2.23.8-2.89a32.44,32.44,0,0,0-20.76-.6c-1.84.55-1.06,3.45.8,2.89Z"/><path class="cls-2" d="M327.75,969.43c11.29-2.11,25.5-2.69,35.05-9.81,8.92-6.65,10.45-18.16,11.48-28.48.19-1.92-2.81-1.91-3,0-1,10.49-2.74,22.12-12.86,27.74-9.17,5.09-21.34,5.76-31.47,7.66-1.89.35-1.09,3.24.8,2.89Z"/></g><g id="leg_left" data-name="leg left"><path class="cls-1" d="M575.48,802.07c2.95-9.15,8-18.23,17.87-36,12.29-22.1,25.27-41.12,50.73-78.26,8.4-12.26,18-26,34.32-39.25,10-8.09,18.46-12.7,28.69-13.1a40.91,40.91,0,0,1,20.45,4.86c14,7.22,20.56,20,24.51,27.61,25.34,48.74,20.11,31.23,37.76,68.89,14.7,31.37,23.1,53.69,25.18,59.26,6.17,16.55,11,31.28,14.63,43.46a58.08,58.08,0,0,1-8.18,10.57,63.39,63.39,0,0,1-15.91,11.57c-14.58,7.34-29.11,6.27-39.59,5.51a111.05,111.05,0,0,1-35.56-8.73q-6.12-16.2-12-33.57-7.89-23.31-14.16-45.29c-2.32,5.13-5.9,13.38-9.62,23.78-11.53,32.26-9.39,43.29-19.78,58-11.2,15.82-27.26,22.18-32.3,24.11-16,6.1-46.67,11.23-64-5.73C557.2,858.77,570.36,817.93,575.48,802.07Z"/><path class="cls-6" d="M723.71,718.49l-67.05,146,17.74,1Q689.67,822.4,705,779.28l23.34,76.43a45.83,45.83,0,0,0,10.11,6.93,48.55,48.55,0,0,0,27.54,4.53q-3.78-15.3-7.83-30.77Q742.08,775.22,723.71,718.49Z"/><path class="cls-2" d="M572.56,812.35A586.24,586.24,0,0,1,615,732c16.45-26,34.76-51.68,55.85-74.13,10.38-11,23.84-21.41,39.78-21.06,15.12.34,26.19,11.48,34.37,23.08,17.41,24.69,31.54,52.43,44.47,79.65a719.5,719.5,0,0,1,38.71,100.37c.56,1.85,3.45,1.06,2.89-.8a726.45,726.45,0,0,0-34.78-92c-13.66-29.8-28.94-59.7-47.42-86.84-6.87-10.09-15.39-20.17-27.22-24.41-13.13-4.7-27.46-.52-38.54,7.18-12.63,8.78-22.37,21.47-31.94,33.34q-14.8,18.38-28.1,37.9A585.73,585.73,0,0,0,570,810.84c-.76,1.75,1.82,3.28,2.59,1.51Z"/><path class="cls-2" d="M722.26,718.09,673.35,860.93c-.62,1.83,2.27,2.61,2.9.79l48.91-142.84c.62-1.83-2.27-2.61-2.9-.79Z"/><path class="cls-2" d="M702.13,778.43q13.3,38.54,24.72,77.67c.53,1.85,3.43,1.07,2.89-.79Q718.33,816.18,705,777.63c-.62-1.82-3.52-1-2.89.8Z"/><path class="cls-2" d="M727.82,858.33c14.65,11.68,38.14,11.9,55.74,8.91a97.41,97.41,0,0,0,28.64-9.63c7.64-4,15.69-9,18.26-17.72a1.5,1.5,0,0,0-2.89-.8c-2.54,8.65-11.54,13.36-19.11,17.06a94.85,94.85,0,0,1-25.69,8.19c-16.37,2.79-39.18,2.75-52.83-8.13-1.5-1.19-3.63.91-2.12,2.12Z"/></g><g id="torso"><path class="cls-7" d="M349.39,579.6c-13.23,23.28-10.72,45.92-6.57,83.37,3.92,35.27,13.58,71.16,60.49,171,11.69,24.88,27.8,58.2,48.05,97.28A136.4,136.4,0,0,0,494.73,930c64.42-12.31,98.88-68.57,106.65-82a682.06,682.06,0,0,1-30.47-72.67c-6.06-17.2-26.15-76.48-39.85-165.26-7.72-50-5.56-58.61-16.41-69.15C479.44,506.7,381.16,523.71,349.39,579.6Z"/></g><g id="head"><path class="cls-2" d="M360.29,489.78c-1.94,6.82,4.88,15,10.56,18.85,7.8,5.28,19.36,6.37,28.14-.26s12.58-19.41,8.3-25.88C399.59,470.85,364,476.65,360.29,489.78Z"/><path class="cls-4" d="M505.43,381.63a16,16,0,0,0-6.26-9.91c-7.6-5.35-18.9-.43-24.29,1.92-12.25,5.33-19.53,14.68-23.29,20.66-6.35-3.5-18.1-8.7-32.71-7.74-31.45,2.06-49.21,30.86-53.66,38.08-14.68,23.79-13.12,47.67-12.53,55.12a95.25,95.25,0,0,0,8.16,31.64,69,69,0,0,0,23.59-.17c5.68-1,14.49-3.41,29.37-12.91,8-5.13,29.32-19.67,50.36-48a221.82,221.82,0,0,0,15.35-23.68,65.66,65.66,0,0,0,14.32-14.06c6.12-8.21,8.35-15.25,10.59-22.31C505.35,387.35,506,384.77,505.43,381.63ZM401.51,496.81a69.34,69.34,0,0,1-20.36,7.79,23.89,23.89,0,0,1-12-.51c-4.05-1.36-4.66-3.14-4.81-3.62a5,5,0,0,1,0-2.71c.58-2.14,2.17-3.06,4.08-3.83a4,4,0,0,1,3.76.15,36.64,36.64,0,0,0,6.64-.86c10.89-2.48,15.19-9,19-7.46C399.49,486.46,401.29,489,401.51,496.81Z"/><path class="cls-1" d="M361.4,513.38q5,8,9.83,16.53c8.52,14.91,15.93,29.45,22.39,43.42a38.4,38.4,0,0,0,13.88,3.11c17.28.51,30.39-11.55,38.55-19.28,32.17-30.45,61.64-63,71.19-73.69q-2.13-5.78-4.7-11.75a241.88,241.88,0,0,0-28.41-49c-3.07,3.85-7.65,9.6-13.16,16.61-23.9,30.36-23.51,31-29.07,36.85-8.2,8.7-21.44,22.45-42.57,30.63A99.37,99.37,0,0,1,361.4,513.38Z"/><path class="cls-2" d="M425.32,491.8a128,128,0,0,1-63.92,21.58q8.12,14,16.22,28c.52,1.45,6.5,17.55,18.08,18.86,7.76.87,13.88-5.38,22.84-14.54a112.69,112.69,0,0,0,19.73-27.51c-1.84-.17-7.21-.93-10.39-5.19-1.69-2.27-2.05-4.6-2.59-8.31A44.83,44.83,0,0,1,425.32,491.8Z"/><path class="cls-8" d="M385.36,554.48a15.17,15.17,0,0,0,10.34,5.8,14.6,14.6,0,0,0,8.58-2l7.11,17.7c-1.84.64-7.19,2.22-12.52-.23-3.67-1.69-5.56-4.53-7.83-7.93A39.42,39.42,0,0,1,385.36,554.48Z"/><path class="cls-9" d="M425.32,491.8A47.74,47.74,0,0,0,440.49,486c8.85-5.29,13.56-12.19,16.49-16.48,8.42-12.34,18.33-26.84,29.42-43.71l-1.59-4.13A100.26,100.26,0,0,0,463,452.41C458.86,461.14,449.22,473.88,425.32,491.8Z"/><path class="cls-2" d="M449.25,471.72a34.2,34.2,0,0,0,10.14,14.2c9,7.38,23.1,10.61,33.69,6.09,5.57-2.37,7.53-5.76,14.49-6.81a27.35,27.35,0,0,1,12.3,1.13c14.42,4.33,26,19,30.44,34.09a55.58,55.58,0,0,1-8.53,47.89V548.42a77.51,77.51,0,0,1-21.1,21.51c-5.12,3.47-41.19,27-67,8.54-16.3-11.67-22.91-36.1-15.83-60.07a23.93,23.93,0,0,0,7.07-9.55c3.81-9.65.58-21.52-7.86-30.81Z"/><path class="cls-2" d="M487.06,429.58c10.92,17.17,21.82,34.51,28.38,53.9l1.44-1.9a27.27,27.27,0,0,1-7.6-.2c-1.89-.31-2.7,2.58-.8,2.9a30.71,30.71,0,0,0,8.4.3,1.52,1.52,0,0,0,1.45-1.9c-6.64-19.64-17.61-37.22-28.68-54.61-1-1.63-3.63-.12-2.59,1.51Z"/><ellipse class="cls-2" cx="479.84" cy="461.97" rx="3.17" ry="8.55" transform="translate(-166.7 301.81) rotate(-30)"/><path class="cls-2" d="M441.82,490.92c-1-4.27-7.81-2.85-10.67-1.68a16,16,0,0,0-9.28,10.7c-3,10.88,4.72,21.91,16.4,19.91,1.9-.32,1.1-3.22-.79-2.89-8.75,1.49-14.56-6.65-13-14.8a14.07,14.07,0,0,1,3.93-7.6c.68-.65,9.8-6.07,10.55-2.84.45,1.88,3.34,1.08,2.9-.8Z"/><path class="cls-2" d="M361.3,511.05c-5.19-17.23-9.14-34.21-6.46-52.27a93.17,93.17,0,0,1,19.3-44.52c9.95-12.37,23.74-22.69,39.64-25.56,18-3.25,34.49,5.28,48.94,15,1.6,1.08,3.1-1.52,1.51-2.59-11.51-7.76-24.15-14.78-38.24-16-12.94-1.12-25.72,3.36-36.33,10.6-21.67,14.77-35.23,40-38.18,65.78-2,17.42,1.93,33.74,6.93,50.32.56,1.85,3.45,1.06,2.89-.79Z"/><path class="cls-2" d="M359.71,512.68c25.41,5.56,50.81-8.2,70.22-23.43,20-15.69,35.89-36.07,47.8-58.44.9-1.7-1.68-3.22-2.59-1.51-11.06,20.76-25.52,39.73-43.63,54.84-19.09,15.92-45.26,31.28-71,25.65-1.88-.41-2.69,2.48-.8,2.89Z"/><path class="cls-2" d="M452.65,395.36a77.37,77.37,0,0,1,23.49-18.74c4.95-2.54,10.87-5.35,16.58-5,7.15.41,11.59,5.46,11.24,12.52-.47,9.36-5.65,19.92-11.15,27.33s-14.11,12-18.81,20.12a1.5,1.5,0,0,0,2.59,1.51c3.31-5.74,8.6-9.45,13.31-13.93a49.61,49.61,0,0,0,9.76-13.07c4.29-8.18,10.17-20.3,6-29.55-4.59-10.22-17.15-8.57-25.63-5a79.13,79.13,0,0,0-29.52,21.73c-1.25,1.45.86,3.59,2.12,2.12Z"/><path class="cls-2" d="M361.91,494.88c.85,7.07,3.25,12,11,12.12,10.3.21,20-4.15,29.21-8.28,1.76-.78.24-3.37-1.51-2.59-6.2,2.79-12.51,5.63-19.21,7-3.24.67-7.28,1.46-10.58.7-4.68-1.07-5.41-4.86-5.9-8.95-.23-1.89-3.23-1.92-3,0Z"/><path class="cls-2" d="M363.85,495.58c12.47-1,24.2-3.67,35.37-9.43l-2.2-.9,3.49,12.08a1.5,1.5,0,0,0,2.89-.8l-3.49-12.08a1.52,1.52,0,0,0-2.2-.9c-10.72,5.53-21.89,8.11-33.86,9-1.92.14-1.93,3.14,0,3Z"/><path class="cls-2" d="M358.83,512.07a584.36,584.36,0,0,1,33.49,62c.82,1.75,3.4.23,2.6-1.52a586.11,586.11,0,0,0-33.5-62c-1-1.64-3.61-.13-2.59,1.51Z"/><path class="cls-2" d="M394,574.26c4.92,5.31,13.72,4.13,20.11,2.76a47.41,47.41,0,0,0,22.54-12c1.41-1.33-.72-3.45-2.12-2.12a44.58,44.58,0,0,1-18.17,10.52c-5.71,1.65-15.61,3.76-20.24-1.23-1.31-1.42-3.43.7-2.12,2.12Z"/><path class="cls-2" d="M482.83,423.48A356.38,356.38,0,0,1,516,484.23l.89-2.21a18.31,18.31,0,0,1-12.56-2.34,1.5,1.5,0,0,0-1.51,2.59,21.64,21.64,0,0,0,14.87,2.64c1.07-.17,1.23-1.41.9-2.2A356.76,356.76,0,0,0,485.42,422c-1.08-1.58-3.68-.09-2.59,1.52Z"/></g><g id="leg_right" data-name="leg right"><path class="cls-1" d="M451.36,931.21A118.76,118.76,0,0,0,459.27,949s10.68,19.52,26.14,32.59c5.53,4.67,24.29,18.27,109.86,5.21,26.82-4.09,23-5.13,82.25-16.82,4.71-.93,32.27-6.09,87.4-16.41,23.78-4.46,47.05-8.81,78.44-16.28,9.93-2.37,18.16-4.44,23.85-5.91a51.71,51.71,0,0,0,19-40.73,52.87,52.87,0,0,0-6-22.63c-11.26-21.26-34.86-27-39-27.92-12.91-1.13-32.14-2.41-55.54-2.39-31.27,0-54.94,2.34-91.81,6.06-17.33,1.75-40.93,4.38-69,8.26l-23.46-4a179.18,179.18,0,0,1-25.58,34.74c-9.58,10.19-26.41,27.69-54,39A142.48,142.48,0,0,1,451.36,931.21Z"/><path class="cls-8" d="M453.68,934.28a107.48,107.48,0,0,0,11.51,9.87c33.62,25,73.52,23.71,130.87,18.06,92.81-9.16,139.21-13.73,189.52-31.59a549.74,549.74,0,0,0,99.84-47.23,53,53,0,0,1,0,16.74c-.89,5.56-3,18.45-13.85,27.22a35.67,35.67,0,0,1-15.91,7.21c-14.39,3.21-35.51,7.87-61.11,13.31-110.15,23.39-92.92,16.55-162.73,31.61-27.92,6-55.15,12.4-93.43,12.75-34.57.32-50.55-4.54-62.67-15C460,963.68,455.3,944.62,453.68,934.28Z"/><path class="cls-2" d="M451,930.52c7.12,23.74,18.77,45.19,43.47,53.72,26.68,9.21,57.61,6.54,85.09,3.14,30-3.73,59.9-9.23,89.71-14.46q46.69-8.19,93.22-17.38,51.36-10.14,102.48-21.49c1.89-.42,1.09-3.31-.8-2.89q-86.79,19.25-174.31,35.06c-29.11,5.26-58.28,10.3-87.51,14.89s-59.59,8.55-89.19,4.38c-14.43-2-28.87-6.66-39.34-17.26S458,943.56,453.84,929.72c-.55-1.84-3.45-1.06-2.89.8Z"/><path class="cls-2" d="M627.67,852.44q67.8-8.57,136.09-12.24c22.42-1.19,45.8-3.62,68.13-.4,21.11,3.05,41.11,13.13,49.3,33.91s.91,44.82-17,58.09c-1.53,1.14,0,3.74,1.52,2.59,14.86-11,23.68-29.2,21.74-47.78A53.7,53.7,0,0,0,857.06,844c-21.27-10.21-45.82-8.85-68.75-7.93q-37.34,1.5-74.59,4.48-43.12,3.45-86.05,8.9c-1.89.24-1.92,3.24,0,3Z"/></g><g id="hand_right" data-name="hand right"><path class="cls-1" d="M508,530.39c-2.84,2.63-11.51,11.16-20,34.54a173.93,173.93,0,0,0-8.9,35.08c-6,45.08-9.38,85.3-10.05,94.56-2.55,35.37-3.82,53.06-4.54,73.31-.49,13.58-.51,19.7-1.62,56.94-1.08,36.48-1.16,31.18-1.25,39.9-.34,36.28.23,62.64,1.87,90.32.94,15.88,2,29.07,2.9,38.22,1.91,4.08,5.33,9.55,11.36,12.47,7.58,3.66,15.43,1.45,19.9.38,13.19-3.18,9,.51,45.79-2.31,10.37-.8,17-1.46,18-4.91.74-2.41-1.5-5.29-3.69-7.47,8.71-.25,16.32-.86,22.59-1.53,9.27-1,14.37-2,19.2-5.7a25,25,0,0,0,4.75-4.83,27.83,27.83,0,0,0-9-5.54c-7.45-2.72-13.49-1-22.22,0-9.5,1.13-7-.33-24.54.47-7.51.34-18.13,1.06-31,2.77,1.26-16.75,3.14-41.59,5.45-71.73,4.62-60.43,6.94-90.65,8.29-106,5.37-60.67,7.8-68.65,14-132,0,0,3.95-20.89,9.22-112.1a64.87,64.87,0,0,0-2.16-18.4c-2-7.6-4.3-10.77-6.14-12.71a23.22,23.22,0,0,0-9.37-5.91C524.84,514.77,512.14,526.53,508,530.39Z"/><path class="cls-10" d="M525.55,518.79c-4.29,9.17-10.17,22.53-16.14,39-22.11,61-25.31,109.07-28.88,154.28-10.25,129.85-23.72,238.46,7.6,264.47A115.57,115.57,0,0,0,510.93,991c25.68,11.74,46.38,7.81,46.54,10.36.2,3.28-34.25,5.88-64.14,5.74-9.51,0-18.56-.51-24.11-6.79-5-5.61-4.29-12.62-4.6-28.25-.5-24.51-1.82,8.75-2.06-35.06-.65-119.77,2.57-181.64,2.57-181.64,3.35-64.25,4.11-40.48,7-95.79,0,0,1.79-33.64,12.54-84.12,1.94-9.08,5.23-23.47,16.55-37.25A76.69,76.69,0,0,1,525.55,518.79Z"/><path class="cls-2" d="M466.84,985.44c-4.65-64.79-4.59-129.81-1.91-194.69,1.34-32.47,3.32-64.9,5.67-97.31,2.26-31.22,4.14-62.66,10-93.46,4.81-25.32,11.63-55.64,32.94-72.54,6.22-4.94,14.63-9.67,22.84-7.73,5.77,1.36,9.72,5.87,12.16,11.06,5.51,11.74,4.66,26,4.47,38.61-.48,32-4.88,63.69-8.94,95.35q-6,47.14-10.61,94.47c-7.05,72.36-12,144.9-16.93,217.43-.13,1.92,2.87,1.92,3,0C524.1,909.37,528.68,842.11,535,775c3.16-33.88,6.75-67.72,11-101.49,4.15-33,9-66,9.95-99.24.46-16.75,3.6-54.5-20.61-57.79-12-1.64-23.86,7.47-31.32,16-8,9.14-13.34,20.28-17.31,31.67-10.28,29.48-13.58,61.32-16.19,92.25Q466.2,706.61,463.54,757c-3.64,67.48-4.92,135.16-1.32,202.68q.69,12.9,1.62,25.79c.14,1.91,3.14,1.93,3,0Z"/><path class="cls-2" d="M463.9,984.66c.55,9.57,2.58,20,13.32,22.48,5.77,1.35,12,.69,17.9.54q12-.3,23.93-.88c7.55-.37,15.11-.74,22.64-1.35,5.69-.47,12.43-.8,17.69-3.19,3.11-1.41,4.93-4,3.58-7.46-1.66-4.23-6.45-4.83-10.39-5.07-1.93-.12-1.92,2.88,0,3a24,24,0,0,1,3.87.44q5,.86,2.54,6c-1.63,1.36-5.38,1.66-7.4,2a121.15,121.15,0,0,1-14.59,1.57q-14.44,1-28.91,1.49c-8.81.33-18,1.27-26.85.47-11.39-1-13.76-10.16-14.33-20.08-.11-1.92-3.11-1.94-3,0Z"/><path class="cls-2" d="M532.25,992.28a132.49,132.49,0,0,1,22,.57c1.92.22,1.9-2.79,0-3a132.49,132.49,0,0,0-22-.57c-1.92.11-1.93,3.12,0,3Z"/><path class="cls-2" d="M518.7,978.11c6.12,1.55,12.22,1.23,18.46.77,7.44-.54,14.89-.88,22.34-.92a322.94,322.94,0,0,1,44.82,2.9c1.91.26,1.89-2.75,0-3A326.78,326.78,0,0,0,561.46,975q-10.76,0-21.48.73c-6.89.46-13.69,1.25-20.48-.46-1.88-.48-2.67,2.41-.8,2.89Z"/><path class="cls-2" d="M552.48,992.43c10.47-.31,21.16,0,31.55-1.45,8-1.1,15.71-3.71,21.23-9.9,1.28-1.44-.83-3.57-2.12-2.13-5.92,6.66-14.46,8.71-23,9.47-9.16.8-18.44.73-27.63,1-1.93.05-1.93,3.05,0,3Z"/><path class="cls-2" d="M522.6,977.07c12.76,1,25.47-.11,38.18-1.25,6.05-.54,12.11-1.08,18.17-1.35,6.53-.29,14.54-1.23,19.91,3.26,1.48,1.23,3.61-.88,2.12-2.12-8.86-7.4-24-4.18-34.46-3.3-14.63,1.24-29.23,2.9-43.92,1.76-1.93-.15-1.92,2.85,0,3Z"/></g></g><g id="girl"><g id="leg_right-2" data-name="leg right"><path d="M1099.61,829.55c1,.74,2,.45,11,2.64,4.84,1.17,5.64,1.52,6.4,2.17,3.86,3.3,2.5,10.77,2,13.51-1.4,8.63,2.13-4.42.57,39.19-.78,21.93-1.9,31.82,2.69,33.88a6.67,6.67,0,0,0,5.52-.52c4.31-2.38,4.67-9.25,4.87-12,.86-11.74,2.94-4.18,7.92-33.1a328.93,328.93,0,0,0,4.52-36.92c.75-11.91.74-22.5.41-31.39q-7.5-1.31-15.54-3.09c-8.73-2-16.89-4.21-24.45-6.58C1096.32,820.27,1096.83,827.6,1099.61,829.55Z"/><path class="cls-1" d="M1118.12,693.45c-5.18-.24-13.26-.68-29.69-1.44-37.45-1.74-34.18-1.29-54-2.3-16.17-.83-32.38-.64-48.53-1.72-13.08-.87-22-1.81-31.14,3.66s-13.3,14.33-15,18c-6.11,13.07-4.37,25.23-3.41,31.86a74.16,74.16,0,0,0,11.24,29c7.12,11.09,15.47,18.11,26.7,26.22,16.06,11.59,35.24,25.25,65.75,37.95a315.45,315.45,0,0,0,57.93,17.8,107.19,107.19,0,0,1-.61-20A111.63,111.63,0,0,1,1111.54,785a170.38,170.38,0,0,0,26.71,7.46c7.51,1.45,34.87,6.21,70.67-1,17.95-3.61,28.88-5.82,41.71-13.71,19.93-12.25,42.89-37.25,36.85-55.85-1.59-4.88-5.7-11-22-18.42C1223.62,684.3,1190.39,696.83,1118.12,693.45Z"/><path class="cls-11" d="M1001.42,724.54a313,313,0,0,1,81.67,17c34.09,12.06,36.91,19.79,63.8,26,48.33,11.18,87.52-2.63,90.44,6.82.65,2.12-.38,5.88-9.49,12.88a209.94,209.94,0,0,1-29.16,6,227.59,227.59,0,0,1-54.86.17,237.75,237.75,0,0,1-33.44-6.29l-6.21,14.46a224.16,224.16,0,0,0-15.37-17.38c-15.49-15.78-29.41-25.29-41.45-33.43A356.28,356.28,0,0,0,1001.42,724.54Z"/><path d="M940.24,710.46c3.84-18.34,24.7-21.36,40.29-21.11,18,.28,35.92,1.16,53.86,1.86q54.93,2.13,109.81,5.12c1.93.1,1.93-2.9,0-3q-59.84-3.26-119.71-5.5-14.84-.55-29.69-1.05c-9.18-.3-18.5-1-27.65.11-13.18,1.63-26.86,8.74-29.8,22.78-.39,1.88,2.5,2.68,2.89.79Z"/><path d="M938.28,709.25a69.27,69.27,0,0,0-1,43.58c4.51,14.56,14.1,26.47,25.42,36.4,23.63,20.73,51.94,36.82,81,48.55a306.21,306.21,0,0,0,53.84,16.11c1.89.38,2.7-2.51.8-2.89a304.71,304.71,0,0,1-85.56-31.14A300.42,300.42,0,0,1,975,795.39c-12.42-9.44-24.48-20.3-31.39-34.56A66.07,66.07,0,0,1,941.18,710c.65-1.82-2.25-2.6-2.9-.79Z"/><path d="M1001,726a564.94,564.94,0,0,1,115,44.81c1.71.89,3.23-1.7,1.52-2.59a568.93,568.93,0,0,0-115.74-45.11,1.5,1.5,0,0,0-.8,2.89Z"/><path d="M1115.41,770.86c-10.11,26.16-22.73,53.5-18.65,82.23.27,1.9,3.16,1.09,2.89-.8-4-28,8.81-55.15,18.65-80.63.7-1.81-2.2-2.59-2.89-.8Z"/><path d="M1108.78,798.49a116.31,116.31,0,0,0,34,8.49c1.92.18,1.91-2.82,0-3a113.62,113.62,0,0,1-33.17-8.38c-1.78-.74-2.55,2.16-.8,2.89Z"/><path d="M1099.21,831l10.23,2.45c2.77.66,4.34.73,6.32,2.85,2.12,2.28,1.81,4.23,1.8,7.18,0,8.55,0,17.1.15,25.65s.36,17.1.67,25.64c.27,7.58-.21,15.85,1.12,23.32.65,3.62,3.35,6.14,7.16,4.72,5.06-1.88,6-9.2,7.38-13.65a314.79,314.79,0,0,0,10.33-48,321.6,321.6,0,0,0,2.68-54.16c-.06-1.93-3.06-1.94-3,0a317.5,317.5,0,0,1-3.24,58q-2.1,14-5.46,27.82-1.68,6.89-3.67,13.7c-.62,2.12-1.25,4.23-1.92,6.33-.33,1.09-.69,2.18-1.06,3.26q-6.65,6-6.35.32c-1.86-19.54-1.65-39.56-1.77-59.17,0-4.6,0-9.21,0-13.81,0-2.91.31-6.4-1.43-9-1.32-1.92-3.33-2.55-5.48-3.16-4.49-1.26-9.11-2.18-13.64-3.26-1.88-.45-2.68,2.44-.8,2.89Z"/><path d="M1112.78,787.69a191.86,191.86,0,0,0,118.11-.58c1.83-.6,1-3.5-.8-2.89a189.1,189.1,0,0,1-116.52.58c-1.84-.59-2.63,2.31-.79,2.89Z"/></g><g id="torso-2" data-name="torso"><path class="cls-5" d="M1153.13,475.11c21.86-18.56,52.42-15.25,78.78-12.61a182.57,182.57,0,0,1,72.86,23.66c-1.31,7.59-3.53,19.88-6.68,35-8.67,41.51-13.37,51.27-18.59,82.8-3.42,20.59-4.79,36.76-5.68,47.51-1.87,22.66-2.34,42.72-2.2,59.4a187.28,187.28,0,0,1-157.57-17,225.36,225.36,0,0,0,15.12-67.91c1.93-31.11-4.29-38.9-2.13-70.2S1131.34,493.61,1153.13,475.11Z"/></g><g id="hand_right-2" data-name="hand right"><path class="cls-1" d="M1160.57,471.12c1.71,1.47-6.7,10.4-14.61,29.12-4.78,11.31-7.16,21.91-11.74,42.64s-4.31,23.56-7.26,36.69a321.69,321.69,0,0,1-15.8,50.32,96.34,96.34,0,0,1,8.84,6.71c7.08,6,9.83,10.11,15,16,7.08,8,13.48,13.23,26.28,23.79,5.2,4.29,9.67,7.75,12.93,10.21,4.6-.29,9.54-.44,14.78-.37,4.41.06,8.61.26,12.55.57q10.5-5.35,12.25-3.29,1.14,1.35-1.47,5.88a31.85,31.85,0,0,0,12.65-3.18c6.55-3.24,9.14-7.58,14.13-7,2.1.24,4.75,1.37,5.08,3.11.36,1.9-2,4.5-6.25,6a47.65,47.65,0,0,0,10.28-3c2.4-1,3.63-1.77,5.26-1.49,3,.51,4.88,4.11,6,7.2a10.51,10.51,0,0,1-.23,5.61c-1.45,4.31-5.69,6.43-8.35,7.62-14.1,6.29-32.52,8.66-32.52,8.66-17,2.18-25.48,3.27-31.56,2.84-8-.58-13.85-2.14-25.53-5.26a256.41,256.41,0,0,1-33-10.83c-11.69-4.8-24-9.94-37.95-20.11-19-13.85-22.69-23.7-23.71-26.74a43.9,43.9,0,0,1-2-15.71c.21-14,5.25-21.92,14.14-42.28,6.92-15.84,4.2-11.78,12.45-31.05,8.46-19.78,12.7-29.66,19.62-40.87a190.39,190.39,0,0,1,19.65-26.33C1142.45,483.23,1158.32,469.2,1160.57,471.12Z"/><path class="cls-9" d="M1149.6,477.77a202,202,0,0,0-20,23.93c-17.56,24.7-24.3,46.09-34.44,79.21-12.91,42.18-10.69,52.41-8.18,59,4.36,11.38,12.17,18.4,22.82,26.69,17.48,13.62,44.24,31.91,81.82,49.11a84.58,84.58,0,0,1-20.47.92c-3.85-.3-15.39-1.47-45.33-16.22-21.85-10.77-32.95-18.64-40.54-24.72-11.28-9-15.06-14.29-17.33-20-3.82-9.68-2.56-18.75-1.51-25.76,1.82-12,5.76-19.7,10.27-29.46,13-28.16,8.8-26,21.71-53.22,8.06-17,12.09-25.47,19.56-36A162.85,162.85,0,0,1,1149.6,477.77Z"/><path class="cls-2" d="M1159.81,469.83c-26.29,17.39-45.91,41.46-59.4,69.8-15.14,31.8-27.56,65-38.19,98.6-.58,1.85,2.31,2.64,2.89.8a783.77,783.77,0,0,1,37.08-96.18c13.4-28.57,32.67-52.92,59.13-70.43,1.61-1.06.11-3.66-1.51-2.59Z"/><path class="cls-2" d="M1063.25,636.72c-3.48,24.55,21.67,42.55,40.36,53,22.92,12.88,48.56,19.89,73.78,26.72a1.5,1.5,0,0,0,.8-2.89c-22.89-6.2-46-12.51-67.26-23.31-18.85-9.59-48.32-27.83-44.79-52.77.27-1.89-2.62-2.71-2.89-.8Z"/><path class="cls-2" d="M1158.84,471.65c-15.07,20.63-19.91,46.63-26.08,70.9l-21.53,84.62c-.48,1.87,2.42,2.67,2.89.8q10.53-41.36,21-82.7c6.26-24.61,11-51.18,26.28-72.11,1.14-1.56-1.47-3.06-2.6-1.51Z"/><path class="cls-2" d="M1104.67,629.45c7.42,1.26,12.66,6.33,17.58,11.67s10,10.87,15.28,16.06a326,326,0,0,0,34.32,29.19c1.55,1.15,3.05-1.46,1.51-2.59a319.31,319.31,0,0,1-37.58-32.59c-8.71-8.84-17.17-22.4-30.31-24.64-1.89-.32-2.7,2.57-.8,2.9Z"/><path class="cls-2" d="M1181.85,697.3c6.64-4.4,14.34-6.84,21.72-9.69a32.39,32.39,0,0,1,5-1.92q2.55-1.91,3.6,1.8l-.85.81c-.89,2.61-8.18,6.05-10.46,7.3-1.69.92-.18,3.51,1.51,2.59,2.61-1.43,21.16-12.87,11.25-16.39-2-.71-4,.3-5.85,1-3.33,1.24-6.64,2.56-10,3.84-6,2.32-12,4.49-17.45,8.07-1.6,1.06-.1,3.66,1.51,2.59Z"/><path class="cls-2" d="M1178.29,717.13a196.1,196.1,0,0,0,77-12.9c1.78-.69,1-3.59-.8-2.9a193.78,193.78,0,0,1-76.23,12.8c-1.93-.06-1.93,2.94,0,3Z"/><path class="cls-2" d="M1203.44,700c10,3.09,20.23,1.14,30.19-1.34,5.53-1.37,11-2.8,16.57-4.21,2.77-.7,10.65-4.37,7.07,2.36-1.14,2.14-3.83,4-5.64,5.57-1.48,1.25.66,3.37,2.12,2.12,2.8-2.39,9.73-7.71,8.5-12.22-1.3-4.75-6.92-2.23-10.06-1.43-15,3.82-32.49,11-48,6.26-1.85-.57-2.64,2.33-.79,2.89Z"/><path class="cls-2" d="M1171.79,687c7.67,4.59,16.38-2,24,1.84,1.73.86,3.25-1.73,1.52-2.59-7.76-3.84-16.74,2.52-24-1.84a1.5,1.5,0,0,0-1.52,2.59Z"/><path class="cls-2" d="M1214.19,690.24a56.68,56.68,0,0,0,19.71-6.38c1.4-.77,2.73-1.67,4.13-2.42a14.59,14.59,0,0,1,3.82-1.6l-.36,3.78c-1.51,3-8,5.69-10.74,7.1-1.72.87-.21,3.46,1.51,2.59,4.24-2.14,9.81-4.87,12.52-9,1.31-2,2.51-5.87-.21-7.3-3.67-1.93-9.31,2.68-12.18,4.25a54.7,54.7,0,0,1-19,6.07c-1.91.26-1.1,3.16.8,2.9Z"/><path class="cls-2" d="M1233.87,693.21a101.37,101.37,0,0,1,10.89-5.05c1.65-.64,3.33-1.23,5-1.76l1.7-.52c2-1,3.61-.25,4.91,2.17-1.91.12-1.93,3.12,0,3,5.12-.31,5.36-6.57.86-8.36-3.43-1.37-7.57.53-10.78,1.67a101.48,101.48,0,0,0-14.11,6.26c-1.7.91-.19,3.5,1.52,2.59Z"/></g><g id="cat"><path d="M1077,616.39c-5.62-.76-9.14-3.82-8.94-5.79s4.33-4.29,10.08-3.81c5.63-8.7,10.54-11.86,14.41-12.75l.09,0a29.69,29.69,0,0,1,13.45-.09c3.19-4.34,8.09-5,9.92-3.38s1.78,6-1.43,9.74a45.79,45.79,0,0,0,5.15,3.08,48.31,48.31,0,0,0,8.5,3.42,111.51,111.51,0,0,1,20.3,3.5c13,3.52,22.07,8.49,29.09,12.41,13.54,7.59,20.19,11.59,25.45,19.11,8.52,12.19,8.56,26.4,7.58,35.07a63.2,63.2,0,0,0,16.76,3.68c15.33,1.19,20.1-4.28,29.16-2.52,17.7,3.45,28,29.86,26,31.53-.9.75-5.16-2.72-11.85-8.17-6.89-5.61-7.54-7.29-11-9-6.24-3-11.7-1.34-17.58-.82-6.94.62-17.19-.13-30.65-6.94a10,10,0,0,1-5.31,3.67c-2.27.57-3.93-.07-7.3.89-1.37.39-2.26.9-2.72,1-4,1.19-9,1-25.44,1.36-7.47.15-12.55.31-20.5.08-15-.43-15.53-1.53-15.61-1.89-.27-1.28,3.14-3.91,20.75-9.9a67.17,67.17,0,0,0-9.72-15.18,69,69,0,0,0-28.91-19.9,85.43,85.43,0,0,0-15.07,10.63c-14.82,13.1-19.95,27-22.58,26-2.06-.83-.62-10.11,1.73-17a53.87,53.87,0,0,1,16-22.85,47.45,47.45,0,0,0-7.13,7.79c-10.89,14.5-11.93,28.4-14.25,28.13-1.7-.19-2.41-8-2.21-14.5a69,69,0,0,1,7.46-28.86Q1078.77,625.25,1077,616.39Z"/><path class="cls-1" d="M1088.34,613.31a6.05,6.05,0,0,1-2.78,4.81c-1.61,1-.11,3.64,1.52,2.59a9.22,9.22,0,0,0,4.26-7.4c.09-1.93-2.91-1.92-3,0Z"/><path class="cls-1" d="M1099.28,610.58a7.47,7.47,0,0,0,8.78,1.49c1.73-.84.21-3.43-1.52-2.59a4.4,4.4,0,0,1-5.14-1c-1.33-1.41-3.45.72-2.12,2.12Z"/><path class="cls-1" d="M1095.69,619.19a1.5,1.5,0,0,0,0-3,1.5,1.5,0,0,0,0,3Z"/><path class="cls-1" d="M1094.33,619.19a5.56,5.56,0,0,1-1.29,3.44c-1.24,1.46.87,3.59,2.12,2.12a8.76,8.76,0,0,0,2.17-5.56c.06-1.93-2.94-1.93-3,0Z"/><path class="cls-1" d="M1095.86,620.36a7.31,7.31,0,0,0,6.17,1.86,1.51,1.51,0,0,0,1-1.85,1.54,1.54,0,0,0-1.84-1,4,4,0,0,1-3.24-1.08c-1.42-1.32-3.54.8-2.13,2.12Z"/></g><g id="hand_lef" data-name="hand lef"><path class="cls-1" d="M1286.16,485.44c-2.31.64-5.21,2.82-9.28,17.06-3.74,13.08-4.31,20.2-4.31,20.2-2.85,35.39-13.5,78.66-14.18,81.41-1.57,6.3-4.23,16.18-8.41,28.23-6.38-.13-13.1-.51-20.12-1.21a253.69,253.69,0,0,1-50.59-10.4,70.6,70.6,0,0,1-13-20.78c-1.61-4.08-3.53-10.21-9.32-15.46-1.09-1-5.51-5-7.6-3.78-1.67,1-1.53,5.11.23,10.31A186.35,186.35,0,0,0,1131,579c-16.85-9.45-22.53-9.2-26.08-8.32a20,20,0,0,0-8.27,4.42,10.5,10.5,0,0,0-4.56,7.47,9.91,9.91,0,0,0,1.59,6.21,8.58,8.58,0,0,0-1.78,7.66,8.44,8.44,0,0,0,4.91,5.32,7.17,7.17,0,0,0-.54,4.55c.58,2.34,2.49,3.62,4.21,4.83,8,5.62,5.75,5.17,11.47,8.66a85.47,85.47,0,0,0,10.2,5.32,108.41,108.41,0,0,0,11.58,12.15c6,5.39,12.65,11.24,22.82,14.91a54.78,54.78,0,0,0,9.92,2.55c11.45,4.55,21.76,8.28,30.58,11.28,13,4.43,23.3,7.48,28.25,8.91,17.86,5.17,14,3.17,28.06,7.38,5.57,1.67,10.48,3.27,17.7,3.73,10.67.69,15-1.85,16.25-2.68a20.16,20.16,0,0,0,7.38-9.45c10-23.42,12.87-57,12.87-57,2.44-28.58,3.66-43.17,3.59-58.28-.12-26.45-2.5-17-2.71-38.11,0,0-.14-14.2-6-25.18a19.09,19.09,0,0,0-4.9-6C1296.58,488.6,1291,484.1,1286.16,485.44Z"/><path class="cls-12" d="M1294.88,487.44c1,8.16,2.28,20.75,2.83,36.19,1.55,42.81-3.82,71.26-9.44,99.92-6.47,33-11,40.07-17.7,44.06-5.09,3-11.53,4.32-40.13-2-37-8.13-55.44-12.19-73.56-23.21-10.07-6.13-20.2-14-44.06-27.93-12.48-7.29-16.44-9.06-16.9-8.41-.63.9,5.46,6.56,11,10.6a72.81,72.81,0,0,0,15.18,8.45,111.61,111.61,0,0,0,11.58,12.15c6.85,6.17,14.63,13,26.33,16.19a47.22,47.22,0,0,0,6.41,1.27c17.19,6.53,32.19,11.76,44.26,15.79,41,13.7,27.8,6.73,46.67,13.05a48.39,48.39,0,0,0,16.34,2.57c4.35-.08,9.25-.17,13.57-2.79,5.74-3.47,7.65-9.69,10.19-18.88,4.8-17.39,7.21-26.08,8-31.53a463.24,463.24,0,0,0,5.26-61.74c.54-29.24-2.11-21-1.7-45.62.09-5.39.34-13.6-3.67-23A47.82,47.82,0,0,0,1294.88,487.44Z"/><path class="cls-2" d="M1287.85,486.65c18.51,2,18.73,29.4,20.08,43.09a363.53,363.53,0,0,1-15.77,147.1c-.59,1.84,2.3,2.63,2.89.8a368.74,368.74,0,0,0,17.61-108.74,363.8,363.8,0,0,0-3.56-54.39c-1.82-12.93-5.77-29.16-21.25-30.86-1.92-.21-1.91,2.79,0,3Z"/><path class="cls-2" d="M1286.69,483.18c-12.23,9.08-13.53,28.06-16.08,41.84-3.52,19.09-6.18,38.33-9.55,57.45-1.7,9.69-3.59,19.36-5.86,28.94-1,4.33-2.13,8.63-3.33,12.91-.82,2.93-1,6.25-4.72,7.19-2,.51-5.23-.45-7.26-.66a380.56,380.56,0,0,1-60.22-11.56,1.5,1.5,0,0,0-.79,2.89A384,384,0,0,0,1238,633.63c6.8.77,13.18,2.76,15.74-4.84,3.22-9.57,5.23-19.73,7.24-29.6,4.07-20,6.88-40.14,10.25-60.21,1.68-10,3.5-20.06,5.69-30,1.86-8.47,4-17.76,11.32-23.21,1.53-1.14,0-3.75-1.52-2.59Z"/><path class="cls-2" d="M1164,655.38a631.54,631.54,0,0,0,72.15,24.14c11.46,3.08,23.28,6.65,35.08,8.06,8.82,1,18.46-1,22.87-9.49.9-1.71-1.69-3.23-2.59-1.51-6,11.52-20.63,8.23-30.84,5.92q-16.5-3.75-32.78-8.37a635,635,0,0,1-63.09-21.64c-1.79-.72-2.57,2.18-.8,2.89Z"/><path class="cls-2" d="M1179.75,619c-4.77-5.82-8.31-12.4-11.76-19.06-2.82-5.46-5.42-11.62-9.64-16.19-2-2.15-6.48-6-9.71-4.31-3.88,2.05-1.64,9.09-.46,12,.72,1.76,3.62,1,2.9-.8-.66-1.62-2.42-5.62-1.44-7.24,1.62-2.69,5.21,1,6.59,2.47,3.3,3.52,5.42,8.34,7.61,12.57,4.11,7.9,8.12,15.77,13.79,22.68,1.22,1.5,3.34-.64,2.12-2.12Z"/><path class="cls-2" d="M1155.32,595.89c-9.17-11.46-23.11-18.69-36.35-24.43a27.92,27.92,0,0,0-19.47-1.25c-3.27,1-6.17,4.25-3.08,7.28,1.38,1.35,3.5-.77,2.12-2.12-.68-.66,3.53-2.63,4.12-2.81a20.07,20.07,0,0,1,5.78-.55,23.43,23.43,0,0,1,8.43,1.82,145.32,145.32,0,0,1,13.57,6.62c8.59,4.55,16.63,9.9,22.76,17.56,1.2,1.51,3.31-.63,2.12-2.12Z"/><path class="cls-2" d="M1097.22,605.34q2.38-3.71,5.69-2.28a32.54,32.54,0,0,1,4.51,1.68c2,.87,4.06,1.84,6.08,2.77a140,140,0,0,1,13.08,6.25,1.5,1.5,0,0,0,1.51-2.59,151.44,151.44,0,0,0-14-6.66c-4-1.84-8.28-4.23-12.72-4.82s-9.33,2.31-6.77,7.16c.9,1.71,3.49.2,2.59-1.51Z"/><path class="cls-2" d="M1098.18,600.14c-1.59-.62-5.64-3.25-5.51-5.65l3.26-4.44,1.72.05c3.19-.36,7.48,1.34,10.43,2.45,6.4,2.43,12.48,5.79,18.6,8.84,1.73.85,3.25-1.73,1.52-2.6-9.52-4.73-23.19-14.07-34.46-11.51-3.31.75-4.74,3.37-4.25,6.65.65,4.42,3.91,7.53,7.89,9.1,1.8.71,2.58-2.19.8-2.89Z"/><path class="cls-2" d="M1095.65,586.39l-2.1-3.79q.56-4.05,3.79-3.35a9.48,9.48,0,0,1,4,.62c2.81.88,5.55,2,8.3,3.09l16.44,6.24c1.8.68,2.59-2.22.8-2.9l-17.3-6.56c-4.15-1.57-9-4.27-13.64-3.58-6.37,1-7.34,10-1.84,12.82,1.71.89,3.23-1.7,1.52-2.59Z"/><path class="cls-2" d="M1095.17,607.4a52.72,52.72,0,0,0,16.08,13.78c2.87,1.58,6,2.7,8.79,4.42,3.89,2.4,6.32,5.92,9.27,9.26a71.16,71.16,0,0,0,34.58,21.36,1.51,1.51,0,0,0,.8-2.9,69.84,69.84,0,0,1-35.42-23.15c-4.43-5.31-9-7.71-15.08-10.83a51.25,51.25,0,0,1-16.9-14.06c-1.2-1.52-3.31.62-2.12,2.12Z"/></g><g id="leg_left-2" data-name="leg left"><path d="M1131.11,840.41c-4.58,4.26-8.56,7.51-11.37,9.7-11.07,8.65-16.54,10.74-19.48,17.62-.59,1.39-1.27,3.41-1.6,10.51a134,134,0,0,0,1.63,28.38c2.53,13.79,8.82,39.7,19.15,72.67a47.59,47.59,0,0,0,9.6-27.72c.38-9.82,2.87-29.68,8.07-63a55.33,55.33,0,0,1,23.08-20.35,133.56,133.56,0,0,1-29.08-27.86Z"/><path class="cls-1" d="M1235.07,686.33c-24.74,23.47-40.18,38.12-62,63.63a767.11,767.11,0,0,0-50.35,65.9,84.78,84.78,0,0,0,23.59,41.22c5.1,4.83,16.37,15.26,34.3,19.22a66.65,66.65,0,0,0,18.65,1.4,391.58,391.58,0,0,0,48.16-47.05c14.25-16.53,23.48-30.53,42-58.51,31.39-47.54,11.95-25.82,42.83-78.06,3.42-5.79,11.2-18.81,8.54-33.85-.52-2.92-2.49-14.07-11.34-18.88-1.57-.85-5.52-2.68-15.14-1.69a67.56,67.56,0,0,0-26.77,8.76C1253.85,668.52,1235.07,686.33,1235.07,686.33Z"/><path class="cls-13" d="M1334.76,645.52a235.65,235.65,0,0,1-9.57,29.55c-10.87,27.32-23.29,43.57-45.14,72.59-55.19,73.3-61.9,83.8-83.21,99.14a227.4,227.4,0,0,1-36.65,21.47,107.79,107.79,0,0,0,15.8,6.82c8.85,3,14.24,4.74,20.33,3.37,5.49-1.24,8.93-4.43,13.13-8.41,21.85-20.76,24.77-24.36,24.77-24.36,22.75-28,34.17-42.1,36.25-45,17.63-24.48,28.9-44.16,38.26-60.61,14.83-26.07,7.43-16.6,21.41-41.74,4.57-8.23,8.12-14.2,9.4-23.23C1341.28,662.85,1337.8,652.28,1334.76,645.52Z"/><path d="M1123.75,815a709,709,0,0,1,70.44-87q19.07-20.06,39.66-38.57c13.46-12.1,27.3-24.05,42.84-33.44a121.77,121.77,0,0,1,23.83-11.31c8.82-3,20-6.4,28.78-1.7,8.11,4.36,10.6,14.86,10.11,23.35-.59,10.21-4.92,19.79-9.37,28.84-15.33,31.15-32.06,61.77-51.25,90.73-21.92,33.08-47.42,63.85-77.83,89.5-1.47,1.24.66,3.36,2.13,2.12C1260.6,829,1300.36,762.78,1333,695.89c6.92-14.17,14.29-32.5,5.56-47.58-9.26-16-29.62-10.25-43.58-4.79-16.54,6.48-31.24,16.75-44.92,27.93-15.23,12.46-29.7,25.91-43.66,39.77a713,713,0,0,0-85.27,102.27c-1.1,1.6,1.5,3.1,2.59,1.52Z"/><path d="M1121.3,816.26a85.8,85.8,0,0,0,55.25,60.33c7.74,2.63,19,6.23,26.22.75,1.52-1.15,0-3.75-1.51-2.59-7.09,5.35-19.16.81-26.61-2a82.76,82.76,0,0,1-50.45-57.27c-.45-1.87-3.35-1.08-2.9.8Z"/><path d="M1130.05,839.35l-16.27,13.88c-4.45,3.8-10.18,7.46-13.72,12.14-2.9,3.83-2.8,8.64-2.91,13.24a173.41,173.41,0,0,0,.71,19.74c2.4,26.29,10,51.73,17.48,76.91.55,1.85,3.45,1.06,2.89-.8-7.09-23.72-14.27-47.67-17-72.37-.65-5.92-1-11.87-1.12-17.83-.07-6.15-1-13.79,3.67-18.49,8.65-8.76,19-16.3,28.38-24.3,1.47-1.25-.66-3.37-2.12-2.12Z"/><path d="M1159.43,867c-4.81,3.28-9.65,6.54-14.44,9.86-3,2.12-6.12,4.3-7.91,7.65-1.95,3.65-2.16,8-2.67,12l-2.17,17.38L1128,947.71c-1.33,10.61-2.26,22.14-9.65,30.52l2.5.66-2.08-5c-.73-1.76-3.64-1-2.9.8l2.09,5a1.52,1.52,0,0,0,2.51.66c5.51-6.25,7.82-14,9.12-22.08,1.65-10.22,2.66-20.56,3.94-30.83,1.36-10.94,2.66-21.89,4.09-32.83a27.06,27.06,0,0,1,1.82-8.06c1.51-3.25,4.19-5.12,7-7.12,4.77-3.35,9.63-6.58,14.45-9.86,1.58-1.09.08-3.69-1.52-2.59Z"/></g><g id="head-2" data-name="head"><path class="cls-1" d="M1166.08,321.85c-19,8.5-26.86,27.61-29.92,35.06-8.17,19.83-5.43,37.39-3,51.73,2.51,14.75,10.55,62.2,38,67.55,3.73.72,16.57,2.38,34.45-12.65l13.56,22.69a46.77,46.77,0,0,0,10.6-3.56c10.74-5.12,17-13.25,22.19-21,15.51-23.07,23.27-34.6,24.8-50,2.33-23.51-7.54-41.37-10.69-46.6-9.3-15.46-21.48-23.17-30.35-28.64C1221.8,327.78,1192.8,309.9,1166.08,321.85Z"/><path class="cls-14" d="M1227.87,362.06c-4.11,4.19-.3,10.39,0,25,.36,17.68-4.75,31.07-7.53,38.35-3.39,8.87-11,25.06-28.43,40.76a76.38,76.38,0,0,0,39-28.09q5.64,17.6,11.26,35.19a89.38,89.38,0,0,0,7-9.83,106.07,106.07,0,0,0,7.4-14.74c2.12-5.28,6.63-18.14,8.22-42.81,1.22-19.12,1.84-28.69-2.4-34.59C1254,359.51,1234.22,355.58,1227.87,362.06Z"/><path class="cls-4" d="M1172.05,331.06a48.75,48.75,0,0,0,3.29,24.41c1,2.35,10.83,24.85,33.8,28.17,13.57,2,24.32-3.85,28.32-6.31.79-1.3,3-4.49,6.56-5.1,5.86-1,10.71,5.73,12.47,9.25,2.66,5.32,3.37,13.45-1.55,19.52a18,18,0,0,1-11.49,6.2,96.88,96.88,0,0,0-1.15,23.74c.71,9.38,1.84,24.46,10.5,36.26,11.57,15.77,37.92,27.55,56.33,16.9,15.93-9.21,18.07-30.67,18.37-34.5.78-10-1.77-17.81-3.94-23.65-10.5-28.17-27-48.66-35-58.67-44.44-55.84-38.72-57.29-50-62.22-29-12.69-66.92-3.07-86.24,11.92-.35.26-.66.51-.71.56-21,16.76-27.46,41.2-29.34,48.73-6.51,26.19,4.3,26.69.36,63.79-2.56,24.09-7.73,29.6-4.58,46.06,1.33,7,5.19,26.41,21.63,36.69,19.53,12.22,52.22,8.57,64.45-12.47,8.95-15.4,2.87-33.1,1.51-36.8L1187.55,470a87.65,87.65,0,0,1-11.35-6.13,75.91,75.91,0,0,1-13.53-10.77c-14.89-14.92-19.41-32-21.18-39.11s-5.06-20.19-1.76-36.14C1145.31,350.85,1165.75,335.45,1172.05,331.06Z"/><path d="M1170.55,331.06a49.18,49.18,0,0,0,4.9,28.13,53,53,0,0,0,15.91,18.8,40.8,40.8,0,0,0,35.76,5.65,48.1,48.1,0,0,0,7.42-3c1.63-.81,3.54-1.59,4.56-3.12,1.43-2.14,3.66-4,6.36-3.91s5,2.15,6.74,4.11a19,19,0,0,1,4.69,15.15,15.27,15.27,0,0,1-11.48,12.4q-.66.18-1.32.3l-.64.11a1.57,1.57,0,0,0-1.45,1.11,101.41,101.41,0,0,0-1.16,24.67c.54,7.13,1.31,14.27,3.33,21.14A48.43,48.43,0,0,0,1255.75,473a57.1,57.1,0,0,0,17.92,12.33c13.23,5.78,29.32,6.64,40.88-3.22,8.62-7.36,12.76-18.87,14.17-29.85,1.94-15-4.07-29.32-10.55-42.54a217.93,217.93,0,0,0-23.78-37.43c-9-11.62-18.22-23-27-34.85-5.22-7.07-10.25-14.26-15.27-21.47-2.15-3.09-4.28-6.47-7.2-8.89a19.79,19.79,0,0,0-3.78-2.43,63.81,63.81,0,0,0-15.47-5.21c-15.81-3.32-32.58-1.75-47.91,3.11-14.35,4.55-27.38,12.14-37.25,23.63a93.38,93.38,0,0,0-18.13,33.94c-2.77,9.19-4.54,18.69-3.31,28.29.58,4.54,1.56,9,2.14,13.56a108.65,108.65,0,0,1,.58,19.92,180.57,180.57,0,0,1-3.38,25.46c-1.13,5.58-2.51,11.17-2.81,16.89a58.84,58.84,0,0,0,1.66,15.63,68.79,68.79,0,0,0,5.34,15.66,46.21,46.21,0,0,0,13.08,16.36,45.29,45.29,0,0,0,17.87,8.11c12.72,2.81,26.85,1.23,38.17-5.4a37.77,37.77,0,0,0,13.68-13.48,40.21,40.21,0,0,0,4.82-23.71,55.26,55.26,0,0,0-3.15-14.24,1.52,1.52,0,0,0-1.84-1.05l-18.12,6.48,1.15.15c-12.43-5.6-23.64-14-31.74-25a83.11,83.11,0,0,1-13.14-28.21c-2.84-10.79-4.53-21.76-3-32.91a69.25,69.25,0,0,1,14.32-33.18,83.92,83.92,0,0,1,18.06-17.05c1.57-1.1.08-3.7-1.51-2.59a86.66,86.66,0,0,0-18.1,16.79,72.83,72.83,0,0,0-15.9,37c-1.41,11.89.62,23.75,3.91,35.16a82.57,82.57,0,0,0,18.5,33.45,81.22,81.22,0,0,0,17.38,14c1.75,1.07,3.55,2.08,5.37,3,.75.38,1.5.76,2.26,1.12a13.28,13.28,0,0,0,2.43,1.11c.92.22,2-.44,2.89-.74l3.25-1.17,6.5-2.32,6.27-2.24-1.84-1.05c4.33,11.84,4.9,25.88-2.09,36.84-6.79,10.62-19.31,16.2-31.55,17.28-12.67,1.13-26.29-2-35.78-10.88-8.47-7.9-12.8-19-15-30.11a50.7,50.7,0,0,1-.9-15.78c.65-5.72,2.15-11.33,3.2-17,2.67-14.45,4-29.38,2-44-.59-4.26-1.52-8.48-2-12.75a51.32,51.32,0,0,1,.29-13.95,98.29,98.29,0,0,1,9.19-28.35c6.46-12.88,16-24.27,28.49-31.65a96.42,96.42,0,0,1,42.46-12.75c12.55-.81,26.07.66,37.42,6.43a19.06,19.06,0,0,1,1.82,1c.27.17.54.36.8.55s-.14-.13.13.1.27.21.4.33a23.07,23.07,0,0,1,3,3.23l.21.28c.16.2-.21-.28,0,0l.45.6.9,1.23c.71,1,1.41,2,2.11,3,1.93,2.77,3.85,5.56,5.8,8.33,7.1,10.09,14.51,20,22.07,29.72,8.15,10.51,16.72,20.71,24.17,31.74,9,13.3,17,27.81,21.84,43.15a51.28,51.28,0,0,1-.41,32.53,38.76,38.76,0,0,1-9.22,15.4,28.86,28.86,0,0,1-18,8c-14,1.08-28.35-5.78-38-15.61a45.73,45.73,0,0,1-11.13-19.89,102.11,102.11,0,0,1-3-20.14,97,97,0,0,1,1.09-23.34l-1.44,1.1a19.39,19.39,0,0,0,13.28-7.58c3.79-5.21,4.21-12.38,2-18.31-1.84-4.85-5.69-10.15-10.83-11.77a9.16,9.16,0,0,0-8.63,1.89,14.43,14.43,0,0,0-2.53,2.82,2.7,2.7,0,0,0-.35.53c-.14.32.48-.24,0,0a11.23,11.23,0,0,0-1.16.67c-10.67,6-23.83,7.6-35.22,2.57-8.63-3.82-15.49-10.82-20.29-18.85q-1.1-1.84-2-3.75-.33-.66-.63-1.32c-.1-.22-.45-1.05-.22-.48a47.58,47.58,0,0,1-3.52-20.76c.06-1.09.16-2.18.28-3.27C1173.78,329.15,1170.77,329.16,1170.55,331.06Z"/><path class="cls-2" d="M1139.41,361.37c-9.62,42,5,90.18,46.52,108.81,1.75.78,3.27-1.8,1.51-2.59-40.3-18.08-54.48-64.63-45.14-105.42.43-1.88-2.46-2.68-2.89-.8Z"/><path class="cls-2" d="M1187.85,470.2c12.71-3,23.59-10.26,33-19.08s17.7-18.73,21.14-31.2a1.5,1.5,0,0,0-2.89-.8c-3.31,12-11.46,21.55-20.37,29.88-9.07,8.48-19.47,15.46-31.7,18.31-1.88.43-1.08,3.33.8,2.89Z"/><path class="cls-2" d="M1240.64,419.47a85.89,85.89,0,0,0,9,40.72c.85,1.73,3.44.22,2.59-1.51a82.82,82.82,0,0,1-8.56-39.21c0-1.93-3-1.93-3,0Z"/><path class="cls-2" d="M1204.37,464.3c1.92,4,3.92,7.95,6.05,11.83,1.65,3,3.33,7.17,5.71,9.65,3.46,3.6,8,1.18,11.92-.59a48,48,0,0,0,15.16-10.78c3.32-3.52,8.7-9.26,8.25-14.42-.16-1.91-3.17-1.92-3,0,.39,4.39-5.11,10-7.91,12.84a45.05,45.05,0,0,1-12,8.78c-1.94,1-4.52,2.56-6.71,2.71-3.82.25-5.38-3.5-7-6.38-2.83-5-5.44-10-7.91-15.16-.84-1.74-3.42-.22-2.59,1.52Z"/><path class="cls-2" d="M1147,372c3.67-5.68,11.36-4.72,14,1.29.79,1.76,3.37.24,2.59-1.51a10.84,10.84,0,0,0-19.21-1.3c-1,1.63,1.54,3.13,2.59,1.52Z"/><path class="cls-2" d="M1169.2,374.16c.9,20,.19,40.83,4.6,60.41a1.52,1.52,0,0,0,2.74.36,65.28,65.28,0,0,0,7.92-15.09c.67-1.82-2.23-2.6-2.9-.8a62.3,62.3,0,0,1-7.61,14.38l2.74.36c-4.33-19.27-3.61-40-4.49-59.62-.09-1.92-3.09-1.93-3,0Z"/><path class="cls-2" d="M1186.94,370.27c4.21-6.12,12.62-4.82,15.45,1.78.75,1.77,3.34.25,2.59-1.51-3.8-8.87-15.3-9.54-20.63-1.79-1.09,1.6,1.51,3.1,2.59,1.52Z"/><path class="cls-2" d="M1180.89,444a26.33,26.33,0,0,0,20.37-11.23c1.12-1.58-1.48-3.08-2.59-1.51a23.11,23.11,0,0,1-17.78,9.74c-1.92.1-1.93,3.1,0,3Z"/><path class="cls-2" d="M1154.43,423.32a1.5,1.5,0,0,0,0-3,1.5,1.5,0,0,0,0,3Z"/><path class="cls-2" d="M1162.07,421a1.5,1.5,0,0,0,0-3,1.5,1.5,0,0,0,0,3Z"/><path class="cls-2" d="M1161.49,428.61a1.5,1.5,0,0,0,0-3,1.5,1.5,0,0,0,0,3Z"/><path class="cls-2" d="M1199.12,415.67a1.5,1.5,0,0,0,0-3,1.5,1.5,0,0,0,0,3Z"/><path class="cls-2" d="M1209.12,410.38a1.5,1.5,0,0,0,0-3,1.5,1.5,0,0,0,0,3Z"/><path class="cls-2" d="M1206.77,418a1.5,1.5,0,0,0,0-3,1.5,1.5,0,0,0,0,3Z"/><ellipse class="cls-2" cx="1158.03" cy="399.03" rx="2.26" ry="7.03" transform="translate(-46.33 175.95) rotate(-8.52)"/><ellipse class="cls-2" cx="1192.88" cy="395.41" rx="2.26" ry="7.03" transform="matrix(0.99, -0.15, 0.15, 0.99, -45.41, 181.07)"/><path class="cls-2" d="M1241,408.24a53,53,0,0,1-3.28,14.43c-.68,1.81,2.22,2.59,2.89.8a55.73,55.73,0,0,0,3.39-15.23c.16-1.93-2.84-1.92-3,0Z"/><path class="cls-2" d="M1242.39,408.26c3.27,3.21,9.62-1.32,11.94-3.9,4.51-5,5.47-12.54,4.57-19-.81-5.78-3.71-11.67-9.44-13.92a10.29,10.29,0,0,0-13.3,5.13c-.8,1.74,1.78,3.27,2.59,1.51,2.39-5.15,8.46-5.58,12.54-2,3.39,2.94,4.59,7.57,4.84,11.87a22.23,22.23,0,0,1-1.88,11.07,13.21,13.21,0,0,1-4,5c-.93.7-4.62,3.23-5.73,2.14-1.38-1.35-3.51.77-2.12,2.12Z"/><path class="cls-2" d="M1242.88,408.24c-2.67,8.78-2.86,17.81-1.58,26.87a123,123,0,0,0,2.75,13.43c1.41,5.47,3.69,10.95,3.07,16.68-.21,1.92,2.79,1.9,3,0,.94-8.71-3.56-17.78-5.16-26.28-1.88-10-2.17-20.09.81-29.9.56-1.86-2.33-2.65-2.89-.8Z"/><path class="cls-2" d="M1208.12,467.9a64.65,64.65,0,0,0,23.16-27.6,1.5,1.5,0,0,0-2.59-1.51,110,110,0,0,1-22.35,24c-1.51,1.2.63,3.31,2.12,2.12a112.49,112.49,0,0,0,22.82-24.64l-2.59-1.51a61.81,61.81,0,0,1-22.09,26.52c-1.59,1.08-.09,3.68,1.52,2.59Z"/></g></g></svg>