<svg width="361" height="295" viewBox="0 0 361 295" fill="none" xmlns="http://www.w3.org/2000/svg">
<g clip-path="url(#clip0)">
<path d="M238.998 276.311C299.92 276.311 349.307 226.89 349.307 165.925C349.307 104.961 299.92 55.5391 238.998 55.5391C178.076 55.5391 128.688 104.961 128.688 165.925C128.688 226.89 178.076 276.311 238.998 276.311Z" fill="white" stroke="black" stroke-width="4" stroke-miterlimit="10"/>
<path d="M237.779 269.455C294.517 269.455 340.512 223.428 340.512 166.65C340.512 109.873 294.517 63.8452 237.779 63.8452C181.041 63.8452 135.045 109.873 135.045 166.65C135.045 223.428 181.041 269.455 237.779 269.455Z" fill="white" stroke="black" stroke-width="4" stroke-miterlimit="10"/>
<path d="M120.751 123.669C119.433 124.197 116.436 125.548 113.998 128.712C111.824 131.514 111.166 134.349 110.935 135.766C115.777 139.557 120.026 142.457 123.254 144.534C132.806 150.73 137.911 152.708 139.295 153.235C145.487 155.576 149.176 155.872 150.23 155.938C152.569 156.07 156.324 156.301 160.573 154.85C163.833 153.73 166.073 152.082 171.903 146.709C178.82 140.348 182.476 136.557 182.476 136.557C196.771 121.725 196.673 123.34 201.547 117.308C206.982 110.551 214.92 100.729 211.923 95.7516C210.408 93.2466 206.389 92.4555 199.769 91.17C195.322 90.313 193.576 90.6756 193.016 90.8074C189.196 91.7303 186.89 94.6309 184.815 97.3667C177.865 106.431 174.406 110.947 172.068 114.539C170.256 117.308 167.16 122.087 162.483 128.119C159.354 132.173 157.674 133.986 154.907 134.909C151.91 135.898 149.308 135.305 144.334 134.118C142.523 133.69 139.064 132.767 133.168 130.13C129.94 128.68 125.658 126.57 120.751 123.669Z" fill="white"/>
<path opacity="0.13" d="M200.065 100.003C198.55 102.113 196.343 105.211 193.643 108.936C187.45 117.44 184.123 122.021 179.71 127.394C172.958 135.634 169.598 139.787 164.822 142.984C161.166 145.456 156.192 148.819 149.242 149.544C143.05 150.17 138.01 148.192 128.195 144.171C123.88 142.424 117.885 139.721 110.968 135.733C113.57 137.81 117.391 140.644 122.167 143.775C131.62 149.939 137.483 153.697 146.014 155.279C149.934 156.004 156.06 157.059 162.319 154.158C164.229 153.268 165.81 151.983 168.906 149.412C176.943 142.754 182.444 136.656 184.42 134.448C189.492 128.712 192.029 125.845 193.84 122.746C196.278 118.659 199.703 111.21 200.065 100.003Z" fill="#939393"/>
<path d="M192.885 90.3459C187.681 91.8292 184.157 96.4107 181.027 100.531C177.404 105.277 174.275 110.353 171.014 115.363C167.753 120.373 164.394 125.383 160.375 129.833C158.037 132.404 155.83 135.107 152.042 134.777C148.715 134.514 145.29 134.052 142.062 133.129C138.472 132.107 135.178 130.36 131.851 128.679C128.228 126.867 124.605 125.021 120.982 123.208C120.422 122.911 119.928 123.768 120.488 124.065C126.581 127.13 132.642 130.657 139.032 133.129C141.963 134.283 145.026 134.876 148.155 135.272C151.12 135.667 154.315 136.425 156.917 134.546C159.19 132.931 161.1 130.558 162.879 128.416C164.723 126.207 166.436 123.9 168.05 121.527C171.508 116.55 174.638 111.342 178.03 106.332C180.072 103.333 182.18 100.399 184.552 97.6303C186.923 94.8616 189.558 92.2577 193.149 91.2359C193.774 91.104 193.511 90.1482 192.885 90.3459Z" fill="#161616"/>
<path d="M110.705 136.162C117.589 141.073 124.374 146.577 131.917 150.5C138.373 153.894 145.948 156.564 153.326 156.63C156.982 156.663 160.441 155.806 163.537 153.862C166.633 151.917 169.433 149.478 172.2 147.105C177.832 142.259 183.036 136.953 187.812 131.283C193.214 124.856 198.023 117.934 202.173 110.65C202.503 110.09 201.646 109.595 201.317 110.155C194.202 122.615 185.177 133.953 174.604 143.644C172.002 146.017 169.301 148.291 166.534 150.467C163.241 153.038 159.848 155.147 155.599 155.543C148.122 156.235 140.019 153.466 133.432 150.17C125.461 146.215 118.379 140.446 111.199 135.272C110.705 134.942 110.211 135.799 110.705 136.162Z" fill="#161616"/>
<path d="M10.145 64.3727C11.2978 67.9325 12.9447 72.8107 15.0528 78.5129C22.2662 97.9269 30.303 114.407 37.6482 127.625C47.859 146.05 58.7285 161.739 69.0051 174.825C70.8167 174.133 73.4847 172.946 76.3832 171.001C79.7429 168.727 81.7851 166.519 84.3872 163.75C87.7798 160.157 91.37 156.729 94.7626 153.103C109.684 137.117 108.63 138.502 110.968 135.766C114.262 131.91 118.807 126.273 123.781 118.956C121.871 117.44 119.236 115.198 116.337 112.298C112.055 108.013 108.465 103.563 103.952 96.8062C102.108 94.0375 98.1882 88.0716 91.0077 74.7554C79.5782 53.4956 77.4043 46.2112 76.515 42.9811C75.0987 37.8062 74.374 33.4224 73.9458 30.3571C66.0407 33.7191 57.8721 37.5096 49.44 41.7615C34.8814 49.1118 21.7721 56.7917 10.145 64.3727Z" fill="white"/>
<path d="M9.65079 64.5044C19.7957 95.8173 34.2554 125.68 52.5689 153.037C57.6414 160.618 63.0103 168.002 68.6427 175.187C69.0379 175.682 69.7296 174.989 69.3344 174.495C49.1105 148.72 32.4438 120.142 19.9933 89.8513C16.5348 81.4463 13.4057 72.9094 10.606 64.2737C10.4084 63.6145 9.45316 63.8782 9.65079 64.5044Z" fill="#161616"/>
<path d="M10.3097 64.1418C30.5995 51.5508 51.8445 40.4759 73.7812 31.0491C74.3741 30.7854 73.847 29.9614 73.2871 30.1921C51.3504 39.619 30.1054 50.6938 9.81565 63.2849C9.25571 63.6145 9.74978 64.4715 10.3097 64.1418Z" fill="#161616"/>
<path d="M73.4519 30.357C74.8682 44.2006 81.0276 56.7917 87.3846 68.9542C93.4782 80.5894 99.6705 92.2905 107.609 102.805C111.923 108.54 116.798 113.88 122.299 118.527C122.793 118.923 123.485 118.231 122.991 117.835C113.142 109.529 105.533 99.0475 99.0117 88.0386C95.7838 82.633 92.8194 77.0956 89.8879 71.5252C86.7588 65.5592 83.5968 59.6263 80.9288 53.4296C77.7668 46.0794 75.2964 38.3665 74.473 30.357C74.3741 29.7308 73.386 29.7308 73.4519 30.357Z" fill="#161616"/>
<path d="M69.565 174.923C73.9458 173.737 77.536 170.968 80.7969 167.903C84.5847 164.343 88.2409 160.618 91.8311 156.861C99.2751 149.148 106.423 141.139 113.274 132.898C117.029 128.383 120.685 123.801 124.242 119.154C124.374 118.989 124.308 118.692 124.176 118.56C123.814 118.198 123.452 117.835 123.122 117.473C122.661 117.011 121.969 117.703 122.43 118.165C122.793 118.527 123.155 118.89 123.484 119.252C123.452 119.055 123.419 118.857 123.419 118.659C115.382 129.141 106.851 139.293 97.8917 149.016C93.478 153.828 88.9325 158.542 84.2883 163.123C79.9405 167.441 75.4609 172.254 69.3345 173.935C68.6757 174.132 68.9392 175.088 69.565 174.923Z" fill="#161616"/>
<path d="M37.9499 92.1132C43.3582 89.7687 45.3508 82.3434 42.4006 75.5282C39.4503 68.713 32.6744 65.0888 27.2662 67.4333C21.8579 69.7778 19.8653 77.2031 22.8155 84.0183C25.7657 90.8334 32.5416 94.4576 37.9499 92.1132Z" stroke="#161616" stroke-width="2" stroke-miterlimit="10"/>
<path d="M26.9765 76.4364C27.9646 78.3151 30.4021 81.9738 33.0371 80.4905C35.5074 79.0732 33.597 74.7553 32.4113 73.1073C32.0489 72.5799 31.1926 73.0743 31.5549 73.6017C32.3454 74.6894 34.4864 78.8425 32.3125 79.7324C30.4021 80.5235 28.5246 77.2274 27.8329 75.9419C27.5364 75.3816 26.6801 75.876 26.9765 76.4364Z" fill="#161616"/>
<path d="M31.7521 81.0179C32.1803 81.4794 30.0394 83.3911 29.7759 83.7537C29.2818 84.4459 29.0183 85.2369 28.8865 86.061C28.656 87.9068 29.3477 89.6866 30.0394 91.4006C30.2699 91.9939 31.2251 91.7302 30.9946 91.1369C29.8747 88.3682 29.183 85.8961 31.3569 83.49C32.1474 82.633 33.4979 81.4794 32.4438 80.3258C32.0156 79.8643 31.3239 80.5565 31.7521 81.0179Z" fill="#161616"/>
<path d="M33.8606 79.3039C34.717 80.062 35.5404 80.5894 36.7262 80.3916C37.6484 80.2598 38.4719 79.7654 39.3941 79.8972C40.6458 80.062 41.5022 81.1827 42.2597 82.1056C42.655 82.6 43.3467 81.9078 42.9514 81.4134C42.0621 80.3257 41.074 79.1721 39.5918 78.9084C37.6484 78.5788 36.3309 80.1939 34.5523 78.6118C34.0911 78.1833 33.3994 78.8754 33.8606 79.3039Z" fill="#161616"/>
<path d="M32.2136 81.9408C33.6299 82.7648 34.8157 81.4134 35.3427 80.2268C35.6062 79.6665 34.7498 79.1391 34.4863 79.7324C34.1899 80.3587 33.5641 81.6112 32.7077 81.0838C32.1477 80.7542 31.6537 81.6112 32.2136 81.9408Z" fill="#161616"/>
<path d="M29.776 85.4676C31.7852 86.6872 32.7075 90.0492 33.2015 92.1916C33.3333 92.8179 34.2885 92.5542 34.1567 91.928C33.5968 89.4888 32.5757 85.995 30.2701 84.6106C29.743 84.281 29.216 85.138 29.776 85.4676Z" fill="#161616"/>
<path d="M38.4057 79.6006C39.2621 82.0397 40.6455 84.1821 42.5229 85.962C42.9841 86.3905 43.6758 85.6983 43.2146 85.2698C41.436 83.6218 40.1185 81.6441 39.328 79.3369C39.1633 78.7436 38.2081 79.0073 38.4057 79.6006Z" fill="#161616"/>
<path d="M27.4045 73.1732C28.1291 73.4369 28.8537 73.6347 29.6113 73.7006C30.5995 73.7995 31.6864 73.5028 32.5099 74.2609C33.0698 74.7883 33.498 75.8101 33.9262 76.4693C34.5191 77.3922 35.112 78.3151 35.7048 79.238C36.0342 79.7654 36.8906 79.271 36.5612 78.7436C35.8695 77.6559 35.1449 76.5352 34.4532 75.4475C33.9921 74.7553 33.5968 73.7995 32.971 73.2391C32.4769 72.8107 31.917 72.7777 31.2912 72.7777C30.0066 72.7447 28.9196 72.7118 27.7009 72.2503C27.0751 71.9866 26.8116 72.9425 27.4045 73.1732Z" fill="#161616"/>
<path d="M26.9103 72.3492C26.7127 73.5358 26.6468 74.7224 26.7127 75.9419C26.7456 76.5682 27.7338 76.5682 27.7008 75.9419C27.635 74.8212 27.6679 73.7335 27.8655 72.6129C27.9643 71.9866 27.0091 71.7229 26.9103 72.3492Z" fill="#161616"/>
<path d="M29.6774 84.3139C27.3388 80.9189 21.6735 72.8435 27.8 70.2067C32.8395 68.0312 36.9897 75.7771 38.6695 79.4027C38.933 79.996 39.7894 79.4687 39.5259 78.9083C37.6155 74.7223 32.9054 66.581 27.1742 69.4156C20.6524 72.6128 26.1531 80.9189 28.854 84.8083C29.1834 85.3357 30.0398 84.8413 29.6774 84.3139Z" fill="#161616"/>
<path d="M43.2807 65.2297C47.0357 63.318 50.7906 61.4063 54.5455 59.4945C55.1055 59.1979 54.6114 58.3409 54.0515 58.6376C50.2965 60.5493 46.5416 62.461 42.7867 64.3727C42.1938 64.6694 42.6879 65.5264 43.2807 65.2297Z" fill="#161616"/>
<path d="M44.1369 70.3716C52.9313 65.9219 61.594 61.2415 70.1249 56.3632C70.6849 56.0336 70.1908 55.1767 69.6308 55.5063C61.0999 60.4174 52.4372 65.0649 43.6428 69.5146C43.0829 69.7783 43.5769 70.6353 44.1369 70.3716Z" fill="#161616"/>
<path d="M47.4967 75.7112C51.8445 73.6676 56.1594 71.624 60.2108 69.0531C60.7378 68.7235 60.2437 67.8665 59.7167 68.1961C55.6653 70.767 51.3505 72.8436 47.0027 74.8542C46.4427 75.1179 46.9368 75.9749 47.4967 75.7112Z" fill="#161616"/>
<path d="M49.6378 81.5782C57.3783 77.5899 65.0528 73.4039 72.5956 69.086C73.1555 68.7564 72.6615 67.8994 72.1015 68.229C64.5258 72.5799 56.8842 76.733 49.1438 80.7212C48.5838 81.0179 49.0779 81.8749 49.6378 81.5782Z" fill="#161616"/>
<path d="M37.3848 111.474C50.7905 103.794 64.2292 96.1799 77.7338 88.6648C78.2937 88.3682 77.7997 87.5112 77.2397 87.8078C63.7352 95.3229 50.2965 102.937 36.8907 110.617C36.3308 110.946 36.8578 111.803 37.3848 111.474Z" fill="#161616"/>
<path d="M40.547 118.297C46.41 114.341 52.4705 110.65 58.6958 107.288C59.2558 106.991 58.7617 106.134 58.2018 106.431C51.9765 109.826 45.9159 113.484 40.0529 117.44C39.5259 117.802 40.02 118.659 40.547 118.297Z" fill="#161616"/>
<path d="M47.5626 125.153C57.2793 118.363 67.2266 111.902 77.4044 105.805C77.9644 105.475 77.4374 104.618 76.9104 104.948C66.7655 111.045 56.8182 117.506 47.0686 124.296C46.5416 124.658 47.0356 125.515 47.5626 125.153Z" fill="#161616"/>
<path d="M52.3717 134.448C61.8908 127.526 71.6075 120.901 81.5218 114.572C82.0488 114.243 81.5548 113.386 81.0277 113.715C71.1134 120.044 61.3967 126.669 51.8777 133.591C51.3506 133.953 51.8447 134.81 52.3717 134.448Z" fill="#161616"/>
<path d="M58.7287 147.797C70.8169 138.667 82.8722 129.569 94.9604 120.439C95.4545 120.077 94.9604 119.187 94.4663 119.582C82.3781 128.712 70.3228 137.81 58.2346 146.94C57.7076 147.335 58.2016 148.192 58.7287 147.797Z" fill="#161616"/>
<path d="M67.7865 153.861C76.0539 146.874 84.5519 140.183 93.2805 133.755C93.7745 133.393 93.2805 132.536 92.7864 132.898C83.992 139.359 75.4281 146.116 67.0948 153.136C66.6007 153.598 67.2924 154.29 67.7865 153.861Z" fill="#161616"/>
<path d="M99.6701 88.8297C99.9665 88.3353 100.362 87.6102 100.724 86.6873C101.021 85.8962 101.35 84.6107 101.284 80.4906C101.218 76.5353 100.79 75.085 100.296 73.9973C99.5712 72.2833 98.9454 72.0196 98.6819 71.9208C97.562 71.5252 96.3433 72.4152 94.4329 73.8655C90.678 76.7331 89.5252 79.2381 89.1299 80.2928C88.7347 81.3146 88.4382 82.0727 88.8005 82.5342C89.5581 83.523 92.6543 82.3694 95.1905 81.2157C96.7056 83.7867 98.1878 86.2917 99.6701 88.8297Z" fill="white"/>
<path d="M100.889 88.1375C102.009 83.6548 102.24 78.6118 100.856 74.1291C100.461 72.8436 99.6374 71.4263 98.1552 71.2944C96.4754 71.1296 94.8285 72.9425 93.6427 73.9313C92.1276 75.1838 90.6783 76.6012 89.6243 78.2822C88.9655 79.3369 87.7468 81.3805 88.3397 82.6989C89.6572 85.6984 95.7178 81.3805 97.1012 80.4246C97.6282 80.0621 97.1341 79.2051 96.6071 79.5676C95.4543 80.3917 94.2356 81.1168 92.951 81.7101C92.2923 82.0397 91.5676 82.3693 90.843 82.5671C89.0643 82.9956 89.3278 81.1168 89.789 80.095C90.8101 77.8207 92.6546 76.0079 94.565 74.4587C95.8166 73.4369 98.254 71.0967 99.5386 73.4699C100.296 74.8213 100.494 76.8648 100.658 78.414C100.988 81.6112 100.724 84.8084 99.9338 87.9068C99.7692 88.5 100.724 88.7637 100.889 88.1375Z" fill="#161616"/>
<path d="M225.56 203.797C225.461 204.259 225.593 203.764 225.132 211.411C224.308 225.65 223.386 236.626 222.595 246.284C222.266 250.173 221.805 255.546 221.212 261.94C232.345 264.874 245.915 266.588 260.869 264.445C262.747 264.182 264.558 263.852 266.337 263.489C266.271 256.568 266.172 249.646 266.106 242.724C269.4 248.756 272.727 254.788 276.021 260.82C280.928 259.336 287.648 256.732 294.795 251.986C302.536 246.844 307.806 241.109 311.1 236.923C305.006 225.453 301.317 215.729 299.044 208.741C295.981 199.347 293.642 189.228 285.177 178.582C282.839 175.649 281.686 174.198 280.105 173.177C265.019 163.486 229.776 181.647 225.56 203.797Z" fill="white"/>
<path opacity="0.19" d="M275.724 179.901C276.811 183.23 277.93 186.592 279.017 189.954C285.803 210.917 292.028 231.682 297.726 252.151C300.197 250.239 303.128 247.635 305.994 244.207C308.135 241.636 309.782 239.131 311.066 236.923C308.859 232.341 305.829 225.782 302.469 217.74C297.957 206.961 293.51 195.755 293.51 195.755C288.635 184.087 286.988 180.659 283.991 176.341C281.982 173.473 280.137 171.298 278.82 169.848C277.799 173.21 276.778 176.539 275.724 179.901Z" fill="#939393"/>
<path d="M225.065 203.797C224.044 222.882 222.595 241.933 220.718 260.952C220.652 261.578 221.64 261.578 221.706 260.952C223.583 241.933 225.032 222.882 226.053 203.797C226.086 203.171 225.098 203.171 225.065 203.797Z" fill="#161616"/>
<path d="M282.97 175.484C292.193 196.052 301.415 216.586 310.638 237.154C310.902 237.747 311.758 237.22 311.494 236.659C302.272 216.092 293.049 195.557 283.827 174.989C283.563 174.396 282.707 174.924 282.97 175.484Z" fill="#161616"/>
<path d="M247.035 220.442C251.482 220.344 254.743 223.607 256.949 227.134C259.09 230.561 260.902 234.253 262.845 237.813C266.963 245.394 271.113 252.975 275.23 260.589C275.526 261.149 276.383 260.655 276.086 260.094C271.541 251.722 266.995 243.383 262.45 235.011C259.123 228.913 255.401 219.289 247.035 219.487C246.376 219.454 246.376 220.442 247.035 220.442Z" fill="#161616"/>
<path d="M265.612 242.625C265.678 249.58 265.777 256.535 265.843 263.489C265.843 264.116 266.831 264.116 266.831 263.489C266.765 256.535 266.666 249.58 266.6 242.625C266.567 241.966 265.579 241.966 265.612 242.625Z" fill="#161616"/>
<path d="M207.477 80.3587C201.548 84.2811 193.28 89.7526 189.723 100.036C187.253 107.156 188.142 113.386 189.394 122.252C189.855 125.416 191.337 134.645 197.002 147.335C201.515 157.454 204.874 161.212 210.013 169.881C214.558 177.527 220.355 188.767 225.23 203.863C231.422 204.72 236.264 204.16 239.492 203.534C243.577 202.743 251.35 200.6 275.987 181.318C279.347 178.681 282.081 176.473 283.926 174.957C278.655 152.609 272.167 126.207 264.262 95.9163C261.594 85.7314 258.86 75.7442 250.197 70.9979C234.584 62.428 211.857 77.4582 207.477 80.3587Z" fill="#EC615B"/>
<path d="M253.721 80.8861C253.227 81.2816 252.173 82.2705 250.691 88.1045C247.726 99.6079 249.505 104.783 250.197 106.53C251.975 117.637 251.975 128.976 253.161 140.15C254.38 151.917 253.985 163.321 253.128 186.163C252.733 197.073 252.338 200.303 251.119 226.903C250.823 233.33 250.592 238.637 250.46 242.131C247.232 244.141 244.498 245.394 242.522 246.185C240.447 247.042 239.031 247.404 237.581 248.723C235.704 250.404 234.881 252.579 234.485 254.194C233.53 254.722 232.081 255.48 230.269 256.337C225.46 258.677 225.032 258.512 223.715 259.534C221.08 261.545 220.124 264.313 218.971 267.346C218.082 269.719 216.831 274.136 217.917 274.729C218.807 275.223 220.915 272.982 222.232 271.598C224.472 269.225 225.164 267.675 226.415 266.06C227.733 264.379 229.973 262.237 233.925 260.589C232.542 261.314 228.688 263.621 227.305 268.071C226.448 270.774 226.844 273.246 227.173 275.355C227.667 278.421 228.688 280.794 229.512 282.31C230.137 282.244 231.06 282.079 232.015 281.552C233.892 280.497 234.485 278.816 235.803 276.212C237.021 273.806 238.372 271.103 240.348 268.961C241.896 267.28 243.675 266.126 245.487 265.302C245.058 267.412 244.795 269.225 244.597 270.576C244.531 271.07 243.938 275.158 244.334 280.036C244.433 281.123 244.564 282.343 245.256 282.607C246.046 282.903 247.068 281.915 247.232 281.75C248.813 280.266 248.583 278.322 249.011 275.784C249.768 271.268 252.041 268.071 252.865 266.917C253.952 265.401 253.952 265.83 256.916 262.435C259.189 259.798 260.342 258.446 261.033 257.227C261.923 255.645 263.24 252.447 262.351 247.075C263.635 241.34 265.282 233.792 266.962 224.859C268.378 217.245 270.651 204.951 272.562 188.602C273.912 176.868 274.505 167.969 274.834 162.794C275.592 150.994 276.053 143.808 275.822 133.656C275.526 121.494 274.703 124.79 274.011 109.167C274.011 109.167 273.648 101.157 271.112 91.4995C270.816 90.3788 270.058 87.6101 267.983 84.6766C266.666 82.7978 265.249 80.7872 262.581 79.7654C259.815 78.7436 256.158 78.8755 253.721 80.8861Z" fill="white"/>
<path opacity="0.25" d="M262.483 79.7654C263.141 83.9844 264.031 89.8514 264.887 96.905C266.336 108.837 268.642 131.646 268.247 161.574C267.95 183.526 267.753 200.831 263.174 224.002C260.902 235.637 258.234 245.163 256.159 251.854C253.853 254.953 251.053 259.369 248.846 265.072C246.145 272.059 245.355 278.289 245.157 282.607C245.618 282.442 246.277 282.145 246.936 281.585C249.011 279.772 248.813 276.937 249.34 274.432C249.736 272.422 251.152 270.411 253.919 266.423C259.057 259.073 261.989 258.446 263.01 254.096C263.668 251.294 263.141 248.69 262.483 246.778C262.911 244.735 263.504 241.735 264.228 238.143C266.27 227.76 269.992 208.675 272.463 188.602C274.966 168.068 275.164 154.389 275.493 128.02C275.526 126.24 274.472 116.451 272.331 96.938C272.133 95.224 271.738 91.895 269.828 88.1704C267.654 83.9514 264.558 81.2816 262.483 79.7654Z" fill="#939393"/>
<path d="M253.293 80.9521C248.616 88.8627 249.011 98.3554 249.736 107.189C250.658 117.967 252.008 128.679 252.601 139.491C253.82 161.278 252.832 183.131 251.712 204.918C251.086 217.114 250.46 229.276 249.835 241.472C249.802 242.098 250.79 242.098 250.823 241.472C251.943 219.915 253.293 198.359 253.919 176.802C254.215 166.123 254.281 155.411 253.853 144.731C253.425 134.118 252.305 123.57 251.251 112.99C250.23 102.607 248.55 90.9062 254.116 81.4465C254.446 80.8861 253.589 80.3917 253.293 80.9521Z" fill="#161616"/>
<path d="M254.05 81.2487C258.596 77.1286 264.722 80.7213 267.489 85.0062C270.454 89.5219 271.639 95.0263 272.397 100.3C274.077 112.001 274.67 123.933 274.834 135.766C275.197 159.663 273.089 183.559 269.4 207.159C267.357 220.311 264.788 233.396 261.923 246.416C261.791 247.042 262.746 247.306 262.878 246.679C268.346 222.091 272.562 197.205 274.571 172.089C275.592 159.498 276.02 146.841 275.789 134.184C275.658 127.921 275.394 121.659 274.9 115.396C274.439 109.397 273.978 103.332 272.891 97.3995C271.903 91.8951 270.157 85.7314 266.04 81.7101C262.647 78.3811 257.081 77.1286 253.326 80.5565C252.898 80.952 253.589 81.6772 254.05 81.2487Z" fill="#161616"/>
<path d="M250.164 241.702C248.286 243.021 246.31 244.174 244.169 245.031C242.72 245.625 241.172 245.921 239.756 246.581C236.692 247.965 234.947 250.997 233.958 254.096C233.761 254.689 234.716 254.953 234.914 254.359C236.066 250.898 238.01 248.097 241.633 246.976C244.894 245.987 247.858 244.504 250.658 242.559C251.185 242.197 250.691 241.34 250.164 241.702Z" fill="#161616"/>
<path d="M243.543 249.481C237.582 252.184 231.587 254.854 225.757 257.82C223.418 259.007 221.409 260.424 220.157 262.764C218.906 265.072 218.28 267.774 217.72 270.312C217.424 271.631 216.403 274.465 217.885 275.487C219.532 276.641 221.146 273.839 221.903 272.85C225.559 268.104 228.82 262.435 234.881 260.523C235.474 260.325 235.243 259.369 234.617 259.567C230.5 260.853 227.437 263.852 224.868 267.214C223.221 269.324 221.771 271.565 220.026 273.609C219.795 273.872 219.598 274.136 219.334 274.4C218.939 274.334 218.544 274.301 218.181 274.235C217.852 273.839 218.247 272.554 218.346 272.125C218.609 270.774 218.906 269.455 219.268 268.137C219.894 265.731 220.652 263.127 222.43 261.281C224.176 259.435 226.712 258.479 228.952 257.392C233.958 254.986 238.998 252.645 244.07 250.371C244.63 250.074 244.136 249.217 243.543 249.481Z" fill="#161616"/>
<path d="M235.342 259.04C231.587 261.545 227.305 264.577 226.448 269.356C225.987 271.993 226.514 274.828 226.942 277.432C227.272 279.508 227.568 281.684 229.314 283.035C229.61 283.266 229.94 283.002 230.039 282.739C231.356 279.508 231.455 276.015 232.476 272.719C233.662 268.961 236.494 266.555 239.525 264.248C240.019 263.885 239.525 262.995 239.031 263.391C236.264 265.467 233.464 267.675 232.081 270.939C230.5 274.63 230.599 278.783 229.083 282.475C229.314 282.376 229.577 282.277 229.808 282.178C228.128 280.893 228.029 278.19 227.733 276.278C227.371 273.806 226.877 271.07 227.601 268.598C228.754 264.61 232.542 262.072 235.803 259.897C236.363 259.534 235.869 258.677 235.342 259.04Z" fill="#161616"/>
<path d="M229.347 282.805C230.961 283.299 232.18 282.211 233.168 281.025C234.551 279.344 235.638 277.465 236.692 275.586C238.965 271.598 241.271 267.346 245.618 265.302C246.178 265.039 245.684 264.182 245.124 264.445C241.896 265.994 239.624 268.763 237.812 271.763C236.791 273.411 235.902 275.125 234.914 276.806C233.991 278.322 231.883 282.574 229.643 281.882C228.985 281.651 228.721 282.607 229.347 282.805Z" fill="#161616"/>
<path d="M261.758 246.482C261.923 248.954 262.088 251.492 261.593 253.931C261.132 256.271 259.979 258.249 258.431 260.062C255.73 263.193 252.568 265.731 250.724 269.521C249.835 271.367 249.176 273.345 248.583 275.322C248.287 276.377 247.99 277.465 247.694 278.553C247.364 279.706 247.233 281.915 245.586 281.684C244.038 281.486 244.696 274.861 244.762 273.806C244.927 270.972 245.322 268.203 245.948 265.434C246.08 264.808 245.124 264.544 244.993 265.17C244.334 268.203 243.906 271.301 243.741 274.432C243.675 275.85 243.675 277.3 243.708 278.717C243.741 279.739 243.741 280.926 244.334 281.816C245.092 282.903 246.607 283.266 247.496 282.178C248.221 281.321 248.352 279.871 248.649 278.816C249.011 277.465 249.373 276.113 249.769 274.795C250.658 271.829 251.844 268.928 253.787 266.489C255.368 264.511 257.312 262.83 258.958 260.951C260.507 259.205 261.758 257.293 262.351 255.019C263.109 252.25 262.911 249.316 262.746 246.482C262.713 245.855 261.725 245.855 261.758 246.482Z" fill="#161616"/>
<path d="M195.223 13.514C188.833 17.766 187.12 24.9844 185.045 33.9168C183.86 38.9269 179.742 56.5939 189.492 70.4375C191.534 73.3381 196.738 80.7213 203.491 79.9962C207.674 79.5677 210.539 76.2056 211.758 74.5906C214.393 77.4252 217.028 80.2928 219.663 83.1274C222.068 82.666 225.559 81.6442 229.149 79.3699C238.372 73.4699 241.106 63.5816 242.522 58.3408C243.873 53.3967 246.936 42.223 241.238 31.1481C238.471 25.7755 234.815 22.6772 232.74 20.9632C223.813 13.4811 206.488 6.06487 195.223 13.514Z" fill="white"/>
<path opacity="0.27" d="M217.061 26.4676C218.609 29.2693 220.75 33.9827 221.079 40.0475C221.606 49.2436 217.785 56.2313 214.294 62.5598C212.219 66.3503 208.76 71.7229 203.26 77.2604C205.565 76.8319 208.497 76.0408 211.725 74.5576C216.204 72.4481 219.399 69.7453 221.409 67.7676C221.837 69.0531 224.538 76.8319 228.293 76.7989C229.643 76.766 230.664 75.7442 231.257 75.085C244.729 60.4833 244.465 47.6944 244.465 47.6944C244.399 44.2995 243.74 38.0699 239.953 31.9721C238.635 29.8296 237.153 27.4894 234.419 25.8084C227.403 21.5235 218.378 25.8414 217.061 26.4676Z" fill="#AAAAAA"/>
<path d="M198.443 13.5525L198.383 13.5795L198.332 13.6211C194.534 16.722 189.792 21.7314 186.952 28.9541C183.507 37.688 184.418 45.4198 185.372 53.2594L185.372 53.2598C186.037 58.6779 187.037 61.4969 187.95 63.4929L187.951 63.4954C188.815 65.3573 190.964 69.9653 195.872 73.7663L195.873 73.7669C198.66 75.9174 201.346 77.0938 203.195 77.733L203.351 77.7868L203.509 77.7374C204.927 77.2918 206.337 76.8381 207.745 76.385C209.023 75.9734 210.3 75.5624 211.583 75.1577C212.861 77.535 216.463 85.2389 213.751 94.021C213.374 95.2353 212.55 97.8752 210.879 100.506C209.209 103.135 206.716 105.72 203.012 106.876L203.012 106.877C199.322 108.033 195.815 107.334 193.084 106.231C190.404 105.149 188.509 103.693 187.98 103.287L187.954 103.267C187.954 103.267 187.953 103.267 187.953 103.267C182.258 98.8475 180.864 92.3482 179.607 86.4923L179.605 86.4835L179.605 86.4827C178.567 81.676 178.562 78.2433 179.023 67.5915L179.023 67.5911C179.649 52.8461 179.978 45.4889 180.568 40.6686L180.569 40.6608C181.492 33.2243 182.181 27.6715 183.065 23.3711C183.948 19.0719 185.018 16.0771 186.672 13.7372C192.867 5.04003 204.615 -0.895822 216.076 0.56199L216.076 0.562013C222.965 1.43593 227.79 4.73748 230.014 6.30846C231.612 7.43743 237.227 11.5519 245.169 27.8404L245.169 27.8407C249.4 36.5059 251.465 42.8677 255.617 55.7258L255.617 55.7263C261.149 72.7965 261.313 76.9562 260.833 80.925C260.302 85.3106 259.221 93.7984 252.523 98.2351C248.283 101.042 242.707 101.603 237.546 100.451C232.382 99.2973 227.722 96.4483 225.291 92.5532L225.291 92.5528C223.006 88.9002 222.702 84.3941 223.166 80.2829C223.628 76.18 224.848 72.5401 225.534 70.6762C225.868 69.7705 226.275 68.8139 226.718 67.7736C228.076 64.5846 229.77 60.608 230.697 54.8941L230.697 54.8922C231.164 51.9439 231.298 49.4308 231.324 47.5776C231.891 47.76 232.622 47.8843 233.439 47.7605C234.951 47.5361 236.066 46.5788 236.855 45.5721C237.645 44.5638 238.152 43.4511 238.433 42.8226L238.434 42.8205C238.456 42.7713 238.478 42.722 238.499 42.6725C239.098 41.3213 239.74 39.8707 239.424 38.082L239.424 38.0819L239.423 38.0767C239.155 36.6435 238.305 35.1469 237.114 34.0693C235.919 32.9883 234.332 32.2887 232.595 32.5661L232.595 32.566L232.586 32.5675C230.47 32.9432 228.726 34.6378 227.987 36.8584C212.968 32.4805 208.645 27.186 207.666 23.0242L207.666 23.021C207.492 22.3048 207.363 21.485 207.224 20.6075C207.216 20.5553 207.207 20.5029 207.199 20.4503C207.052 19.5231 206.893 18.5425 206.66 17.6118C206.201 15.776 205.421 13.9729 203.704 13.1609L203.703 13.1604C201.875 12.3015 199.779 12.9511 198.443 13.5525Z" fill="#5222D0" stroke="black"/>
<path d="M186.297 28.9727C184.749 38.9599 183.695 49.5403 186.89 59.3627C189.393 67.0755 194.564 74.1621 202.14 77.4911C202.733 77.7548 203.227 76.8979 202.634 76.6342C195.124 73.3381 190.085 66.3174 187.68 58.6375C184.716 49.1448 185.737 38.9269 187.219 29.2364C187.351 28.6101 186.396 28.3465 186.297 28.9727Z" fill="#161616"/>
<path d="M202.766 77.6229C210.407 76.4034 217.522 72.4151 222.99 66.9766C228.161 61.8676 232.081 54.9458 231.323 47.4637C231.257 46.8375 230.269 46.8375 230.335 47.4637C231.093 54.8799 227.107 61.6699 221.903 66.647C216.567 71.7559 209.815 75.5134 202.469 76.6671C201.877 76.766 202.14 77.7218 202.766 77.6229Z" fill="#161616"/>
<path d="M230.533 47.233C232.937 48.7822 235.539 46.9363 237.054 44.9917C238.833 42.7174 239.755 39.652 239.261 36.7844C238.8 34.1475 236.89 32.2028 234.123 32.3017C231.158 32.4006 229.083 34.7408 227.865 37.2129C227.601 37.7732 228.458 38.3006 228.721 37.7073C229.676 35.7626 231.093 33.8838 233.332 33.3894C236.033 32.7961 237.977 34.6749 238.306 37.2458C238.57 39.3224 238.075 41.4648 237.021 43.2777C235.902 45.1894 233.398 47.9581 230.994 46.409C230.5 46.0464 230.006 46.9034 230.533 47.233Z" fill="#161616"/>
<path d="M211.396 74.9202C213.372 77.4582 215.513 79.8314 217.819 82.0728C218.445 82.6661 219.301 83.8527 220.256 83.8856C221.244 83.9186 222.529 82.9297 223.385 82.5013C223.945 82.2046 223.451 81.3806 222.891 81.6443C221.574 82.3035 220.487 82.9957 219.136 81.9739C218.214 81.2817 217.457 80.3258 216.666 79.5018C215.052 77.8208 213.537 76.0409 212.088 74.1951C211.725 73.7337 211.034 74.4258 211.396 74.9202Z" fill="#161616"/>
<path d="M197.43 59.6263C203.359 59.7582 206.916 54.6492 209.716 50.1666C210.045 49.6392 209.189 49.1118 208.86 49.6721C206.258 53.8582 202.964 58.7694 197.397 58.6375C196.804 58.6375 196.804 59.6263 197.43 59.6263Z" fill="#161616"/>
<path d="M207.97 41.0363C208.926 41.0363 208.926 39.5531 207.97 39.5531C207.015 39.5531 207.015 41.0363 207.97 41.0363Z" fill="#161616"/>
<path d="M212.713 38.8609C213.668 38.8609 213.668 37.3777 212.713 37.3777C211.758 37.3777 211.758 38.8609 212.713 38.8609Z" fill="#161616"/>
<path d="M212.318 43.6073C213.273 43.6073 213.273 42.124 212.318 42.124C211.363 42.124 211.363 43.6073 212.318 43.6073Z" fill="#161616"/>
<path d="M188.438 45.1565C188.438 45.1236 188.438 45.0577 188.438 45.0247C188.438 44.6292 188.109 44.2666 187.68 44.2666C187.285 44.2996 186.923 44.5962 186.923 45.0247C186.923 45.0577 186.923 45.1236 186.923 45.1565C186.923 45.5521 187.252 45.9146 187.68 45.9146C188.109 45.8817 188.438 45.585 188.438 45.1565Z" fill="#161616"/>
<path d="M190.678 44.8269C191.633 44.8269 191.633 43.3436 190.678 43.3436C189.723 43.3436 189.723 44.8269 190.678 44.8269Z" fill="#161616"/>
<path d="M190.546 50.7928C191.501 50.7928 191.501 49.3096 190.546 49.3096C189.591 49.3096 189.591 50.7928 190.546 50.7928Z" fill="#161616"/>
<path d="M194.993 27.5554C194.367 36.4878 194.104 45.4202 194.202 54.3526C194.202 54.88 194.861 54.9788 195.125 54.6163C196.343 52.9682 197.529 51.3202 198.748 49.6721C199.11 49.1448 198.254 48.6503 197.891 49.1777C196.673 50.8258 195.487 52.4738 194.268 54.1219C194.565 54.2207 194.894 54.2867 195.19 54.3855C195.092 45.4531 195.355 36.5207 195.981 27.5883C196.047 26.9291 195.059 26.9291 194.993 27.5554Z" fill="#161616"/>
<path d="M190.677 40.0475C191.278 40.0475 191.764 38.5865 191.764 36.7844C191.764 34.9822 191.278 33.5212 190.677 33.5212C190.077 33.5212 189.59 34.9822 189.59 36.7844C189.59 38.5865 190.077 40.0475 190.677 40.0475Z" fill="#161616"/>
<path d="M206.652 36.0922C207.253 36.0922 207.739 34.6312 207.739 32.8291C207.739 31.0269 207.253 29.5659 206.652 29.5659C206.052 29.5659 205.565 31.0269 205.565 32.8291C205.565 34.6312 206.052 36.0922 206.652 36.0922Z" fill="#161616"/>
<path d="M188.602 30.2582C189.228 29.0057 190.546 26.9291 192.193 28.0169C192.72 28.3794 193.214 27.5224 192.687 27.1599C190.513 25.7425 188.602 27.9839 187.746 29.7638C187.45 30.3241 188.306 30.8185 188.602 30.2582Z" fill="#161616"/>
<path d="M203.293 24.49C204.413 21.2269 208.333 20.5347 210.605 23.0727C211.034 23.5341 211.725 22.8419 211.297 22.3805C208.497 19.2492 203.688 20.304 202.338 24.2263C202.107 24.8196 203.063 25.0833 203.293 24.49Z" fill="#161616"/>
</g>
<defs>
<clipPath id="clip0">
<rect width="361" height="295" fill="white"/>
</clipPath>
</defs>
</svg>
