<svg width="106" height="86" viewBox="0 0 106 86" fill="none" xmlns="http://www.w3.org/2000/svg">
<g>
<path d="M3 43.9453L41.3537 3.59796C41.5131 3.3943 41.7207 3.2335 41.9578 3.13007C42.1948 3.02664 42.4539 2.98382 42.7116 3.00547C42.9693 3.02712 43.2176 3.11256 43.4341 3.25409C43.6506 3.39562 43.9891 3.58879 44.1123 3.81619L46.3891 6.00664L48.666 8.1971L53.2197 12.578L62.3271 21.3398M103.631 41.3474L74.4298 11.6525C74.2423 11.4589 74.0173 11.3056 73.7684 11.2021C73.5196 11.0985 73.2522 11.0468 72.9827 11.0502C72.7132 11.0536 72.4472 11.112 72.2011 11.2218C71.955 11.3317 71.7338 11.4906 71.5513 11.6889L41.2797 43.9453" stroke="white" stroke-width="4.50586" stroke-miterlimit="10" stroke-linecap="round"/>
<path d="M34.1596 65.3656C33.9283 66.6693 33.676 67.994 33.4657 68.9192L35.4633 69.4028C35.9049 67.8888 36.4516 65.5338 36.8511 63.4521L35.19 63.0526L34.8115 63.1367H30.4168C30.606 62.2535 30.7532 61.3914 30.8794 60.4662L28.4823 60.1298C28.1038 63.3259 27.3047 66.4169 25.8749 68.2884C26.4426 68.6038 27.4729 69.3608 27.8935 69.7392C28.7136 68.5617 29.3444 67.0688 29.849 65.3656H34.1596ZM26.5477 72.7251L24.2558 73.0405V71.106H26.3375L26.3585 68.8561H24.2558V65.9543H22.0269V68.8561H20.597C21.1227 67.6365 21.6904 66.2487 22.1951 64.7978H26.5477V62.4428H22.9521C23.1203 61.854 23.2464 61.2652 23.3936 60.6765L20.9755 60.1928C20.8493 60.9498 20.6811 61.6858 20.4708 62.4428H17.4008V64.7978H19.798C19.3564 66.1436 18.9358 67.216 18.7466 67.6575C18.3471 68.5827 18.0106 69.1505 17.548 69.2977C17.8004 69.8864 18.1999 70.9588 18.305 71.4214C18.4943 71.2322 19.2933 71.106 20.0293 71.106H22.0269V73.356C20.1765 73.6083 18.4522 73.8396 17.1065 73.9868L17.6321 76.5101L22.0269 75.7951V79.7272H24.2558V75.4166C25.0758 75.2905 25.8749 75.1433 26.6739 74.9961L26.5477 72.7251ZM32.4354 67.258H30.0593V68.2253C30.0593 70.8958 29.7018 75.0592 25.6436 78.1292C26.2323 78.4866 27.1155 79.2857 27.494 79.8113C29.4705 78.2763 30.6691 76.4259 31.384 74.6176C32.2672 76.8675 33.5288 78.6548 35.4423 79.7693C35.7577 79.1174 36.5357 78.1712 37.0824 77.6666C34.5171 76.4259 33.0662 73.6083 32.3513 70.3701C32.4144 69.6341 32.4354 68.9192 32.4354 68.2884V67.258ZM47.7223 60.2349C46.6919 63.2208 44.9046 66.2067 43.0542 68.0991C43.4747 68.7299 44.1686 70.0757 44.3999 70.7065C44.8205 70.2439 45.241 69.7182 45.6616 69.1925V79.7693H48.0377V65.4707C48.8367 64.0198 49.5306 62.4848 50.0984 60.9919L47.7223 60.2349ZM62.8409 70.286H57.4579V66.6693H61.8526V64.2301H57.4579V60.4241H54.9346V64.2301H53.1894C53.4207 63.431 53.6309 62.632 53.7992 61.8119L51.381 61.3073C50.8974 63.8726 50.0353 66.5431 48.8998 68.1832C49.5096 68.4566 50.603 69.0453 51.0656 69.3818C51.5282 68.6458 51.9908 67.6996 52.3693 66.6693H54.9346V70.286H49.2573V72.7251H54.9346V79.7903H57.4579V72.7251H62.8409V70.286ZM80.0203 62.1694H76.1512V60.298H73.7331V62.1694H69.8851V64.3352H80.0203V62.1694ZM76.8872 73.8186V76.5942H72.9551V73.8186H76.8872ZM70.6421 79.8113H72.9551V78.76H76.8872V79.7272H79.3264V71.6527H70.6421V79.8113ZM76.6979 64.3983C76.5297 65.3656 76.1512 66.6903 75.8358 67.5734L77.539 68.015H72.0299L74.0064 67.5524C73.9223 66.6903 73.5859 65.4286 73.1443 64.4824L71.1047 64.903C71.4621 65.8702 71.7775 67.1739 71.8406 68.015H69.4435V70.286H80.2516V68.015H77.8124C78.1698 67.1949 78.6114 66.0595 79.053 64.903L76.6979 64.3983ZM87.2116 61.2652L86.8331 61.3493H80.9034V79.7903H83.3426V63.7044H85.8869C85.3822 65.3025 84.7094 67.4473 84.0996 68.9402C85.7817 70.5803 86.2443 72.0943 86.2443 73.2298C86.2443 73.9447 86.1182 74.4283 85.7397 74.6596C85.5294 74.7648 85.2561 74.8279 84.9617 74.8279C84.6463 74.8489 84.2468 74.8279 83.7841 74.8068C84.1837 75.5007 84.3939 76.5731 84.3939 77.246C84.9827 77.267 85.5925 77.267 86.0761 77.204C86.6018 77.1198 87.1065 76.9516 87.506 76.6783C88.305 76.1105 88.6415 75.0802 88.6415 73.5452C88.6415 72.1574 88.3261 70.5173 86.5387 68.6248C87.3798 66.8375 88.305 64.4193 89.041 62.4007L87.2116 61.2652Z" fill="white"/>
</g>
</svg>
