<svg width="311" height="258" viewBox="0 0 311 258" fill="none" xmlns="http://www.w3.org/2000/svg">
<ellipse cx="155.5" cy="152.252" rx="155.5" ry="97.0212" fill="#FFF5E9"/>
<path d="M220.231 54.3966C222.289 54.3966 223.958 52.7316 223.958 50.6777C223.958 48.6239 222.289 46.9589 220.231 46.9589C218.173 46.9589 216.504 48.6239 216.504 50.6777C216.504 52.7316 218.173 54.3966 220.231 54.3966Z" fill="#EC615B"/>
<path d="M224.187 44.0842C225.146 44.0842 225.924 43.3079 225.924 42.3503C225.924 41.3926 225.146 40.6163 224.187 40.6163C223.227 40.6163 222.449 41.3926 222.449 42.3503C222.449 43.3079 223.227 44.0842 224.187 44.0842Z" fill="#EC615B"/>
<path d="M110.255 21.5204C111.24 21.5204 112.039 20.7236 112.039 19.7408C112.039 18.758 111.24 17.9612 110.255 17.9612C109.27 17.9612 108.472 18.758 108.472 19.7408C108.472 20.7236 109.27 21.5204 110.255 21.5204Z" fill="#EC615B"/>
<path d="M226.953 229.797C228.62 229.797 229.971 228.449 229.971 226.785C229.971 225.122 228.62 223.774 226.953 223.774C225.286 223.774 223.935 225.122 223.935 226.785C223.935 228.449 225.286 229.797 226.953 229.797Z" fill="#EC615B"/>
<path d="M89.6091 240.109C90.3793 240.109 91.0038 239.486 91.0038 238.718C91.0038 237.949 90.3793 237.326 89.6091 237.326C88.8388 237.326 88.2144 237.949 88.2144 238.718C88.2144 239.486 88.8388 240.109 89.6091 240.109Z" fill="#EC615B"/>
<path d="M107.031 137.306C107.827 137.306 108.472 136.662 108.472 135.868C108.472 135.074 107.827 134.431 107.031 134.431C106.236 134.431 105.591 135.074 105.591 135.868C105.591 136.662 106.236 137.306 107.031 137.306Z" fill="#EC615B"/>
<path d="M109.867 144.629C110.637 144.629 111.261 144.006 111.261 143.238C111.261 142.469 110.637 141.846 109.867 141.846C109.096 141.846 108.472 142.469 108.472 143.238C108.472 144.006 109.096 144.629 109.867 144.629Z" fill="#5222D0"/>
<path d="M108.197 183.414C109.637 183.414 110.804 182.25 110.804 180.814C110.804 179.377 109.637 178.213 108.197 178.213C106.758 178.213 105.591 179.377 105.591 180.814C105.591 182.25 106.758 183.414 108.197 183.414Z" fill="#5222D0"/>
<path d="M218.151 35.5971C219.06 35.5971 219.797 34.8617 219.797 33.9544C219.797 33.0472 219.06 32.3118 218.151 32.3118C217.241 32.3118 216.504 33.0472 216.504 33.9544C216.504 34.8617 217.241 35.5971 218.151 35.5971Z" fill="#5222D0"/>
<path d="M155.526 38.4718C156.322 38.4718 156.966 37.8283 156.966 37.0344C156.966 36.2406 156.322 35.5971 155.526 35.5971C154.73 35.5971 154.086 36.2406 154.086 37.0344C154.086 37.8283 154.73 38.4718 155.526 38.4718Z" fill="#5222D0"/>
<path d="M27.0988 150.903C27.7049 150.903 28.1963 150.413 28.1963 149.808C28.1963 149.203 27.7049 148.713 27.0988 148.713C26.4927 148.713 26.0013 149.203 26.0013 149.808C26.0013 150.413 26.4927 150.903 27.0988 150.903Z" fill="#5222D0"/>
<path d="M223.135 237.326C224.65 237.326 225.879 236.1 225.879 234.588C225.879 233.076 224.65 231.85 223.135 231.85C221.62 231.85 220.391 233.076 220.391 234.588C220.391 236.1 221.62 237.326 223.135 237.326Z" fill="#5222D0"/>
<path d="M252.515 2.92625C253.311 2.92625 253.956 2.28273 253.956 1.48891C253.956 0.695091 253.311 0.0515747 252.515 0.0515747C251.72 0.0515747 251.075 0.695091 251.075 1.48891C251.075 2.28273 251.72 2.92625 252.515 2.92625Z" fill="#5222D0"/>
<path d="M112.565 66.1005C112.336 64.686 112.13 61.857 114.394 62.0851C115.217 62.1764 115.674 62.9065 116.589 62.587C118.303 61.9939 117.915 59.7808 118.623 58.5032C119.79 56.4499 122.053 59.4386 123.791 58.4576C124.362 58.1382 124.5 57.545 124.477 56.929C124.431 54.6247 126.466 54.7844 128.135 55.2407C128.569 55.3547 128.752 54.6931 128.318 54.579C126.626 54.1227 123.814 53.963 123.745 56.4042C123.722 56.9974 124.042 57.5906 123.173 57.9556C122.899 58.0697 122.442 57.9328 122.19 57.8644C121.596 57.6819 121.07 57.2712 120.453 57.1115C119.652 56.8833 118.875 57.043 118.326 57.6819C117.64 58.5032 117.663 59.6211 117.343 60.5793C117 61.606 116.337 62.1992 115.217 61.6973C114.759 61.4919 114.348 61.3094 113.822 61.3779C111.467 61.6973 111.581 64.5491 111.879 66.283C111.97 66.7165 112.633 66.534 112.565 66.1005Z" fill="#5222D0"/>
<path d="M115.262 67.4238C115.445 66.0093 116.589 65.3933 117.915 65.3933C118.623 65.3933 119.332 65.5074 120.018 65.2564C121.573 64.6632 121.276 62.9749 121.641 61.6516C122.327 59.142 125.506 60.6934 127.266 60.2827C128.455 59.9862 129.461 58.7998 128.958 57.545C128.798 57.1343 128.135 57.3168 128.295 57.7275C129.072 59.6211 126.42 59.7352 125.3 59.5983C124.477 59.507 123.676 59.3701 122.853 59.5755C121.55 59.9177 121.047 60.8759 120.864 62.1079C120.704 63.2487 120.727 64.5035 119.241 64.686C118.44 64.7773 117.64 64.5491 116.84 64.7316C115.56 65.0282 114.737 66.1005 114.576 67.3782C114.508 67.8573 115.194 67.8573 115.262 67.4238Z" fill="#5222D0"/>
<path d="M162.5 11.3906C161.699 12.3944 160.853 13.6264 161.242 14.9725C161.562 16.0676 162.431 16.4783 163.483 16.4098C164.1 16.3642 164.74 16.2045 165.243 16.7521C165.632 17.1627 165.38 18.0297 165.266 18.486C165.083 19.1932 164.74 19.8777 164.809 20.6306C164.923 21.6572 165.746 22.4558 166.798 22.2276C167.232 22.1364 167.05 21.4747 166.615 21.566C164.626 22.0223 165.998 18.7141 166.089 17.9156C166.158 17.254 166.043 16.5239 165.54 16.0448C165.037 15.5657 164.42 15.6113 163.78 15.6798C162.774 15.7938 161.837 15.4744 161.791 14.2652C161.768 13.3526 162.408 12.5313 162.957 11.8469C163.277 11.5503 162.774 11.0483 162.5 11.3906Z" fill="#5222D0"/>
<path d="M167.895 11.0483C166.821 11.5046 166.135 12.6225 166.409 13.7861C166.546 14.3108 166.866 14.8128 167.324 15.1322C167.873 15.5428 168.513 15.4516 169.061 15.7938C170.09 16.4098 169.267 17.619 169.313 18.5772C169.336 19.0563 169.45 19.4898 169.862 19.7864C170.479 20.2655 171.394 20.1058 171.645 19.3301C171.782 18.9194 171.119 18.7369 170.982 19.1476C170.113 19.0335 169.816 18.6457 170.067 17.984C170.113 17.7559 170.159 17.5277 170.205 17.2996C170.25 17.0714 170.273 16.8433 170.273 16.6151C170.273 16.136 170.136 15.6341 169.77 15.2919C169.221 14.7899 168.376 14.9953 167.781 14.5846C166.569 13.7405 167.004 12.1434 168.238 11.6187C168.65 11.459 168.284 10.8886 167.895 11.0483Z" fill="#5222D0"/>
<path d="M18.3876 145.907C17.8617 145.086 17.8617 144.082 18.3876 143.238C18.9135 142.416 19.6451 142.393 20.4911 142.074C21.6571 141.595 21.68 140.386 21.6114 139.291C21.5886 138.903 21.5657 138.492 21.68 138.104C21.9772 137.192 22.7546 137.443 23.4634 137.557C23.875 137.625 24.2636 137.557 24.6066 137.328C25.041 137.032 25.3154 136.507 25.4526 136.005C25.5669 135.595 25.5898 135.161 25.6812 134.75C25.727 134.454 25.8184 134.18 25.9556 133.929C26.3214 133.359 26.7558 133.313 27.2817 133.815C27.396 134.248 28.0591 134.066 27.9448 133.632C27.5332 132.15 25.7041 132.811 25.2468 133.861C25.041 134.34 25.0182 134.864 24.9038 135.366C24.8353 135.663 24.7895 135.982 24.6295 136.256C24.2865 136.872 23.6463 136.758 23.0519 136.69C22.3431 136.621 21.7943 136.553 21.3371 137.214C20.8112 137.967 20.9484 138.857 20.9484 139.724C20.9712 140.774 20.7426 141.184 19.7137 141.526C19.3022 141.663 18.9592 141.732 18.5934 142.006C17.2673 142.941 16.9243 144.88 17.7931 146.226C18.0218 146.614 18.6162 146.272 18.3876 145.907Z" fill="#EC615B"/>
<path d="M21.2456 147.481C20.2853 147.344 20.6511 146.295 21.0856 145.884C21.4057 145.587 21.8401 145.405 22.2516 145.2C22.7546 144.949 23.2576 144.652 23.6235 144.219C24.6066 142.987 23.189 141.344 24.5609 140.363C25.9327 139.405 29.6138 138.971 28.5392 136.416C28.3792 136.005 27.7847 136.37 27.9448 136.758C28.7221 138.606 24.9496 139.154 23.9893 139.929C23.6463 140.203 23.3491 140.568 23.2119 141.002C22.9375 141.96 23.7378 142.941 23.029 143.854C22.2059 144.857 20.4454 144.857 20.0338 146.272C19.7823 147.07 20.2167 148.029 21.0856 148.166C21.4971 148.211 21.68 147.55 21.2456 147.481Z" fill="#EC615B"/>
<path d="M271.881 94.4594C271.584 93.9347 271.629 93.3643 271.95 92.8624C272.453 92.1323 273.047 92.292 273.824 92.3604C274.35 92.4061 274.83 92.5201 275.333 92.2235C276.225 91.676 276.088 90.5353 276.248 89.6683C276.614 87.6378 278.374 89.4858 279.563 88.847C279.998 88.6188 280.158 88.1853 280.249 87.729C280.409 86.8393 280.455 84.1927 282.17 85.265C282.536 85.4932 282.901 84.9 282.513 84.6719C280.981 83.7364 279.746 85.2879 279.609 86.7252C279.518 87.5465 279.609 88.345 278.512 88.231C278.123 88.1853 277.734 87.98 277.346 87.9344C276.728 87.8659 276.179 88.0484 275.836 88.596C275.448 89.2348 275.585 90.0333 275.425 90.7178C275.082 92.2692 273.756 91.4022 272.681 91.5847C271.241 91.8357 270.578 93.5696 271.264 94.7788C271.492 95.1895 272.087 94.8473 271.881 94.4594Z" fill="#EC615B"/>
<path d="M275.288 95.8967C274.899 94.8472 276.111 93.6837 277.163 94.2312C277.3 94.2997 277.483 94.2997 277.574 94.1856C278.1 93.6152 278.237 92.9536 278.466 92.2235C278.877 90.9003 279.861 90.7178 281.049 90.3527C282.216 89.9877 283.519 89.0295 283.039 87.6606C282.879 87.2499 282.216 87.4324 282.376 87.8431C283.039 89.6455 279.792 89.7823 278.832 90.444C277.666 91.2653 278.009 92.7483 277.117 93.7065C277.254 93.6837 277.391 93.6609 277.528 93.6609C275.997 92.8624 274.053 94.4366 274.648 96.1021C274.785 96.4899 275.448 96.3302 275.288 95.8967Z" fill="#EC615B"/>
<path d="M182.94 101.874C182.986 101.874 183.489 103.106 183.695 103.266C184.015 103.517 184.403 103.54 184.792 103.471C185.478 103.357 185.912 102.855 186.507 102.536C187.787 101.806 187.787 103.061 188.29 103.768C188.862 104.612 189.479 104.201 190.142 103.791C190.577 103.517 190.988 103.334 191.377 103.722C191.583 103.928 191.72 104.27 191.88 104.521C192.131 104.886 192.406 105.182 192.817 105.365C193.206 105.547 193.572 104.954 193.16 104.772C192.223 104.361 192.108 102.81 190.988 102.65C190.462 102.582 190.234 102.878 189.822 103.106C189.319 103.403 189.022 103.608 188.702 103.038C188.565 102.81 188.542 102.49 188.382 102.262C187.65 101.053 186.507 101.715 185.592 102.308C185.432 102.422 185.272 102.536 185.089 102.627C184.701 102.513 184.289 102.399 183.9 102.285C183.74 102.125 183.74 101.737 183.603 101.532C183.374 101.213 183.146 101.121 182.78 101.19C182.323 101.281 182.506 101.943 182.94 101.874Z" fill="#EC615B"/>
<path d="M188.313 99.684C188.999 98.6117 190.577 100.848 191.217 101.121C191.605 101.281 191.971 101.281 192.383 101.167C192.566 101.121 192.726 101.03 192.886 100.962C193.503 100.711 194.029 100.87 194.532 101.304C195.264 101.92 195.469 102.741 196.521 102.969C197.139 103.106 197.71 102.924 197.985 102.331C198.167 101.943 197.573 101.578 197.39 101.988C196.75 103.357 194.989 100.665 194.532 100.368C193.686 99.8209 193.16 100.277 192.314 100.46C190.965 100.733 190.531 99.2277 189.411 98.8627C188.747 98.6345 188.107 98.7486 187.741 99.3646C187.467 99.7296 188.062 100.072 188.313 99.684Z" fill="#EC615B"/>
<path d="M273.756 139.564C285.897 139.564 298.037 139.564 310.201 139.564C310.635 139.564 310.635 138.88 310.201 138.88C298.06 138.88 285.919 138.88 273.756 138.88C273.321 138.88 273.321 139.564 273.756 139.564Z" fill="#646060"/>
<path d="M283.702 139.405C283.702 142.941 283.702 146.454 283.702 149.991C283.702 150.424 284.388 150.424 284.388 149.991C284.388 146.454 284.388 142.941 284.388 139.405C284.388 138.971 283.702 138.971 283.702 139.405Z" fill="#646060"/>
<path d="M300.667 139.062C300.667 134.134 300.667 129.206 300.667 124.278C300.667 123.845 299.981 123.845 299.981 124.278C299.981 129.206 299.981 134.134 299.981 139.062C299.981 139.519 300.667 139.519 300.667 139.062Z" fill="#646060"/>
<path d="M292.596 124.552C297.191 124.552 301.787 124.552 306.383 124.552C306.817 124.552 306.817 123.868 306.383 123.868C301.787 123.868 297.191 123.868 292.596 123.868C292.161 123.868 292.161 124.552 292.596 124.552Z" fill="#646060"/>
<path d="M283.564 42.3959C283.564 46.6623 283.564 50.9287 283.564 55.1722C283.564 55.6057 284.25 55.6057 284.25 55.1722C284.25 50.9059 284.25 46.6395 284.25 42.3959C284.25 41.9624 283.564 41.9624 283.564 42.3959Z" fill="#646060"/>
<path d="M272.887 56.1533C281.141 56.1533 289.372 56.1533 297.626 56.1533C298.06 56.1533 298.06 55.4688 297.626 55.4688C289.372 55.4688 281.141 55.4688 272.887 55.4688C272.43 55.4688 272.43 56.1533 272.887 56.1533Z" fill="#646060"/>
<path d="M297.397 56.062C297.397 58.891 297.397 61.7201 297.397 64.5491C297.397 64.9826 298.083 64.9826 298.083 64.5491C298.083 61.7201 298.083 58.891 298.083 56.062C298.083 55.6285 297.397 55.6285 297.397 56.062Z" fill="#646060"/>
<path d="M67.7739 29.0949C75.8449 29.0949 83.9388 29.0949 92.0098 29.0949C92.4442 29.0949 92.4442 28.4104 92.0098 28.4104C83.9388 28.4104 75.8449 28.4104 67.7739 28.4104C67.3395 28.4104 67.3166 29.0949 67.7739 29.0949Z" fill="#646060"/>
<path d="M91.0038 29.0264C91.0038 31.2167 91.0038 33.4069 91.0038 35.5971C91.0038 36.0306 91.6897 36.0306 91.6897 35.5971C91.6897 33.4069 91.6897 31.2167 91.6897 29.0264C91.6897 28.5701 91.0038 28.5701 91.0038 29.0264Z" fill="#646060"/>
<path d="M83.6643 28.4789C83.6643 24.9654 83.6643 21.4747 83.6643 17.9612C83.6643 17.5277 82.9784 17.5277 82.9784 17.9612C82.9784 21.4747 82.9784 24.9654 82.9784 28.4789C82.9784 28.9352 83.6643 28.9352 83.6643 28.4789Z" fill="#646060"/>
<path d="M19.828 99.4103C25.4068 99.4103 30.9857 99.4103 36.5645 99.4103C36.9989 99.4103 36.9989 98.7258 36.5645 98.7258C30.9857 98.7258 25.4068 98.7258 19.828 98.7258C19.3936 98.7258 19.3936 99.4103 19.828 99.4103Z" fill="#646060"/>
<path d="M30.0482 92.5429C30.0482 94.5963 30.0482 96.6496 30.0482 98.7029C30.0482 99.1364 30.7341 99.1364 30.7341 98.7029C30.7341 96.6496 30.7341 94.5963 30.7341 92.5429C30.7341 92.1095 30.0482 92.1095 30.0482 92.5429Z" fill="#646060"/>
<path d="M26.0242 92.8852C28.9965 92.8852 31.9688 92.8852 34.9411 92.8852C35.3756 92.8852 35.3756 92.2007 34.9411 92.2007C31.9688 92.2007 28.9965 92.2007 26.0242 92.2007C25.5669 92.2007 25.5669 92.8852 26.0242 92.8852Z" fill="#646060"/>
<path d="M126.717 236.733C134.171 236.733 141.625 236.733 149.078 236.733C149.513 236.733 149.513 236.048 149.078 236.048C141.625 236.048 134.171 236.048 126.717 236.048C126.26 236.048 126.26 236.733 126.717 236.733Z" fill="#646060"/>
<path d="M140.481 236.048C140.481 234.451 140.481 232.854 140.481 231.234C140.481 230.801 139.796 230.801 139.796 231.234C139.796 232.831 139.796 234.428 139.796 236.048C139.796 236.505 140.481 236.505 140.481 236.048Z" fill="#646060"/>
<path d="M138.401 231.257C141.487 231.257 144.597 231.257 147.684 231.257C148.118 231.257 148.118 230.573 147.684 230.573C144.597 230.573 141.487 230.573 138.401 230.573C137.966 230.573 137.966 231.257 138.401 231.257Z" fill="#646060"/>
<path d="M20.3539 224.732C27.8076 224.732 35.2612 224.732 42.7149 224.732C43.1493 224.732 43.1493 224.048 42.7149 224.048C35.2612 224.048 27.8076 224.048 20.3539 224.048C19.9195 224.048 19.9195 224.732 20.3539 224.732Z" fill="#646060"/>
<path d="M30.6884 215.789C30.6884 218.412 30.6884 221.059 30.6884 223.683C30.6884 224.116 31.3743 224.116 31.3743 223.683C31.3743 221.059 31.3743 218.412 31.3743 215.789C31.3743 215.355 30.6884 215.355 30.6884 215.789Z" fill="#646060"/>
<path d="M30.6884 214.762C27.7161 214.762 24.7209 214.762 21.7486 214.762C21.3142 214.762 21.3142 215.446 21.7486 215.446C24.7209 215.446 27.7161 215.446 30.6884 215.446C31.1229 215.446 31.1229 214.762 30.6884 214.762Z" fill="#646060"/>
<path d="M268.909 204.655C268.154 203.902 268.337 202.442 269.503 202.191C270.12 202.054 270.715 202.442 271.309 202.51C271.767 202.579 272.247 202.533 272.544 202.123C273.001 201.529 272.636 200.845 272.613 200.183C272.567 198.107 275.036 198.244 276.271 198.974C276.545 199.134 276.843 198.86 276.774 198.586C276.18 195.734 279.449 193.772 281.69 195.666C282.033 195.94 282.513 195.461 282.17 195.187C279.403 192.86 275.356 195.232 276.111 198.792C276.271 198.655 276.454 198.541 276.614 198.404C275.562 197.765 274.213 197.445 273.093 198.153C272.681 198.404 272.315 198.792 272.133 199.248C271.995 199.567 271.927 199.864 271.95 200.206C271.972 200.822 272.178 200.776 271.721 201.37C271.218 202.031 271.172 201.735 270.463 201.575C270.212 201.507 269.983 201.461 269.709 201.484C269.137 201.507 268.611 201.78 268.246 202.191C267.445 203.081 267.651 204.336 268.451 205.134C268.749 205.453 269.229 204.974 268.909 204.655Z" fill="#646060"/>
<path d="M273.367 205.339C273.116 203.263 276.522 203.241 277.483 201.803C277.734 201.438 277.826 201.027 277.986 200.64C278.283 199.932 278.809 199.476 279.586 199.271C280.844 198.951 282.147 199.522 283.29 200.001C283.702 200.16 283.885 199.499 283.473 199.339C281.37 198.472 278.534 197.811 277.368 200.366C276.957 201.278 276.82 201.78 275.859 202.259C275.288 202.533 274.693 202.693 274.145 203.012C273.276 203.514 272.59 204.29 272.704 205.339C272.75 205.773 273.436 205.773 273.367 205.339Z" fill="#646060"/>
<path d="M175.029 138.994C175.486 140.135 175.944 141.298 176.401 142.439C176.447 142.302 176.515 142.188 176.561 142.051C176.309 142.211 176.058 142.371 175.806 142.553C175.418 141.64 175.578 141.412 176.309 141.823C176.744 142.097 176.95 142.69 177.041 143.169C177.247 144.264 177.018 145.405 176.652 146.454C176.561 146.728 176.835 146.911 177.064 146.865C178.436 146.591 178.984 148.234 178.71 149.261C178.504 150.014 178.093 150.675 177.681 151.337C177.453 151.702 178.047 152.044 178.276 151.679C179.007 150.538 179.853 149.124 179.35 147.709C178.962 146.66 178.001 145.998 176.881 146.203C177.018 146.34 177.155 146.477 177.292 146.614C177.75 145.291 178.047 143.625 177.475 142.279C177.087 141.389 176.195 140.705 175.189 141.002C174.412 141.23 174.023 142.005 174.389 142.758C175.006 144.013 176.081 143.169 176.881 142.644C176.995 142.576 177.087 142.393 177.041 142.256C176.584 141.116 176.126 139.952 175.669 138.811C175.532 138.424 174.869 138.583 175.029 138.994Z" fill="#646060"/>
<path d="M39.8112 31.0569C39.3767 29.9618 40.84 29.6652 41.526 30.0531C42.0518 30.3497 42.3948 30.8744 42.7149 31.3535C43.0121 31.787 43.3322 32.2661 43.4923 32.768C43.6752 33.2015 43.6523 33.6122 43.4237 34.0228C42.6234 34.3879 42.2119 34.2966 42.189 33.7719C41.9832 33.019 42.7835 32.5171 43.4694 32.5399C44.1782 32.5627 44.8412 32.9734 45.3214 33.4753C46.1445 34.3423 46.4417 35.483 46.3274 36.6466C46.5332 36.5781 46.7618 36.5325 46.9676 36.464C46.5103 35.8024 46.9447 35.0951 47.5621 34.7529C48.0879 34.4791 48.6824 34.5476 49.1854 34.8214C50.0085 35.2548 50.5801 36.0534 51.106 36.7834C51.3575 37.1485 51.952 36.8063 51.7005 36.4412C50.8316 35.232 49.5284 33.5437 47.8136 33.9316C46.556 34.2054 45.55 35.6655 46.3731 36.8063C46.5789 37.1029 46.9676 36.966 47.0133 36.6237C47.2191 34.4563 45.6186 31.4904 43.0579 31.8554C42.1433 31.9923 41.4802 32.6311 41.4802 33.5665C41.4802 34.2966 41.9375 35.0495 42.7149 35.0951C43.6295 35.1636 44.2468 34.2738 44.2925 33.4525C44.3611 32.3117 43.4694 31.0797 42.7835 30.2356C42.1433 29.4827 41.2059 28.8439 40.1998 29.2317C39.3767 29.5283 38.828 30.3497 39.171 31.1938C39.3082 31.6501 39.9712 31.4676 39.8112 31.0569Z" fill="#646060"/>
<path d="M160.259 64.5263C159.299 63.9559 159.984 62.2676 161.059 62.9749C162.088 63.6593 160.716 64.8229 160.053 64.0244C159.779 63.6821 159.299 64.1612 159.573 64.5035C160.099 65.1423 161.105 65.0966 161.699 64.5719C162.385 63.9559 162.202 62.9521 161.494 62.4501C160.785 61.9482 159.756 62.0395 159.321 62.8608C158.887 63.6365 159.184 64.686 159.939 65.1195C160.282 65.3248 160.625 64.7544 160.259 64.5263Z" fill="#646060"/>
<path d="M233.104 14.6302C232.601 13.923 233.469 12.8507 234.27 13.1701C234.201 13.1245 234.132 13.056 234.064 13.0104C234.498 13.7633 233.858 14.79 233.012 14.7443C233.126 14.8356 233.241 14.904 233.332 14.9953C233.195 14.6074 233.035 14.1968 232.898 13.8089C232.738 13.3982 232.075 13.5808 232.235 13.9914C232.372 14.3793 232.532 14.79 232.669 15.1778C232.715 15.3375 232.829 15.4288 232.989 15.4288C233.721 15.4744 234.361 15.0181 234.681 14.3793C234.933 13.8774 235.07 12.8279 234.453 12.5085C233.104 11.8468 231.709 13.8545 232.509 14.9725C232.761 15.3375 233.355 14.9953 233.104 14.6302Z" fill="#646060"/>
<path d="M251.715 48.5559C251.6 48.0312 251.989 47.4608 252.515 47.3467C252.995 47.2555 253.43 47.6433 253.544 48.0768C253.841 49.1035 252.492 49.5826 251.852 48.8753C251.555 48.5559 251.075 49.035 251.372 49.3544C252.561 50.6777 254.847 49.3773 254.116 47.689C253.795 46.9361 252.995 46.457 252.195 46.7079C251.349 46.9817 250.846 47.8715 251.029 48.7384C251.166 49.1719 251.829 48.9894 251.715 48.5559Z" fill="#646060"/>
<path d="M177.498 237.394C176.629 236.984 176.698 235.797 177.498 235.341C178.276 234.908 179.007 235.295 179.716 235.615C180.311 235.889 180.996 236.14 181.522 235.615C182.002 235.159 181.911 234.451 181.934 233.858C182.025 231.554 184.266 232.01 185.798 232.58C186.209 232.74 186.392 232.079 185.981 231.919C184.632 231.394 182.757 230.892 181.682 232.215C181.362 232.603 181.271 233.06 181.248 233.539C181.225 233.858 181.362 234.565 181.179 234.862C180.676 235.615 179.99 234.93 179.465 234.702C178.459 234.269 177.018 234.383 176.401 235.432C175.875 236.322 176.195 237.531 177.132 237.965C177.544 238.17 177.887 237.577 177.498 237.394Z" fill="#646060"/>
<path d="M188.564 183.62C187.879 191.993 188.244 200.389 189.662 208.671C189.731 209.104 190.394 208.921 190.325 208.488C188.93 200.275 188.564 191.924 189.25 183.62C189.296 183.186 188.61 183.186 188.564 183.62Z" fill="#646060"/>
<path d="M189.022 184.145C192.589 185.377 196.27 186.198 200.019 186.609C203.54 186.974 207.587 187.361 210.971 186.038C211.383 185.878 211.2 185.217 210.788 185.377C207.496 186.677 203.495 186.289 200.019 185.924C196.338 185.536 192.703 184.692 189.205 183.483C188.77 183.323 188.61 183.985 189.022 184.145Z" fill="#646060"/>
<path d="M194.463 185.08C193.274 183.232 192.291 181.27 191.605 179.171C191.285 178.167 191.011 177.163 190.805 176.136C190.691 175.52 190.576 174.904 190.508 174.288C190.508 174.22 190.256 172.6 190.737 172.828C190.965 172.942 191.354 172.737 191.24 172.44C189.982 169.269 189.296 165.938 189.227 162.516C189.113 162.63 188.999 162.744 188.885 162.858C189.067 162.927 189.227 162.995 189.41 163.064C189.639 163.337 190.073 163.041 189.982 162.721C189.525 161.261 189.227 159.755 189.136 158.204C189.113 157.839 189.182 153.732 189.433 153.801C189.708 153.869 189.891 153.618 189.845 153.39C189.41 150.812 189.205 148.188 189.319 145.587C189.365 144.287 189.479 143.009 189.685 141.732C189.868 140.568 189.959 139.154 190.874 138.309C190.691 138.287 190.508 138.264 190.325 138.241C192.246 141.846 193.32 145.793 194.303 149.717C195.264 153.573 196.11 157.474 196.841 161.398C198.327 169.497 199.265 177.688 199.676 185.924C199.699 186.358 200.385 186.358 200.362 185.924C199.951 177.642 199.013 169.383 197.504 161.216C196.75 157.155 195.881 153.116 194.875 149.101C193.892 145.245 192.817 141.412 190.919 137.876C190.805 137.671 190.531 137.671 190.371 137.808C189.593 138.515 189.365 139.45 189.182 140.431C188.93 141.823 188.747 143.26 188.656 144.675C188.473 147.641 188.656 150.607 189.159 153.55C189.296 153.413 189.433 153.276 189.57 153.139C188.244 152.774 188.404 155.626 188.382 156.265C188.29 158.501 188.633 160.736 189.296 162.881C189.479 162.767 189.685 162.653 189.868 162.539C189.57 162.197 189.319 162.083 188.862 162.128C188.679 162.151 188.519 162.265 188.519 162.47C188.587 165.938 189.273 169.338 190.554 172.577C190.714 172.44 190.897 172.326 191.057 172.19C188.77 171.094 190.096 176.251 190.279 177.026C190.965 179.992 192.2 182.821 193.846 185.376C194.12 185.787 194.715 185.445 194.463 185.08Z" fill="#646060"/>
<path d="M198.099 162.288C197.893 160.828 197.847 159.345 198.03 157.885C198.076 157.52 198.945 153.23 199.379 153.413C199.608 153.527 199.882 153.39 199.905 153.116C200.042 150.196 200.957 147.595 202.031 144.903C203.106 142.234 204.158 139.656 205.941 137.351C205.781 137.351 205.621 137.351 205.461 137.351C206.764 138.834 206.604 141.093 206.673 142.941C206.764 145.017 206.833 147.093 206.856 149.169C206.901 153.253 206.833 157.337 206.65 161.421C206.261 169.771 205.324 178.099 203.906 186.335C203.838 186.768 204.501 186.951 204.569 186.517C206.055 177.939 206.993 169.246 207.382 160.531C207.565 156.151 207.61 151.77 207.519 147.39C207.473 145.2 207.427 143.009 207.267 140.819C207.176 139.382 206.947 137.967 205.941 136.849C205.827 136.712 205.575 136.712 205.461 136.849C203.701 139.131 202.603 141.64 201.551 144.31C200.385 147.184 199.402 149.968 199.242 153.116C199.425 153.025 199.585 152.911 199.768 152.82C198.373 152.204 197.916 155.17 197.733 155.968C197.23 158.113 197.184 160.28 197.504 162.448C197.481 162.904 198.145 162.721 198.099 162.288Z" fill="#646060"/>
<path d="M189.982 209.241C197.138 211.545 204.889 211.431 211.977 208.921C212.389 208.784 212.206 208.123 211.794 208.26C204.821 210.724 197.207 210.838 190.165 208.579C189.731 208.442 189.548 209.104 189.982 209.241Z" fill="#646060"/>
<path d="M210.88 185.81C211.154 189.506 211.451 193.202 211.703 196.898C211.954 200.662 212.046 204.473 211.428 208.214C211.36 208.648 212.023 208.83 212.092 208.397C212.709 204.723 212.663 201.027 212.412 197.331C212.16 193.499 211.863 189.643 211.566 185.81C211.543 185.376 210.857 185.376 210.88 185.81Z" fill="#646060"/>
<path d="M88.8545 215.104C93.5188 212.617 98.2059 210.131 102.87 207.644C105.065 208.009 108.083 208.488 111.696 208.99C118.921 209.994 130.558 211.614 145.283 212.047C160.007 212.481 171.051 211.545 175.258 211.135C185.386 210.176 191.514 208.876 196.521 207.53C201.071 206.298 204.821 204.952 207.496 203.925C209.691 204.655 212.137 205.636 214.744 206.982C216.23 207.758 217.602 208.556 218.814 209.355C214.515 210.587 208.731 212.161 201.849 213.758C187.353 217.135 176.241 218.732 173.909 219.074C160.579 220.968 141.579 223.637 117.686 220.876C110.255 219.987 100.355 218.367 88.8545 215.104Z" fill="white"/>
<path d="M88.603 215.127C88.7173 216.085 88.8545 217.021 88.9689 217.979C90.6837 218.458 93.1987 219.142 96.3082 219.827C102.253 221.15 108.289 222.063 116.177 222.679C145.306 224.96 168.581 222.93 168.581 222.93C180.219 221.903 191.514 220.854 206.101 216.61C211.589 215.013 216.07 213.393 219.271 212.138C219.02 211.066 218.768 209.994 218.516 208.921C217.625 209.286 216.299 209.811 214.675 210.404C203.655 214.42 194.578 215.743 186.484 216.724C168.696 218.914 159.802 219.987 146.746 220.192C131.885 220.443 111.947 219.553 88.603 215.127Z" fill="#161616"/>
<path d="M88.443 215.561C88.443 216.291 88.443 217.021 88.443 217.751C88.443 218.184 89.1289 218.184 89.1289 217.751C89.1289 217.021 89.1289 216.291 89.1289 215.561C89.1289 215.104 88.443 215.104 88.443 215.561Z" fill="#161616"/>
<path d="M88.6944 218.39C105.774 222.998 123.608 223.591 141.19 223.842C158.087 224.07 175.098 223.34 191.743 220.26C201.117 218.526 210.354 215.994 219.271 212.549C219.682 212.389 219.499 211.728 219.088 211.887C203.357 217.979 186.644 221.082 169.839 222.382C152.897 223.683 135.794 223.386 118.852 222.359C108.723 221.721 98.686 220.397 88.8774 217.751C88.4429 217.614 88.26 218.275 88.6944 218.39Z" fill="#161616"/>
<path d="M219.271 212.07C219.408 211.112 219.454 210.131 219.362 209.172C219.317 208.739 218.631 208.739 218.676 209.172C218.745 210.085 218.745 210.998 218.608 211.887C218.539 212.298 219.202 212.503 219.271 212.07Z" fill="#161616"/>
<path d="M88.9918 215.492C93.7932 213.211 98.5032 210.769 103.122 208.123C103.51 207.895 103.167 207.324 102.779 207.53C98.1602 210.153 93.4502 212.617 88.6488 214.899C88.2372 215.081 88.5802 215.675 88.9918 215.492Z" fill="#161616"/>
<path d="M102.939 207.803C130.216 212.982 158.567 213.941 186.072 210.017C193.389 208.967 200.66 207.347 207.427 204.336C207.839 204.153 207.473 203.56 207.084 203.742C201.003 206.435 194.509 208.009 187.947 209.035C181.271 210.085 174.526 210.724 167.781 211.157C154.086 212.024 140.321 211.796 126.672 210.496C118.761 209.743 110.918 208.602 103.122 207.142C102.687 207.073 102.504 207.735 102.939 207.803Z" fill="#161616"/>
<path d="M207.29 204.222C211.36 205.545 215.178 207.393 218.745 209.743C219.111 209.994 219.454 209.4 219.088 209.15C215.475 206.777 211.589 204.906 207.473 203.56C207.039 203.423 206.856 204.085 207.29 204.222Z" fill="#161616"/>
<path d="M89.0375 215.127C97.1085 217.842 105.522 219.12 113.982 219.804C122.556 220.489 131.199 220.694 139.796 220.694C156.875 220.694 174 219.53 190.828 216.473C200.385 214.739 209.851 212.389 219.065 209.309C219.477 209.172 219.294 208.511 218.882 208.648C202.672 214.032 185.821 217.18 168.81 218.732C151.891 220.283 134.788 220.374 117.823 219.371C108.129 218.777 98.4117 217.568 89.1747 214.465C88.8088 214.328 88.6259 214.99 89.0375 215.127Z" fill="#161616"/>
<path d="M102.207 84.8315C130.147 78.3749 158.91 76.9603 187.49 76.6866C195.584 76.5953 203.678 76.6181 211.772 76.6181C212.206 76.6181 212.206 75.9337 211.772 75.9337C183.1 75.8881 154.291 75.8652 125.826 79.8122C117.823 80.9301 109.889 82.3446 102.024 84.1698C101.59 84.2839 101.773 84.9455 102.207 84.8315Z" fill="#161616"/>
<path d="M213.189 76.0022C213.486 86.6111 213.669 98.9083 213.601 112.574C213.555 120.514 213.486 116.727 212.778 149.763C212.366 168.79 212.252 175.954 210.903 186.951C210.034 194.115 208.982 200.001 208.205 203.993C214.104 205.636 219.728 207.188 224.667 208.556C232.304 210.678 234.338 211.249 237.379 211.682C242.089 212.321 247.828 212.412 254.459 211.066C256.905 191.08 258.254 174.038 259.032 160.987C261.821 115.13 259.214 94.0031 258.208 86.5883C256.837 76.5954 255.145 68.382 253.841 62.7011C248.949 63.6365 244.97 64.6404 242.181 65.3933C232.601 68.017 225.01 71.097 218.654 73.6979C216.299 74.6789 214.401 75.4774 213.189 76.0022Z" fill="white"/>
<path d="M55.5645 63.1118C55.3816 65.0739 55.1758 67.4923 54.9929 69.5912C51.1975 112.78 49.2998 134.385 48.6825 148.28C48.0423 163.201 47.9965 184.829 51.1746 211.728C51.4261 212.275 51.8834 213.028 52.7065 213.644C53.7811 214.443 54.7643 214.42 56.7077 214.967C58.2396 215.401 59.0399 215.834 59.7715 216.108C61.875 216.929 66.585 217.865 72.5754 217.637C81.1722 217.294 87.7799 214.671 92.6271 212.686C97.177 210.838 100.812 208.853 103.327 207.347C101.91 194.639 100.858 181.224 100.264 167.147C99.0519 137.214 100.264 109.723 102.756 85.2194C101.704 84.8087 100.172 84.2384 98.366 83.5083C95.2565 82.2535 87.8028 79.2191 74.6788 72.8309C69.4887 70.3213 62.9953 67.0588 55.5645 63.1118Z" fill="white"/>
<path d="M253.704 62.6099C253.978 64.1156 254.344 66.1918 254.756 68.6786C255.327 72.2149 256.608 80.588 257.545 91.5847C258.506 103.038 258.734 112.894 258.757 120.742C258.826 136.667 258.231 148.348 256.676 175.589C256.196 184.076 255.487 196.51 254.596 211.682C255.533 211.614 256.448 211.568 257.385 211.499C257.842 207.712 258.46 202.077 258.94 195.187C259.306 190.213 259.466 186.586 259.626 182.684C260.426 164.798 260.563 165.003 260.838 157.702C261.386 143.306 261.272 132.241 261.181 122.293C261.112 115.426 260.906 108.924 260.495 95.9195C260.197 87.0674 259.9 79.2191 257.888 69.0208C257.362 66.4199 256.859 64.2525 256.493 62.7696C255.556 62.7239 254.642 62.6783 253.704 62.6099Z" fill="#161616"/>
<path d="M52.0663 63.5224C51.9063 64.3209 51.6548 65.5529 51.4033 67.0587C50.6716 71.4163 50.4887 74.7017 50.4201 75.774C49.9171 83.531 48.9111 87.3183 47.4478 104.543C47.1734 107.692 46.9677 110.453 46.5561 115.997C45.7101 127.313 45.2986 132.971 45.0014 139.359C44.6813 146.5 44.6355 151.542 44.5669 161.626C44.4984 170.341 44.4526 176.638 44.6813 184.875C44.8642 191.445 45.23 200.366 46.1217 210.998C47.9737 211.545 49.8028 212.093 51.6548 212.64C51.6319 211.614 51.5633 209.766 51.4261 207.461C50.8774 197.217 49.9857 193.065 49.7799 184.532C49.7113 181.909 49.7571 180.175 49.7799 177.688C50.0314 159.847 49.7342 151.702 49.8943 140.112C50.1686 121.198 51.449 106.414 52.5465 93.8205C53.5754 81.9112 54.7414 71.7129 55.7474 63.7277C54.4899 63.6593 53.2781 63.5908 52.0663 63.5224Z" fill="#161616"/>
<path d="M212.64 76.39C213.486 93.1361 213.372 109.928 213.143 126.674C212.892 143.055 212.778 159.482 211.52 175.84C210.811 185.148 209.691 194.434 207.953 203.628C207.862 204.062 208.525 204.244 208.616 203.811C211.657 187.726 212.778 171.368 213.281 155.033C213.806 138.355 214.035 121.632 214.012 104.931C213.989 95.4176 213.829 85.9038 213.349 76.39C213.303 75.9565 212.617 75.9565 212.64 76.39Z" fill="#161616"/>
<path d="M213.486 76.39C226.176 70.1159 239.643 65.5986 253.544 62.9292C253.979 62.838 253.796 62.1763 253.361 62.2676C239.414 64.9597 225.879 69.5227 213.143 75.7968C212.755 76.0021 213.098 76.5953 213.486 76.39Z" fill="#161616"/>
<path d="M253.315 62.7239C257.088 81.683 258.231 101.053 258.208 120.354C258.163 139.655 257.019 158.911 256.082 178.19C255.533 189.301 254.984 200.389 254.436 211.499C254.413 211.933 255.099 211.933 255.122 211.499C256.105 191.833 257.134 172.167 258.025 152.477C258.894 133.176 259.443 113.829 258.14 94.5506C257.408 83.8048 256.105 73.1046 254.001 62.5642C253.887 62.1079 253.224 62.2904 253.315 62.7239Z" fill="#161616"/>
<path d="M208.068 203.765C209.096 204.952 210.926 205.18 212.366 205.613C214.332 206.206 216.321 206.8 218.288 207.393C222.266 208.579 226.222 209.834 230.246 210.838C238.111 212.754 246.182 213.142 254.161 211.773C254.596 211.705 254.413 211.043 253.978 211.112C246.113 212.458 238.157 212.07 230.429 210.176C226.747 209.286 223.135 208.146 219.522 207.051C217.693 206.503 215.864 205.955 214.035 205.408C213.12 205.134 212.206 204.86 211.291 204.587C210.331 204.29 209.256 204.085 208.571 203.286C208.25 202.967 207.77 203.446 208.068 203.765Z" fill="#161616"/>
<path d="M253.773 62.7467C254.619 62.9521 255.465 63.1574 256.333 63.3627C256.768 63.4768 256.951 62.8152 256.516 62.7011C255.67 62.4958 254.824 62.2904 253.956 62.0851C253.521 61.9938 253.338 62.6555 253.773 62.7467Z" fill="#161616"/>
<path d="M256.288 63.1346C258.574 72.3518 259.192 81.9796 259.855 91.4478C260.541 101.121 260.906 110.818 261.066 120.537C261.341 139.815 260.678 159.094 259.58 178.35C258.963 189.255 258.186 200.161 257.385 211.066C257.362 211.499 258.048 211.499 258.071 211.066C259.512 191.673 260.815 172.281 261.432 152.843C262.05 133.45 262.004 114.012 260.769 94.6191C260.106 84.0786 259.512 73.2644 256.974 62.9749C256.837 62.5186 256.174 62.7011 256.288 63.1346Z" fill="#161616"/>
<path d="M254.802 211.887C255.808 211.796 256.791 211.705 257.797 211.614C258.231 211.568 258.231 210.883 257.797 210.929C256.791 211.02 255.808 211.112 254.802 211.203C254.367 211.248 254.367 211.933 254.802 211.887Z" fill="#161616"/>
<path d="M102.184 85.0368C100.652 100.848 99.7379 116.704 99.4406 132.583C99.1434 148.531 99.4635 164.501 100.424 180.426C100.95 189.369 101.704 198.29 102.619 207.187C102.664 207.621 103.35 207.621 103.305 207.187C101.658 191.4 100.63 175.543 100.218 159.664C99.8065 143.717 100.012 127.746 100.858 111.821C101.338 102.878 102.001 93.9574 102.847 85.0368C102.916 84.6034 102.23 84.6034 102.184 85.0368Z" fill="#161616"/>
<path d="M55.999 63.6593C70.8377 71.8955 86.2481 79.1049 102.07 85.2421C102.482 85.4018 102.664 84.7402 102.253 84.5805C86.4767 78.4661 71.135 71.2795 56.3419 63.0661C55.9533 62.838 55.6103 63.4312 55.999 63.6593Z" fill="#161616"/>
<path d="M55.2902 63.4996C52.7523 82.801 50.9917 102.216 50.0314 121.677C49.0712 141.138 48.934 160.622 49.5742 180.083C49.94 191.012 50.5573 201.94 51.4261 212.845C51.4719 213.279 52.1578 213.279 52.1121 212.845C50.5573 193.43 49.8257 173.946 49.8714 154.485C49.9171 135.001 50.786 115.54 52.4322 96.1248C53.3696 85.2193 54.5585 74.3595 55.9761 63.4996C56.0218 63.0661 55.3359 63.0661 55.2902 63.4996Z" fill="#161616"/>
<path d="M51.4033 213.279C64.1386 220.192 79.3889 218.709 92.3299 213.233C96.2168 211.591 99.9665 209.606 103.579 207.438C103.945 207.21 103.602 206.617 103.236 206.845C91.1867 214.123 77.0567 219.211 62.8125 216.564C58.9484 215.857 55.1987 214.557 51.7463 212.686C51.3804 212.481 51.0146 213.074 51.4033 213.279Z" fill="#161616"/>
<path d="M46.3503 211.385C47.9508 212.138 49.597 212.777 51.2661 213.347C51.6776 213.484 51.8606 212.823 51.449 212.686C49.8257 212.138 48.248 211.522 46.6933 210.792C46.2817 210.61 45.9388 211.203 46.3503 211.385Z" fill="#161616"/>
<path d="M51.6091 63.6594C49.1397 82.7782 47.082 101.943 45.733 121.176C44.4069 140.317 43.7667 159.505 44.1782 178.692C44.4069 189.552 44.9556 200.412 45.893 211.226C45.9388 211.659 46.6247 211.659 46.579 211.226C44.9328 192.038 44.4526 172.783 44.9099 153.527C45.3443 134.34 46.6704 115.175 48.5681 96.0565C49.6428 85.2422 50.9003 74.428 52.295 63.6366C52.3636 63.2259 51.6777 63.2259 51.6091 63.6594Z" fill="#161616"/>
<path d="M51.9977 64.1385C53.3238 63.8647 54.6499 63.7734 56.0218 63.8419C56.4562 63.8647 56.4562 63.1802 56.0218 63.1574C54.6042 63.089 53.2095 63.203 51.8148 63.4768C51.3804 63.5681 51.5633 64.2297 51.9977 64.1385Z" fill="#161616"/>
<path d="M221.397 77.9414C222.358 104.407 222.312 130.895 221.214 157.36C220.917 164.775 220.528 172.167 220.048 179.582C220.025 180.015 220.711 180.015 220.734 179.582C222.403 153.162 223.044 126.674 222.655 100.186C222.541 92.7711 222.358 85.3563 222.083 77.9414C222.06 77.508 221.374 77.508 221.397 77.9414Z" fill="#161616"/>
<path d="M232.486 68.4504C233.401 86.862 233.858 105.319 233.835 123.754C233.835 142.188 233.378 160.645 232.463 179.057C231.96 189.483 231.297 199.887 230.497 210.29C230.474 210.724 231.16 210.724 231.183 210.29C232.601 191.901 233.561 173.49 234.087 155.056C234.59 136.621 234.658 118.164 234.27 99.7295C234.041 89.3032 233.675 78.8768 233.172 68.4504C233.149 68.0169 232.463 68.0169 232.486 68.4504Z" fill="#161616"/>
<path d="M245.793 64.3894C247.074 83.531 247.851 102.718 248.057 121.928C248.262 141.207 247.942 160.463 247.074 179.718C246.593 190.51 245.93 201.301 245.084 212.07C245.062 212.503 245.747 212.503 245.77 212.07C247.234 192.928 248.194 173.741 248.583 154.554C248.971 135.298 248.834 116.019 248.148 96.7408C247.759 85.9494 247.211 75.158 246.479 64.3666C246.456 63.9331 245.77 63.9331 245.793 64.3894Z" fill="#161616"/>
<path d="M219.042 188.137C218.516 194.115 217.556 200.046 216.161 205.887C216.07 206.321 216.71 206.503 216.825 206.07C218.242 200.161 219.202 194.183 219.728 188.137C219.774 187.704 219.088 187.704 219.042 188.137Z" fill="#161616"/>
<path d="M63.4984 68.1082C60.7547 87.2499 59.5886 106.597 59.4057 125.921C59.2457 145.359 60.0459 164.775 61.2348 184.167C61.8979 195.141 62.6753 206.092 63.4526 217.066C63.4755 217.5 64.1614 217.5 64.1386 217.066C62.7667 197.742 61.3949 178.418 60.6404 159.071C59.8859 139.77 59.7715 120.423 60.8919 101.121C61.5321 90.1474 62.5838 79.1734 64.1386 68.2907C64.23 67.8801 63.567 67.6747 63.4984 68.1082Z" fill="#161616"/>
<path d="M76.6452 74.4963C74.9075 92.9992 73.7415 111.57 73.3528 130.165C72.987 148.736 73.4214 167.307 74.9533 185.833C75.7992 196.122 76.9882 206.366 78.5429 216.564C78.6115 216.998 79.2746 216.815 79.206 216.382C76.4166 197.993 74.8161 179.422 74.2216 160.828C73.6272 142.485 73.9701 124.096 74.9761 105.775C75.5477 95.3491 76.348 84.9227 77.3311 74.5191C77.3769 74.0628 76.6909 74.0628 76.6452 74.4963Z" fill="#161616"/>
<path d="M89.8148 79.9491C87.5742 97.2199 86.2709 114.605 85.928 132.013C85.585 149.42 86.1795 166.851 87.7114 184.19C88.5802 193.864 89.7234 203.491 91.1638 213.097C91.2324 213.53 91.8954 213.347 91.8269 212.914C89.2432 195.712 87.597 178.395 86.8882 161.033C86.1795 143.717 86.431 126.354 87.597 109.038C88.2601 99.3189 89.2204 89.5998 90.4779 79.9263C90.5693 79.5156 89.8834 79.5156 89.8148 79.9491Z" fill="#161616"/>
<path opacity="0.12" d="M240.672 65.9408C243.21 76.2759 245.267 88.3906 245.953 101.965C247.668 136.507 239.528 164.729 232.441 182.844C227.433 190.852 222.449 198.86 217.442 206.868C222.312 208.967 229.537 211.408 238.545 212.138C244.764 212.64 250.16 212.184 254.367 211.499C254.413 210.496 255.167 195.232 255.213 194.229C257.705 143.101 257.865 139.61 257.957 136.096C258.368 121.792 258.3 101.258 255.853 75.6371C255.007 71.2795 254.161 66.9219 253.315 62.587C249.131 63.6821 244.902 64.8001 240.672 65.9408Z" fill="#3F3F3F"/>
<path opacity="0.13" d="M81.1036 77.0972C80.5092 79.584 79.6175 83.3029 78.5657 87.843C73.9015 108.103 70.4719 123.001 68.6427 136.712C65.396 160.873 62.2637 184.281 75.6163 203.491C79.5032 209.081 83.7559 212.846 86.591 215.081C83.8473 216.154 80.4406 217.135 76.4622 217.614C65.396 218.914 56.5248 215.332 52.1806 213.188C50.5344 198.061 49.3912 181.863 49.0254 164.729C48.2023 126.811 51.2889 92.7254 55.9989 63.4083C64.3443 67.9713 72.7125 72.5343 81.1036 77.0972Z" fill="#3F3F3F"/>
<path d="M57.1193 52.5485C56.822 52.7767 57.0507 53.6665 57.4622 55.195C57.6223 55.7882 57.7823 56.2445 57.8738 56.5411C57.6909 57.7731 57.5308 59.0051 57.3479 60.2371C56.9821 60.2828 56.0447 60.4881 55.1758 61.241C54.3756 61.9482 54.0555 62.7696 53.9412 63.1346C54.6728 63.2031 55.5645 63.3628 56.5248 63.6594C57.9195 64.0928 59.017 64.686 59.8172 65.1879C59.8172 65.4617 59.8629 65.9865 60.2288 66.3743C60.5489 66.6937 60.9375 66.7394 61.1662 66.785C61.9893 66.9219 62.9725 67.1044 64.23 67.3782C64.7787 67.6976 65.6933 68.2223 66.8136 68.8383C70.609 70.8917 71.9809 71.2339 75.7763 73.2416C78.2228 74.542 78.017 74.5877 79.7318 75.409C82.3611 76.6866 84.6247 77.4395 86.1566 77.873C86.7968 77.1657 87.8256 75.7969 88.3972 73.812C88.8545 72.2377 88.8317 70.8688 88.7402 69.9791C89.1289 70.1844 89.7462 70.4125 90.455 70.3213C92.2841 70.116 93.4502 68.0398 93.816 66.5568C94.1361 65.2564 93.8389 64.4351 93.5874 62.9065C93.0158 59.4842 92.5128 56.427 93.9303 54.4878C95.1193 52.8679 97.5657 52.115 99.532 49.9476C99.7149 49.7423 100.058 49.3544 99.9436 49.1719C99.7378 48.8297 98.1373 49.4229 97.3599 49.7651C96.8569 49.9933 93.0844 51.7272 91.9412 55.6513C91.7583 56.2673 91.7354 58.0469 91.7125 61.5832C91.6897 64.1613 91.7354 65.6214 90.7065 66.4656C90.1806 66.8991 89.4033 67.15 88.6945 66.9903C87.6427 66.7622 87.1397 65.7355 86.6824 65.0511C85.4935 63.2487 83.8016 62.4958 81.721 61.4691C80.0976 60.6706 78.7029 60.374 75.8906 59.758C73.2384 59.1876 72.4382 59.2561 71.295 58.4119C70.0146 57.4537 69.3058 56.1076 68.94 55.3547C68.5741 54.6475 68.0025 53.5296 67.751 51.9325C67.6138 50.9971 67.6367 50.3355 67.4081 50.2899C66.9965 50.1986 66.7907 52.0922 65.396 52.7539C64.5501 53.1645 64.0013 52.7767 62.5152 52.8223C61.5549 52.8451 60.4574 53.0505 59.2227 53.598C58.8112 53.3014 57.5308 52.2519 57.1193 52.5485Z" fill="black"/>
<path d="M57.8053 60.0546C57.3251 56.2902 60.7547 52.8679 64.5502 53.2558C68.1398 53.6208 70.5177 57.9785 70.4034 61.241C70.3805 61.6745 71.0664 61.6745 71.0893 61.241C71.2036 57.6363 68.5056 52.8908 64.5502 52.5714C60.3889 52.2291 56.5935 55.9023 57.1194 60.0546C57.188 60.4653 57.8739 60.4881 57.8053 60.0546Z" fill="black"/>
<path d="M57.7366 62.4274C59.1313 65.1424 62.1265 67.0588 65.2589 66.6481C68.1169 66.2603 70.5405 63.956 70.9749 61.1041C71.0435 60.6707 70.3804 60.4881 70.3118 60.9216C69.9232 63.5225 67.7739 65.6215 65.1674 65.9637C62.3094 66.3515 59.6115 64.572 58.3311 62.0852C58.1253 61.6973 57.5309 62.0395 57.7366 62.4274Z" fill="black"/>
<path d="M60.2059 65.7355C60.1373 64.8685 62.6066 64.5035 63.2239 64.3666C64.3443 64.1156 65.4875 63.9788 66.6307 63.9788C68.757 63.9788 70.7919 64.5263 72.5982 65.6442C72.964 65.8724 73.3298 65.2792 72.9411 65.0511C70.609 63.6137 67.8882 63.1118 65.1902 63.3628C63.7727 63.4997 62.378 63.7962 61.029 64.2525C60.2973 64.5035 59.4285 64.8229 59.4971 65.7355C59.5428 66.169 60.2516 66.169 60.2059 65.7355Z" fill="black"/>
<path d="M70.0375 57.8415C71.4779 59.5755 73.81 59.9861 75.8906 60.4424C78.6572 61.0812 81.5152 61.6516 83.9388 63.1802C88.946 66.3287 89.8834 73.1959 85.9279 77.5992C85.6307 77.9186 86.1108 78.4205 86.4081 78.0783C89.9291 74.177 90.0206 68.1995 86.3852 64.321C84.4646 62.2676 81.721 61.1953 79.0459 60.4881C76.3251 59.7808 72.4153 59.6667 70.4947 57.3396C70.2432 57.0202 69.7631 57.4993 70.0375 57.8415Z" fill="black"/>
<path d="M86.0423 69.7737C84.8991 68.268 82.8871 67.7432 81.1265 68.4733C78.9545 69.3631 78.8401 72.0324 79.0916 74.0629C79.1374 74.4964 79.8233 74.4964 79.7776 74.0629C79.5718 72.4659 79.5489 70.0019 81.1951 69.2034C82.6127 68.4961 84.4647 68.8612 85.425 70.1388C85.6993 70.481 86.2938 70.1388 86.0423 69.7737Z" fill="black"/>
<path d="M79.686 73.7435C78.4285 72.7853 77.1252 71.9639 75.5019 72.3974C75.319 72.4431 75.2275 72.6484 75.2732 72.8081C75.6848 74.4051 78.1998 75.0668 79.526 75.6371C81.5609 76.5269 83.6415 77.2798 85.745 77.9414C86.1565 78.0783 86.3394 77.4167 85.9279 77.2798C84.236 76.755 82.5897 76.1847 80.9435 75.5002C80.0518 75.1352 79.183 74.7473 78.3142 74.3367C77.5368 73.9716 76.1421 73.5382 75.9134 72.6256C75.8448 72.7625 75.7534 72.8993 75.6848 73.0362C77.1024 72.6484 78.2684 73.4925 79.3202 74.3139C79.686 74.6105 80.029 74.0173 79.686 73.7435Z" fill="black"/>
<path d="M59.5886 65.6671C60.4803 67.1272 62.2866 67.3782 63.8642 67.6064C66.1963 67.9486 68.5285 67.9486 70.8606 67.6976C71.295 67.652 71.295 66.9675 70.8606 67.0132C68.9857 67.2185 67.1109 67.2641 65.236 67.0816C63.6584 66.9219 61.1205 66.8306 60.1602 65.3249C59.9544 64.937 59.36 65.2792 59.5886 65.6671Z" fill="black"/>
<path d="M54.2613 63.3399C54.5585 61.7429 55.9532 60.9215 57.5079 60.8531C57.3936 60.7618 57.2793 60.6934 57.1879 60.6021C57.3022 61.1497 57.4622 61.6744 57.6909 62.1764C57.8509 62.587 58.514 62.4045 58.3539 61.9938C58.1481 61.4691 57.9881 60.9672 57.8509 60.4196C57.828 60.2827 57.668 60.1686 57.5308 60.1686C55.7017 60.2599 53.964 61.2638 53.6211 63.1574C53.5296 63.5909 54.1927 63.7734 54.2613 63.3399Z" fill="black"/>
<path d="M58.2396 56.2674C57.8966 55.2863 57.6451 54.2597 57.5537 53.2102C57.5537 53.1189 57.5308 53.0277 57.5308 52.9364C57.508 52.7311 57.5308 52.7539 57.6223 53.0049C57.828 53.1417 58.0338 53.3014 58.2396 53.4611C58.5826 53.7577 58.9027 54.0772 59.177 54.4194C59.4743 54.7616 59.9544 54.2597 59.6572 53.9403C59.2685 53.484 57.6451 51.6131 56.9592 52.3432C56.6163 52.7083 56.8678 53.5524 56.9364 53.9631C57.0507 54.8072 57.2793 55.6514 57.5537 56.4499C57.7366 56.8606 58.3996 56.7009 58.2396 56.2674Z" fill="black"/>
<path d="M65.9677 53.0733C66.1734 52.7082 66.3792 52.3432 66.6079 51.9782C66.6993 51.8185 66.7908 51.6816 66.8594 51.5219C66.9965 51.2937 66.9965 51.0884 67.2709 51.1568C67.591 51.2253 67.4767 51.9782 67.4767 52.252C67.4767 52.6854 67.4995 53.1189 67.4995 53.5524C67.4995 53.9859 68.1855 53.9859 68.1855 53.5524C68.1855 52.8451 68.2083 52.1379 68.1626 51.4306C68.1397 50.9743 67.9797 50.4724 67.4767 50.3127C67.0194 50.1758 66.6993 50.4724 66.4707 50.8146C66.082 51.4306 65.739 52.0923 65.3732 52.7083C65.1446 53.1189 65.739 53.4611 65.9677 53.0733Z" fill="black"/>
<path d="M87.8714 67.9942C88.0086 69.7281 89.952 70.2985 91.301 69.4543C93.2902 68.2223 93.7246 65.4389 93.4731 63.3399C93.1301 60.4653 92.4442 57.7959 93.4274 54.9441C94.3648 52.2291 96.6969 50.0161 99.6464 49.8336C100.081 49.8107 100.081 49.1263 99.6464 49.1491C95.6223 49.4001 92.8786 52.8223 92.307 56.6096C91.9641 58.8682 92.4671 60.9672 92.7643 63.1802C92.9472 64.6404 92.8558 66.0321 92.1927 67.3782C91.8955 67.9485 91.4839 68.5189 90.9352 68.884C90.0892 69.4087 88.6259 69.249 88.5345 68.017C88.5345 67.5607 87.8485 67.5379 87.8714 67.9942Z" fill="black"/>
<path d="M88.2373 69.2262C88.946 71.1198 91.4153 70.2757 92.49 69.1806C94.2505 67.401 93.8618 64.4351 93.7246 62.1764C93.7018 61.7429 93.0158 61.7429 93.0387 62.1764C93.1302 63.6138 93.2673 65.1652 93.0158 66.6025C92.9015 67.2869 92.65 67.9257 92.1927 68.4733C91.6897 69.0893 89.4948 70.6407 88.9003 69.0437C88.7403 68.633 88.0772 68.8155 88.2373 69.2262Z" fill="black"/>
<path d="M99.6692 49.1263C97.0627 50.1302 94.4333 51.5447 93.3816 54.2825C92.1698 57.4309 93.0386 60.8531 92.97 64.1156C92.97 64.5491 93.6559 64.5491 93.6559 64.1156C93.7245 61.2638 93.0386 58.3435 93.7245 55.5145C94.4791 52.4116 97.0627 50.8602 99.8521 49.7879C100.264 49.6282 100.081 48.9666 99.6692 49.1263Z" fill="black"/>
<path d="M99.1434 49.5141C96.7426 50.6092 94.5477 52.5257 93.4274 54.9669C92.8329 56.2445 92.9244 57.659 92.9244 59.0507C92.9244 60.8303 92.993 62.6327 93.1301 64.4122C93.153 64.8457 93.8389 64.8457 93.8161 64.4122C93.7246 62.9749 93.656 61.5604 93.6332 60.123C93.6103 58.6173 93.4045 56.8377 93.9761 55.4232C94.9593 53.0276 97.1771 51.1796 99.4863 50.1073C99.8979 49.9248 99.5549 49.3316 99.1434 49.5141Z" fill="black"/>
<path d="M59.1541 57.7731C59.7943 58.891 61.4177 58.5032 61.5777 57.2712C61.6006 57.043 61.2576 57.0659 61.2348 57.2712C61.1204 58.2066 59.9315 58.3891 59.4514 57.6134C59.337 57.4081 59.0398 57.5906 59.1541 57.7731Z" fill="white"/>
<path d="M64.0013 56.8833C64.7101 58.0925 66.5164 57.6134 66.5392 56.2217C66.5392 55.9936 66.1963 55.9936 66.1963 56.2217C66.1734 57.294 64.8473 57.6362 64.2985 56.7236C64.1842 56.5183 63.887 56.678 64.0013 56.8833Z" fill="white"/>
<path d="M62.6295 58.3891C62.7895 59.0508 62.6523 59.7124 62.2408 60.2599C62.1036 60.4425 62.4008 60.6022 62.538 60.4425C62.9953 59.8265 63.1325 59.0508 62.9724 58.2979C62.9038 58.0925 62.5609 58.1838 62.6295 58.3891Z" fill="white"/>
<path d="M62.7667 58.3664C62.6981 59.2333 63.1783 60.0547 63.9785 60.4197C64.1843 60.5109 64.3444 60.2144 64.1615 60.1231C63.4755 59.8037 63.0411 59.1192 63.1097 58.3664C63.1097 58.1382 62.7667 58.1382 62.7667 58.3664Z" fill="white"/>
<path d="M57.1879 60.3968C59.1999 60.2371 60.4803 61.8798 61.8293 63.089C61.9893 63.2258 62.2408 62.9977 62.0808 62.838C60.6632 61.5604 59.2914 59.8949 57.1879 60.0318C56.9821 60.0546 56.9821 60.3968 57.1879 60.3968Z" fill="white"/>
<path d="M60.9376 64.4123C63.5212 62.7696 66.585 62.222 69.5802 62.8837C69.786 62.9293 69.8774 62.6099 69.6717 62.5643C66.585 61.9026 63.4298 62.4502 60.7776 64.1385C60.5718 64.2298 60.7547 64.5264 60.9376 64.4123Z" fill="white"/>
<path d="M67.4309 67.5379C69.5573 67.6748 71.5693 67.0131 73.1927 65.6214C73.3527 65.4846 73.1241 65.2336 72.9412 65.3705C71.3864 66.6937 69.4658 67.3326 67.4309 67.1957C67.2252 67.1957 67.2252 67.5379 67.4309 67.5379Z" fill="white"/>
<path d="M66.8136 51.3393C66.3106 52.1835 66.1963 53.1645 66.4935 54.1C66.5621 54.3053 66.8822 54.214 66.8136 54.0087C66.5392 53.1645 66.6307 52.2748 67.088 51.5219C67.2252 51.3165 66.9279 51.134 66.8136 51.3393Z" fill="white"/>
<path d="M57.7595 53.4612C58.3082 53.8034 58.6512 54.3281 58.7884 54.9441C58.8341 55.1495 59.1542 55.0582 59.1085 54.8529C58.9484 54.1456 58.5369 53.5524 57.9195 53.1646C57.7366 53.0505 57.5766 53.3471 57.7595 53.4612Z" fill="white"/>
<path d="M69.8546 57.1115C70.289 57.6362 70.792 58.0925 71.3636 58.4348C71.5465 58.5488 71.7295 58.2522 71.5465 58.1382C70.9978 57.7959 70.4948 57.3625 70.1061 56.8605C69.946 56.7008 69.7174 56.9518 69.8546 57.1115Z" fill="white"/>
<path d="M83.9617 68.3135C83.4816 67.1044 81.1723 67.9257 80.4178 68.4048C79.0688 69.2946 78.4743 70.9601 78.9773 72.4887C79.0459 72.694 79.366 72.6027 79.2974 72.3974C78.9087 71.1882 79.2288 69.8878 80.1891 68.998C80.6007 68.6101 81.1494 68.3364 81.6982 68.1995C82.0869 68.0854 83.413 67.8344 83.6188 68.382C83.7102 68.6101 84.0303 68.5189 83.9617 68.3135Z" fill="white"/>
<path d="M79.2516 72.5115C77.4682 71.7586 75.5705 71.6902 73.7185 72.2606C73.5128 72.329 73.6042 72.6484 73.81 72.58C75.6162 72.0096 77.4225 72.1008 79.1602 72.8309C79.3659 72.9222 79.4574 72.58 79.2516 72.5115Z" fill="white"/>
<path d="M142.059 167.398C141.122 169.634 141.122 171.3 140.985 175.589C140.825 180.882 140.367 186.152 140.322 191.422C140.276 195.871 140.207 202.602 140.024 211.363C147.341 211.773 155.435 211.864 164.214 211.431C172.583 211.02 180.311 210.176 187.284 209.127C183.992 198.016 181.82 189.917 180.265 183.643C179.442 180.289 178.23 175.27 174.892 169.406C173.063 166.189 171.165 163.771 169.77 162.151C169.405 161.832 161.334 155.056 152.005 158.25C151.548 158.432 144.757 160.896 142.059 167.398Z" fill="#EC615B"/>
<path d="M155.526 180.699C157.058 183.414 158.59 186.129 160.099 188.844C160.305 189.232 160.899 188.89 160.693 188.502C159.161 185.787 157.63 183.072 156.121 180.357C155.915 179.969 155.32 180.312 155.526 180.699Z" fill="#C64F4F"/>
<path d="M155.343 180.562C158.864 184.943 160.899 189.939 161.997 195.415C163.025 200.594 163.689 205.841 164.077 211.112C164.1 211.545 164.786 211.545 164.763 211.112C164.352 205.704 163.666 200.297 162.614 194.981C161.516 189.483 159.367 184.464 155.846 180.083C155.572 179.718 155.069 180.22 155.343 180.562Z" fill="#C64F4F"/>
<path opacity="0.19" d="M160.853 157.725C161.654 159.322 162.797 161.672 164.077 164.501C167.804 172.76 171.668 181.475 173.726 192.198C174.572 196.533 175.372 202.807 175.029 210.632C176.95 210.541 178.985 210.381 181.111 210.153C183.237 209.925 185.272 209.651 187.193 209.332C186.598 207.324 185.638 204.13 184.563 200.183C181.568 189.141 181.157 185.696 178.596 178.418C176.698 173.011 174.938 169.338 172.4 165.824C170.113 162.653 167.964 160.668 165.243 159.276C163.551 158.409 161.974 157.976 160.853 157.725Z" fill="#3F3F3F"/>
<path opacity="0.11" d="M155.389 180.813C156.281 184.144 157.058 188.114 157.424 192.586C158.064 200.32 157.241 206.914 156.235 211.842C158.864 211.682 161.471 211.522 164.1 211.363C163.826 206.184 163.231 201.826 162.66 198.518C161.219 190.099 159.71 186.974 158.498 184.966C157.355 183.118 156.212 181.726 155.389 180.813Z" fill="#3F3F3F"/>
<path d="M126.1 128.522C125.345 129.024 124.888 129.982 123.997 131.876C123.265 133.427 122.922 134.636 122.373 136.439C120.864 141.549 121.024 140.682 120.498 142.621C119.812 145.2 118.578 149.717 117.892 155.672C117.229 161.444 117.366 165.893 117.389 166.965C117.64 173.741 118.829 178.783 119.629 182.023C121.047 187.84 122.945 192.677 126.717 202.328C127.54 204.404 128.226 206.115 128.707 207.302C128.364 207.347 127.815 207.416 127.152 207.507C123.699 207.918 123.219 207.826 121.824 208.123C120.041 208.511 118.441 208.899 117.823 210.245C117.549 210.861 117.435 211.728 117.778 212.024C118.212 212.389 119.058 211.568 120.521 211.089C121.756 210.701 122.853 210.724 123.608 210.838C123.013 212.001 122.67 213.051 122.465 213.804C121.962 215.538 121.573 216.952 122.213 217.956C122.533 218.458 123.151 218.914 123.654 218.777C123.928 218.709 124.179 218.458 124.865 216.656C125.528 214.853 125.574 214.283 126.123 213.576C126.603 212.982 127.152 212.663 127.518 212.48C127.335 213.051 127.129 213.895 127.037 214.922C126.992 215.538 126.923 216.108 127.037 216.838C127.129 217.5 127.335 218.914 128.386 219.69C128.569 219.827 129.324 220.397 129.781 220.101C130.17 219.873 130.055 219.234 130.216 217.18C130.353 215.446 130.49 214.967 130.604 214.694C130.901 213.895 131.359 213.325 131.702 212.982C131.587 214.625 131.61 215.994 131.656 216.998C131.747 218.618 131.907 219.348 132.433 219.804C132.731 220.055 133.234 220.306 133.645 220.123C134.057 219.941 134.194 219.371 134.308 218.663C134.811 215.994 134.514 215.218 135.086 213.872C135.314 213.347 135.566 212.709 136.183 212.252C137.486 211.294 139.338 211.864 139.59 211.933C140.687 212.275 141.099 212.868 141.648 212.617C142.105 212.412 142.356 211.75 142.379 211.203C142.402 209.857 140.916 208.83 139.636 207.986C138.995 207.552 138.035 206.982 136.755 206.526C135.634 204.313 134.217 201.096 133.051 197.012C132.273 194.274 131.907 192.175 131.565 190.19C130.353 183.232 130.787 180.563 129.438 173.65C129.118 171.984 128.798 170.661 128.615 169.908C128.707 168.767 128.867 166.988 129.095 164.82C129.85 157.748 130.353 153.322 131.885 148.12C133.096 144.036 134.331 140.682 134.331 140.682C135.886 136.507 136.389 135.937 136.206 134.591C135.566 130.347 128.912 126.651 126.1 128.522Z" fill="white"/>
<path d="M124.339 130.689C120.27 140.066 117.709 150.082 117.16 160.303C116.589 170.729 118.395 180.928 121.779 190.784C123.699 196.419 126.031 201.894 128.409 207.37C128.592 207.781 129.164 207.416 129.004 207.028C124.888 197.537 120.864 187.909 118.944 177.733C117.046 167.695 117.435 157.314 119.629 147.344C120.864 141.755 122.648 136.302 124.934 131.054C125.094 130.644 124.522 130.279 124.339 130.689Z" fill="#161616"/>
<path d="M132.868 143.717C129.987 152.409 128.478 161.512 128.318 170.661C128.318 171.094 129.004 171.094 129.004 170.661C129.164 161.558 130.673 152.546 133.531 143.899C133.668 143.488 133.005 143.306 132.868 143.717Z" fill="#161616"/>
<path d="M125.917 166.509C127.952 169.338 128.775 172.714 129.255 176.091C129.758 179.536 129.987 183.027 130.49 186.472C131.496 193.476 133.142 200.457 136.457 206.731C136.663 207.119 137.258 206.777 137.052 206.389C133.599 199.864 131.976 192.586 131.016 185.331C130.17 178.966 130.421 171.596 126.512 166.166C126.26 165.824 125.666 166.166 125.917 166.509Z" fill="#161616"/>
<path d="M128.318 207.05C126.191 207.165 124.065 207.37 121.985 207.758C120.498 208.054 118.921 208.533 117.892 209.72C117.297 210.427 116.543 212.115 117.846 212.595C118.418 212.8 118.921 212.412 119.401 212.138C120.59 211.454 121.824 210.747 123.242 211.134C123.676 211.248 123.859 210.587 123.425 210.473C122.259 210.153 121.207 210.427 120.155 210.952C119.835 211.112 119.538 211.271 119.241 211.454C119.058 211.545 118.898 211.659 118.715 211.773C118.509 211.408 118.281 211.043 118.075 210.678C118.121 210.108 119.264 209.446 119.675 209.218C120.796 208.625 122.099 208.419 123.333 208.237C125.003 207.986 126.672 207.826 128.341 207.735C128.775 207.712 128.775 207.028 128.318 207.05Z" fill="#161616"/>
<path d="M126.443 209.081C124.637 209.378 123.151 210.61 122.465 212.275C121.733 214.009 121.116 216.587 121.962 218.367C122.602 219.713 124.179 220.192 124.774 218.549C125.14 217.523 125.071 216.405 125.437 215.378C125.894 214.1 126.672 213.005 127.815 212.252C128.181 212.001 127.838 211.408 127.472 211.659C126.397 212.366 125.597 213.325 125.071 214.488C124.797 215.081 124.591 215.697 124.454 216.336C124.339 216.861 124.271 219.508 123.013 218.732C122.305 218.298 122.236 216.907 122.259 216.199C122.305 215.15 122.579 213.941 122.922 212.937C123.493 211.249 124.842 210.039 126.603 209.743C127.06 209.674 126.877 209.013 126.443 209.081Z" fill="#161616"/>
<path d="M128.592 210.769C127.175 211.682 126.672 213.667 126.534 215.264C126.397 216.975 126.877 218.823 128.158 220.032C128.912 220.739 130.078 221.104 130.284 219.781C130.627 217.568 129.735 214.443 132.159 213.119C132.548 212.914 132.205 212.321 131.816 212.526C130.947 213.005 130.398 213.781 130.056 214.716C129.575 216.085 129.85 217.477 129.644 218.891C129.553 219.53 129.37 220.215 128.661 219.553C128.409 219.325 128.181 219.028 127.998 218.732C127.563 218.047 127.312 217.272 127.243 216.473C127.083 214.876 127.495 212.321 128.958 211.363C129.301 211.112 128.958 210.518 128.592 210.769Z" fill="#161616"/>
<path d="M131.839 212.594C131.404 214.237 130.993 215.948 131.267 217.659C131.382 218.481 131.862 220.488 132.913 220.694C134.102 220.922 134.583 218.823 134.697 218.047C134.948 216.359 134.628 214.328 135.954 213.028C136.274 212.709 135.794 212.229 135.474 212.549C133.874 214.123 134.422 216.405 133.942 218.412C133.782 219.142 133.325 220.238 132.571 219.393C132.159 218.96 132.045 218.116 131.953 217.545C131.725 215.948 132.113 214.351 132.525 212.8C132.616 212.366 131.953 212.184 131.839 212.594Z" fill="#161616"/>
<path d="M136.777 207.119C138.126 207.667 139.521 208.26 140.573 209.309C141.053 209.788 141.648 210.518 141.785 211.203C142.128 213.096 140.71 211.887 140.184 211.659C138.744 211.02 135.886 211.477 135.063 212.937C134.857 213.325 135.451 213.667 135.657 213.279C136.092 212.48 137.28 212.275 138.104 212.161C138.607 212.093 139.178 212.047 139.658 212.184C140.207 212.344 140.55 212.823 141.076 212.982C141.83 213.211 142.402 212.686 142.516 211.956C142.722 210.769 141.693 209.446 140.893 208.67C139.773 207.598 138.332 207.005 136.915 206.435C136.549 206.298 136.389 206.959 136.777 207.119Z" fill="#161616"/>
<path opacity="0.13" d="M132.159 136.347C129.53 136.507 127.952 143.215 127.083 146.933C126.1 151.109 125.208 156.858 125.391 165.231C125.551 172.714 126.512 178.418 126.832 180.403C128.272 188.936 130.536 196.099 132.753 201.712C133.485 203.765 134.194 205.819 134.925 207.849C134.514 209.537 134.102 211.271 133.714 213.074C133.211 215.446 132.753 217.774 132.388 220.009C132.822 220.055 133.416 220.032 133.828 219.622C134.354 219.097 134.285 218.253 134.308 217.523C134.331 216.838 134.4 213.53 135.886 212.298C136.8 211.545 138.264 211.545 139.27 211.91C140.299 212.298 140.756 213.051 141.442 212.823C141.968 212.663 142.333 212.024 142.402 211.522C142.631 209.857 139.43 208.146 138.904 207.872C137.875 207.324 137.395 207.256 136.732 206.571C135.909 205.704 135.634 204.678 135.52 204.222C133.622 197.012 132.685 197.468 131.404 189.187C130.444 182.935 131.061 183.3 130.078 178.327C129.392 174.813 128.821 173.376 128.638 170.341C128.432 167.011 128.821 164.41 129.232 162.105C130.947 152.683 134.24 141.275 135.04 138.56C134.308 137.42 133.302 136.279 132.159 136.347Z" fill="#3F3F3F"/>
<path d="M178.826 42.5573C178.117 42.5345 177.569 43.8122 177.432 44.1544C177.226 44.6563 176.906 45.6373 177.134 47.029C177.134 47.029 177.271 47.9873 177.729 53.7822C177.843 55.0827 177.866 56.9763 177.523 59.3491C176.608 61.8587 175.74 63.8208 175.145 65.0984C173.133 69.3876 171.784 71.0987 168.972 76.5286C167.92 78.5592 167.829 78.8786 166.594 81.3882C163.507 87.6166 161.244 91.518 158.935 95.6931C156.9 99.3435 154.042 104.705 150.681 111.595C150.521 112.188 149.72 115.359 151.572 118.143C153.539 121.086 157.654 122.409 161.633 121.132C162.25 120.265 163.119 118.919 163.919 117.162C164.696 115.451 165.062 114.127 165.314 113.283C165.565 112.439 166.571 109.587 168.606 103.838C169.246 102.058 170.024 99.9367 171.601 95.7844C174.002 89.419 175.191 86.2478 175.991 84.2629C177.797 79.7455 179.169 76.6199 181.867 70.5511C183.285 67.3571 185.022 63.5014 187.034 59.1209C188.2 58.4593 189.801 57.4326 191.516 55.9496C193.985 53.8279 195.22 52.0255 197.598 48.6033C199.129 46.3674 200.296 44.4053 199.975 42.4433C199.93 42.1695 199.815 41.371 199.381 41.2569C198.832 41.0972 198.146 42.1923 197.392 43.1505C196.614 44.1316 195.448 45.4092 193.711 46.7325C194.305 45.0898 194.9 43.8122 195.311 42.968C196.249 41.0516 197.026 39.8196 197.506 37.6978C198.032 35.4391 197.552 35.0284 197.415 34.9144C196.797 34.4581 195.746 35.325 195.128 34.8231C194.58 34.344 195.06 33.2945 194.625 33.0436C194.191 32.7926 193.231 33.5455 192.545 34.344C191.356 35.7129 191.081 37.0361 190.647 38.3138C190.235 39.5686 189.481 41.2797 188.063 43.1733C187.72 43.219 187.263 43.2418 187.057 42.968C186.829 42.6486 187.149 42.1239 187.446 41.2797C187.515 41.0744 187.469 41.1884 187.949 39.0895C188.132 38.291 188.475 36.808 188.749 35.6216C189.138 33.9105 189.321 33.2033 188.955 32.4504C188.886 32.2907 188.589 31.6747 188.155 31.6518C187.652 31.629 187.263 32.4276 186.966 33.0436C185.754 35.5304 185.137 36.7852 184.977 37.2187C184.176 39.3861 183.102 42.6942 182.942 43.835C182.919 43.9719 182.873 44.451 182.645 45.067C182.53 45.3636 182.462 45.4776 182.393 45.6602C181.821 46.9378 182.302 47.7819 181.707 48.2382C181.639 48.2839 181.296 48.5348 181.021 48.4436C180.724 48.3523 180.587 47.9645 180.427 46.664C180.198 44.8845 180.335 44.3597 179.924 43.584C179.649 43.2418 179.306 42.5802 178.826 42.5573Z" fill="white"/>
<path d="M177.727 53.1188C177.887 51.4533 177.636 49.8335 177.544 48.168C177.498 47.3695 177.498 46.5481 177.613 45.7496C177.681 45.2933 177.773 44.837 177.91 44.4035C178.139 43.7419 178.162 43.1943 178.893 43.1715C179.579 43.1487 179.533 43.5594 179.648 44.1298C179.762 44.6317 179.785 45.1564 179.808 45.6583C179.853 46.3656 179.876 47.0957 180.036 47.7801C180.196 48.4874 180.631 49.0806 181.431 48.8296C181.843 48.6927 181.683 48.0311 181.248 48.168C180.448 48.3961 180.517 45.704 180.471 45.2477C180.402 44.5176 180.334 43.7647 180.059 43.0803C179.671 42.122 178.779 41.6429 178.024 42.5327C177.041 43.6735 176.835 45.7268 176.835 47.1413C176.835 49.149 177.224 51.1111 177.041 53.1188C177.018 53.5523 177.704 53.5523 177.727 53.1188Z" fill="#161616"/>
<path d="M181.705 48.5559C182.849 46.3428 183.192 43.8332 183.855 41.4604C184.563 38.9052 185.455 36.3955 186.781 34.1141C187.079 33.6121 187.376 32.9049 187.81 32.517C188.656 31.7413 188.656 33.2243 188.588 33.8631C188.45 35.2776 188.085 36.715 187.764 38.1067C187.467 39.3843 187.056 40.6163 186.758 41.8939C186.598 42.6012 186.598 43.2172 187.101 43.7647C187.399 44.0841 187.879 43.605 187.582 43.2856C187.01 42.6696 187.604 41.4376 187.787 40.776C187.993 40.0231 188.199 39.2702 188.359 38.5173C188.679 37.1256 188.999 35.7111 189.205 34.2738C189.319 33.5209 189.479 32.1976 188.816 31.6272C188.245 31.1481 187.673 31.6044 187.284 32.0607C185.615 34.1369 184.586 36.8747 183.763 39.3843C182.826 42.2818 182.529 45.5215 181.111 48.2365C180.905 48.6015 181.5 48.9437 181.705 48.5559Z" fill="#161616"/>
<path d="M187.261 43.8332C187.947 43.9016 188.199 43.3997 188.519 42.8521C189.022 41.9852 189.479 41.0726 189.914 40.1828C190.76 38.4489 191.354 36.5552 192.383 34.9354C192.612 34.5704 192.886 34.1141 193.252 33.8403C193.549 33.4981 193.938 33.384 194.441 33.5437C194.509 33.8631 194.555 34.1825 194.555 34.5019C194.578 35.6198 194.212 36.7378 193.823 37.7872C193.046 39.8634 192.177 41.9167 191.331 43.9929C191.171 44.4035 191.834 44.5861 191.994 44.1754C192.474 42.989 197.413 32.5855 194.189 32.517C193.549 32.4942 192.817 33.2927 192.452 33.7262C191.811 34.4791 191.354 35.3461 190.942 36.2358C190.462 37.3081 190.028 38.3804 189.525 39.4299C189.228 40.0687 188.885 40.7304 188.565 41.3464C188.359 41.757 187.856 43.1715 187.284 43.1259C186.827 43.1031 186.827 43.7875 187.261 43.8332Z" fill="#161616"/>
<path d="M195.355 35.4373C195.607 34.114 197.047 35.0266 197.23 35.8708C197.39 36.5781 197.116 37.2853 196.887 37.9469C196.544 38.9508 196.156 39.9318 195.744 40.8901C194.944 42.7609 194.006 44.5405 192.955 46.2972C192.726 46.685 193.32 47.0273 193.549 46.6394C194.532 45.0196 195.401 43.3313 196.178 41.6201C196.841 40.1372 197.642 38.4945 197.893 36.8747C198.053 35.848 197.756 34.5247 196.613 34.1597C195.767 33.8859 194.852 34.4106 194.692 35.2776C194.624 35.6883 195.287 35.8708 195.355 35.4373Z" fill="#161616"/>
<path d="M194.029 46.9132C194.898 45.9322 195.744 44.9511 196.613 43.9701C197.07 43.4453 197.482 42.875 197.985 42.4187C198.145 42.2818 198.305 42.1677 198.442 42.0308C198.831 42.1677 199.219 42.3046 199.631 42.4415C199.745 42.6468 199.471 43.24 199.402 43.4225C198.693 45.5899 197.664 47.6433 196.453 49.5597C194.006 53.4154 190.645 56.6551 186.713 59.005C186.324 59.2332 186.69 59.8264 187.056 59.5982C191.948 56.6779 195.973 52.3887 198.51 47.301C199.128 46.069 199.722 44.7686 200.111 43.4453C200.34 42.6696 200.477 41.6202 199.585 41.2095C198.716 40.7988 197.802 41.5973 197.253 42.1677C195.95 43.5138 194.761 45.0196 193.526 46.4341C193.252 46.7535 193.732 47.2326 194.029 46.9132Z" fill="#161616"/>
<path d="M177.133 52.4116C177.293 54.5106 177.453 56.6552 177.11 58.7541C176.767 60.8303 175.898 62.7467 174.938 64.6175C172.994 68.4048 170.959 72.1464 168.97 75.9109C164.992 83.4398 161.014 90.9459 157.035 98.4748C154.749 102.787 152.462 107.122 150.176 111.434C149.97 111.821 150.565 112.164 150.77 111.776C158.979 96.2389 167.347 80.7704 175.418 65.1423C176.378 63.2943 177.27 61.4006 177.659 59.3701C178.116 57.0658 177.956 54.7387 177.773 52.4116C177.796 51.9781 177.11 51.9781 177.133 52.4116Z" fill="#161616"/>
<path d="M186.667 58.8454C179.35 74.2682 172.971 90.0561 167.347 106.163C165.701 110.84 164.054 115.517 162.065 120.058C161.882 120.468 162.477 120.81 162.66 120.4C166.067 112.666 168.559 104.566 171.485 96.6724C174.48 88.5503 177.727 80.4966 181.18 72.5571C183.146 68.0626 185.158 63.6137 187.261 59.1876C187.444 58.7997 186.85 58.4575 186.667 58.8454Z" fill="#161616"/>
<path opacity="0.1" d="M197.001 35.1635C196.064 35.0267 194.807 38.8595 194.075 40.776C191.857 46.6622 189.982 47.3467 185.226 55.3319C183.466 58.275 181.042 62.701 178.596 68.4732C171.279 83.8504 163.986 99.2504 156.669 114.628C158.453 116.795 160.213 118.985 161.997 121.153C162.888 118.62 164.192 114.901 165.815 110.407C168.764 102.308 172.583 91.8812 177.979 79.1962C180.128 74.1769 183.1 67.4009 186.918 59.4385C187.97 58.7769 189.433 57.7502 191.034 56.3357C193.183 54.4649 196.018 51.9324 197.962 47.803C198.579 46.5253 199.356 44.5633 199.768 41.9852C199.471 41.8483 199.036 41.6886 198.556 41.7798C197.733 41.9395 197.299 42.7381 196.956 43.2856C195.63 45.3161 193.686 46.6622 193.435 46.5025C193.297 46.3884 193.686 45.7268 194.738 43.5822C196.887 39.179 195.995 40.3425 196.841 38.8595C197.322 38.0154 197.802 37.2853 197.642 36.3499C197.642 35.9392 197.39 35.232 197.001 35.1635Z" fill="#3F3F3F"/>
<path opacity="0.13" d="M195.607 50.7233C194.464 51.4533 192.84 52.5256 190.988 53.9402C188.862 55.5372 186.576 57.2711 184.655 59.4613C182.048 62.4273 180.905 65.3704 180.219 67.0815C173.932 83.0975 166.455 100.482 164.329 105.319C163.163 107.966 161.334 111.958 158.91 116.749C160.008 118.187 161.128 119.624 162.225 121.061C165.381 111.456 169.016 101.395 173.177 90.9686C177.659 79.7665 182.3 69.2945 186.964 59.5526C188.222 58.7085 189.639 57.6362 191.08 56.2445C193.115 54.3052 194.578 52.3431 195.607 50.7233Z" fill="#3F3F3F"/>
<path d="M134.812 116.773C133.966 117.343 132.068 118.666 130.125 120.811C128.113 123.024 126.947 125.1 125.987 126.857C125.232 128.203 124.683 129.389 124.295 130.256C124.889 131.397 125.849 133.154 127.176 135.253C129.531 138.972 131.36 140.979 134.515 145.017C135.841 146.706 137.762 149.238 140.048 152.432C140.414 154.143 140.734 155.946 141.008 157.839C141.557 161.718 141.763 165.323 141.763 168.562C142.609 169.475 144.072 170.798 146.221 171.734C149.788 173.308 153.035 172.852 154.727 172.578C158.476 172.007 161.037 170.342 162.798 169.178C165.999 167.079 168.171 164.57 169.611 162.494C169.314 158.935 168.925 155.261 168.445 151.451C168.034 148.212 167.576 145.063 167.073 142.006C167.027 139.61 166.799 136.348 166.021 132.561C165.381 129.389 164.604 125.693 162.295 121.313C159.414 115.86 155.824 112.552 154.429 111.343C153.195 110.27 152.074 109.472 151.251 108.902C147.913 111.023 145.032 112.347 143.066 113.145C139.408 114.651 137.693 114.879 134.812 116.773Z" fill="white"/>
<path d="M124.66 130.347C125.368 127.655 127.335 125.145 129.027 122.955C130.81 120.674 132.822 118.597 135.223 116.932C135.589 116.681 135.246 116.088 134.88 116.339C132.411 118.05 130.33 120.172 128.501 122.522C126.74 124.78 124.751 127.335 124.019 130.142C123.905 130.598 124.568 130.758 124.66 130.347Z" fill="#161616"/>
<path d="M124.157 130.575C128.867 138.789 134.445 146.5 140.779 153.55C141.076 153.869 141.556 153.39 141.259 153.071C134.971 146.067 129.438 138.401 124.751 130.233C124.522 129.845 123.928 130.187 124.157 130.575Z" fill="#161616"/>
<path d="M143.5 113.464C146.06 111.662 148.873 110.316 151.868 109.449C152.302 109.335 152.119 108.673 151.685 108.787C148.621 109.677 145.763 111.046 143.157 112.871C142.791 113.122 143.134 113.715 143.5 113.464Z" fill="#161616"/>
<path d="M151.296 109.631C162.225 117.228 166.912 130.552 166.386 143.443C166.364 143.876 167.05 143.876 167.072 143.443C167.621 130.279 162.774 116.772 151.639 109.038C151.296 108.787 150.953 109.38 151.296 109.631Z" fill="#161616"/>
<path d="M139.293 152.204C140.481 154.645 140.619 157.679 140.87 160.326C141.145 163.018 141.236 165.733 141.236 168.448C141.236 168.881 141.922 168.881 141.922 168.448C141.945 165.436 141.808 162.425 141.465 159.436C141.19 156.904 141.007 154.166 139.887 151.839C139.681 151.451 139.11 151.793 139.293 152.204Z" fill="#161616"/>
<path d="M141.67 168.585C145.1 172.783 150.953 173.969 156.052 172.669C158.887 171.938 161.516 170.547 163.871 168.813C166.226 167.079 168.467 165.071 169.793 162.425C169.999 162.037 169.404 161.695 169.199 162.082C167.918 164.615 165.769 166.554 163.506 168.22C161.311 169.84 158.864 171.163 156.212 171.916C151.228 173.307 145.489 172.235 142.128 168.106C141.876 167.763 141.396 168.242 141.67 168.585Z" fill="#161616"/>
<path d="M166.638 142.416C167.758 149.101 168.856 155.786 169.244 162.539C169.267 162.972 169.953 162.972 169.93 162.539C169.519 155.717 168.421 148.964 167.301 142.234C167.232 141.8 166.569 141.983 166.638 142.416Z" fill="#161616"/>
<path opacity="0.13" d="M144.368 112.551C146.906 115.54 150.382 120.194 153.285 126.491C157.538 135.709 158.384 143.671 159.024 150.447C159.527 155.603 159.802 162.79 158.796 171.368C160.739 170.524 163.483 169.064 166.135 166.531C167.598 165.117 168.696 163.702 169.519 162.47C168.764 156.105 168.01 149.717 167.255 143.352C167.392 138.104 166.569 133.861 165.792 130.986C163.391 122.088 158.773 116.362 157.218 114.559C155.092 112.072 153.011 110.247 151.479 109.038C149.101 110.224 146.746 111.388 144.368 112.551Z" fill="#3F3F3F"/>
<path opacity="0.14" d="M161.402 120.537C160.991 120.651 161.951 124.369 162.865 129.868C162.865 129.868 164.26 138.218 164.557 146.295C164.763 151.633 164.489 159.436 162.088 169.132C163.186 168.585 164.535 167.786 165.929 166.668C167.621 165.299 168.833 163.862 169.656 162.721C169.359 153.527 168.581 148.759 167.85 146.066C167.713 145.542 167.347 144.31 167.05 142.576C166.501 139.336 166.775 137.944 166.478 135.252C166.249 133.108 165.815 131.693 165.015 129.069C163.803 125.122 161.859 120.4 161.402 120.537Z" fill="#3F3F3F"/>
<path d="M134.493 79.2418C132.984 80.0859 131.064 81.3636 129.212 83.3028C125.37 87.3867 124.136 91.9497 123.701 94.2083C123.358 94.1627 122.421 94.0943 121.666 94.6874C120.546 95.5544 120.523 97.2655 120.958 98.2694C121.118 98.6344 121.346 98.931 121.826 99.5242C122.398 100.231 122.764 100.665 123.358 100.916C123.61 101.03 124.181 101.19 125.005 101.007C125.256 101.76 125.668 102.81 126.285 104.019C127.085 105.57 128.297 107.874 130.721 109.882C131.429 110.475 132.527 111.251 134.013 111.958C134.562 112.666 135.568 114.148 135.682 116.156C135.911 119.693 133.327 122.636 130.881 123.936C126.628 126.195 122.009 123.936 120.317 123.092C119.403 122.636 114.807 120.263 112.887 115.061C110.554 108.787 113.595 102.513 115.402 98.7713C117.231 95.0069 118.077 95.2578 119.471 91.5846C121.323 86.7251 120.34 85.014 122.467 81.2951C123.29 79.835 124.959 76.9147 128.457 75.5458C131.452 74.3822 134.219 74.9754 135.408 75.3176C136.391 74.7245 138.128 73.8803 140.323 73.8803C145.536 73.8803 148.875 78.8083 149.675 79.9947C152.053 83.4854 150.795 84.5577 152.922 89.4628C155.597 95.6457 158.203 95.2806 160.604 101.076C161.77 103.905 163.713 108.582 161.564 113.053C159.346 117.662 154.293 119.008 153.653 119.168C152.487 119.464 149.355 120.24 146.222 118.575C145.925 118.415 141.993 116.27 141.672 112.597C141.558 111.251 141.947 109.996 142.038 109.722C142.518 108.239 143.341 107.281 143.593 106.962C144.576 105.753 145.765 103.517 146.588 99.0679C146.977 99.0451 147.617 98.9538 148.257 98.5888C149.606 97.8131 150.246 96.2388 150.178 94.87C150.155 94.5506 150.064 92.7254 148.737 92.1094C148.189 91.8584 147.617 91.9268 147.297 91.9953C143.044 87.7061 138.769 83.4854 134.493 79.2418Z" fill="#5222D0"/>
<path d="M134.491 79.2189C131.953 80.7019 130.193 82.3446 129.072 83.5537C125.346 87.592 124.157 91.8127 123.905 92.7938C123.745 93.4098 123.631 93.9117 123.585 94.2767C123.334 94.1855 122.762 94.0258 122.19 94.2767C121.322 94.6646 121.139 95.714 121.047 96.2388C120.818 97.448 121.276 98.4062 121.459 98.7712C121.71 99.296 122.122 100.14 123.105 100.574C123.905 100.939 124.66 100.802 124.98 100.733C125.3 101.555 125.757 102.695 126.466 103.996C127.541 106.049 128.547 107.943 130.49 109.631C131.245 110.293 132.479 111.205 134.263 111.913C134.628 112.483 135.131 113.373 135.406 114.536C135.634 115.449 135.68 116.225 135.657 116.818C136.252 117.114 137.372 117.571 138.767 117.548C141.442 117.502 143.202 115.837 143.614 115.426C143.18 114.126 142.791 112.529 142.631 110.681C142.562 109.836 142.539 109.038 142.539 108.308C143.248 107.555 144.117 106.483 144.826 105.045C146.083 102.558 146.289 100.254 146.312 98.9081C146.632 98.9538 147.272 99.0222 147.958 98.7484C148.918 98.3606 149.353 97.5164 149.604 97.0373C149.673 96.9232 150.633 94.9612 149.764 93.0219C149.559 92.5884 149.216 91.7899 148.53 91.7215C148.027 91.6758 147.615 92.0637 147.455 92.2234C146.518 91.1055 144.757 89.0293 142.288 86.1775C140.161 83.6906 138.813 82.1392 136.549 80.5422C135.726 79.949 134.994 79.5155 134.491 79.2189Z" fill="white"/>
<path d="M131.336 103.425C131.107 103.95 132.182 104.886 132.685 105.274C133.737 106.049 134.857 106.163 135.269 106.186C135.749 106.232 137.326 106.346 138.767 105.319C139.11 105.068 140.07 104.407 140.436 103.175C140.687 102.285 140.619 101.053 140.139 100.847C139.773 100.711 139.43 101.167 138.652 101.714C137.281 102.65 135.863 102.878 134.651 103.06C132.593 103.38 131.565 102.969 131.336 103.425Z" fill="black"/>
<path d="M124.088 98.1553C124.911 101.578 126.237 104.931 128.432 107.715C130.376 110.202 133.256 112.597 136.617 112.278C139.727 111.981 142.265 109.563 143.911 107.099C145.855 104.224 146.792 100.779 146.701 97.3111C146.678 96.8777 145.992 96.8777 146.015 97.3111C146.106 100.482 145.283 103.585 143.614 106.277C142.036 108.81 139.43 111.479 136.252 111.616C132.891 111.753 130.124 109.015 128.341 106.46C126.557 103.905 125.46 100.962 124.728 97.9499C124.637 97.5393 123.974 97.7218 124.088 98.1553Z" fill="#161616"/>
<path d="M133.805 111.958C134.765 113.418 135.246 115.015 135.246 116.772C135.246 117.206 135.932 117.206 135.932 116.772C135.932 114.924 135.406 113.167 134.4 111.616C134.171 111.228 133.577 111.57 133.805 111.958Z" fill="#161616"/>
<path d="M135.566 117.046C138.355 118.643 141.968 117.867 143.865 115.312C144.14 114.97 143.545 114.628 143.271 114.97C141.579 117.229 138.332 117.867 135.909 116.453C135.52 116.247 135.177 116.841 135.566 117.046Z" fill="#161616"/>
<path d="M142.151 108.901C142.173 110.977 142.494 113.031 143.157 115.015C143.294 115.426 143.957 115.244 143.82 114.833C143.202 112.894 142.859 110.932 142.837 108.901C142.837 108.445 142.151 108.445 142.151 108.901Z" fill="#161616"/>
<path d="M124.774 100.323C124.477 100.642 123.745 100.528 123.402 100.346C123.128 100.209 122.876 100.003 122.67 99.798C122.213 99.3645 121.847 98.8398 121.619 98.2694C121.161 97.1971 120.956 94.1171 122.991 94.6646C123.425 94.7787 123.608 94.1171 123.173 94.003C120.658 93.3414 120.27 96.6723 120.91 98.3378C121.413 99.6839 123.722 102.467 125.277 100.802C125.551 100.482 125.071 100.003 124.774 100.323Z" fill="#161616"/>
<path d="M147.752 92.3375C148.027 91.4249 149.215 93.1816 149.353 93.5011C149.627 94.2311 149.718 95.0296 149.604 95.8054C149.421 97.3568 148.187 98.8397 146.472 98.4062C146.037 98.2922 145.855 98.9538 146.289 99.0679C149.055 99.7751 150.542 96.9005 150.29 94.5505C150.176 93.5239 149.764 92.2006 148.781 91.653C148.141 91.3108 147.318 91.4021 147.089 92.1322C146.952 92.5885 147.615 92.7482 147.752 92.3375Z" fill="#161616"/>
<path d="M127.22 87.5008C127.975 86.0634 129.301 85.128 130.902 84.8999C131.336 84.8314 131.153 84.1698 130.719 84.2382C128.958 84.4892 127.449 85.5843 126.626 87.1585C126.42 87.5464 127.015 87.8886 127.22 87.5008Z" fill="#161616"/>
<path d="M137.784 83.9873C139.704 83.531 141.625 84.4892 142.494 86.2232C142.699 86.611 143.271 86.2688 143.088 85.8809C142.082 83.8504 139.796 82.8009 137.601 83.3257C137.166 83.4397 137.349 84.1014 137.784 83.9873Z" fill="#161616"/>
<path d="M132.799 86.7935C133.234 89.2119 133.348 91.6987 133.096 94.1627C133.005 94.9156 132.639 95.9879 132.982 96.7408C133.348 97.5621 134.331 98.2694 134.948 98.9082C135.246 99.2276 135.749 98.7485 135.429 98.4291C135.017 97.9956 134.605 97.5849 134.194 97.1514C133.554 96.4898 133.485 96.2845 133.622 95.3263C133.737 94.4593 133.851 93.5695 133.897 92.6797C133.988 90.6492 133.828 88.6187 133.462 86.6338C133.394 86.1775 132.731 86.36 132.799 86.7935Z" fill="#161616"/>
<path d="M129.918 92.657C129.575 92.1094 129.415 91.5162 129.461 90.8774C129.461 90.7405 129.553 90.1473 129.667 90.1245C129.735 90.1245 129.85 90.923 129.873 91.0143C129.918 91.3109 129.941 91.6303 129.941 91.9269C129.941 92.0181 129.918 92.771 129.918 92.3147C129.895 91.6531 129.941 90.9915 129.964 90.3298C129.735 90.3527 129.507 90.3983 129.301 90.4211C129.415 91.1284 129.484 91.8356 129.484 92.5657C129.713 92.5657 129.941 92.5657 130.17 92.5657C130.17 92.4744 130.17 92.3832 130.17 92.2919C130.17 91.8584 129.484 91.8584 129.484 92.2919C129.484 92.3832 129.484 92.4744 129.484 92.5657C129.484 92.9992 130.17 92.9992 130.17 92.5657C130.17 91.79 130.101 91.0143 129.964 90.2386C129.895 89.8507 129.301 89.9648 129.301 90.3298C129.278 91.0599 129.187 91.8584 129.278 92.5885C129.324 92.9307 129.484 93.2502 129.873 93.3186C131.016 93.5467 130.673 91.3109 130.581 90.7633C130.513 90.3298 130.444 89.6682 130.033 89.4172C129.69 89.2119 129.324 89.4172 129.118 89.7367C128.546 90.6949 128.867 92.1094 129.392 92.9764C129.553 93.3642 130.147 93.022 129.918 92.657Z" fill="#161616"/>
<path d="M140.482 91.4477C140.139 90.9002 139.979 90.307 140.024 89.6682C140.024 89.5313 140.116 88.9381 140.23 88.9153C140.299 88.9153 140.413 89.7138 140.436 89.805C140.482 90.1016 140.504 90.421 140.504 90.7176C140.504 90.8089 140.482 91.5618 140.482 91.1055C140.459 90.4439 140.504 89.7822 140.527 89.1206C140.299 89.1434 140.07 89.1891 139.864 89.2119C139.979 89.9191 140.047 90.6264 140.047 91.3565C140.276 91.3565 140.504 91.3565 140.733 91.3565C140.733 91.2652 140.733 91.1739 140.733 91.0827C140.733 90.6492 140.047 90.6492 140.047 91.0827C140.047 91.1739 140.047 91.2652 140.047 91.3565C140.047 91.7899 140.733 91.7899 140.733 91.3565C140.733 90.5808 140.664 89.8051 140.527 89.0293C140.459 88.6415 139.864 88.7556 139.864 89.1206C139.841 89.8507 139.75 90.6492 139.841 91.3793C139.887 91.7215 140.047 92.0409 140.436 92.1093C141.579 92.3375 141.236 90.1016 141.145 89.5541C141.076 89.1206 141.007 88.459 140.596 88.208C140.253 88.0027 139.887 88.208 139.681 88.5274C139.11 89.4856 139.43 90.9002 139.956 91.7671C140.116 92.1778 140.71 91.8356 140.482 91.4477Z" fill="#161616"/>
<path d="M126.535 94.7559C126.969 94.7559 126.969 94.0715 126.535 94.0715C126.1 94.0715 126.1 94.7559 126.535 94.7559Z" fill="#161616"/>
<path d="M129.232 95.2578C129.255 95.2578 129.278 95.2578 129.324 95.2578C129.507 95.2578 129.667 95.0981 129.667 94.9156C129.667 94.7331 129.507 94.5734 129.324 94.5734C129.301 94.5734 129.278 94.5734 129.232 94.5734C129.05 94.5734 128.89 94.7331 128.89 94.9156C128.89 95.0981 129.027 95.2578 129.232 95.2578Z" fill="#161616"/>
<path d="M127.632 97.3568C128.066 97.3568 128.066 96.6723 127.632 96.6723C127.198 96.6723 127.175 97.3568 127.632 97.3568Z" fill="#161616"/>
<path d="M140.619 94.4136C140.642 94.4136 140.664 94.4136 140.71 94.4136C140.893 94.4136 141.053 94.2539 141.053 94.0714C141.053 93.8889 140.893 93.7292 140.71 93.7292C140.687 93.7292 140.664 93.7292 140.619 93.7292C140.436 93.7292 140.276 93.8889 140.276 94.0714C140.276 94.2539 140.413 94.4136 140.619 94.4136Z" fill="#161616"/>
<path d="M143.134 92.7254C143.568 92.7254 143.568 92.041 143.134 92.041C142.699 92.041 142.699 92.7254 143.134 92.7254Z" fill="#161616"/>
<path d="M142.791 94.5734C142.814 94.5734 142.836 94.5734 142.882 94.5734C143.065 94.5734 143.225 94.4137 143.225 94.2311C143.225 94.0486 143.065 93.8889 142.882 93.8889C142.859 93.8889 142.836 93.8889 142.791 93.8889C142.608 93.8889 142.448 94.0486 142.448 94.2311C142.471 94.4137 142.608 94.5734 142.791 94.5734Z" fill="#161616"/>
<path d="M131.907 103.95C131.542 103.426 130.947 102.673 131.199 101.988C131.496 101.213 132.433 101.327 133.051 101.418C133.805 101.532 134.423 101.669 135.154 101.441C135.749 101.258 136.275 100.87 136.823 100.574C138.127 99.8436 139.658 99.7752 140.07 101.486C141.236 106.163 132.959 107.487 131.679 103.38C131.542 102.969 130.879 103.129 131.016 103.562C132.593 108.605 142.379 106.734 140.664 101.144C140.367 100.209 139.658 99.4102 138.652 99.2961C137.006 99.1364 135.932 100.779 134.354 100.893C133.188 100.984 131.77 100.095 130.833 101.19C129.987 102.171 130.673 103.426 131.29 104.293C131.565 104.658 132.159 104.315 131.907 103.95Z" fill="#161616"/>
<path d="M130.581 102.65C131.084 104.042 133.599 103.608 134.697 103.448C136.8 103.129 138.721 102.216 140.344 100.87C140.687 100.596 140.207 100.095 139.864 100.391C138.675 101.395 137.303 102.125 135.794 102.536C135.131 102.718 131.633 103.494 131.267 102.49C131.084 102.057 130.421 102.239 130.581 102.65Z" fill="#161616"/>
<path d="M134.651 112.666C137.326 113.35 140.893 111.662 142.402 109.449C142.654 109.084 142.059 108.741 141.808 109.106C140.482 111.046 137.166 112.597 134.834 112.004C134.4 111.89 134.217 112.551 134.651 112.666Z" fill="#161616"/>
<path d="M134.903 112.871C137.281 114.354 141.19 112.255 142.333 109.996C142.539 109.608 141.945 109.266 141.739 109.654C140.779 111.57 137.281 113.555 135.246 112.3C134.857 112.05 134.514 112.643 134.903 112.871Z" fill="#161616"/>
<path opacity="0.2" d="M144.391 88.6871C144.551 89.5085 144.757 90.8089 144.894 92.3831C145.214 96.5811 145.763 103.608 141.51 108.285C140.596 109.289 138.652 111.069 135.063 112.072C136.206 112.027 137.601 111.89 139.11 111.502C139.864 111.319 140.55 111.091 141.167 110.84C141.259 112.871 141.327 114.901 141.419 116.932C142.196 116.43 142.951 115.951 143.728 115.449C142.676 113.122 142.676 111.319 142.814 110.179C143.019 108.582 143.614 107.281 144.208 105.981C144.734 104.84 145.283 103.927 145.717 103.289C145.763 103.768 145.877 104.27 146.198 104.749C147.592 106.825 151.959 107.03 154.703 105.251C157.241 103.608 158.476 100.277 157.835 96.8549C158.27 97.2199 158.727 97.6534 159.161 98.1781C159.504 98.5888 160.396 99.7752 161.631 103.95C162.019 105.251 162.202 105.912 162.317 106.574C162.454 107.487 162.705 109.221 162.225 111.183C161.402 114.559 158.956 116.498 158.224 117.046C157.698 117.434 156.098 118.597 153.697 119.145C152.554 119.396 149.124 120.217 145.9 118.346C144.689 117.639 144.025 117.114 143.66 116.476C143.271 115.768 143.225 115.107 143.179 114.605C142.974 111.479 142.882 109.905 143.088 108.833C143.705 105.73 145.1 105.41 145.877 101.874C146.152 100.596 146.22 99.5242 146.243 98.8397C146.54 98.8854 146.998 98.931 147.547 98.7941C148.69 98.4975 149.261 97.5621 149.467 97.2199C150.29 95.9194 150.656 93.5923 149.376 92.52C149.193 92.3603 148.553 91.8812 147.318 91.9725C146.38 90.8774 145.397 89.7822 144.391 88.6871Z" fill="#3F3F3F"/>
<path opacity="0.13" d="M133.554 96.0792C134.72 96.4214 135.909 96.7864 137.075 97.1286C136.778 97.4024 136.48 97.6534 136.16 97.9272C135.863 98.1781 135.589 98.3835 135.291 98.6116C134.926 98.3378 134.4 97.8587 133.988 97.1286C133.759 96.7408 133.622 96.3758 133.554 96.0792Z" fill="#3F3F3F"/>
<path opacity="0.16" d="M115.217 98.931C112.725 107.715 114.577 114.81 118.303 116.362C121.23 117.571 126.512 115.86 127.495 112.871C127.632 112.483 127.769 111.799 127.243 109.7C126.786 107.852 125.849 105.068 123.745 101.897C123.379 101.669 122.899 101.304 122.442 100.756C121.642 99.7752 121.413 98.7257 121.344 98.2238C122.007 98.9082 122.968 99.7752 123.585 99.5014C124.179 99.2276 124.545 98.4063 124.34 97.585C124.545 98.6344 124.865 100.072 125.46 101.737C126.237 103.95 127.015 106.095 128.821 108.125C129.644 109.061 131.267 110.589 134.011 111.685C134.468 112.255 135.314 113.487 135.589 115.289C135.634 115.563 135.794 116.818 135.383 118.392C135.291 118.757 134.743 120.742 132.936 122.453C130.833 124.461 128.318 124.826 127.495 124.94C121.299 125.761 116.497 120.354 115.651 119.419C114.805 118.461 113.411 116.863 112.61 114.399C111.33 110.475 112.313 106.939 113.022 104.361C113.685 101.943 114.577 100.117 115.217 98.931Z" fill="#3F3F3F"/>
</svg>
