<svg width="445" height="321" viewBox="0 0 445 321" fill="none" xmlns="http://www.w3.org/2000/svg">
<g clip-path="url(#clip0)">
<path d="M4.54599 253.568C11.4486 244.638 23.6837 244.341 33.7859 246.448C39.622 247.664 45.3396 249.414 51.0869 251.016C57.0415 252.648 62.9961 254.309 68.9507 255.941C75.6756 257.81 82.3709 259.649 89.0957 261.518C89.6586 261.667 89.8956 260.806 89.3327 260.658C76.8606 257.217 64.3589 253.746 51.8867 250.304C40.8366 247.249 28.7792 242.591 17.1959 245.053C12.0411 246.151 7.15299 248.702 3.89424 252.915C3.56837 253.39 4.19049 254.013 4.54599 253.568Z" fill="white"/>
<path d="M61.8049 249.444C64.9451 247.901 66.2783 243.807 69.6851 242.739C73.1809 241.642 77.0617 243.807 80.2612 241.434C81.6536 240.396 82.6905 238.675 84.3791 238.052C85.8604 237.518 87.4009 238.111 88.8229 238.556C90.0375 238.942 91.2521 239.298 92.4668 239.684C97.3549 241.197 102.213 242.68 107.102 244.193C112.641 245.884 118.152 247.605 123.691 249.296C124.225 249.474 124.462 248.613 123.928 248.435C113.797 245.32 103.695 242.205 93.5629 239.09C91.1929 238.378 88.734 237.281 86.2751 236.984C84.5569 236.776 83.1941 237.459 81.9795 238.586C80.2909 240.158 79.017 241.612 76.5581 241.731C74.514 241.849 72.4995 241.315 70.4554 241.642C66.2486 242.294 64.9451 246.893 61.3901 248.643C60.8569 248.94 61.3013 249.711 61.8049 249.444Z" fill="white"/>
<path d="M129.106 245.706C131.209 246.24 132.868 244.134 134.764 243.511C137.312 242.65 140.038 243.006 142.348 244.341C142.852 244.638 143.296 243.867 142.793 243.57C140.838 242.413 138.616 241.938 136.364 242.235C135.387 242.354 134.468 242.621 133.579 243.006C132.306 243.57 130.824 245.202 129.343 244.846C128.78 244.697 128.543 245.558 129.106 245.706Z" fill="#E8E8E8"/>
<path d="M137.881 243.481C135.896 241.849 134 240.099 132.223 238.23C131.393 237.37 130.593 236.45 129.823 235.53C129.379 234.996 128.934 234.462 128.519 233.928C128.223 233.543 127.927 233.157 127.66 232.771C127.186 232.297 127.186 231.703 127.69 231.051C128.046 231.199 128.608 230.843 128.312 230.428C126.505 227.995 125.172 225.325 124.313 222.418C124.135 222.596 123.957 222.774 123.78 222.952C124.757 223.219 125.468 223.723 126.001 224.554C126.298 225.028 127.068 224.613 126.772 224.109C122.358 216.455 118.743 208.385 116.018 199.99C115.781 200.138 115.514 200.286 115.277 200.435C127.69 212.657 133.319 229.656 143.776 243.333C144.132 243.778 144.902 243.333 144.547 242.888C134.059 229.152 128.371 212.094 115.899 199.812C115.603 199.515 115.011 199.812 115.159 200.257C117.914 208.741 121.528 216.87 126.001 224.583C126.268 224.435 126.505 224.287 126.772 224.138C126.09 223.1 125.202 222.418 124.017 222.121C123.691 222.032 123.365 222.329 123.483 222.655C124.372 225.622 125.735 228.381 127.572 230.873C127.779 230.665 127.986 230.457 128.194 230.25C127.364 229.864 126.446 230.25 126.238 231.229C125.972 232.623 127.66 234.166 128.431 235.145C131.067 238.438 134.059 241.434 137.318 244.104C137.703 244.46 138.325 243.837 137.881 243.481Z" fill="#E8E8E8"/>
<path d="M134.771 224.939C129.32 216.781 124.906 208.029 121.647 198.773C121.558 198.951 121.44 199.129 121.351 199.307C122.358 199.07 123.217 199.456 123.78 200.346C124.076 200.85 124.788 200.405 124.55 199.901C119.959 189.962 115.278 179.609 115.604 168.424C115.337 168.513 115.041 168.573 114.774 168.662C122.684 184.978 130.209 201.503 137.319 218.175C137.526 218.65 138.297 218.294 138.119 217.819C136.934 214.259 135.778 210.67 134.593 207.11C134.03 205.359 133.438 203.639 132.875 201.888C132.49 200.731 131.66 198.21 133.319 197.587C133.142 197.527 132.994 197.438 132.816 197.379C134.949 201.562 137.052 205.745 139.185 209.928C139.452 210.432 140.222 209.987 139.956 209.483C137.645 204.944 136.578 199.93 136.786 194.828C136.489 194.857 136.193 194.917 135.926 194.946C142.088 210.284 149.228 225.236 157.256 239.684C157.523 240.188 158.293 239.743 158.027 239.239C150.028 224.85 142.918 209.987 136.786 194.709C136.608 194.264 135.926 194.294 135.926 194.828C135.719 200.079 136.845 205.211 139.215 209.928C139.482 209.78 139.718 209.631 139.985 209.483C137.852 205.3 135.749 201.117 133.616 196.934C133.527 196.786 133.29 196.667 133.112 196.726C130.15 197.824 132.046 202.066 132.697 204.054C134.238 208.712 135.749 213.399 137.289 218.057C137.556 217.938 137.822 217.819 138.089 217.701C130.979 201.028 123.454 184.504 115.545 168.187C115.337 167.772 114.715 168.009 114.715 168.424C114.36 179.757 119.129 190.289 123.78 200.346C124.047 200.197 124.284 200.049 124.55 199.901C123.78 198.684 122.536 198.15 121.114 198.447C120.877 198.506 120.729 198.773 120.818 198.981C124.106 208.296 128.55 217.137 134.03 225.355C134.327 225.859 135.097 225.414 134.771 224.939Z" fill="#E8E8E8"/>
<path d="M90.2972 282.285C100.547 277.331 111.361 272.287 123.062 273.474C128.602 274.038 133.964 275.64 139.475 276.352C142.259 276.708 145.074 276.856 147.859 276.53C150.466 276.203 152.924 275.254 155.472 274.69C158.761 273.949 161.753 274.72 164.923 275.61C167.53 276.322 170.107 276.915 172.803 276.292C173.366 276.174 173.129 275.313 172.566 275.432C167.174 276.708 162.108 272.821 156.657 273.593C153.961 273.978 151.443 275.046 148.777 275.521C145.963 275.996 143.089 275.936 140.245 275.58C134.646 274.928 129.195 273.266 123.566 272.643C118.026 272.02 112.546 272.732 107.243 274.275C101.199 276.055 95.4816 278.784 89.8528 281.514C89.3196 281.751 89.7936 282.522 90.2972 282.285Z" fill="white"/>
<path d="M192.632 306.879C196.098 305.395 199.505 303.764 202.793 301.924C204.511 300.945 206.2 299.937 207.889 298.869C209.399 297.89 210.91 296.495 212.569 295.783C214.436 295.012 217.25 296.466 219.116 297.029C221.101 297.652 223.086 298.246 225.041 298.869C229.1 300.115 233.159 301.361 237.188 302.607C237.721 302.785 237.958 301.924 237.425 301.746C233.099 300.411 228.745 299.076 224.419 297.741C222.346 297.089 220.272 296.466 218.198 295.813C216.598 295.309 214.584 294.27 212.895 294.686C211.325 295.071 209.903 296.436 208.57 297.326C206.852 298.453 205.074 299.551 203.297 300.589C199.712 302.636 196.009 304.476 192.187 306.078C191.654 306.315 192.128 307.086 192.632 306.879Z" fill="#E8E8E8"/>
<path d="M229.485 307.798C231.737 306.671 233.988 305.514 236.24 304.387C238.314 303.319 240.536 301.895 242.906 301.687C245.305 301.45 247.172 303.022 249.245 303.942C250.993 304.713 252.889 305.158 254.785 305.277C259.229 305.514 263.376 303.289 267.791 303.526C271.316 303.734 274.871 306.641 278.337 304.802C278.841 304.535 278.396 303.764 277.893 304.031C275.73 305.188 273.39 304.06 271.257 303.378C269.42 302.785 267.642 302.518 265.717 302.725C261.155 303.2 256.977 305.128 252.297 304.031C248.416 303.141 245.453 299.907 241.276 301.123C239.351 301.687 237.543 302.755 235.766 303.645C233.514 304.772 231.263 305.929 229.011 307.057C228.537 307.294 228.982 308.065 229.485 307.798Z" fill="#E8E8E8"/>
<path d="M246.786 301.361C244.949 299.759 243.29 297.979 241.927 295.932C241.305 295.012 240.742 294.033 240.209 293.054C239.942 292.55 239.705 292.045 239.498 291.541C239.32 291.126 239.143 290.74 238.994 290.325C238.728 289.88 238.846 289.464 239.35 289.079C239.617 288.96 239.883 288.841 240.15 288.723C236.891 283.917 234.847 278.458 234.166 272.703C233.899 272.821 233.662 272.91 233.395 273.029C233.929 273.711 234.462 274.394 235.025 275.106C235.351 275.521 235.973 274.987 235.736 274.572C230.581 265.345 227.826 254.962 227.767 244.401C227.5 244.519 227.263 244.608 226.996 244.727C229.011 246.359 230.551 248.376 231.499 250.779C231.766 250.66 232.033 250.542 232.299 250.423C229.988 245.528 229.514 240.01 230.877 234.789C230.581 234.789 230.314 234.789 230.018 234.789C236.091 252.203 242.135 269.588 248.208 287.002C248.386 287.536 249.245 287.299 249.067 286.765C246.016 277.835 244.505 268.46 244.594 258.997C244.327 259.115 244.09 259.204 243.823 259.323C245.63 260.955 246.756 263.002 247.171 265.405C247.26 265.909 248.06 265.79 248.03 265.286C247.941 263.476 247.823 261.637 247.734 259.827C247.497 259.946 247.289 260.094 247.052 260.213C248.623 261.222 248.919 263.892 249.422 265.553C249.956 267.333 250.489 269.113 251.052 270.923C252.148 274.601 253.274 278.25 254.37 281.929C256.592 289.257 258.814 296.614 261.035 303.942C261.213 304.476 262.072 304.268 261.895 303.704C259.495 295.813 257.125 287.892 254.725 280.001C253.57 276.144 252.385 272.287 251.23 268.431C250.637 266.443 250.045 264.485 249.452 262.497C249.067 261.281 248.623 260.183 247.526 259.471C247.26 259.293 246.845 259.531 246.845 259.857C246.934 261.667 247.052 263.506 247.141 265.316C247.438 265.286 247.734 265.227 248 265.197C247.586 262.646 246.341 260.421 244.416 258.7C244.12 258.433 243.675 258.611 243.646 259.026C243.557 268.549 245.068 278.013 248.149 287.032C248.445 286.943 248.711 286.883 249.008 286.794C242.935 269.38 236.891 251.995 230.818 234.581C230.67 234.195 230.077 234.136 229.959 234.581C228.537 240.069 229.07 245.795 231.47 250.898C231.677 251.343 232.477 251.016 232.27 250.542C231.262 247.99 229.692 245.825 227.53 244.104C227.233 243.867 226.759 244.015 226.759 244.43C226.819 255.14 229.603 265.701 234.847 275.046C235.084 274.868 235.321 274.69 235.558 274.512C235.025 273.83 234.491 273.148 233.929 272.436C233.692 272.139 233.129 272.376 233.158 272.762C233.84 278.695 235.913 284.302 239.261 289.227C239.557 289.642 240.15 289.375 240.061 288.871C239.913 288.04 238.935 287.744 238.254 288.248C237.01 289.138 238.224 291.244 238.669 292.253C240.357 296.021 242.875 299.314 245.986 302.013C246.608 302.34 247.23 301.717 246.786 301.361Z" fill="#E8E8E8"/>
<path d="M257.995 234.818C257.61 229.241 267.712 232.445 270.526 232.979C275.148 233.839 279.739 234.7 284.361 235.56C293.574 237.281 302.817 239.001 312.031 240.722C312.594 240.841 312.831 239.98 312.268 239.862C301.692 237.874 291.145 235.916 280.569 233.928C275.385 232.949 270.2 231.97 265.016 231.021C263.149 230.665 260.987 230.279 259.239 231.258C257.906 231.97 257.017 233.276 257.136 234.818C257.136 235.382 258.054 235.382 257.995 234.818Z" fill="#E8E8E8"/>
<path d="M305.898 239.743C308.979 240.069 310.875 237.132 313.275 235.708C315.319 234.522 317.096 235.441 319.2 235.857C321.54 236.331 323.94 236.391 326.31 236.094C326.873 236.035 326.873 235.145 326.31 235.204C323.644 235.53 320.977 235.412 318.37 234.759C316.8 234.344 315.378 233.839 313.808 234.462C311.023 235.53 309.127 239.209 305.898 238.853C305.335 238.794 305.335 239.684 305.898 239.743Z" fill="#E8E8E8"/>
<path d="M278.001 296.792C285.111 294.3 292.281 291.808 299.628 290.028C307.301 288.189 315.033 287.447 322.913 287.684C330.704 287.922 338.436 288.812 346.198 289.524C353.99 290.265 361.781 290.977 369.572 291.719C378.519 292.55 387.495 293.38 396.442 294.241C397.005 294.3 397.005 293.41 396.442 293.351C380.474 291.867 364.506 290.384 348.509 288.871C333.134 287.447 317.669 285.341 302.353 288.515C293.94 290.265 285.822 293.113 277.735 295.932C277.231 296.11 277.468 296.97 278.001 296.792Z" fill="#E8E8E8"/>
<path d="M309.315 267.6C314.618 266.473 319.595 264.248 324.601 262.23C329.963 260.094 335.385 258.611 341.132 258.107C346.938 257.602 352.775 257.899 358.552 258.255C364.358 258.611 370.164 259.026 376.001 259.442C382.785 259.946 389.598 260.51 396.383 261.103C396.945 261.162 396.945 260.272 396.383 260.213C384.355 259.145 372.327 258.225 360.27 257.454C348.805 256.712 337.518 256.416 326.586 260.48C320.78 262.646 315.151 265.405 309.048 266.71C308.544 266.858 308.752 267.719 309.315 267.6Z" fill="#E8E8E8"/>
<path d="M377.601 233.394C381.837 230.161 386.31 226.986 391.05 224.554C393.361 223.367 395.85 222.418 398.457 222.21C401.271 221.973 404.085 222.536 406.841 222.892C412.44 223.575 418.068 223.99 423.697 224.346C427.43 224.583 432.17 225.117 434.806 221.854C435.162 221.409 434.54 220.786 434.184 221.231C431.192 224.939 424.882 223.545 420.794 223.278C415.165 222.892 409.596 222.358 403.996 221.646C401.597 221.35 399.227 221.112 396.827 221.557C394.457 221.973 392.235 222.922 390.132 224.049C385.57 226.482 381.244 229.508 377.127 232.653C376.712 232.979 377.156 233.75 377.601 233.394Z" fill="#E8E8E8"/>
<path d="M298.906 228.499C303.113 225.325 307.349 222.18 311.556 219.006C315.585 215.98 319.348 212.806 324.621 212.539C329.598 212.301 334.693 212.865 339.641 213.28C344.973 213.725 350.276 214.319 355.549 215.06C359.993 215.683 365.296 217.345 369.503 215.031C370.006 214.764 369.562 213.992 369.058 214.259C366.896 215.446 364.496 215.446 362.097 215.149C359.519 214.823 356.942 214.378 354.364 214.022C349.387 213.34 344.381 212.776 339.344 212.361C334.397 211.945 329.272 211.352 324.325 211.649C319.733 211.916 316.326 214.289 312.741 216.989C307.972 220.549 303.232 224.138 298.462 227.698C298.018 228.084 298.462 228.855 298.906 228.499Z" fill="#E8E8E8"/>
<path d="M381.185 259.857C381.452 257.899 381.837 256 382.4 254.102C382.666 253.212 382.933 252.322 383.288 251.432C383.496 250.898 384.059 250.008 384.829 250.215C385.214 250.334 385.392 251.669 385.421 251.936C385.481 252.411 386.132 252.559 386.28 252.055C387.673 247.516 389.273 242.532 393.539 239.891C393.302 239.773 393.094 239.624 392.857 239.506C392.857 240.247 392.828 241.019 392.828 241.76C392.828 242.176 393.45 242.383 393.657 241.998C396.294 236.509 399.167 230.754 404.5 227.431C404.293 227.253 404.055 227.105 403.848 226.927C401.182 233.839 398.071 240.574 394.546 247.1C394.309 247.516 394.901 248.05 395.257 247.634C397.242 245.261 399.256 242.888 401.863 241.167C401.656 240.959 401.448 240.752 401.241 240.544C397.953 247.486 394.368 254.25 390.428 260.836C390.132 261.34 390.902 261.785 391.198 261.281C395.109 254.695 398.723 247.931 402.011 240.989C402.189 240.633 401.804 240.099 401.389 240.366C398.723 242.146 396.649 244.549 394.605 246.982C394.842 247.16 395.079 247.338 395.316 247.516C398.871 240.93 402.011 234.136 404.707 227.135C404.855 226.779 404.352 226.452 404.056 226.63C398.575 230.042 395.612 235.886 392.887 241.523C393.153 241.612 393.45 241.671 393.716 241.76C393.716 241.019 393.746 240.247 393.746 239.506C393.746 239.179 393.361 238.942 393.065 239.12C388.621 241.879 386.873 247.041 385.421 251.817C385.718 251.847 386.014 251.906 386.28 251.936C386.132 250.423 384.77 247.842 383.111 249.77C382.281 250.749 381.955 252.351 381.6 253.568C381.007 255.526 380.592 257.543 380.296 259.59C380.267 260.183 381.096 260.421 381.185 259.857Z" fill="#E8E8E8"/>
<path d="M174.195 209.78C176.506 208.534 178.846 207.288 181.394 206.605C184.09 205.893 186.756 206.131 189.452 206.487C194.814 207.199 200.176 207.911 205.509 208.623C206.072 208.712 206.072 207.822 205.509 207.733C199.791 206.961 194.044 206.131 188.326 205.448C185.69 205.122 183.172 205.122 180.624 205.864C178.195 206.576 175.943 207.792 173.721 208.979C173.218 209.305 173.692 210.047 174.195 209.78Z" fill="#E8E8E8"/>
<path d="M177.721 176.731C181.246 175.248 184.801 177.888 188.356 178.066C190.193 178.155 191.97 177.71 193.777 177.354C196.058 176.909 198.014 176.879 200.206 177.799C201.539 178.363 202.754 178.719 204.116 178.185C204.887 177.888 205.538 177.384 206.309 177.117C207.168 176.82 208.057 176.761 208.975 176.761C212.145 176.82 215.315 177.918 218.336 176.494C218.84 176.256 218.396 175.485 217.892 175.722C214.663 177.235 211.078 175.574 207.671 175.93C206.042 176.108 204.976 177.057 203.465 177.502C201.658 178.036 199.88 176.494 198.103 176.227C194.281 175.633 190.667 177.769 186.815 176.998C183.734 176.375 180.624 174.565 177.484 175.9C176.98 176.108 177.217 176.968 177.721 176.731Z" fill="#E8E8E8"/>
<path d="M249.532 197.053C251.2 197.053 252.553 195.698 252.553 194.027C252.553 192.355 251.2 191.001 249.532 191.001C247.863 191.001 246.51 192.355 246.51 194.027C246.51 195.698 247.863 197.053 249.532 197.053Z" fill="#EC615B"/>
<path d="M229.742 146.975C230.838 146.975 231.727 146.085 231.727 144.988C231.727 143.89 230.838 143 229.742 143C228.646 143 227.757 143.89 227.757 144.988C227.757 146.085 228.646 146.975 229.742 146.975Z" fill="#461EB8"/>
<path d="M208.251 228.618C209.288 228.173 210.71 227.52 212.339 226.601C215.065 225.088 216.427 224.316 217.257 223.1C218.323 221.498 217.909 220.638 219.301 219.036C219.508 218.769 220.486 217.73 221.76 217.167C223.952 216.247 225.996 217.345 229.403 218.561C232.543 219.688 235.002 220.222 239.92 221.32C241.875 221.765 244.245 222.21 247.682 223.278C248.659 223.575 249.43 223.842 249.963 224.02C250.022 224.643 250.052 226.245 249.015 227.698C248.541 228.351 247.889 228.885 246.852 229.36C244.453 230.487 242.172 230.279 240.246 230.19C236.098 230.012 237.817 230.606 228.04 230.784C225.907 230.813 224.16 230.813 222.945 230.813C221.434 231.852 219.923 232.92 218.383 234.017C215.776 235.916 213.287 237.815 210.917 239.684C210.028 236.005 209.14 232.297 208.251 228.618Z" fill="black"/>
<path d="M195.899 190.645C193.766 191.772 193.529 192.187 185.589 198.951C173.206 209.483 171.843 210.047 160.615 219.866C149.861 229.241 147.847 231.585 145.803 234.67C140.707 242.472 139.582 248.999 139.256 252.173C138.811 256.445 138.219 262.379 141.981 267.066C144.351 270.003 147.432 271.219 148.469 271.605C151.58 272.792 154.127 272.643 158.719 272.317C164.822 271.872 169.473 270.685 171.31 270.181C173.324 269.617 178.005 268.223 183.871 265.316C189.381 262.586 191.751 260.569 199.276 255.496C202.624 253.241 207.571 249.948 213.792 246.151C214.177 243.184 213.851 240.87 213.526 239.417C212.755 235.975 211.185 233.602 209.437 230.991C208.015 228.855 206.653 227.224 205.705 226.156C207.926 224.465 210.83 222.032 213.881 218.769C215.925 216.573 219.154 213.073 221.85 208.148C225.168 202.096 228.486 195.985 226.353 191.772C223.006 185.156 207.067 184.86 195.899 190.645Z" fill="white"/>
<path opacity="0.18" d="M222.442 193.878C220.753 197.794 217.968 203.342 213.525 209.275C207.066 217.849 200.549 222.596 190.713 229.627C162.896 249.503 155.43 254.042 156.26 255.941C157.385 258.522 173.057 253.894 175.338 253.212C191.987 248.287 204.252 240.692 211.925 235.145C209.97 232.148 208.014 229.152 206.059 226.185C208.459 224.465 211.777 221.735 214.887 217.671C216.606 215.446 219.213 212.005 220.901 206.813C222.619 201.651 222.679 197.053 222.442 193.878Z" fill="#9B9797"/>
<path d="M195.779 190.615C185.232 198.477 174.953 206.724 165.058 215.357C160.318 219.481 155.578 223.604 151.134 228.025C147.194 231.941 143.52 236.272 141.299 241.434C138.988 246.774 138.336 252.945 138.899 258.73C139.373 263.506 141.121 268.312 145.476 270.804C150.038 273.385 155.785 273.118 160.821 272.584C167.013 271.961 173.116 270.448 178.893 268.104C191.78 262.853 201.882 253.034 214.058 246.537C214.561 246.27 214.117 245.498 213.613 245.765C203.452 251.194 194.801 259.026 184.61 264.455C179.278 267.303 173.531 269.38 167.606 270.656C162.125 271.813 155.963 272.703 150.393 271.635C147.786 271.13 145.268 270.062 143.402 268.104C141.595 266.176 140.617 263.654 140.114 261.073C139.017 255.466 139.521 249.118 141.358 243.718C143.195 238.319 146.779 233.78 150.69 229.745C154.748 225.562 159.192 221.706 163.547 217.879C174.064 208.623 184.966 199.782 196.223 191.416C196.668 191.06 196.253 190.289 195.779 190.615Z" fill="black"/>
<path d="M166.747 251.432C176.464 247.664 185.262 242.027 193.616 235.857C197.734 232.831 201.793 229.686 205.822 226.541C209.792 223.426 213.584 220.133 216.665 216.128C217.02 215.683 216.25 215.238 215.894 215.683C212.754 219.777 208.814 223.07 204.785 226.245C200.815 229.36 196.816 232.445 192.728 235.441C184.551 241.434 175.99 246.952 166.51 250.601C165.976 250.779 166.213 251.639 166.747 251.432Z" fill="black"/>
<path d="M205.378 226.452C211.095 231.258 214.117 238.705 213.317 246.151C213.258 246.715 214.147 246.715 214.206 246.151C215.006 238.497 211.865 230.784 206 225.829C205.585 225.444 204.963 226.067 205.378 226.452Z" fill="black"/>
<path d="M213.258 237.874C214.946 237.37 216.427 235.946 217.849 234.937C219.627 233.691 221.375 232.445 223.152 231.199C223.626 230.873 223.182 230.101 222.708 230.428C221.108 231.555 219.479 232.712 217.879 233.839C216.398 234.878 214.768 236.48 213.021 237.014C212.458 237.162 212.695 238.022 213.258 237.874Z" fill="black"/>
<path d="M208.37 229.033C211.717 227.639 214.798 225.74 217.583 223.397C218.027 223.011 217.376 222.388 216.961 222.774C214.324 225.028 211.362 226.838 208.162 228.173C207.629 228.41 207.866 229.271 208.37 229.033Z" fill="black"/>
<path d="M217.257 223.011C217.82 223.011 217.82 222.121 217.257 222.121C216.694 222.121 216.694 223.011 217.257 223.011Z" fill="black"/>
<path d="M218.323 221.943C218.827 220.756 219.36 219.451 220.308 218.531C221.582 217.285 223.123 217.463 224.752 217.819C227.774 218.502 230.736 219.451 233.699 220.311C236.454 221.083 239.209 221.765 242.053 222.091C243.712 222.269 245.104 222.477 246.585 223.219C247.682 223.753 248.63 224.287 249.844 224.405C250.407 224.465 250.407 223.575 249.844 223.515C248.215 223.367 246.941 222.24 245.4 221.735C243.86 221.231 242.142 221.261 240.542 220.994C237.046 220.43 233.639 219.362 230.262 218.353C228.603 217.879 226.944 217.404 225.256 217.018C224.011 216.751 222.708 216.425 221.464 216.811C219.301 217.463 218.264 219.777 217.464 221.706C217.257 222.24 218.116 222.477 218.323 221.943Z" fill="black"/>
<path d="M223.034 231.852C229.374 230.902 235.654 230.754 242.053 230.635C244.275 230.606 246.645 230.339 248.422 228.885C249.933 227.639 250.792 225.829 250.378 223.901C250.259 223.337 249.4 223.575 249.519 224.138C250.081 226.838 247.652 228.826 245.253 229.419C242.794 230.012 240.127 229.716 237.609 229.775C232.632 229.864 227.715 230.279 222.797 231.021C222.234 231.08 222.501 231.941 223.034 231.852Z" fill="black"/>
<path d="M245.519 225.948C247.711 224.376 249.933 222.803 252.126 221.231C252.274 220.222 252.748 218.027 254.555 216.158C255.088 215.594 256.332 214.289 258.199 213.933C260.154 213.547 261.665 214.437 263.353 215.209C266.079 216.455 268.716 216.929 273.93 217.938C278.047 218.709 280.121 219.095 283.084 218.947C287.113 218.709 289.986 217.641 291.705 219.332C291.882 219.51 292.623 220.311 292.564 221.29C292.475 222.536 291.142 223.337 290.075 223.96C285.424 226.63 282.817 227.402 282.817 227.402C276.24 229.33 272.922 230.309 270.078 230.546C267.768 230.724 264.479 230.813 260.509 230.19C259.354 234.166 255.858 236.717 252.57 236.509C248.334 236.242 244.423 231.466 245.519 225.948Z" fill="black"/>
<path d="M202.977 199.723C203.629 197.735 204.844 195.213 207.125 194.383C208.606 193.849 209.969 194.205 210.413 194.323C213.168 195.006 218.827 194.027 230.114 192.098C235.713 191.149 242.793 189.755 250.94 187.678C250.97 189.191 250.94 191.179 250.851 193.493C250.644 198.684 250.111 202.6 249.992 203.52C249.489 207.199 248.6 213.31 245.904 220.727C245.223 222.625 244.541 224.198 244.067 225.266C245.223 225.8 246.467 226.512 247.682 227.52C252.688 231.525 254.14 237.192 254.614 239.595C253.903 240.455 252.836 241.731 251.474 243.184C245.963 249.058 240.868 252.351 231.151 258.374C225.167 262.082 220.782 264.782 213.761 268.935C205.229 273.978 198.326 277.894 189.735 280.357C187.602 280.98 184.225 281.81 179.959 281.365C177.885 281.158 174.152 280.772 170.568 278.161C165.976 274.839 164.524 269.973 163.932 267.837C162.599 263.061 163.102 258.581 164.346 253.924C165.206 250.66 168.316 239.832 179.129 227.639C181.292 225.206 187.454 219.718 199.719 208.741C202.681 206.101 205.11 203.935 206.74 202.511C205.496 201.562 204.251 200.642 202.977 199.723Z" fill="white"/>
<path opacity="0.18" d="M243.267 191.505C242.586 194.116 241.49 197.883 239.831 202.304C224.692 242.472 190.861 259.827 193.616 264.159C195.63 267.363 214.946 259.382 228.869 250.987C239.297 244.697 247.059 237.963 252.244 232.89C251.414 231.674 250.14 230.012 248.215 228.44C246.348 226.927 244.571 226.007 243.238 225.444C244.156 224.109 245.371 222.091 246.407 219.51C247.089 217.849 247.681 216.069 248.452 212.45C249.696 206.724 250.199 202.185 250.348 200.761C250.703 197.349 251.029 192.929 250.97 187.708C248.392 188.954 245.845 190.229 243.267 191.505Z" fill="#9B9797"/>
<path d="M250.526 187.678C250.555 193.285 250.2 198.892 249.43 204.469C248.719 209.483 247.83 214.645 245.993 219.392C244.008 224.524 240.601 228.262 236.483 231.792C232.277 235.382 228.04 238.912 223.804 242.443C218.945 246.507 214.057 250.542 209.199 254.606C208.754 254.962 209.377 255.585 209.821 255.229C218.738 247.812 227.655 240.425 236.513 232.919C240.424 229.597 243.979 226.156 246.112 221.379C248.185 216.751 249.193 211.678 249.992 206.694C251 200.405 251.474 194.056 251.414 187.678C251.414 187.085 250.526 187.085 250.526 187.678Z" fill="black"/>
<path d="M203.481 200.553C204.696 201.206 205.911 201.858 207.155 202.511C207.658 202.778 208.103 202.007 207.599 201.74C206.385 201.087 205.17 200.435 203.926 199.782C203.422 199.515 202.978 200.286 203.481 200.553Z" fill="black"/>
<path d="M207.155 202.155C196.608 210.759 185.528 219.273 176.73 229.715C169.146 238.704 162.895 250.097 162.924 262.171C162.924 267.481 164.376 273.029 168.287 276.796C172.197 280.594 177.855 282.077 183.188 281.81C189.705 281.484 195.897 278.903 201.704 276.055C207.925 272.999 213.82 269.38 219.745 265.79C231.951 258.374 245.578 251.461 254.732 240.158C255.088 239.713 254.466 239.09 254.11 239.535C246.437 249.029 235.654 255.11 225.374 261.34C219.716 264.782 214.116 268.282 208.34 271.546C202.681 274.75 196.786 277.805 190.535 279.615C184.669 281.306 178.122 281.662 172.582 278.725C167.25 275.936 164.524 270.537 163.961 264.663C162.865 252.796 168.82 240.989 176.019 231.97C184.995 220.727 196.727 211.767 207.806 202.749C208.221 202.422 207.599 201.799 207.155 202.155Z" fill="black"/>
<path d="M243.86 225.622C249.429 228.292 253.31 233.572 254.229 239.684C254.318 240.247 255.177 240.01 255.088 239.446C254.169 233.127 250.081 227.58 244.334 224.85C243.801 224.613 243.356 225.384 243.86 225.622Z" fill="black"/>
<path d="M245.638 226.393C246.823 225.918 247.771 225.117 248.778 224.346C249.963 223.426 251.177 222.536 252.362 221.617C252.807 221.26 252.362 220.489 251.918 220.845C250.852 221.646 249.785 222.447 248.719 223.278C247.682 224.079 246.645 225.058 245.401 225.533C244.897 225.74 245.104 226.601 245.638 226.393Z" fill="black"/>
<path d="M252.807 221.26C253.399 219.51 254.11 217.79 255.058 216.188C256.362 213.992 258.317 214.23 260.509 214.793C263.916 215.654 267.175 216.959 270.611 217.73C277.277 219.213 284.12 219.718 290.934 219.273C291.497 219.243 291.497 218.353 290.934 218.383C282.906 218.917 274.818 218.086 267.056 215.891C265.19 215.357 263.383 214.675 261.516 214.141C260.094 213.725 258.406 213.251 256.924 213.547C255.591 213.814 254.821 214.823 254.169 215.95C253.251 217.552 252.54 219.273 251.947 221.023C251.77 221.557 252.629 221.794 252.807 221.26Z" fill="black"/>
<path d="M254.081 235.589C256.302 233.898 258.495 232.208 260.717 230.517C261.161 230.161 260.717 229.389 260.272 229.745C258.05 231.436 255.858 233.127 253.636 234.818C253.192 235.174 253.636 235.945 254.081 235.589Z" fill="black"/>
<path d="M260.687 230.309C267.916 231.881 275.292 230.695 282.136 228.084C285.246 226.897 288.801 225.562 291.467 223.545C293.334 222.15 293.6 219.48 291.142 218.531C290.608 218.323 290.371 219.184 290.905 219.391C292.238 219.896 292.386 221.349 291.467 222.358C291.023 222.862 290.401 223.189 289.808 223.545C288.594 224.227 287.35 224.85 286.105 225.444C283.469 226.69 280.743 227.758 277.929 228.588C272.389 230.19 266.582 230.724 260.894 229.478C260.361 229.33 260.124 230.19 260.687 230.309Z" fill="black"/>
<path d="M183.485 102.178C187.988 98.4405 194.712 93.9312 203.689 91.2612C207.896 90.0152 213.169 88.4725 220.16 89.0658C230.885 89.9855 238.261 95.2662 240.868 97.1945C244.956 100.191 247.741 103.365 249.459 105.59C249.785 126.386 250.23 147.212 250.793 168.009C250.97 174.417 251.148 180.854 251.355 187.262C247.149 189.873 241.253 192.81 233.788 194.531C216.309 198.536 201.763 193.196 195.868 190.615C195.838 185.364 195.512 177.472 193.913 168.009C191.306 152.463 187.247 146.204 184.699 132.824C183.425 125.912 182.211 115.528 183.485 102.178Z" fill="#EC615B"/>
<path d="M237.047 107.311C235.595 108.913 235.329 110.723 235.417 117.665C235.477 124.963 235.862 129.947 236.099 135.732C236.277 139.915 236.425 143.237 236.336 147.569C236.247 153.027 235.891 157.507 235.566 160.503C232.662 163.767 230.085 166.318 228.159 168.157C223.834 172.281 219.124 176.731 212.162 180.914C209.407 182.546 207.037 183.732 205.437 184.474C203.985 184.237 202.356 183.881 200.578 183.436C196.372 182.368 194.624 181.418 191.454 181.418C190.506 181.418 187.514 181.418 187.217 182.486C186.951 183.376 188.61 184.771 189.913 185.453C191.128 186.076 191.661 185.898 192.876 186.462C194.239 187.114 195.127 188.064 195.661 188.776C195.098 189.577 194.239 190.793 193.291 192.365C192.194 194.205 191.957 194.917 190.684 197.112C189.35 199.426 188.669 200.583 188.077 201.176C187.158 202.037 186.595 202.215 182.477 204.054C178.389 205.893 177.678 206.309 177.678 206.813C177.678 207.317 178.478 207.436 181.648 208.801C184.225 209.898 184.462 210.136 185.795 210.521C187.454 210.996 188.462 211.293 189.676 211.026C191.602 210.64 192.846 209.186 193.379 208.415C193.646 208.652 194.298 209.157 195.157 209.186C195.838 209.186 196.401 208.919 196.846 208.563C198.712 207.228 199.63 204.766 201.467 202.007C201.793 201.532 202.948 199.782 204.815 197.824C205.97 196.578 207.037 195.658 207.807 195.035C208.844 194.798 210.384 194.442 212.221 193.908C219.361 191.861 224.515 189.399 228.841 187.322C231.359 186.106 234.203 184.504 239.861 181.329C244.779 178.57 247.327 177.028 249.578 174.002C249.815 173.675 251.03 172.044 252.096 169.641C252.422 168.899 253.578 166.259 254.2 161.631C254.496 159.584 254.496 158.456 254.526 152.048C254.585 143.89 254.585 144.869 254.585 144.038C254.555 132.083 253.933 133.151 253.726 122.174C253.696 121.136 253.666 118.317 252.807 114.757C251.889 110.901 250.734 109.18 250.082 108.32C249.252 107.222 248.245 105.917 246.527 105.175C243.387 103.781 239.209 104.908 237.047 107.311Z" fill="white"/>
<path opacity="0.25" d="M246.556 105.145C247.267 107.489 248.126 110.871 248.719 114.965C249.43 119.919 249.696 125.378 248.096 139.648C246.763 151.574 246.112 157.537 244.393 163.114C241.934 171.065 240.157 176.85 234.736 181.418C231.24 184.355 227.418 185.72 219.745 188.42C214.117 190.407 209.288 191.594 205.97 192.336C203.6 195.54 200.074 199.604 195.068 203.461C191.157 206.487 187.395 208.563 184.284 209.987C184.729 210.284 186.565 211.471 189.054 211.144C191.957 210.759 193.527 208.682 193.794 208.296C194.357 208.712 195.186 209.157 196.105 209.008C198.001 208.712 199.008 206.012 199.511 204.796C200.608 202.274 202.8 198.803 207.718 195.006C210.976 194.145 215.39 192.84 220.516 190.882C227.655 188.123 232.454 185.453 237.609 182.575C245.875 177.947 247.741 176.049 249.104 174.209C251.592 170.857 252.629 167.416 253.073 165.903C253.873 163.203 254.021 160.177 254.318 154.273C254.525 149.883 254.525 146.501 254.525 143.949C254.525 139.559 254.436 136.295 254.347 133.477C254.229 129.383 253.992 124.577 253.399 118.822C252.955 114.639 252.629 112.977 251.681 111.108C250.229 108.142 248.067 106.243 246.556 105.145Z" fill="#9B9797"/>
<path d="M236.602 107.192C235.061 111.049 234.883 115.202 234.972 119.326C235.061 123.865 235.298 128.374 235.506 132.913C235.92 142.11 236.217 151.336 235.12 160.503C235.061 161.067 235.95 161.067 236.009 160.503C237.076 151.544 236.839 142.496 236.424 133.507C236.217 129.057 235.98 124.607 235.861 120.127C235.743 115.825 235.831 111.494 237.461 107.43C237.668 106.896 236.809 106.658 236.602 107.192Z" fill="black"/>
<path d="M236.839 159.732C234.113 161.245 231.921 163.44 229.818 165.725C227.537 168.187 225.255 170.59 222.708 172.785C217.494 177.324 211.628 181.062 205.347 183.97C204.814 184.207 205.288 184.978 205.792 184.741C211.835 181.952 217.494 178.392 222.56 174.091C225.078 171.984 227.388 169.67 229.61 167.267C231.921 164.746 234.232 162.194 237.254 160.533C237.787 160.207 237.342 159.435 236.839 159.732Z" fill="black"/>
<path d="M205.555 184.029C202.296 183.347 199.008 182.635 195.749 181.893C194.12 181.537 192.461 181.092 190.802 180.795C189.765 180.617 188.669 180.528 187.75 181.122C186.328 182.041 186.328 183.732 187.602 184.741C188.521 185.483 189.706 185.809 190.802 186.165C192.579 186.729 194.09 187.441 195.245 188.954C195.601 189.399 196.371 188.954 196.016 188.509C194.979 187.174 193.735 186.224 192.135 185.661C191.039 185.275 189.824 185.038 188.817 184.474C188.106 184.088 187.187 183.495 187.721 182.427C188.224 181.418 189.498 181.507 190.417 181.656C192.875 182.012 195.334 182.724 197.793 183.287C200.311 183.851 202.829 184.385 205.348 184.919C205.881 185.008 206.118 184.148 205.555 184.029Z" fill="black"/>
<path d="M194.535 189.102C193.231 191.505 191.898 193.878 190.594 196.281C189.943 197.438 189.38 198.684 188.609 199.812C187.81 200.969 186.743 201.562 185.499 202.155C183.158 203.253 180.64 204.143 178.389 205.419C177.382 206.012 176.73 207.08 177.589 208.118C178.655 209.394 180.759 208.89 182.181 208.652C184.136 208.326 186.003 207.673 187.78 206.843C191.483 205.063 194.623 202.274 196.875 198.833C197.201 198.358 196.431 197.913 196.105 198.388C194.12 201.473 191.365 203.965 188.136 205.686C186.595 206.487 184.936 207.139 183.247 207.525C182.299 207.762 181.292 207.97 180.285 208C179.366 208.059 179.129 208.178 178.685 207.258C178.122 206.724 178.181 206.368 178.833 206.19C179.041 206.101 179.218 206.012 179.426 205.923C181.322 205.033 183.247 204.173 185.143 203.283C186.625 202.6 188.076 202.007 189.083 200.672C190.268 199.1 191.098 197.231 192.046 195.51C193.142 193.522 194.238 191.535 195.305 189.577C195.571 189.043 194.801 188.598 194.535 189.102Z" fill="black"/>
<path d="M208.073 195.599C215.983 193.374 223.656 190.407 231.003 186.729C234.647 184.889 238.202 182.902 241.668 180.706C244.779 178.748 248.067 176.761 250.289 173.764C250.615 173.29 249.844 172.845 249.519 173.319C247.208 176.464 243.594 178.511 240.335 180.528C237.017 182.575 233.58 184.474 230.085 186.224C222.945 189.755 215.509 192.603 207.836 194.768C207.303 194.887 207.54 195.747 208.073 195.599Z" fill="black"/>
<path d="M237.195 107.993C239.654 103.158 245.964 104.255 249.074 107.697C252.807 111.85 252.985 117.932 253.399 123.212C254.288 134.753 254.466 146.382 253.755 157.922C253.399 163.529 252.57 169.463 248.837 173.913C248.482 174.358 249.104 174.981 249.459 174.536C252.807 170.501 253.962 165.398 254.436 160.296C255.058 153.769 255.058 147.153 254.999 140.597C254.94 133.744 254.614 126.861 253.992 120.038C253.518 114.906 252.6 109.239 248.363 105.828C244.749 102.92 238.706 103.009 236.395 107.548C236.158 108.053 236.928 108.498 237.195 107.993Z" fill="black"/>
<path d="M181.381 209.157C183.544 210.136 186.151 211.619 188.61 211.619C190.98 211.589 192.728 209.631 194.327 208.148C198.919 203.876 203.511 199.604 208.103 195.362C208.518 194.976 207.896 194.353 207.481 194.739C203.6 198.358 199.719 201.948 195.838 205.567C194.12 207.139 192.343 209.394 190.18 210.373C187.632 211.53 184.136 209.453 181.855 208.415C181.322 208.148 180.878 208.919 181.381 209.157Z" fill="black"/>
<path d="M193.439 208.534C194.416 210.373 196.579 209.631 197.675 208.356C199.838 205.804 201.526 202.719 203.363 199.96C203.689 199.485 202.919 199.04 202.593 199.515C201.437 201.236 200.282 202.956 199.127 204.677C198.475 205.626 195.601 210.759 194.209 208.089C193.942 207.584 193.172 208.029 193.439 208.534Z" fill="black"/>
<path d="M186.565 207.08C187.454 207.555 188.55 208.029 189.528 207.555C190.031 207.288 190.239 206.872 190.476 206.398C190.891 205.597 191.305 204.974 192.076 204.469C192.55 204.143 192.105 203.372 191.631 203.698C190.92 204.173 190.328 204.766 189.913 205.537C189.617 206.101 189.439 206.783 188.669 206.843C188.106 206.902 187.484 206.546 187.01 206.309C186.536 206.071 186.062 206.813 186.565 207.08Z" fill="black"/>
<path d="M180.492 37.5647C179.455 39.6711 178.418 43.2014 178.092 44.3584C177.618 46.0197 176.551 49.9061 175.959 55.0681C175.633 57.9161 175.278 61.0311 175.574 65.1547C175.722 67.1127 175.929 70.1981 177.085 74.0251C177.855 76.6357 178.981 80.4034 182.032 84.2601C184.698 87.6124 187.75 89.7187 190.179 90.9944C191.719 91.0241 193.586 90.9351 195.66 90.5494C199.392 89.8374 202.295 88.4431 204.251 87.3157C204.517 88.8287 204.873 90.4307 205.317 92.0921C206.236 95.5334 207.361 98.5594 208.487 101.17C209.702 100.962 211.153 100.606 212.694 99.8944C217.582 97.6101 219.922 93.3974 220.752 91.6471C220.307 89.9264 219.952 88.0574 219.626 86.1291C218.5 78.9201 218.797 72.4824 219.508 67.2611C220.13 67.4687 221.137 67.7357 222.381 67.6764C224.81 67.5281 226.469 66.1931 227.299 65.4811C228.01 64.8877 231.239 62.0101 231.121 57.7381C231.091 56.7294 231.032 54.2671 229.284 52.9321C227.654 51.7157 225.462 52.1607 223.862 52.4871C222.026 52.8727 220.663 53.6441 219.833 54.1781C220.456 52.1311 221.759 46.8801 219.833 40.7687C219.419 39.4634 216.664 31.1567 208.546 27.5671C197.526 22.6424 184.284 29.9404 180.492 37.5647Z" fill="white"/>
<path opacity="0.24" d="M213.968 37.7428C214.205 40.5017 214.383 44.5068 213.968 49.2534C212.694 63.6418 207.006 73.6394 205.525 76.1314C203.273 79.9287 199.422 85.4467 193.26 90.8757C195.097 90.6384 197.2 90.2231 199.452 89.4221C205.644 87.2267 209.791 83.4591 212.043 80.9967C212.22 84.2897 212.783 88.2947 214.116 92.6854C214.709 94.5544 215.361 96.2751 216.042 97.8178C217.612 95.7708 219.153 93.7237 220.723 91.6471C220.397 89.7187 220.101 87.6717 219.893 85.5654C219.212 79.1871 219.212 73.3131 219.567 68.0918C220.9 68.1214 222.826 68.0028 224.87 67.2017C233.817 63.6418 238.912 49.4907 234.084 41.7774C233.876 41.4511 232.81 39.7898 230.617 38.3064C223.833 33.7378 215.212 37.2088 213.968 37.7428Z" fill="#9B9797"/>
<path d="M178.329 43.4684C177.737 41.4214 176.907 37.5054 177.767 32.6994C178.033 31.2161 178.952 26.4398 182.21 22.6721C186.98 17.1838 192.964 18.2221 200.726 15.4334C205.644 13.6831 212.398 10.0044 219.242 1.34175C218.619 4.54575 217.997 7.77942 217.375 10.9834C218.442 11.2801 222.026 12.0514 225.7 10.2418C231.803 7.24542 232.336 0.00675333 232.365 -0.31958C233.106 1.34175 234.439 5.02042 233.847 9.70775C233.432 12.9118 232.277 15.3148 231.447 16.7684C231.803 17.1541 233.699 19.1121 235.891 18.8154C238.557 18.4594 241.046 14.8104 240.335 10.0934C240.927 11.8438 241.638 14.7214 241.46 18.2518C241.223 22.5534 239.801 25.7871 238.853 27.5374C239.09 27.7451 240.601 29.1098 242.734 28.8428C244.601 28.6054 246.2 27.2408 246.822 25.3124C246.674 27.3001 246.319 30.1778 245.163 33.4708C243.593 37.9208 242.29 38.2768 241.638 41.4511C240.601 46.4351 243.267 48.1261 242.556 52.5761C241.964 56.3141 239.535 58.6578 236.454 61.6541C230.855 67.0831 224.426 70.0201 219.034 71.6518C219.271 69.9904 219.538 68.3291 219.775 66.6678C220.456 67.0831 221.641 67.6468 223.122 67.5874C226.144 67.4688 228.04 64.7691 229.047 63.3154C230.203 61.6838 232.128 58.8951 231.092 55.8988C230.232 53.4661 227.951 52.4574 227.744 52.3684C225.078 51.2411 221.641 52.2498 219.419 54.9791C218.175 50.0841 216.96 45.2188 215.716 40.3238C211.509 37.6538 207.332 35.0134 203.126 32.3434C201.052 31.9578 195.393 31.1864 189.054 34.0048C182.655 36.8528 179.396 41.6884 178.329 43.4684Z" fill="#461EB8"/>
<path d="M177.885 43.3498C175.367 52.7838 173.856 62.8111 176.167 72.4528C178.063 80.2848 182.862 89.2144 191.038 91.7658C191.572 91.9438 191.809 91.0834 191.275 90.9054C183.069 88.3541 178.477 79.0684 176.789 71.2364C174.804 62.0398 176.315 52.5464 178.714 43.5871C178.892 43.0531 178.033 42.8158 177.885 43.3498Z" fill="black"/>
<path d="M191.69 91.6174C205.347 90.2231 216.753 80.3441 219.952 66.9348C220.071 66.3711 219.241 66.1338 219.093 66.6974C215.983 79.6618 204.992 89.3628 191.69 90.7274C191.127 90.7868 191.098 91.6768 191.69 91.6174Z" fill="black"/>
<path d="M219.182 67.1721C225.285 70.9101 231.239 63.0781 231.625 57.5897C231.832 54.6824 230.499 52.4574 227.625 51.6267C224.959 50.8554 222.056 51.6564 220.16 53.6737C219.775 54.0891 220.397 54.7121 220.782 54.2967C222.352 52.6057 224.722 51.8641 227.003 52.3684C228.188 52.6354 229.492 53.2881 230.173 54.3561C230.914 55.5131 230.825 57.1151 230.647 58.3907C229.936 62.9891 224.84 69.5751 219.626 66.3711C219.152 66.1041 218.678 66.8754 219.182 67.1721Z" fill="black"/>
<path d="M219.123 67.1128C217.967 75.3304 218.382 83.6668 220.337 91.7361C220.485 92.2997 221.344 92.0624 221.196 91.4987C219.271 83.5777 218.856 75.3898 219.982 67.3501C220.041 66.7864 219.182 66.5491 219.123 67.1128Z" fill="black"/>
<path d="M203.807 87.4344C204.725 92.2404 206.147 96.8981 208.103 101.407C208.34 101.941 209.11 101.467 208.873 100.962C206.947 96.5421 205.555 91.9438 204.666 87.1971C204.548 86.6334 203.718 86.8708 203.807 87.4344Z" fill="black"/>
<path d="M208.725 101.526C214.442 100.606 219.271 96.6608 221.434 91.2911C221.641 90.7571 220.782 90.5197 220.575 91.0537C218.531 96.1564 213.88 99.8054 208.488 100.666C207.925 100.755 208.162 101.615 208.725 101.526Z" fill="black"/>
<path d="M204.518 88.4728C205.732 88.5321 206.562 87.7014 207.48 86.9894C208.695 86.0401 209.85 85.0314 210.917 83.9634C212.902 81.9758 214.502 79.6914 215.538 77.0807C215.746 76.5467 214.887 76.3094 214.679 76.8434C213.761 79.1574 212.339 81.2044 210.621 82.9844C209.85 83.8151 209.021 84.5568 208.162 85.2984C207.214 86.0994 205.851 87.6421 204.518 87.5828C203.955 87.5531 203.955 88.4431 204.518 88.4728Z" fill="black"/>
<path d="M204.577 87.9981C207.095 86.3664 209.436 84.4974 211.628 82.4504C212.043 82.0647 211.42 81.4121 211.006 81.8274C208.873 83.8447 206.592 85.6544 204.133 87.2564C203.629 87.5234 204.103 88.2948 204.577 87.9981Z" fill="black"/>
<path d="M187.158 45.0704C185.499 52.6354 184.551 60.3191 184.343 68.0621C184.343 68.5071 184.936 68.6554 185.173 68.2994C186.328 66.4601 187.484 64.5911 188.639 62.7518C188.935 62.2771 188.165 61.8024 187.869 62.3068C186.713 64.1461 185.558 66.0151 184.403 67.8544C184.669 67.9434 184.965 68.0028 185.232 68.0918C185.439 60.4378 186.387 52.8134 188.017 45.3374C188.135 44.7441 187.276 44.5068 187.158 45.0704Z" fill="black"/>
<path d="M188.343 79.2167C187.632 77.8817 187.158 76.4577 187.039 74.9447C186.95 73.8767 187.187 69.5454 189.202 71.2661C190.268 72.1858 190.12 74.2031 190.15 75.5381C190.15 76.1611 190.15 76.8137 190.091 77.4367C190.061 77.8817 190.002 78.3267 189.913 78.7421C189.143 79.2761 188.55 79.2464 188.165 78.6827C187.78 78.2674 187.128 78.8904 187.543 79.3057C188.817 80.6111 190.476 80.6704 190.831 78.6234C191.098 77.1697 191.098 75.6271 190.979 74.1734C190.891 73.0164 190.891 71.3551 190.031 70.4651C188.758 69.1598 186.95 70.3761 186.447 71.7704C185.528 74.2624 186.417 77.4071 187.602 79.6617C187.839 80.1661 188.609 79.7211 188.343 79.2167Z" fill="black"/>
<path d="M194.475 52.5167C195.364 56.6997 200.844 57.0261 202.474 53.1694C202.681 52.6354 201.822 52.3981 201.615 52.9321C200.282 56.0767 196.016 55.4834 195.334 52.2794C195.216 51.7454 194.357 51.9531 194.475 52.5167Z" fill="black"/>
<path d="M192.727 42.2224C193.853 39.7008 196.756 38.4844 199.422 39.0481C202.177 39.6414 204.281 41.7774 205.644 44.1211C205.94 44.6254 206.71 44.1804 206.414 43.6761C204.844 40.9764 202.355 38.5734 199.156 38.0988C196.282 37.6834 193.201 39.0481 191.957 41.7478C191.72 42.3114 192.49 42.7564 192.727 42.2224Z" fill="black"/>
<path d="M175.367 43.2014C176.167 41.5401 177.559 39.7304 179.603 39.7601C181.558 39.7898 182.98 41.5104 183.958 43.0234C184.254 43.4981 185.025 43.0531 184.728 42.5784C183.603 40.7688 181.914 38.8998 179.603 38.8701C177.233 38.8404 175.574 40.7984 174.626 42.7564C174.36 43.2608 175.13 43.7058 175.367 43.2014Z" fill="black"/>
<path d="M180.611 56.6404C181.134 56.6404 181.559 54.6879 181.559 52.2794C181.559 49.8709 181.134 47.9184 180.611 47.9184C180.087 47.9184 179.663 49.8709 179.663 52.2794C179.663 54.6879 180.087 56.6404 180.611 56.6404Z" fill="black"/>
<path d="M183.336 103.573C183.247 104.671 183.129 106.184 183.07 107.934C182.803 113.927 183.04 118.466 183.129 119.682C183.366 123.628 183.899 128.79 185.143 134.782C183.958 136.147 182.181 138.164 179.9 140.538C175.574 145.077 173.353 147.391 169.798 149.794C165.828 152.464 163.073 153.294 161.591 153.68C159.725 154.125 157.948 154.54 155.785 154.066C152.26 153.265 150.156 150.654 149.386 149.645C147.431 147.153 146.986 144.721 146.186 139.974C145.594 136.503 145.475 133.863 145.298 128.76C145.209 126.327 145.09 123.361 145.15 119.385C145.209 114.906 145.446 109.595 146.098 103.662C146.394 100.992 146.809 97.6991 147.46 93.9611C146.957 93.2491 146.424 92.5371 145.861 91.7954C145.268 91.0241 144.705 90.2824 144.113 89.5408C142.602 90.8164 141.121 92.1218 139.61 93.3974C139.225 93.5458 138.543 93.7831 137.714 93.6941C136.144 93.5458 135.225 92.4481 134.899 92.0921C133.448 90.4308 133.655 88.3244 133.714 87.9091C135.758 85.6841 137.803 83.4888 139.876 81.2638C139.906 79.9881 140.084 78.3268 140.587 76.4874C140.973 75.1228 141.446 73.9954 141.891 73.0461C142.276 72.2748 142.809 71.4144 143.491 70.5541C144.705 68.9521 146.009 67.8248 147.075 67.0534C146.216 67.4391 146.009 67.4391 145.949 67.3798C145.801 67.1424 147.194 65.3921 149.149 65.2141C150.245 65.0954 151.104 65.5108 151.697 65.7778C152.615 66.2228 153.237 66.7864 153.622 67.2018C155.459 65.6294 157.296 64.0571 159.133 62.5145C159.784 62.9001 160.436 63.3451 161.088 63.7901C162.599 64.8284 163.962 65.8668 165.176 66.8754C164.732 67.4391 164.169 68.0621 163.458 68.6851C162.273 69.7234 161.088 70.3464 160.169 70.7618C160.732 70.9398 161.74 71.3551 162.243 72.3341C162.747 73.2834 162.539 74.3218 162.243 75.6271C162.036 76.5171 161.769 77.2291 161.562 77.7038C161.68 78.9498 161.74 80.6408 161.384 82.5394C160.821 85.6544 159.518 87.9684 158.629 89.3034C158.599 90.4604 158.57 92.2701 158.629 94.4951C158.866 103.662 160.199 109.032 161.058 115.796C161.562 119.652 162.066 125.378 161.917 132.587C162.599 132.142 163.576 131.43 164.673 130.51C167.457 128.167 169.235 125.823 171.575 122.382C173.886 119.029 175.397 116.537 177.441 113.215C178.715 111.049 180.759 107.756 183.336 103.573Z" fill="white"/>
<path opacity="0.24" d="M156.407 76.4874C155.785 77.8521 155.163 79.2464 154.541 80.6704C152.734 84.9424 151.252 89.0364 150.038 92.9524C149.771 99.1231 149.623 104.285 149.504 108.023C149.356 113.689 149.712 120.453 150.364 133.981C150.63 139.559 150.867 142.941 153.474 145.403C156.2 147.954 159.992 148.014 162.125 148.014C173.501 147.984 182.003 138.283 184.343 135.465C181.173 140.864 177.559 144.394 175.1 146.471C172.316 148.815 168.731 151.752 163.162 153.205C158.451 154.451 156.318 154.184 155.755 154.066C151.697 153.087 149.445 149.705 148.645 148.548C146.72 145.67 146.098 142.674 145.742 136.236C145.387 129.62 145.772 127.87 145.89 118.762C145.979 110.07 145.653 107.608 146.305 101.585C146.69 98.0551 147.164 95.1478 147.549 93.1898C146.394 91.9734 145.238 90.7571 144.083 89.5704C143.105 90.4308 142.098 91.2614 141.091 92.1218C140.439 92.6854 139.758 93.2491 139.106 93.7831C138.514 93.8424 137.654 93.8128 136.736 93.4271C134.366 92.4184 132.885 89.4814 133.625 88.4728C134.099 87.7904 135.344 88.3244 137.062 88.3244C140.024 88.3541 142.009 86.8411 145.949 83.9931C148.734 81.9461 151.934 79.6618 156.407 76.4874Z" fill="#9B9797"/>
<path d="M182.951 103.336C176.108 112.799 171.042 123.657 162.392 131.727C161.977 132.112 162.599 132.735 163.014 132.35C171.724 124.221 176.819 113.304 183.722 103.781C184.077 103.336 183.307 102.891 182.951 103.336Z" fill="black"/>
<path d="M157.474 154.748C169.205 153.977 177.619 144.127 184.669 135.761C185.025 135.316 184.403 134.693 184.047 135.138C177.204 143.326 168.909 153.116 157.503 153.888C156.911 153.888 156.911 154.778 157.474 154.748Z" fill="black"/>
<path d="M151.904 71.1771C151.963 73.5208 153.504 75.5381 155.755 76.1908C156.318 76.3391 156.555 75.4788 155.992 75.3304C154.126 74.7964 152.852 73.1054 152.793 71.1771C152.763 70.6134 151.874 70.6134 151.904 71.1771Z" fill="black"/>
<path d="M152.822 70.9101C153.118 68.3291 157.71 70.1981 158.955 70.8508C160.169 71.4738 161.384 72.0968 161.65 73.5801C161.858 74.7074 161.502 75.8941 161.206 76.9918C161.058 77.5555 161.917 77.7928 162.065 77.2291C162.48 75.7458 162.924 74.0548 162.302 72.6011C161.71 71.1178 160.08 70.4354 158.747 69.7828C157.384 69.1301 155.903 68.6554 154.363 68.8334C153.741 68.9224 152.941 69.0708 152.437 69.4861C151.904 69.9014 152.022 70.1981 151.933 70.9398C151.874 71.4738 152.763 71.4738 152.822 70.9101Z" fill="black"/>
<path d="M160.91 76.8138C160.821 79.0684 161.325 81.2638 160.792 83.5185C160.288 85.5951 159.281 87.5235 158.274 89.3925C158.007 89.8968 158.777 90.3418 159.044 89.8375C160.081 87.8795 161.118 85.8918 161.651 83.7558C162.214 81.4418 161.71 79.1574 161.799 76.8138C161.829 76.2204 160.94 76.2204 160.91 76.8138Z" fill="black"/>
<path d="M158.273 89.4221C157.592 105.056 162.065 120.364 161.354 135.999C161.324 136.562 162.213 136.562 162.243 135.999C162.954 120.364 158.48 105.056 159.162 89.4221C159.191 88.8584 158.303 88.8584 158.273 89.4221Z" fill="black"/>
<path d="M143.728 89.7484C144.617 90.9944 145.565 92.1811 146.631 93.2788C147.016 93.6941 147.638 93.0711 147.253 92.6558C146.246 91.5878 145.327 90.4901 144.498 89.3034C144.143 88.8288 143.372 89.2738 143.728 89.7484Z" fill="black"/>
<path d="M147.134 93.0415C145.446 102.683 144.616 112.473 144.646 122.263C144.675 127.128 144.912 132.023 145.386 136.859C145.772 140.983 146.246 145.314 148.408 148.933C150.363 152.226 153.8 154.718 157.71 154.629C158.273 154.6 158.273 153.71 157.71 153.739C152.23 153.888 148.704 148.993 147.431 144.187C146.009 138.906 145.89 133.151 145.683 127.722C145.238 116.211 146.038 104.641 148.023 93.3084C148.082 92.7151 147.223 92.4778 147.134 93.0415Z" fill="black"/>
<path d="M141.536 79.7211C138.751 82.0648 136.055 84.5271 133.507 87.1081C133.092 87.5235 133.744 88.1465 134.129 87.7311C136.707 85.1501 139.373 82.6878 142.158 80.3441C142.602 79.9881 141.98 79.3651 141.536 79.7211Z" fill="black"/>
<path d="M133.24 87.9091C132.796 91.3504 135.403 94.2578 138.869 94.2281C139.432 94.2281 139.432 93.3381 138.869 93.3381C135.877 93.3678 133.744 90.8461 134.129 87.9091C134.218 87.3454 133.329 87.3454 133.24 87.9091Z" fill="black"/>
<path d="M134.07 87.7014C137.18 87.7904 139.343 90.5791 138.691 93.6051C138.573 94.1688 139.432 94.4061 139.55 93.8424C140.35 90.1934 137.802 86.9301 134.07 86.8114C133.507 86.8114 133.507 87.7014 134.07 87.7014Z" fill="black"/>
<path d="M139.906 93.6941C143.283 90.6088 146.72 87.5531 150.008 84.3788C151.519 82.9251 152.971 81.4418 154.333 79.8398C155.074 78.9794 156.94 77.2884 156.97 76.1018C156.97 75.9534 156.881 75.7754 156.763 75.7161C156.703 75.6864 156.644 75.6568 156.614 75.6568C156.437 75.5678 156.2 75.5678 156.081 75.7161C156.052 75.7458 156.022 75.7754 155.992 75.8348C155.637 76.2798 156.259 76.9028 156.614 76.4578C156.644 76.4281 156.674 76.3984 156.703 76.3391C156.526 76.3688 156.348 76.3984 156.17 76.3984C156.111 76.1314 156.022 76.1314 155.903 76.4281C155.755 76.6358 155.607 76.8434 155.429 77.0511C155.074 77.4961 154.748 77.9411 154.363 78.3861C153.77 79.1278 153.119 79.8398 152.497 80.5518C151.193 81.9758 149.83 83.3108 148.438 84.6161C145.416 87.4641 142.335 90.2231 139.284 93.0414C138.839 93.4568 139.491 94.0798 139.906 93.6941Z" fill="black"/>
<path d="M140.291 81.3824C140.498 79.9584 140.706 78.5344 140.913 77.1104C141.061 76.0424 141.18 74.8558 141.772 73.9064C143.135 71.7111 145.061 73.2834 146.098 74.7668C146.542 75.3898 146.957 76.0721 147.401 76.6951C147.638 77.0511 148.793 78.3268 148.645 78.7718C148.793 78.6531 148.942 78.5641 149.06 78.4454C149.001 78.4454 148.971 78.4454 148.912 78.4454C148.349 78.4158 148.349 79.3058 148.912 79.3354C148.971 79.3354 149.001 79.3354 149.06 79.3354C149.267 79.3354 149.445 79.1871 149.475 79.0091C149.682 78.2674 149.179 77.8224 148.793 77.2291C148.053 76.1314 147.342 75.0041 146.572 73.9361C145.772 72.8384 144.735 71.7704 143.254 71.9188C141.832 72.0671 140.972 73.1648 140.528 74.4404C139.787 76.5468 139.728 78.9498 139.402 81.1451C139.343 81.7088 140.202 81.9461 140.291 81.3824Z" fill="black"/>
<path d="M141.683 78.0301C142.483 79.6024 143.816 81.2044 145.712 81.3231C147.282 81.4418 148.764 80.5518 149.178 79.0091C149.326 78.4454 148.467 78.2081 148.319 78.7718C147.934 80.1958 146.364 80.7298 145.06 80.2848C143.816 79.8398 143.016 78.7421 142.453 77.6148C142.187 77.0808 141.417 77.5258 141.683 78.0301Z" fill="black"/>
<path d="M142.78 72.2451C142.928 70.7914 144.587 70.4058 145.713 70.7914C146.898 71.1771 147.816 72.2451 148.645 73.1054C149.297 73.7878 150.571 74.7371 150.749 75.6864C150.986 76.9621 149.386 77.8224 148.32 78.1488C147.786 78.2971 147.994 79.1574 148.557 79.0091C149.86 78.6234 151.756 77.4664 151.963 75.9238C152.052 75.3008 151.667 74.9744 151.252 74.5294C150.423 73.6394 149.623 72.7791 148.764 71.9188C147.609 70.7321 146.127 69.4564 144.35 69.7531C143.017 69.9608 142.039 70.8508 141.891 72.2154C141.832 72.8088 142.721 72.8088 142.78 72.2451Z" fill="black"/>
<path d="M144.38 70.0498C144.794 69.5751 145.002 68.9521 145.387 68.4774C146.335 67.2908 147.816 68.3884 148.794 69.1004C150.69 70.4354 152.704 72.8681 150.986 75.1821C150.66 75.6568 151.43 76.1018 151.756 75.6271C153.593 73.1351 151.786 70.2574 149.682 68.6554C148.705 67.9138 147.224 66.5788 145.89 66.9644C144.705 67.2908 144.498 68.6554 143.757 69.4564C143.372 69.8421 143.994 70.4651 144.38 70.0498Z" fill="black"/>
<path d="M147.371 67.3501C148.408 66.0744 149.771 64.7394 151.371 66.0744C152.437 66.9348 153.119 68.1511 153.504 69.4268C153.681 69.9608 154.511 69.7531 154.363 69.1894C153.859 67.4688 152.704 65.4811 150.986 64.7691C149.238 64.0571 147.786 65.4514 146.749 66.7271C146.394 67.1424 147.016 67.7951 147.371 67.3501Z" fill="black"/>
<path d="M153.919 67.4688C155.755 65.8964 157.592 64.3241 159.429 62.7814C159.873 62.3958 159.221 61.7728 158.807 62.1584C156.97 63.7308 155.133 65.3031 153.296 66.8458C152.852 67.2314 153.504 67.8544 153.919 67.4688Z" fill="black"/>
<path d="M160.466 71.2661C162.214 69.9904 163.902 68.6258 165.472 67.1424C165.887 66.7568 165.265 66.1338 164.85 66.5194C163.31 67.9434 161.71 69.2784 160.021 70.4948C159.547 70.8211 159.992 71.5925 160.466 71.2661Z" fill="black"/>
<path d="M190.161 51.1224C190.161 60.1922 182.819 67.5411 173.768 67.5411C164.716 67.5411 157.374 60.1922 157.374 51.1224C157.374 42.0527 164.716 34.7038 173.768 34.7038C182.819 34.7038 190.161 42.0527 190.161 51.1224Z" stroke="black" stroke-width="3" stroke-miterlimit="10"/>
<path d="M162.925 53.3177C169.502 49.1051 176.226 45.1298 183.099 41.3918C183.603 41.1248 183.159 40.3534 182.655 40.6204C175.782 44.3288 169.057 48.3041 162.48 52.5464C162.006 52.8727 162.451 53.6441 162.925 53.3177Z" fill="black"/>
<path d="M163.666 61.0904C169.087 57.1151 174.568 53.2881 180.167 49.5501C180.641 49.2238 180.196 48.4524 179.722 48.7788C174.153 52.5168 168.643 56.3734 163.221 60.3191C162.747 60.6454 163.192 61.4168 163.666 61.0904Z" fill="black"/>
</g>
<defs>
<clipPath id="clip0">
<rect width="445" height="321" fill="white"/>
</clipPath>
</defs>
</svg>
