<svg width="1448" height="1204" viewBox="0 0 1448 1204" fill="none" xmlns="http://www.w3.org/2000/svg">
<path d="M972 304.6C981.002 304.6 988.3 297.302 988.3 288.3C988.3 279.298 981.002 272 972 272C962.998 272 955.7 279.298 955.7 288.3C955.7 297.302 962.998 304.6 972 304.6Z" fill="#EC615B"/>
<path d="M989.3 259.4C993.498 259.4 996.9 255.997 996.9 251.8C996.9 247.603 993.498 244.2 989.3 244.2C985.103 244.2 981.7 247.603 981.7 251.8C981.7 255.997 985.103 259.4 989.3 259.4Z" fill="#EC615B"/>
<path d="M491 160.5C495.308 160.5 498.8 157.008 498.8 152.7C498.8 148.392 495.308 144.9 491 144.9C486.692 144.9 483.2 148.392 483.2 152.7C483.2 157.008 486.692 160.5 491 160.5Z" fill="#EC615B"/>
<path d="M1001.4 1073.4C1008.69 1073.4 1014.6 1067.49 1014.6 1060.2C1014.6 1052.91 1008.69 1047 1001.4 1047C994.11 1047 988.2 1052.91 988.2 1060.2C988.2 1067.49 994.11 1073.4 1001.4 1073.4Z" fill="#EC615B"/>
<path d="M400.7 1118.6C404.069 1118.6 406.8 1115.87 406.8 1112.5C406.8 1109.13 404.069 1106.4 400.7 1106.4C397.331 1106.4 394.6 1109.13 394.6 1112.5C394.6 1115.87 397.331 1118.6 400.7 1118.6Z" fill="#EC615B"/>
<path d="M476.9 668C480.38 668 483.2 665.179 483.2 661.7C483.2 658.22 480.38 655.4 476.9 655.4C473.421 655.4 470.6 658.22 470.6 661.7C470.6 665.179 473.421 668 476.9 668Z" fill="#EC615B"/>
<path d="M489.3 700.1C492.669 700.1 495.4 697.369 495.4 694C495.4 690.631 492.669 687.9 489.3 687.9C485.931 687.9 483.2 690.631 483.2 694C483.2 697.369 485.931 700.1 489.3 700.1Z" fill="#5222D0"/>
<path d="M482 870.1C488.296 870.1 493.4 864.996 493.4 858.7C493.4 852.404 488.296 847.3 482 847.3C475.704 847.3 470.6 852.404 470.6 858.7C470.6 864.996 475.704 870.1 482 870.1Z" fill="#5222D0"/>
<path d="M962.9 222.2C966.877 222.2 970.1 218.976 970.1 215C970.1 211.024 966.877 207.8 962.9 207.8C958.924 207.8 955.7 211.024 955.7 215C955.7 218.976 958.924 222.2 962.9 222.2Z" fill="#5222D0"/>
<path d="M689 234.8C692.48 234.8 695.3 231.979 695.3 228.5C695.3 225.021 692.48 222.2 689 222.2C685.521 222.2 682.7 225.021 682.7 228.5C682.7 231.979 685.521 234.8 689 234.8Z" fill="#5222D0"/>
<path d="M127.3 727.6C129.951 727.6 132.1 725.451 132.1 722.8C132.1 720.149 129.951 718 127.3 718C124.649 718 122.5 720.149 122.5 722.8C122.5 725.451 124.649 727.6 127.3 727.6Z" fill="#5222D0"/>
<path d="M984.7 1106.4C991.328 1106.4 996.7 1101.03 996.7 1094.4C996.7 1087.77 991.328 1082.4 984.7 1082.4C978.073 1082.4 972.7 1087.77 972.7 1094.4C972.7 1101.03 978.073 1106.4 984.7 1106.4Z" fill="#5222D0"/>
<path d="M1113.2 79C1116.68 79 1119.5 76.1794 1119.5 72.7C1119.5 69.2206 1116.68 66.4 1113.2 66.4C1109.72 66.4 1106.9 69.2206 1106.9 72.7C1106.9 76.1794 1109.72 79 1113.2 79Z" fill="#5222D0"/>
<path d="M501.1 355.9C500.1 349.7 499.2 337.3 509.1 338.3C512.7 338.7 514.7 341.9 518.7 340.5C526.2 337.9 524.5 328.2 527.6 322.6C532.7 313.6 542.6 326.7 550.2 322.4C552.7 321 553.3 318.4 553.2 315.7C553 305.6 561.9 306.3 569.2 308.3C571.1 308.8 571.9 305.9 570 305.4C562.6 303.4 550.3 302.7 550 313.4C549.9 316 551.3 318.6 547.5 320.2C546.3 320.7 544.3 320.1 543.2 319.8C540.6 319 538.3 317.2 535.6 316.5C532.1 315.5 528.7 316.2 526.3 319C523.3 322.6 523.4 327.5 522 331.7C520.5 336.2 517.6 338.8 512.7 336.6C510.7 335.7 508.9 334.9 506.6 335.2C496.3 336.6 496.8 349.1 498.1 356.7C498.5 358.6 501.4 357.8 501.1 355.9Z" fill="#5222D0"/>
<path d="M512.9 361.7C513.7 355.5 518.7 352.8 524.5 352.8C527.6 352.8 530.7 353.3 533.7 352.2C540.5 349.6 539.2 342.2 540.8 336.4C543.8 325.4 557.7 332.2 565.4 330.4C570.6 329.1 575 323.9 572.8 318.4C572.1 316.6 569.2 317.4 569.9 319.2C573.3 327.5 561.7 328 556.8 327.4C553.2 327 549.7 326.4 546.1 327.3C540.4 328.8 538.2 333 537.4 338.4C536.7 343.4 536.8 348.9 530.3 349.7C526.8 350.1 523.3 349.1 519.8 349.9C514.2 351.2 510.6 355.9 509.9 361.5C509.6 363.6 512.6 363.6 512.9 361.7Z" fill="#5222D0"/>
<path d="M719.5 116.1C716 120.5 712.3 125.9 714 131.8C715.4 136.6 719.2 138.4 723.8 138.1C726.5 137.9 729.3 137.2 731.5 139.6C733.2 141.4 732.1 145.2 731.6 147.2C730.8 150.3 729.3 153.3 729.6 156.6C730.1 161.1 733.7 164.6 738.3 163.6C740.2 163.2 739.4 160.3 737.5 160.7C728.8 162.7 734.8 148.2 735.2 144.7C735.5 141.8 735 138.6 732.8 136.5C730.6 134.4 727.9 134.6 725.1 134.9C720.7 135.4 716.6 134 716.4 128.7C716.3 124.7 719.1 121.1 721.5 118.1C722.9 116.8 720.7 114.6 719.5 116.1Z" fill="#5222D0"/>
<path d="M743.1 114.6C738.4 116.6 735.4 121.5 736.6 126.6C737.2 128.9 738.6 131.1 740.6 132.5C743 134.3 745.8 133.9 748.2 135.4C752.7 138.1 749.1 143.4 749.3 147.6C749.4 149.7 749.9 151.6 751.7 152.9C754.4 155 758.4 154.3 759.5 150.9C760.1 149.1 757.2 148.3 756.6 150.1C752.8 149.6 751.5 147.9 752.6 145C752.8 144 753 143 753.2 142C753.4 141 753.5 140 753.5 139C753.5 136.9 752.9 134.7 751.3 133.2C748.9 131 745.2 131.9 742.6 130.1C737.3 126.4 739.2 119.4 744.6 117.1C746.4 116.4 744.8 113.9 743.1 114.6Z" fill="#5222D0"/>
<path d="M89.2 705.7C86.9 702.1 86.9 697.7 89.2 694C91.5 690.4 94.7 690.3 98.4 688.9C103.5 686.8 103.6 681.5 103.3 676.7C103.2 675 103.1 673.2 103.6 671.5C104.9 667.5 108.3 668.6 111.4 669.1C113.2 669.4 114.9 669.1 116.4 668.1C118.3 666.8 119.5 664.5 120.1 662.3C120.6 660.5 120.7 658.6 121.1 656.8C121.3 655.5 121.7 654.3 122.3 653.2C123.9 650.7 125.8 650.5 128.1 652.7C128.6 654.6 131.5 653.8 131 651.9C129.2 645.4 121.2 648.3 119.2 652.9C118.3 655 118.2 657.3 117.7 659.5C117.4 660.8 117.2 662.2 116.5 663.4C115 666.1 112.2 665.6 109.6 665.3C106.5 665 104.1 664.7 102.1 667.6C99.8 670.9 100.4 674.8 100.4 678.6C100.5 683.2 99.5 685 95 686.5C93.2 687.1 91.7 687.4 90.1 688.6C84.3 692.7 82.8 701.2 86.6 707.1C87.6 708.8 90.2 707.3 89.2 705.7Z" fill="#EC615B"/>
<path d="M101.7 712.6C97.5 712 99.1 707.4 101 705.6C102.4 704.3 104.3 703.5 106.1 702.6C108.3 701.5 110.5 700.2 112.1 698.3C116.4 692.9 110.2 685.7 116.2 681.4C122.2 677.2 138.3 675.3 133.6 664.1C132.9 662.3 130.3 663.9 131 665.6C134.4 673.7 117.9 676.1 113.7 679.5C112.2 680.7 110.9 682.3 110.3 684.2C109.1 688.4 112.6 692.7 109.5 696.7C105.9 701.1 98.2 701.1 96.4 707.3C95.3 710.8 97.2 715 101 715.6C102.8 715.8 103.6 712.9 101.7 712.6Z" fill="#EC615B"/>
<path d="M1197.9 480.2C1196.6 477.9 1196.8 475.4 1198.2 473.2C1200.4 470 1203 470.7 1206.4 471C1208.7 471.2 1210.8 471.7 1213 470.4C1216.9 468 1216.3 463 1217 459.2C1218.6 450.3 1226.3 458.4 1231.5 455.6C1233.4 454.6 1234.1 452.7 1234.5 450.7C1235.2 446.8 1235.4 435.2 1242.9 439.9C1244.5 440.9 1246.1 438.3 1244.4 437.3C1237.7 433.2 1232.3 440 1231.7 446.3C1231.3 449.9 1231.7 453.4 1226.9 452.9C1225.2 452.7 1223.5 451.8 1221.8 451.6C1219.1 451.3 1216.7 452.1 1215.2 454.5C1213.5 457.3 1214.1 460.8 1213.4 463.8C1211.9 470.6 1206.1 466.8 1201.4 467.6C1195.1 468.7 1192.2 476.3 1195.2 481.6C1196.2 483.4 1198.8 481.9 1197.9 480.2Z" fill="#EC615B"/>
<path d="M1212.8 486.5C1211.1 481.9 1216.4 476.8 1221 479.2C1221.6 479.5 1222.4 479.5 1222.8 479C1225.1 476.5 1225.7 473.6 1226.7 470.4C1228.5 464.6 1232.8 463.8 1238 462.2C1243.1 460.6 1248.8 456.4 1246.7 450.4C1246 448.6 1243.1 449.4 1243.8 451.2C1246.7 459.1 1232.5 459.7 1228.3 462.6C1223.2 466.2 1224.7 472.7 1220.8 476.9C1221.4 476.8 1222 476.7 1222.6 476.7C1215.9 473.2 1207.4 480.1 1210 487.4C1210.6 489.1 1213.5 488.4 1212.8 486.5Z" fill="#EC615B"/>
<path d="M808.9 512.7C809.1 512.7 811.3 518.1 812.2 518.8C813.6 519.9 815.3 520 817 519.7C820 519.2 821.9 517 824.5 515.6C830.1 512.4 830.1 517.9 832.3 521C834.8 524.7 837.5 522.9 840.4 521.1C842.3 519.9 844.1 519.1 845.8 520.8C846.7 521.7 847.3 523.2 848 524.3C849.1 525.9 850.3 527.2 852.1 528C853.8 528.8 855.4 526.2 853.6 525.4C849.5 523.6 849 516.8 844.1 516.1C841.8 515.8 840.8 517.1 839 518.1C836.8 519.4 835.5 520.3 834.1 517.8C833.5 516.8 833.4 515.4 832.7 514.4C829.5 509.1 824.5 512 820.5 514.6C819.8 515.1 819.1 515.6 818.3 516C816.6 515.5 814.8 515 813.1 514.5C812.4 513.8 812.4 512.1 811.8 511.2C810.8 509.8 809.8 509.4 808.2 509.7C806.2 510.1 807 513 808.9 512.7Z" fill="#EC615B"/>
<path d="M832.4 503.1C835.4 498.4 842.3 508.2 845.1 509.4C846.8 510.1 848.4 510.1 850.2 509.6C851 509.4 851.7 509 852.4 508.7C855.1 507.6 857.4 508.3 859.6 510.2C862.8 512.9 863.7 516.5 868.3 517.5C871 518.1 873.5 517.3 874.7 514.7C875.5 513 872.9 511.4 872.1 513.2C869.3 519.2 861.6 507.4 859.6 506.1C855.9 503.7 853.6 505.7 849.9 506.5C844 507.7 842.1 501.1 837.2 499.5C834.3 498.5 831.5 499 829.9 501.7C828.7 503.3 831.3 504.8 832.4 503.1Z" fill="#EC615B"/>
<path d="M1206.1 677.9C1259.2 677.9 1312.3 677.9 1365.5 677.9C1367.4 677.9 1367.4 674.9 1365.5 674.9C1312.4 674.9 1259.3 674.9 1206.1 674.9C1204.2 674.9 1204.2 677.9 1206.1 677.9Z" fill="#797777"/>
<path d="M1249.6 677.2C1249.6 692.7 1249.6 708.1 1249.6 723.6C1249.6 725.5 1252.6 725.5 1252.6 723.6C1252.6 708.1 1252.6 692.7 1252.6 677.2C1252.6 675.3 1249.6 675.3 1249.6 677.2Z" fill="#797777"/>
<path d="M1323.8 675.7C1323.8 654.1 1323.8 632.5 1323.8 610.9C1323.8 609 1320.8 609 1320.8 610.9C1320.8 632.5 1320.8 654.1 1320.8 675.7C1320.8 677.7 1323.8 677.7 1323.8 675.7Z" fill="#797777"/>
<path d="M1288.5 612.1C1308.6 612.1 1328.7 612.1 1348.8 612.1C1350.7 612.1 1350.7 609.1 1348.8 609.1C1328.7 609.1 1308.6 609.1 1288.5 609.1C1286.6 609.1 1286.6 612.1 1288.5 612.1Z" fill="#797777"/>
<path d="M1249 252C1249 270.7 1249 289.4 1249 308C1249 309.9 1252 309.9 1252 308C1252 289.3 1252 270.6 1252 252C1252 250.1 1249 250.1 1249 252Z" fill="#797777"/>
<path d="M1202.3 312.3C1238.4 312.3 1274.4 312.3 1310.5 312.3C1312.4 312.3 1312.4 309.3 1310.5 309.3C1274.4 309.3 1238.4 309.3 1202.3 309.3C1200.3 309.3 1200.3 312.3 1202.3 312.3Z" fill="#797777"/>
<path d="M1309.5 311.9C1309.5 324.3 1309.5 336.7 1309.5 349.1C1309.5 351 1312.5 351 1312.5 349.1C1312.5 336.7 1312.5 324.3 1312.5 311.9C1312.5 310 1309.5 310 1309.5 311.9Z" fill="#797777"/>
<path d="M305.2 193.7C340.5 193.7 375.9 193.7 411.2 193.7C413.1 193.7 413.1 190.7 411.2 190.7C375.9 190.7 340.5 190.7 305.2 190.7C303.3 190.7 303.2 193.7 305.2 193.7Z" fill="#797777"/>
<path d="M406.8 193.4C406.8 203 406.8 212.6 406.8 222.2C406.8 224.1 409.8 224.1 409.8 222.2C409.8 212.6 409.8 203 409.8 193.4C409.8 191.4 406.8 191.4 406.8 193.4Z" fill="#797777"/>
<path d="M374.7 191C374.7 175.6 374.7 160.3 374.7 144.9C374.7 143 371.7 143 371.7 144.9C371.7 160.3 371.7 175.6 371.7 191C371.7 193 374.7 193 374.7 191Z" fill="#797777"/>
<path d="M95.5 501.9C119.9 501.9 144.3 501.9 168.7 501.9C170.6 501.9 170.6 498.9 168.7 498.9C144.3 498.9 119.9 498.9 95.5 498.9C93.6 498.9 93.6 501.9 95.5 501.9Z" fill="#797777"/>
<path d="M140.2 471.8C140.2 480.8 140.2 489.8 140.2 498.8C140.2 500.7 143.2 500.7 143.2 498.8C143.2 489.8 143.2 480.8 143.2 471.8C143.2 469.9 140.2 469.9 140.2 471.8Z" fill="#797777"/>
<path d="M122.6 473.3C135.6 473.3 148.6 473.3 161.6 473.3C163.5 473.3 163.5 470.3 161.6 470.3C148.6 470.3 135.6 470.3 122.6 470.3C120.6 470.3 120.6 473.3 122.6 473.3Z" fill="#797777"/>
<path d="M563 1103.8C595.6 1103.8 628.2 1103.8 660.8 1103.8C662.7 1103.8 662.7 1100.8 660.8 1100.8C628.2 1100.8 595.6 1100.8 563 1100.8C561 1100.8 561 1103.8 563 1103.8Z" fill="#797777"/>
<path d="M623.2 1100.8C623.2 1093.8 623.2 1086.8 623.2 1079.7C623.2 1077.8 620.2 1077.8 620.2 1079.7C620.2 1086.7 620.2 1093.7 620.2 1100.8C620.2 1102.8 623.2 1102.8 623.2 1100.8Z" fill="#797777"/>
<path d="M614.1 1079.8C627.6 1079.8 641.2 1079.8 654.7 1079.8C656.6 1079.8 656.6 1076.8 654.7 1076.8C641.2 1076.8 627.6 1076.8 614.1 1076.8C612.2 1076.8 612.2 1079.8 614.1 1079.8Z" fill="#797777"/>
<path d="M97.8 1051.2C130.4 1051.2 163 1051.2 195.6 1051.2C197.5 1051.2 197.5 1048.2 195.6 1048.2C163 1048.2 130.4 1048.2 97.8 1048.2C95.9 1048.2 95.9 1051.2 97.8 1051.2Z" fill="#797777"/>
<path d="M143 1012C143 1023.5 143 1035.1 143 1046.6C143 1048.5 146 1048.5 146 1046.6C146 1035.1 146 1023.5 146 1012C146 1010.1 143 1010.1 143 1012Z" fill="#797777"/>
<path d="M143 1007.5C130 1007.5 116.9 1007.5 103.9 1007.5C102 1007.5 102 1010.5 103.9 1010.5C116.9 1010.5 130 1010.5 143 1010.5C144.9 1010.5 144.9 1007.5 143 1007.5Z" fill="#797777"/>
<path d="M1184.9 963.2C1181.6 959.9 1182.4 953.5 1187.5 952.4C1190.2 951.8 1192.8 953.5 1195.4 953.8C1197.4 954.1 1199.5 953.9 1200.8 952.1C1202.8 949.5 1201.2 946.5 1201.1 943.6C1200.9 934.5 1211.7 935.1 1217.1 938.3C1218.3 939 1219.6 937.8 1219.3 936.6C1216.7 924.1 1231 915.5 1240.8 923.8C1242.3 925 1244.4 922.9 1242.9 921.7C1230.8 911.5 1213.1 921.9 1216.4 937.5C1217.1 936.9 1217.9 936.4 1218.6 935.8C1214 933 1208.1 931.6 1203.2 934.7C1201.4 935.8 1199.8 937.5 1199 939.5C1198.4 940.9 1198.1 942.2 1198.2 943.7C1198.3 946.4 1199.2 946.2 1197.2 948.8C1195 951.7 1194.8 950.4 1191.7 949.7C1190.6 949.4 1189.6 949.2 1188.4 949.3C1185.9 949.4 1183.6 950.6 1182 952.4C1178.5 956.3 1179.4 961.8 1182.9 965.3C1184.2 966.7 1186.3 964.6 1184.9 963.2Z" fill="#797777"/>
<path d="M1204.4 966.2C1203.3 957.1 1218.2 957 1222.4 950.7C1223.5 949.1 1223.9 947.3 1224.6 945.6C1225.9 942.5 1228.2 940.5 1231.6 939.6C1237.1 938.2 1242.8 940.7 1247.8 942.8C1249.6 943.5 1250.4 940.6 1248.6 939.9C1239.4 936.1 1227 933.2 1221.9 944.4C1220.1 948.4 1219.5 950.6 1215.3 952.7C1212.8 953.9 1210.2 954.6 1207.8 956C1204 958.2 1201 961.6 1201.5 966.2C1201.7 968.1 1204.7 968.1 1204.4 966.2Z" fill="#797777"/>
<path d="M774.3 675.4C776.3 680.4 778.3 685.5 780.3 690.5C780.5 689.9 780.8 689.4 781 688.8C779.9 689.5 778.8 690.2 777.7 691C776 687 776.7 686 779.9 687.8C781.8 689 782.7 691.6 783.1 693.7C784 698.5 783 703.5 781.4 708.1C781 709.3 782.2 710.1 783.2 709.9C789.2 708.7 791.6 715.9 790.4 720.4C789.5 723.7 787.7 726.6 785.9 729.5C784.9 731.1 787.5 732.6 788.5 731C791.7 726 795.4 719.8 793.2 713.6C791.5 709 787.3 706.1 782.4 707C783 707.6 783.6 708.2 784.2 708.8C786.2 703 787.5 695.7 785 689.8C783.3 685.9 779.4 682.9 775 684.2C771.6 685.2 769.9 688.6 771.5 691.9C774.2 697.4 778.9 693.7 782.4 691.4C782.9 691.1 783.3 690.3 783.1 689.7C781.1 684.7 779.1 679.6 777.1 674.6C776.5 672.9 773.6 673.6 774.3 675.4Z" fill="#797777"/>
<path d="M182.9 202.3C181 197.5 187.4 196.2 190.4 197.9C192.7 199.2 194.2 201.5 195.6 203.6C196.9 205.5 198.3 207.6 199 209.8C199.8 211.7 199.7 213.5 198.7 215.3C195.2 216.9 193.4 216.5 193.3 214.2C192.4 210.9 195.9 208.7 198.9 208.8C202 208.9 204.9 210.7 207 212.9C210.6 216.7 211.9 221.7 211.4 226.8C212.3 226.5 213.3 226.3 214.2 226C212.2 223.1 214.1 220 216.8 218.5C219.1 217.3 221.7 217.6 223.9 218.8C227.5 220.7 230 224.2 232.3 227.4C233.4 229 236 227.5 234.9 225.9C231.1 220.6 225.4 213.2 217.9 214.9C212.4 216.1 208 222.5 211.6 227.5C212.5 228.8 214.2 228.2 214.4 226.7C215.3 217.2 208.3 204.2 197.1 205.8C193.1 206.4 190.2 209.2 190.2 213.3C190.2 216.5 192.2 219.8 195.6 220C199.6 220.3 202.3 216.4 202.5 212.8C202.8 207.8 198.9 202.4 195.9 198.7C193.1 195.4 189 192.6 184.6 194.3C181 195.6 178.6 199.2 180.1 202.9C180.7 204.9 183.6 204.1 182.9 202.3Z" fill="#797777"/>
<path d="M709.7 349C705.5 346.5 708.5 339.1 713.2 342.2C717.7 345.2 711.7 350.3 708.8 346.8C707.6 345.3 705.5 347.4 706.7 348.9C709 351.7 713.4 351.5 716 349.2C719 346.5 718.2 342.1 715.1 339.9C712 337.7 707.5 338.1 705.6 341.7C703.7 345.1 705 349.7 708.3 351.6C709.8 352.5 711.3 350 709.7 349Z" fill="#797777"/>
<path d="M1028.3 130.3C1026.1 127.2 1029.9 122.5 1033.4 123.9C1033.1 123.7 1032.8 123.4 1032.5 123.2C1034.4 126.5 1031.6 131 1027.9 130.8C1028.4 131.2 1028.9 131.5 1029.3 131.9C1028.7 130.2 1028 128.4 1027.4 126.7C1026.7 124.9 1023.8 125.7 1024.5 127.5C1025.1 129.2 1025.8 131 1026.4 132.7C1026.6 133.4 1027.1 133.8 1027.8 133.8C1031 134 1033.8 132 1035.2 129.2C1036.3 127 1036.9 122.4 1034.2 121C1028.3 118.1 1022.2 126.9 1025.7 131.8C1026.8 133.4 1029.4 131.9 1028.3 130.3Z" fill="#797777"/>
<path d="M1109.7 279C1109.2 276.7 1110.9 274.2 1113.2 273.7C1115.3 273.3 1117.2 275 1117.7 276.9C1119 281.4 1113.1 283.5 1110.3 280.4C1109 279 1106.9 281.1 1108.2 282.5C1113.4 288.3 1123.4 282.6 1120.2 275.2C1118.8 271.9 1115.3 269.8 1111.8 270.9C1108.1 272.1 1105.9 276 1106.7 279.8C1107.3 281.7 1110.2 280.9 1109.7 279Z" fill="#797777"/>
<path d="M785.1 1106.7C781.3 1104.9 781.6 1099.7 785.1 1097.7C788.5 1095.8 791.7 1097.5 794.8 1098.9C797.4 1100.1 800.4 1101.2 802.7 1098.9C804.8 1096.9 804.4 1093.8 804.5 1091.2C804.9 1081.1 814.7 1083.1 821.4 1085.6C823.2 1086.3 824 1083.4 822.2 1082.7C816.3 1080.4 808.1 1078.2 803.4 1084C802 1085.7 801.6 1087.7 801.5 1089.8C801.4 1091.2 802 1094.3 801.2 1095.6C799 1098.9 796 1095.9 793.7 1094.9C789.3 1093 783 1093.5 780.3 1098.1C778 1102 779.4 1107.3 783.5 1109.2C785.3 1110.1 786.8 1107.5 785.1 1106.7Z" fill="#797777"/>
<path d="M833.5 871C830.5 907.7 832.1 944.5 838.3 980.8C838.6 982.7 841.5 981.9 841.2 980C835.1 944 833.5 907.4 836.5 871C836.7 869.1 833.7 869.1 833.5 871Z" fill="#797777"/>
<path d="M835.5 873.3C851.1 878.7 867.2 882.3 883.6 884.1C899 885.7 916.7 887.4 931.5 881.6C933.3 880.9 932.5 878 930.7 878.7C916.3 884.4 898.8 882.7 883.6 881.1C867.5 879.4 851.6 875.7 836.3 870.4C834.4 869.7 833.7 872.6 835.5 873.3Z" fill="#797777"/>
<path d="M859.3 877.4C854.1 869.3 849.8 860.7 846.8 851.5C845.4 847.1 844.2 842.7 843.3 838.2C842.8 835.5 842.3 832.8 842 830.1C842 829.8 840.9 822.7 843 823.7C844 824.2 845.7 823.3 845.2 822C839.7 808.1 836.7 793.5 836.4 778.5C835.9 779 835.4 779.5 834.9 780C835.7 780.3 836.4 780.6 837.2 780.9C838.2 782.1 840.1 780.8 839.7 779.4C837.7 773 836.4 766.4 836 759.6C835.9 758 836.2 740 837.3 740.3C838.5 740.6 839.3 739.5 839.1 738.5C837.2 727.2 836.3 715.7 836.8 704.3C837 698.6 837.5 693 838.4 687.4C839.2 682.3 839.6 676.1 843.6 672.4C842.8 672.3 842 672.2 841.2 672.1C849.6 687.9 854.3 705.2 858.6 722.4C862.8 739.3 866.5 756.4 869.7 773.6C876.2 809.1 880.3 845 882.1 881.1C882.2 883 885.2 883 885.1 881.1C883.3 844.8 879.2 808.6 872.6 772.8C869.3 755 865.5 737.3 861.1 719.7C856.8 702.8 852.1 686 843.8 670.5C843.3 669.6 842.1 669.6 841.4 670.2C838 673.3 837 677.4 836.2 681.7C835.1 687.8 834.3 694.1 833.9 700.3C833.1 713.3 833.9 726.3 836.1 739.2C836.7 738.6 837.3 738 837.9 737.4C832.1 735.8 832.8 748.3 832.7 751.1C832.3 760.9 833.8 770.7 836.7 780.1C837.5 779.6 838.4 779.1 839.2 778.6C837.9 777.1 836.8 776.6 834.8 776.8C834 776.9 833.3 777.4 833.3 778.3C833.6 793.5 836.6 808.4 842.2 822.6C842.9 822 843.7 821.5 844.4 820.9C834.4 816.1 840.2 838.7 841 842.1C844 855.1 849.4 867.5 856.6 878.7C857.8 880.5 860.4 879 859.3 877.4Z" fill="#797777"/>
<path d="M875.2 777.5C874.3 771.1 874.1 764.6 874.9 758.2C875.1 756.6 878.9 737.8 880.8 738.6C881.8 739.1 883 738.5 883.1 737.3C883.7 724.5 887.7 713.1 892.4 701.3C897.1 689.6 901.7 678.3 909.5 668.2C908.8 668.2 908.1 668.2 907.4 668.2C913.1 674.7 912.4 684.6 912.7 692.7C913.1 701.8 913.4 710.9 913.5 720C913.7 737.9 913.4 755.8 912.6 773.7C910.9 810.3 906.8 846.8 900.6 882.9C900.3 884.8 903.2 885.6 903.5 883.7C910 846.1 914.1 808 915.8 769.8C916.6 750.6 916.8 731.4 916.4 712.2C916.2 702.6 916 693 915.3 683.4C914.9 677.1 913.9 670.9 909.5 666C909 665.4 907.9 665.4 907.4 666C899.7 676 894.9 687 890.3 698.7C885.2 711.3 880.9 723.5 880.2 737.3C881 736.9 881.7 736.4 882.5 736C876.4 733.3 874.4 746.3 873.6 749.8C871.4 759.2 871.2 768.7 872.6 778.2C872.5 780.2 875.4 779.4 875.2 777.5Z" fill="#797777"/>
<path d="M839.7 983.3C871 993.4 904.9 992.9 935.9 981.9C937.7 981.3 936.9 978.4 935.1 979C904.6 989.8 871.3 990.3 840.5 980.4C838.6 979.8 837.8 982.7 839.7 983.3Z" fill="#797777"/>
<path d="M931.1 880.6C932.3 896.8 933.6 913 934.7 929.2C935.8 945.7 936.2 962.4 933.5 978.8C933.2 980.7 936.1 981.5 936.4 979.6C939.1 963.5 938.9 947.3 937.8 931.1C936.7 914.3 935.4 897.4 934.1 880.6C934 878.7 931 878.7 931.1 880.6Z" fill="#797777"/>
<path d="M397.4 1009C417.8 998.1 438.3 987.2 458.7 976.3C468.3 977.9 481.5 980 497.3 982.2C528.9 986.6 579.8 993.7 644.2 995.6C708.6 997.5 756.9 993.4 775.3 991.6C819.6 987.4 846.4 981.7 868.3 975.8C888.2 970.4 904.6 964.5 916.3 960C925.9 963.2 936.6 967.5 948 973.4C954.5 976.8 960.5 980.3 965.8 983.8C947 989.2 921.7 996.1 891.6 1003.1C828.2 1017.9 779.6 1024.9 769.4 1026.4C711.1 1034.7 628 1046.4 523.5 1034.3C491 1030.4 447.7 1023.3 397.4 1009Z" fill="white"/>
<path d="M396.3 1009.1C396.8 1013.3 397.4 1017.4 397.9 1021.6C405.4 1023.7 416.4 1026.7 430 1029.7C456 1035.5 482.4 1039.5 516.9 1042.2C644.3 1052.2 746.1 1043.3 746.1 1043.3C797 1038.8 846.4 1034.2 910.2 1015.6C934.2 1008.6 953.8 1001.5 967.8 996C966.7 991.3 965.6 986.6 964.5 981.9C960.6 983.5 954.8 985.8 947.7 988.4C899.5 1006 859.8 1011.8 824.4 1016.1C746.6 1025.7 707.7 1030.4 650.6 1031.3C585.6 1032.4 498.4 1028.5 396.3 1009.1Z" fill="#161616"/>
<path d="M395.6 1011C395.6 1014.2 395.6 1017.4 395.6 1020.6C395.6 1022.5 398.6 1022.5 398.6 1020.6C398.6 1017.4 398.6 1014.2 398.6 1011C398.6 1009 395.6 1009 395.6 1011Z" fill="#161616"/>
<path d="M396.7 1023.4C471.4 1043.6 549.4 1046.2 626.3 1047.3C700.2 1048.3 774.6 1045.1 847.4 1031.6C888.4 1024 928.8 1012.9 967.8 997.8C969.6 997.1 968.8 994.2 967 994.9C898.2 1021.6 825.1 1035.2 751.6 1040.9C677.5 1046.6 602.7 1045.3 528.6 1040.8C484.3 1038 440.4 1032.2 397.5 1020.6C395.6 1020 394.8 1022.9 396.7 1023.4Z" fill="#161616"/>
<path d="M967.8 995.7C968.4 991.5 968.6 987.2 968.2 983C968 981.1 965 981.1 965.2 983C965.5 987 965.5 991 964.9 994.9C964.6 996.7 967.5 997.6 967.8 995.7Z" fill="#161616"/>
<path d="M398 1010.7C419 1000.7 439.6 990 459.8 978.4C461.5 977.4 460 974.9 458.3 975.8C438.1 987.3 417.5 998.1 396.5 1008.1C394.7 1008.9 396.2 1011.5 398 1010.7Z" fill="#161616"/>
<path d="M459 977C578.3 999.7 702.3 1003.9 822.6 986.7C854.6 982.1 886.4 975 916 961.8C917.8 961 916.2 958.4 914.5 959.2C887.9 971 859.5 977.9 830.8 982.4C801.6 987 772.1 989.8 742.6 991.7C682.7 995.5 622.5 994.5 562.8 988.8C528.2 985.5 493.9 980.5 459.8 974.1C457.9 973.8 457.1 976.7 459 977Z" fill="#161616"/>
<path d="M915.4 961.3C933.2 967.1 949.9 975.2 965.5 985.5C967.1 986.6 968.6 984 967 982.9C951.2 972.5 934.2 964.3 916.2 958.4C914.3 957.8 913.5 960.7 915.4 961.3Z" fill="#161616"/>
<path d="M398.2 1009.1C433.5 1021 470.3 1026.6 507.3 1029.6C544.8 1032.6 582.6 1033.5 620.2 1033.5C694.9 1033.5 769.8 1028.4 843.4 1015C885.2 1007.4 926.6 997.1 966.9 983.6C968.7 983 967.9 980.1 966.1 980.7C895.2 1004.3 821.5 1018.1 747.1 1024.9C673.1 1031.7 598.3 1032.1 524.1 1027.7C481.7 1025.1 439.2 1019.8 398.8 1006.2C397.2 1005.6 396.4 1008.5 398.2 1009.1Z" fill="#161616"/>
<path d="M455.8 438C578 409.7 703.8 403.5 828.8 402.3C864.2 401.9 899.6 402 935 402C936.9 402 936.9 399 935 399C809.6 398.8 683.6 398.7 559.1 416C524.1 420.9 489.4 427.1 455 435.1C453.1 435.6 453.9 438.5 455.8 438Z" fill="#161616"/>
<path d="M941.2 399.3C942.5 445.8 943.3 499.7 943 559.6C942.8 594.4 942.5 577.8 939.4 722.6C937.6 806 937.1 837.4 931.2 885.6C927.4 917 922.8 942.8 919.4 960.3C945.2 967.5 969.8 974.3 991.4 980.3C1024.8 989.6 1033.7 992.1 1047 994C1067.6 996.8 1092.7 997.2 1121.7 991.3C1132.4 903.7 1138.3 829 1141.7 771.8C1153.9 570.8 1142.5 478.2 1138.1 445.7C1132.1 401.9 1124.7 365.9 1119 341C1097.6 345.1 1080.2 349.5 1068 352.8C1026.1 364.3 992.9 377.8 965.1 389.2C954.8 393.5 946.5 397 941.2 399.3Z" fill="white"/>
<path d="M251.8 342.8C251 351.4 250.1 362 249.3 371.2C232.7 560.5 224.4 655.2 221.7 716.1C218.9 781.5 218.7 876.3 232.6 994.2C233.7 996.6 235.7 999.9 239.3 1002.6C244 1006.1 248.3 1006 256.8 1008.4C263.5 1010.3 267 1012.2 270.2 1013.4C279.4 1017 300 1021.1 326.2 1020.1C363.8 1018.6 392.7 1007.1 413.9 998.4C433.8 990.3 449.7 981.6 460.7 975C454.5 919.3 449.9 860.5 447.3 798.8C442 667.6 447.3 547.1 458.2 439.7C453.6 437.9 446.9 435.4 439 432.2C425.4 426.7 392.8 413.4 335.4 385.4C312.7 374.4 284.3 360.1 251.8 342.8Z" fill="white"/>
<path d="M1118.4 340.6C1119.6 347.2 1121.2 356.3 1123 367.2C1125.5 382.7 1131.1 419.4 1135.2 467.6C1139.4 517.8 1140.4 561 1140.5 595.4C1140.8 665.2 1138.2 716.4 1131.4 835.8C1129.3 873 1126.2 927.5 1122.3 994C1126.4 993.7 1130.4 993.5 1134.5 993.2C1136.5 976.6 1139.2 951.9 1141.3 921.7C1142.9 899.9 1143.6 884 1144.3 866.9C1147.8 788.5 1148.4 789.4 1149.6 757.4C1152 694.3 1151.5 645.8 1151.1 602.2C1150.8 572.1 1149.9 543.6 1148.1 486.6C1146.8 447.8 1145.5 413.4 1136.7 368.7C1134.4 357.3 1132.2 347.8 1130.6 341.3C1126.5 341.1 1122.5 340.9 1118.4 340.6Z" fill="#161616"/>
<path d="M236.5 344.6C235.8 348.1 234.7 353.5 233.6 360.1C230.4 379.2 229.6 393.6 229.3 398.3C227.1 432.3 222.7 448.9 216.3 524.4C215.1 538.2 214.2 550.3 212.4 574.6C208.7 624.2 206.9 649 205.6 677C204.2 708.3 204 730.4 203.7 774.6C203.4 812.8 203.2 840.4 204.2 876.5C205 905.3 206.6 944.4 210.5 991C218.6 993.4 226.6 995.8 234.7 998.2C234.6 993.7 234.3 985.6 233.7 975.5C231.3 930.6 227.4 912.4 226.5 875C226.2 863.5 226.4 855.9 226.5 845C227.6 766.8 226.3 731.1 227 680.3C228.2 597.4 233.8 532.6 238.6 477.4C243.1 425.2 248.2 380.5 252.6 345.5C247.1 345.2 241.8 344.9 236.5 344.6Z" fill="#161616"/>
<path d="M938.8 401C942.5 474.4 942 548 941 621.4C939.9 693.2 939.4 765.2 933.9 836.9C930.8 877.7 925.9 918.4 918.3 958.7C917.9 960.6 920.8 961.4 921.2 959.5C934.5 889 939.4 817.3 941.6 745.7C943.9 672.6 944.9 599.3 944.8 526.1C944.7 484.4 944 442.7 941.9 401C941.7 399.1 938.7 399.1 938.8 401Z" fill="#161616"/>
<path d="M942.5 401C998 373.5 1056.9 353.7 1117.7 342C1119.6 341.6 1118.8 338.7 1116.9 339.1C1055.9 350.9 996.7 370.9 941 398.4C939.3 399.3 940.8 401.9 942.5 401Z" fill="#161616"/>
<path d="M1116.7 341.1C1133.2 424.2 1138.2 509.1 1138.1 593.7C1137.9 678.3 1132.9 762.7 1128.8 847.2C1126.4 895.9 1124 944.5 1121.6 993.2C1121.5 995.1 1124.5 995.1 1124.6 993.2C1128.9 907 1133.4 820.8 1137.3 734.5C1141.1 649.9 1143.5 565.1 1137.8 480.6C1134.6 433.5 1128.9 386.6 1119.7 340.4C1119.2 338.4 1116.3 339.2 1116.7 341.1Z" fill="#161616"/>
<path d="M918.8 959.3C923.3 964.5 931.3 965.5 937.6 967.4C946.2 970 954.9 972.6 963.5 975.2C980.9 980.4 998.2 985.9 1015.8 990.3C1050.2 998.7 1085.5 1000.4 1120.4 994.4C1122.3 994.1 1121.5 991.2 1119.6 991.5C1085.2 997.4 1050.4 995.7 1016.6 987.4C1000.5 983.5 984.7 978.5 968.9 973.7C960.9 971.3 952.9 968.9 944.9 966.5C940.9 965.3 936.9 964.1 932.9 962.9C928.7 961.6 924 960.7 921 957.2C919.6 955.8 917.5 957.9 918.8 959.3Z" fill="#161616"/>
<path d="M1118.7 341.2C1122.4 342.1 1126.1 343 1129.9 343.9C1131.8 344.4 1132.6 341.5 1130.7 341C1127 340.1 1123.3 339.2 1119.5 338.3C1117.6 337.9 1116.8 340.8 1118.7 341.2Z" fill="#161616"/>
<path d="M1129.7 342.9C1139.7 383.3 1142.4 425.5 1145.3 467C1148.3 509.4 1149.9 551.9 1150.6 594.5C1151.8 679 1148.9 763.5 1144.1 847.9C1141.4 895.7 1138 943.5 1134.5 991.3C1134.4 993.2 1137.4 993.2 1137.5 991.3C1143.8 906.3 1149.5 821.3 1152.2 736.1C1154.9 651.1 1154.7 565.9 1149.3 480.9C1146.4 434.7 1143.8 387.3 1132.7 342.2C1132.1 340.2 1129.2 341 1129.7 342.9Z" fill="#161616"/>
<path d="M1123.2 994.9C1127.6 994.5 1131.9 994.1 1136.3 993.7C1138.2 993.5 1138.2 990.5 1136.3 990.7C1131.9 991.1 1127.6 991.5 1123.2 991.9C1121.3 992.1 1121.3 995.1 1123.2 994.9Z" fill="#161616"/>
<path d="M455.7 438.9C449 508.2 445 577.7 443.7 647.3C442.4 717.2 443.8 787.2 448 857C450.3 896.2 453.6 935.3 457.6 974.3C457.8 976.2 460.8 976.2 460.6 974.3C453.4 905.1 448.9 835.6 447.1 766C445.3 696.1 446.2 626.1 449.9 556.3C452 517.1 454.9 478 458.6 438.9C458.9 437 455.9 437 455.7 438.9Z" fill="#161616"/>
<path d="M253.7 345.2C318.6 381.3 386 412.9 455.2 439.8C457 440.5 457.8 437.6 456 436.9C387 410.1 319.9 378.6 255.2 342.6C253.5 341.6 252 344.2 253.7 345.2Z" fill="#161616"/>
<path d="M250.6 344.5C239.5 429.1 231.8 514.2 227.6 599.5C223.4 684.8 222.8 770.2 225.6 855.5C227.2 903.4 229.9 951.3 233.7 999.1C233.9 1001 236.9 1001 236.7 999.1C229.9 914 226.7 828.6 226.9 743.3C227.1 657.9 230.9 572.6 238.1 487.5C242.2 439.7 247.4 392.1 253.6 344.5C253.8 342.6 250.8 342.6 250.6 344.5Z" fill="#161616"/>
<path d="M233.6 1001C289.3 1031.3 356 1024.8 412.6 1000.8C429.6 993.6 446 984.9 461.8 975.4C463.4 974.4 461.9 971.8 460.3 972.8C407.6 1004.7 345.8 1027 283.5 1015.4C266.6 1012.3 250.2 1006.6 235.1 998.4C233.5 997.5 231.9 1000.1 233.6 1001Z" fill="#161616"/>
<path d="M211.5 992.7C218.5 996 225.7 998.8 233 1001.3C234.8 1001.9 235.6 999 233.8 998.4C226.7 996 219.8 993.3 213 990.1C211.2 989.3 209.7 991.9 211.5 992.7Z" fill="#161616"/>
<path d="M234.5 345.2C223.7 429 214.7 513 208.8 597.3C203 681.2 200.2 765.3 202 849.4C203 897 205.4 944.6 209.5 992C209.7 993.9 212.7 993.9 212.5 992C205.3 907.9 203.2 823.5 205.2 739.1C207.1 655 212.9 571 221.2 487.2C225.9 439.8 231.4 392.4 237.5 345.1C237.8 343.3 234.8 343.3 234.5 345.2Z" fill="#161616"/>
<path d="M236.2 347.3C242 346.1 247.8 345.7 253.8 346C255.7 346.1 255.7 343.1 253.8 343C247.6 342.7 241.5 343.2 235.4 344.4C233.5 344.8 234.3 347.7 236.2 347.3Z" fill="#161616"/>
<path d="M977.1 407.8C981.3 523.8 981.1 639.9 976.3 755.9C975 788.4 973.3 820.8 971.2 853.3C971.1 855.2 974.1 855.2 974.2 853.3C981.5 737.5 984.3 621.4 982.6 505.3C982.1 472.8 981.3 440.3 980.1 407.8C980 405.9 977 405.9 977.1 407.8Z" fill="#161616"/>
<path d="M1025.6 366.2C1029.6 446.9 1031.6 527.8 1031.5 608.6C1031.5 689.4 1029.5 770.3 1025.5 851C1023.3 896.7 1020.4 942.3 1016.9 987.9C1016.8 989.8 1019.8 989.8 1019.9 987.9C1026.1 907.3 1030.3 826.6 1032.6 745.8C1034.8 665 1035.1 584.1 1033.4 503.3C1032.4 457.6 1030.8 411.9 1028.6 366.2C1028.5 364.3 1025.5 364.3 1025.6 366.2Z" fill="#161616"/>
<path d="M1083.8 348.4C1089.4 432.3 1092.8 516.4 1093.7 600.6C1094.6 685.1 1093.2 769.5 1089.4 853.9C1087.3 901.2 1084.4 948.5 1080.7 995.7C1080.6 997.6 1083.6 997.6 1083.7 995.7C1090.1 911.8 1094.3 827.7 1096 743.6C1097.7 659.2 1097.1 574.7 1094.1 490.2C1092.4 442.9 1090 395.6 1086.8 348.3C1086.7 346.4 1083.7 346.4 1083.8 348.4Z" fill="#161616"/>
<path d="M966.8 890.8C964.5 917 960.3 943 954.2 968.6C953.8 970.5 956.6 971.3 957.1 969.4C963.3 943.5 967.5 917.3 969.8 890.8C970 888.9 967 888.9 966.8 890.8Z" fill="#161616"/>
<path d="M286.5 364.7C274.5 448.6 269.4 533.4 268.6 618.1C267.9 703.3 271.4 788.4 276.6 873.4C279.5 921.5 282.9 969.5 286.3 1017.6C286.4 1019.5 289.4 1019.5 289.3 1017.6C283.3 932.9 277.3 848.2 274 763.4C270.7 678.8 270.2 594 275.1 509.4C277.9 461.3 282.5 413.2 289.3 365.5C289.7 363.7 286.8 362.8 286.5 364.7Z" fill="#161616"/>
<path d="M344 392.7C336.4 473.8 331.3 555.2 329.6 636.7C328 718.1 329.9 799.5 336.6 880.7C340.3 925.8 345.5 970.7 352.3 1015.4C352.6 1017.3 355.5 1016.5 355.2 1014.6C343 934 336 852.6 333.4 771.1C330.8 690.7 332.3 610.1 336.7 529.8C339.2 484.1 342.7 438.4 347 392.8C347.2 390.8 344.2 390.8 344 392.7Z" fill="#161616"/>
<path d="M401.6 416.6C391.8 492.3 386.1 568.5 384.6 644.8C383.1 721.1 385.7 797.5 392.4 873.5C396.2 915.9 401.2 958.1 407.5 1000.2C407.8 1002.1 410.7 1001.3 410.4 999.4C399.1 924 391.9 848.1 388.8 772C385.7 696.1 386.8 620 391.9 544.1C394.8 501.5 399 458.9 404.5 416.5C404.9 414.7 401.9 414.7 401.6 416.6Z" fill="#161616"/>
<path opacity="0.12" d="M1061.4 355.2C1072.5 400.5 1081.5 453.6 1084.5 513.1C1092 664.5 1056.4 788.2 1025.4 867.6C1003.5 902.7 981.7 937.8 959.8 972.9C981.1 982.1 1012.7 992.8 1052.1 996C1079.3 998.2 1102.9 996.2 1121.3 993.2C1121.5 988.8 1124.8 921.9 1125 917.5C1135.9 693.4 1136.6 678.1 1137 662.7C1138.8 600 1138.5 510 1127.8 397.7C1124.1 378.6 1120.4 359.5 1116.7 340.5C1098.4 345.3 1079.9 350.2 1061.4 355.2Z" fill="#3F3F3F"/>
<path opacity="0.13" d="M363.5 404.1C360.9 415 357 431.3 352.4 451.2C332 540 317 605.3 309 665.4C294.8 771.3 281.1 873.9 339.5 958.1C356.5 982.6 375.1 999.1 387.5 1008.9C375.5 1013.6 360.6 1017.9 343.2 1020C294.8 1025.7 256 1010 237 1000.6C229.8 934.3 224.8 863.3 223.2 788.2C219.6 622 233.1 472.6 253.7 344.1C290.2 364.1 326.8 384.1 363.5 404.1Z" fill="#3F3F3F"/>
<path d="M258.6 296.5C257.3 297.5 258.3 301.4 260.1 308.1C260.8 310.7 261.5 312.7 261.9 314C261.1 319.4 260.4 324.8 259.6 330.2C258 330.4 253.9 331.3 250.1 334.6C246.6 337.7 245.2 341.3 244.7 342.9C247.9 343.2 251.8 343.9 256 345.2C262.1 347.1 266.9 349.7 270.4 351.9C270.4 353.1 270.6 355.4 272.2 357.1C273.6 358.5 275.3 358.7 276.3 358.9C279.9 359.5 284.2 360.3 289.7 361.5C292.1 362.9 296.1 365.2 301 367.9C317.6 376.9 323.6 378.4 340.2 387.2C350.9 392.9 350 393.1 357.5 396.7C369 402.3 378.9 405.6 385.6 407.5C388.4 404.4 392.9 398.4 395.4 389.7C397.4 382.8 397.3 376.8 396.9 372.9C398.6 373.8 401.3 374.8 404.4 374.4C412.4 373.5 417.5 364.4 419.1 357.9C420.5 352.2 419.2 348.6 418.1 341.9C415.6 326.9 413.4 313.5 419.6 305C424.8 297.9 435.5 294.6 444.1 285.1C444.9 284.2 446.4 282.5 445.9 281.7C445 280.2 438 282.8 434.6 284.3C432.4 285.3 415.9 292.9 410.9 310.1C410.1 312.8 410 320.6 409.9 336.1C409.8 347.4 410 353.8 405.5 357.5C403.2 359.4 399.8 360.5 396.7 359.8C392.1 358.8 389.9 354.3 387.9 351.3C382.7 343.4 375.3 340.1 366.2 335.6C359.1 332.1 353 330.8 340.7 328.1C329.1 325.6 325.6 325.9 320.6 322.2C315 318 311.9 312.1 310.3 308.8C308.7 305.7 306.2 300.8 305.1 293.8C304.5 289.7 304.6 286.8 303.6 286.6C301.8 286.2 300.9 294.5 294.8 297.4C291.1 299.2 288.7 297.5 282.2 297.7C278 297.8 273.2 298.7 267.8 301.1C266 299.8 260.4 295.2 258.6 296.5Z" fill="black"/>
<path d="M261.6 329.4C259.5 312.9 274.5 297.9 291.1 299.6C306.8 301.2 317.2 320.3 316.7 334.6C316.6 336.5 319.6 336.5 319.7 334.6C320.2 318.8 308.4 298 291.1 296.6C272.9 295.1 256.3 311.2 258.6 329.4C258.9 331.2 261.9 331.3 261.6 329.4Z" fill="black"/>
<path d="M261.3 339.8C267.4 351.7 280.5 360.1 294.2 358.3C306.7 356.6 317.3 346.5 319.2 334C319.5 332.1 316.6 331.3 316.3 333.2C314.6 344.6 305.2 353.8 293.8 355.3C281.3 357 269.5 349.2 263.9 338.3C263 336.6 260.4 338.1 261.3 339.8Z" fill="black"/>
<path d="M272.1 354.3C271.8 350.5 282.6 348.9 285.3 348.3C290.2 347.2 295.2 346.6 300.2 346.6C309.5 346.6 318.4 349 326.3 353.9C327.9 354.9 329.5 352.3 327.8 351.3C317.6 345 305.7 342.8 293.9 343.9C287.7 344.5 281.6 345.8 275.7 347.8C272.5 348.9 268.7 350.3 269 354.3C269.2 356.2 272.3 356.2 272.1 354.3Z" fill="black"/>
<path d="M315.1 319.7C321.4 327.3 331.6 329.1 340.7 331.1C352.8 333.9 365.3 336.4 375.9 343.1C397.8 356.9 401.9 387 384.6 406.3C383.3 407.7 385.4 409.9 386.7 408.4C402.1 391.3 402.5 365.1 386.6 348.1C378.2 339.1 366.2 334.4 354.5 331.3C342.6 328.2 325.5 327.7 317.1 317.5C316 316.1 313.9 318.2 315.1 319.7Z" fill="black"/>
<path d="M385.1 372C380.1 365.4 371.3 363.1 363.6 366.3C354.1 370.2 353.6 381.9 354.7 390.8C354.9 392.7 357.9 392.7 357.7 390.8C356.8 383.8 356.7 373 363.9 369.5C370.1 366.4 378.2 368 382.4 373.6C383.6 375.1 386.2 373.6 385.1 372Z" fill="black"/>
<path d="M357.3 389.4C351.8 385.2 346.1 381.6 339 383.5C338.2 383.7 337.8 384.6 338 385.3C339.8 392.3 350.8 395.2 356.6 397.7C365.5 401.6 374.6 404.9 383.8 407.8C385.6 408.4 386.4 405.5 384.6 404.9C377.2 402.6 370 400.1 362.8 397.1C358.9 395.5 355.1 393.8 351.3 392C347.9 390.4 341.8 388.5 340.8 384.5C340.5 385.1 340.1 385.7 339.8 386.3C346 384.6 351.1 388.3 355.7 391.9C357.3 393.2 358.8 390.6 357.3 389.4Z" fill="black"/>
<path d="M269.4 354C273.3 360.4 281.2 361.5 288.1 362.5C298.3 364 308.5 364 318.7 362.9C320.6 362.7 320.6 359.7 318.7 359.9C310.5 360.8 302.3 361 294.1 360.2C287.2 359.5 276.1 359.1 271.9 352.5C271 350.8 268.4 352.3 269.4 354Z" fill="black"/>
<path d="M246.1 343.8C247.4 336.8 253.5 333.2 260.3 332.9C259.8 332.5 259.3 332.2 258.9 331.8C259.4 334.2 260.1 336.5 261.1 338.7C261.8 340.5 264.7 339.7 264 337.9C263.1 335.6 262.4 333.4 261.8 331C261.7 330.4 261 329.9 260.4 329.9C252.4 330.3 244.8 334.7 243.3 343C242.9 344.9 245.8 345.7 246.1 343.8Z" fill="black"/>
<path d="M263.5 312.8C262 308.5 260.9 304 260.5 299.4C260.5 299 260.4 298.6 260.4 298.2C260.3 297.3 260.4 297.4 260.8 298.5C261.7 299.1 262.6 299.8 263.5 300.5C265 301.8 266.4 303.2 267.6 304.7C268.9 306.2 271 304 269.7 302.6C268 300.6 260.9 292.4 257.9 295.6C256.4 297.2 257.5 300.9 257.8 302.7C258.3 306.4 259.3 310.1 260.5 313.6C261.3 315.4 264.2 314.7 263.5 312.8Z" fill="black"/>
<path d="M297.3 298.8C298.2 297.2 299.1 295.6 300.1 294C300.5 293.3 300.9 292.7 301.2 292C301.8 291 301.8 290.1 303 290.4C304.4 290.7 303.9 294 303.9 295.2C303.9 297.1 304 299 304 300.9C304 302.8 307 302.8 307 300.9C307 297.8 307.1 294.7 306.9 291.6C306.8 289.6 306.1 287.4 303.9 286.7C301.9 286.1 300.5 287.4 299.5 288.9C297.8 291.6 296.3 294.5 294.7 297.2C293.7 299 296.3 300.5 297.3 298.8Z" fill="black"/>
<path d="M393.1 364.2C393.7 371.8 402.2 374.3 408.1 370.6C416.8 365.2 418.7 353 417.6 343.8C416.1 331.2 413.1 319.5 417.4 307C421.5 295.1 431.7 285.4 444.6 284.6C446.5 284.5 446.5 281.5 444.6 281.6C427 282.7 415 297.7 412.5 314.3C411 324.2 413.2 333.4 414.5 343.1C415.3 349.5 414.9 355.6 412 361.5C410.7 364 408.9 366.5 406.5 368.1C402.8 370.4 396.4 369.7 396 364.3C396 362.3 393 362.2 393.1 364.2Z" fill="black"/>
<path d="M394.7 369.6C397.8 377.9 408.6 374.2 413.3 369.4C421 361.6 419.3 348.6 418.7 338.7C418.6 336.8 415.6 336.8 415.7 338.7C416.1 345 416.7 351.8 415.6 358.1C415.1 361.1 414 363.9 412 366.3C409.8 369 400.2 375.8 397.6 368.8C396.9 367 394 367.8 394.7 369.6Z" fill="black"/>
<path d="M444.7 281.5C433.3 285.9 421.8 292.1 417.2 304.1C411.9 317.9 415.7 332.9 415.4 347.2C415.4 349.1 418.4 349.1 418.4 347.2C418.7 334.7 415.7 321.9 418.7 309.5C422 295.9 433.3 289.1 445.5 284.4C447.3 283.7 446.5 280.8 444.7 281.5Z" fill="black"/>
<path d="M442.4 283.2C431.9 288 422.3 296.4 417.4 307.1C414.8 312.7 415.2 318.9 415.2 325C415.2 332.8 415.5 340.7 416.1 348.5C416.2 350.4 419.2 350.4 419.1 348.5C418.7 342.2 418.4 336 418.3 329.7C418.2 323.1 417.3 315.3 419.8 309.1C424.1 298.6 433.8 290.5 443.9 285.8C445.7 285 444.2 282.4 442.4 283.2Z" fill="black"/>
<path d="M267.5 319.4C270.3 324.3 277.4 322.6 278.1 317.2C278.2 316.2 276.7 316.3 276.6 317.2C276.1 321.3 270.9 322.1 268.8 318.7C268.3 317.8 267 318.6 267.5 319.4Z" fill="white"/>
<path d="M288.7 315.5C291.8 320.8 299.7 318.7 299.8 312.6C299.8 311.6 298.3 311.6 298.3 312.6C298.2 317.3 292.4 318.8 290 314.8C289.5 313.9 288.2 314.6 288.7 315.5Z" fill="white"/>
<path d="M282.7 322.1C283.4 325 282.8 327.9 281 330.3C280.4 331.1 281.7 331.8 282.3 331.1C284.3 328.4 284.9 325 284.2 321.7C283.9 320.8 282.4 321.2 282.7 322.1Z" fill="white"/>
<path d="M283.3 322C283 325.8 285.1 329.4 288.6 331C289.5 331.4 290.2 330.1 289.4 329.7C286.4 328.3 284.5 325.3 284.8 322C284.8 321 283.3 321 283.3 322Z" fill="white"/>
<path d="M258.9 330.9C267.7 330.2 273.3 337.4 279.2 342.7C279.9 343.3 281 342.3 280.3 341.6C274.1 336 268.1 328.7 258.9 329.3C258 329.4 258 330.9 258.9 330.9Z" fill="white"/>
<path d="M275.3 348.5C286.6 341.3 300 338.9 313.1 341.8C314 342 314.4 340.6 313.5 340.4C300 337.5 286.2 339.9 274.6 347.3C273.7 347.7 274.5 349 275.3 348.5Z" fill="white"/>
<path d="M303.7 362.2C313 362.8 321.8 359.9 328.9 353.8C329.6 353.2 328.6 352.1 327.8 352.7C321 358.5 312.6 361.3 303.7 360.7C302.8 360.7 302.8 362.2 303.7 362.2Z" fill="white"/>
<path d="M301 291.2C298.8 294.9 298.3 299.2 299.6 303.3C299.9 304.2 301.3 303.8 301 302.9C299.8 299.2 300.2 295.3 302.2 292C302.8 291.1 301.5 290.3 301 291.2Z" fill="white"/>
<path d="M261.4 300.5C263.8 302 265.3 304.3 265.9 307C266.1 307.9 267.5 307.5 267.3 306.6C266.6 303.5 264.8 300.9 262.1 299.2C261.3 298.7 260.6 300 261.4 300.5Z" fill="white"/>
<path d="M314.3 316.5C316.2 318.8 318.4 320.8 320.9 322.3C321.7 322.8 322.5 321.5 321.7 321C319.3 319.5 317.1 317.6 315.4 315.4C314.7 314.7 313.7 315.8 314.3 316.5Z" fill="white"/>
<path d="M376 365.6C373.9 360.3 363.8 363.9 360.5 366C354.6 369.9 352 377.2 354.2 383.9C354.5 384.8 355.9 384.4 355.6 383.5C353.9 378.2 355.3 372.5 359.5 368.6C361.3 366.9 363.7 365.7 366.1 365.1C367.8 364.6 373.6 363.5 374.5 365.9C374.9 366.9 376.3 366.5 376 365.6Z" fill="white"/>
<path d="M355.4 384C347.6 380.7 339.3 380.4 331.2 382.9C330.3 383.2 330.7 384.6 331.6 384.3C339.5 381.8 347.4 382.2 355 385.4C355.9 385.8 356.3 384.3 355.4 384Z" fill="white"/>
<path d="M630.1 799.9C626 809.7 626 817 625.4 835.8C624.7 859 622.7 882.1 622.5 905.2C622.3 924.7 622 954.2 621.2 992.6C653.2 994.4 688.6 994.8 727 992.9C763.6 991.1 797.4 987.4 827.9 982.8C813.5 934.1 804 898.6 797.2 871.1C793.6 856.4 788.3 834.4 773.7 808.7C765.7 794.6 757.4 784 751.3 776.9C749.7 775.5 714.4 745.8 673.6 759.8C671.6 760.6 641.9 771.4 630.1 799.9Z" fill="#EC615B"/>
<path d="M689 858.2C695.7 870.1 702.4 882 709 893.9C709.9 895.6 712.5 894.1 711.6 892.4C704.9 880.5 698.2 868.6 691.6 856.7C690.7 855 688.1 856.5 689 858.2Z" fill="#C64F4F"/>
<path d="M688.2 857.6C703.6 876.8 712.5 898.7 717.3 922.7C721.8 945.4 724.7 968.4 726.4 991.5C726.5 993.4 729.5 993.4 729.4 991.5C727.6 967.8 724.6 944.1 720 920.8C715.2 896.7 705.8 874.7 690.4 855.5C689.2 853.9 687 856.1 688.2 857.6Z" fill="#C64F4F"/>
<path opacity="0.19" d="M712.3 757.5C715.8 764.5 720.8 774.8 726.4 787.2C742.7 823.4 759.6 861.6 768.6 908.6C772.3 927.6 775.8 955.1 774.3 989.4C782.7 989 791.6 988.3 800.9 987.3C810.2 986.3 819.1 985.1 827.5 983.7C824.9 974.9 820.7 960.9 816 943.6C802.9 895.2 801.1 880.1 789.9 848.2C781.6 824.5 773.9 808.4 762.8 793C752.8 779.1 743.4 770.4 731.5 764.3C724.1 760.5 717.2 758.6 712.3 757.5Z" fill="#3F3F3F"/>
<path opacity="0.11" d="M688.4 858.7C692.3 873.3 695.7 890.7 697.3 910.3C700.1 944.2 696.5 973.1 692.1 994.7C703.6 994 715 993.3 726.5 992.6C725.3 969.9 722.7 950.8 720.2 936.3C713.9 899.4 707.3 885.7 702 876.9C697 868.8 692 862.7 688.4 858.7Z" fill="#3F3F3F"/>
<path d="M560.3 629.5C557 631.7 555 635.9 551.1 644.2C547.9 651 546.4 656.3 544 664.2C537.4 686.6 538.1 682.8 535.8 691.3C532.8 702.6 527.4 722.4 524.4 748.5C521.5 773.8 522.1 793.3 522.2 798C523.3 827.7 528.5 849.8 532 864C538.2 889.5 546.5 910.7 563 953C566.6 962.1 569.6 969.6 571.7 974.8C570.2 975 567.8 975.3 564.9 975.7C549.8 977.5 547.7 977.1 541.6 978.4C533.8 980.1 526.8 981.8 524.1 987.7C522.9 990.4 522.4 994.2 523.9 995.5C525.8 997.1 529.5 993.5 535.9 991.4C541.3 989.7 546.1 989.8 549.4 990.3C546.8 995.4 545.3 1000 544.4 1003.3C542.2 1010.9 540.5 1017.1 543.3 1021.5C544.7 1023.7 547.4 1025.7 549.6 1025.1C550.8 1024.8 551.9 1023.7 554.9 1015.8C557.8 1007.9 558 1005.4 560.4 1002.3C562.5 999.7 564.9 998.3 566.5 997.5C565.7 1000 564.8 1003.7 564.4 1008.2C564.2 1010.9 563.9 1013.4 564.4 1016.6C564.8 1019.5 565.7 1025.7 570.3 1029.1C571.1 1029.7 574.4 1032.2 576.4 1030.9C578.1 1029.9 577.6 1027.1 578.3 1018.1C578.9 1010.5 579.5 1008.4 580 1007.2C581.3 1003.7 583.3 1001.2 584.8 999.7C584.3 1006.9 584.4 1012.9 584.6 1017.3C585 1024.4 585.7 1027.6 588 1029.6C589.3 1030.7 591.5 1031.8 593.3 1031C595.1 1030.2 595.7 1027.7 596.2 1024.6C598.4 1012.9 597.1 1009.5 599.6 1003.6C600.6 1001.3 601.7 998.5 604.4 996.5C610.1 992.3 618.2 994.8 619.3 995.1C624.1 996.6 625.9 999.2 628.3 998.1C630.3 997.2 631.4 994.3 631.5 991.9C631.6 986 625.1 981.5 619.5 977.8C616.7 975.9 612.5 973.4 606.9 971.4C602 961.7 595.8 947.6 590.7 929.7C587.3 917.7 585.7 908.5 584.2 899.8C578.9 869.3 580.8 857.6 574.9 827.3C573.5 820 572.1 814.2 571.3 810.9C571.7 805.9 572.4 798.1 573.4 788.6C576.7 757.6 578.9 738.2 585.6 715.4C590.9 697.5 596.3 682.8 596.3 682.8C603.1 664.5 605.3 662 604.5 656.1C601.7 637.5 572.6 621.3 560.3 629.5Z" fill="white"/>
<path d="M552.6 639C534.8 680.1 523.6 724 521.2 768.8C518.7 814.5 526.6 859.2 541.4 902.4C549.8 927.1 560 951.1 570.4 975.1C571.2 976.9 573.7 975.3 573 973.6C555 932 537.4 889.8 529 845.2C520.7 801.2 522.4 755.7 532 712C537.4 687.5 545.2 663.6 555.2 640.6C555.9 638.8 553.4 637.2 552.6 639Z" fill="#161616"/>
<path d="M589.9 696.1C577.3 734.2 570.7 774.1 570 814.2C570 816.1 573 816.1 573 814.2C573.7 774.3 580.3 734.8 592.8 696.9C593.4 695.1 590.5 694.3 589.9 696.1Z" fill="#161616"/>
<path d="M559.5 796C568.4 808.4 572 823.2 574.1 838C576.3 853.1 577.3 868.4 579.5 883.5C583.9 914.2 591.1 944.8 605.6 972.3C606.5 974 609.1 972.5 608.2 970.8C593.1 942.2 586 910.3 581.8 878.5C578.1 850.6 579.2 818.3 562.1 794.5C561 793 558.4 794.5 559.5 796Z" fill="#161616"/>
<path d="M570 973.7C560.7 974.2 551.4 975.1 542.3 976.8C535.8 978.1 528.9 980.2 524.4 985.4C521.8 988.5 518.5 995.9 524.2 998C526.7 998.9 528.9 997.2 531 996C536.2 993 541.6 989.9 547.8 991.6C549.7 992.1 550.5 989.2 548.6 988.7C543.5 987.3 538.9 988.5 534.3 990.8C532.9 991.5 531.6 992.2 530.3 993C529.5 993.4 528.8 993.9 528 994.4C527.1 992.8 526.1 991.2 525.2 989.6C525.4 987.1 530.4 984.2 532.2 983.2C537.1 980.6 542.8 979.7 548.2 978.9C555.5 977.8 562.8 977.1 570.1 976.7C572 976.6 572 973.6 570 973.7Z" fill="#161616"/>
<path d="M561.8 982.6C553.9 983.9 547.4 989.3 544.4 996.6C541.2 1004.2 538.5 1015.5 542.2 1023.3C545 1029.2 551.9 1031.3 554.5 1024.1C556.1 1019.6 555.8 1014.7 557.4 1010.2C559.4 1004.6 562.8 999.8 567.8 996.5C569.4 995.4 567.9 992.8 566.3 993.9C561.6 997 558.1 1001.2 555.8 1006.3C554.6 1008.9 553.7 1011.6 553.1 1014.4C552.6 1016.7 552.3 1028.3 546.8 1024.9C543.7 1023 543.4 1016.9 543.5 1013.8C543.7 1009.2 544.9 1003.9 546.4 999.5C548.9 992.1 554.8 986.8 562.5 985.5C564.5 985.2 563.7 982.3 561.8 982.6Z" fill="#161616"/>
<path d="M571.2 990C565 994 562.8 1002.7 562.2 1009.7C561.6 1017.2 563.7 1025.3 569.3 1030.6C572.6 1033.7 577.7 1035.3 578.6 1029.5C580.1 1019.8 576.2 1006.1 586.8 1000.3C588.5 999.4 587 996.8 585.3 997.7C581.5 999.8 579.1 1003.2 577.6 1007.3C575.5 1013.3 576.7 1019.4 575.8 1025.6C575.4 1028.4 574.6 1031.4 571.5 1028.5C570.4 1027.5 569.4 1026.2 568.6 1024.9C566.7 1021.9 565.6 1018.5 565.3 1015C564.6 1008 566.4 996.8 572.8 992.6C574.3 991.5 572.8 988.9 571.2 990Z" fill="#161616"/>
<path d="M585.4 998C583.5 1005.2 581.7 1012.7 582.9 1020.2C583.4 1023.8 585.5 1032.6 590.1 1033.5C595.3 1034.5 597.4 1025.3 597.9 1021.9C599 1014.5 597.6 1005.6 603.4 999.9C604.8 998.5 602.7 996.4 601.3 997.8C594.3 1004.7 596.7 1014.7 594.6 1023.5C593.9 1026.7 591.9 1031.5 588.6 1027.8C586.8 1025.9 586.3 1022.2 585.9 1019.7C584.9 1012.7 586.6 1005.7 588.4 998.9C588.8 997 585.9 996.2 585.4 998Z" fill="#161616"/>
<path d="M607 974C612.9 976.4 619 979 623.6 983.6C625.7 985.7 628.3 988.9 628.9 991.9C630.4 1000.2 624.2 994.9 621.9 993.9C615.6 991.1 603.1 993.1 599.5 999.5C598.6 1001.2 601.2 1002.7 602.1 1001C604 997.5 609.2 996.6 612.8 996.1C615 995.8 617.5 995.6 619.6 996.2C622 996.9 623.5 999 625.8 999.7C629.1 1000.7 631.6 998.4 632.1 995.2C633 990 628.5 984.2 625 980.8C620.1 976.1 613.8 973.5 607.6 971C606 970.4 605.3 973.3 607 974Z" fill="#161616"/>
<path opacity="0.13" d="M586.8 663.8C575.3 664.5 568.4 693.9 564.6 710.2C560.3 728.5 556.4 753.7 557.2 790.4C557.9 823.2 562.1 848.2 563.5 856.9C569.8 894.3 579.7 925.7 589.4 950.3C592.6 959.3 595.7 968.3 598.9 977.2C597.1 984.6 595.3 992.2 593.6 1000.1C591.4 1010.5 589.4 1020.7 587.8 1030.5C589.7 1030.7 592.3 1030.6 594.1 1028.8C596.4 1026.5 596.1 1022.8 596.2 1019.6C596.3 1016.6 596.6 1002.1 603.1 996.7C607.1 993.4 613.5 993.4 617.9 995C622.4 996.7 624.4 1000 627.4 999C629.7 998.3 631.3 995.5 631.6 993.3C632.6 986 618.6 978.5 616.3 977.3C611.8 974.9 609.7 974.6 606.8 971.6C603.2 967.8 602 963.3 601.5 961.3C593.2 929.7 589.1 931.7 583.5 895.4C579.3 868 582 869.6 577.7 847.8C574.7 832.4 572.2 826.1 571.4 812.8C570.5 798.2 572.2 786.8 574 776.7C581.5 735.4 595.9 685.4 599.4 673.5C596.2 668.5 591.8 663.5 586.8 663.8Z" fill="#3F3F3F"/>
<path d="M790.9 252.7C787.8 252.6 785.4 258.2 784.8 259.7C783.9 261.9 782.5 266.2 783.5 272.3C783.5 272.3 784.1 276.5 786.1 301.9C786.6 307.6 786.7 315.9 785.2 326.3C781.2 337.3 777.4 345.9 774.8 351.5C766 370.3 760.1 377.8 747.8 401.6C743.2 410.5 742.8 411.9 737.4 422.9C723.9 450.2 714 467.3 703.9 485.6C695 501.6 682.5 525.1 667.8 555.3C667.1 557.9 663.6 571.8 671.7 584C680.3 596.9 698.3 602.7 715.7 597.1C718.4 593.3 722.2 587.4 725.7 579.7C729.1 572.2 730.7 566.4 731.8 562.7C732.9 559 737.3 546.5 746.2 521.3C749 513.5 752.4 504.2 759.3 486C769.8 458.1 775 444.2 778.5 435.5C786.4 415.7 792.4 402 804.2 375.4C810.4 361.4 818 344.5 826.8 325.3C831.9 322.4 838.9 317.9 846.4 311.4C857.2 302.1 862.6 294.2 873 279.2C879.7 269.4 884.8 260.8 883.4 252.2C883.2 251 882.7 247.5 880.8 247C878.4 246.3 875.4 251.1 872.1 255.3C868.7 259.6 863.6 265.2 856 271C858.6 263.8 861.2 258.2 863 254.5C867.1 246.1 870.5 240.7 872.6 231.4C874.9 221.5 872.8 219.7 872.2 219.2C869.5 217.2 864.9 221 862.2 218.8C859.8 216.7 861.9 212.1 860 211C858.1 209.9 853.9 213.2 850.9 216.7C845.7 222.7 844.5 228.5 842.6 234.1C840.8 239.6 837.5 247.1 831.3 255.4C829.8 255.6 827.8 255.7 826.9 254.5C825.9 253.1 827.3 250.8 828.6 247.1C828.9 246.2 828.7 246.7 830.8 237.5C831.6 234 833.1 227.5 834.3 222.3C836 214.8 836.8 211.7 835.2 208.4C834.9 207.7 833.6 205 831.7 204.9C829.5 204.8 827.8 208.3 826.5 211C821.2 221.9 818.5 227.4 817.8 229.3C814.3 238.8 809.6 253.3 808.9 258.3C808.8 258.9 808.6 261 807.6 263.7C807.1 265 806.8 265.5 806.5 266.3C804 271.9 806.1 275.6 803.5 277.6C803.2 277.8 801.7 278.9 800.5 278.5C799.2 278.1 798.6 276.4 797.9 270.7C796.9 262.9 797.5 260.6 795.7 257.2C794.5 255.7 793 252.8 790.9 252.7Z" fill="white"/>
<path d="M786.1 299C786.8 291.7 785.7 284.6 785.3 277.3C785.1 273.8 785.1 270.2 785.6 266.7C785.9 264.7 786.3 262.7 786.9 260.8C787.9 257.9 788 255.5 791.2 255.4C794.2 255.3 794 257.1 794.5 259.6C795 261.8 795.1 264.1 795.2 266.3C795.4 269.4 795.5 272.6 796.2 275.6C796.9 278.7 798.8 281.3 802.3 280.2C804.1 279.6 803.4 276.7 801.5 277.3C798 278.3 798.3 266.5 798.1 264.5C797.8 261.3 797.5 258 796.3 255C794.6 250.8 790.7 248.7 787.4 252.6C783.1 257.6 782.2 266.6 782.2 272.8C782.2 281.6 783.9 290.2 783.1 299C783 300.9 786 300.9 786.1 299Z" fill="#161616"/>
<path d="M803.5 279C808.5 269.3 810 258.3 812.9 247.9C816 236.7 819.9 225.7 825.7 215.7C827 213.5 828.3 210.4 830.2 208.7C833.9 205.3 833.9 211.8 833.6 214.6C833 220.8 831.4 227.1 830 233.2C828.7 238.8 826.9 244.2 825.6 249.8C824.9 252.9 824.9 255.6 827.1 258C828.4 259.4 830.5 257.3 829.2 255.9C826.7 253.2 829.3 247.8 830.1 244.9C831 241.6 831.9 238.3 832.6 235C834 228.9 835.4 222.7 836.3 216.4C836.8 213.1 837.5 207.3 834.6 204.8C832.1 202.7 829.6 204.7 827.9 206.7C820.6 215.8 816.1 227.8 812.5 238.8C808.4 251.5 807.1 265.7 800.9 277.6C800 279.2 802.6 280.7 803.5 279Z" fill="#161616"/>
<path d="M827.8 258.3C830.8 258.6 831.9 256.4 833.3 254C835.5 250.2 837.5 246.2 839.4 242.3C843.1 234.7 845.7 226.4 850.2 219.3C851.2 217.7 852.4 215.7 854 214.5C855.3 213 857 212.5 859.2 213.2C859.5 214.6 859.7 216 859.7 217.4C859.8 222.3 858.2 227.2 856.5 231.8C853.1 240.9 849.3 249.9 845.6 259C844.9 260.8 847.8 261.6 848.5 259.8C850.6 254.6 872.2 209 858.1 208.7C855.3 208.6 852.1 212.1 850.5 214C847.7 217.3 845.7 221.1 843.9 225C841.8 229.7 839.9 234.4 837.7 239C836.4 241.8 834.9 244.7 833.5 247.4C832.6 249.2 830.4 255.4 827.9 255.2C825.9 255.1 825.9 258.1 827.8 258.3Z" fill="#161616"/>
<path d="M863.2 221.5C864.3 215.7 870.6 219.7 871.4 223.4C872.1 226.5 870.9 229.6 869.9 232.5C868.4 236.9 866.7 241.2 864.9 245.4C861.4 253.6 857.3 261.4 852.7 269.1C851.7 270.8 854.3 272.3 855.3 270.6C859.6 263.5 863.4 256.1 866.8 248.6C869.7 242.1 873.2 234.9 874.3 227.8C875 223.3 873.7 217.5 868.7 215.9C865 214.7 861 217 860.3 220.8C860 222.6 862.9 223.4 863.2 221.5Z" fill="#161616"/>
<path d="M857.4 271.8C861.2 267.5 864.9 263.2 868.7 258.9C870.7 256.6 872.5 254.1 874.7 252.1C875.4 251.5 876.1 251 876.7 250.4C878.4 251 880.1 251.6 881.9 252.2C882.4 253.1 881.2 255.7 880.9 256.5C877.8 266 873.3 275 868 283.4C857.3 300.3 842.6 314.5 825.4 324.8C823.7 325.8 825.3 328.4 826.9 327.4C848.3 314.6 865.9 295.8 877 273.5C879.7 268.1 882.3 262.4 884 256.6C885 253.2 885.6 248.6 881.7 246.8C877.9 245 873.9 248.5 871.5 251C865.8 256.9 860.6 263.5 855.2 269.7C854 271.1 856.1 273.2 857.4 271.8Z" fill="#161616"/>
<path d="M783.5 295.9C784.2 305.1 784.9 314.5 783.4 323.7C781.9 332.8 778.1 341.2 773.9 349.4C765.4 366 756.5 382.4 747.8 398.9C730.4 431.9 713 464.8 695.6 497.8C685.6 516.7 675.6 535.7 665.6 554.6C664.7 556.3 667.3 557.8 668.2 556.1C704.1 488 740.7 420.2 776 351.7C780.2 343.6 784.1 335.3 785.8 326.4C787.8 316.3 787.1 306.1 786.3 295.9C786.4 294 783.4 294 783.5 295.9Z" fill="#161616"/>
<path d="M825.2 324.1C793.2 391.7 765.3 460.9 740.7 531.5C733.5 552 726.3 572.5 717.6 592.4C716.8 594.2 719.4 595.7 720.2 593.9C735.1 560 746 524.5 758.8 489.9C771.9 454.3 786.1 419 801.2 384.2C809.8 364.5 818.6 345 827.8 325.6C828.6 323.9 826 322.4 825.2 324.1Z" fill="#161616"/>
<path opacity="0.1" d="M870.4 220.3C866.3 219.7 860.8 236.5 857.6 244.9C847.9 270.7 839.7 273.7 818.9 308.7C811.2 321.6 800.6 341 789.9 366.3C757.9 433.7 726 501.2 694 568.6C701.8 578.1 709.5 587.7 717.3 597.2C721.2 586.1 726.9 569.8 734 550.1C746.9 514.6 763.6 468.9 787.2 413.3C796.6 391.3 809.6 361.6 826.3 326.7C830.9 323.8 837.3 319.3 844.3 313.1C853.7 304.9 866.1 293.8 874.6 275.7C877.3 270.1 880.7 261.5 882.5 250.2C881.2 249.6 879.3 248.9 877.2 249.3C873.6 250 871.7 253.5 870.2 255.9C864.4 264.8 855.9 270.7 854.8 270C854.2 269.5 855.9 266.6 860.5 257.2C869.9 237.9 866 243 869.7 236.5C871.8 232.8 873.9 229.6 873.2 225.5C873.2 223.7 872.1 220.6 870.4 220.3Z" fill="#3F3F3F"/>
<path opacity="0.13" d="M864.3 288.5C859.3 291.7 852.2 296.4 844.1 302.6C834.8 309.6 824.8 317.2 816.4 326.8C805 339.8 800 352.7 797 360.2C769.5 430.4 736.8 506.6 727.5 527.8C722.4 539.4 714.4 556.9 703.8 577.9C708.6 584.2 713.5 590.5 718.3 596.8C732.1 554.7 748 510.6 766.2 464.9C785.8 415.8 806.1 369.9 826.5 327.2C832 323.5 838.2 318.8 844.5 312.7C853.4 304.2 859.8 295.6 864.3 288.5Z" fill="#3F3F3F"/>
<path d="M598.4 578C594.7 580.5 586.4 586.3 577.9 595.7C569.1 605.4 564 614.5 559.8 622.2C556.5 628.1 554.1 633.3 552.4 637.1C555 642.1 559.2 649.8 565 659C575.3 675.3 583.3 684.1 597.1 701.8C602.9 709.2 611.3 720.3 621.3 734.3C622.9 741.8 624.3 749.7 625.5 758C627.9 775 628.8 790.8 628.8 805C632.5 809 638.9 814.8 648.3 818.9C663.9 825.8 678.1 823.8 685.5 822.6C701.9 820.1 713.1 812.8 720.8 807.7C734.8 798.5 744.3 787.5 750.6 778.4C749.3 762.8 747.6 746.7 745.5 730C743.7 715.8 741.7 702 739.5 688.6C739.3 678.1 738.3 663.8 734.9 647.2C732.1 633.3 728.7 617.1 718.6 597.9C706 574 690.3 559.5 684.2 554.2C678.8 549.5 673.9 546 670.3 543.5C655.7 552.8 643.1 558.6 634.5 562.1C618.5 568.7 611 569.7 598.4 578Z" fill="white"/>
<path d="M554 637.5C557.1 625.7 565.7 614.7 573.1 605.1C580.9 595.1 589.7 586 600.2 578.7C601.8 577.6 600.3 575 598.7 576.1C587.9 583.6 578.8 592.9 570.8 603.2C563.1 613.1 554.4 624.3 551.2 636.6C550.7 638.6 553.6 639.3 554 637.5Z" fill="#161616"/>
<path d="M551.8 638.5C572.4 674.5 596.8 708.3 624.5 739.2C625.8 740.6 627.9 738.5 626.6 737.1C599.1 706.4 574.9 672.8 554.4 637C553.4 635.3 550.8 636.8 551.8 638.5Z" fill="#161616"/>
<path d="M636.4 563.5C647.6 555.6 659.9 549.7 673 545.9C674.9 545.4 674.1 542.5 672.2 543C658.8 546.9 646.3 552.9 634.9 560.9C633.3 562 634.8 564.6 636.4 563.5Z" fill="#161616"/>
<path d="M670.5 546.7C718.3 580 738.8 638.4 736.5 694.9C736.4 696.8 739.4 696.8 739.5 694.9C741.9 637.2 720.7 578 672 544.1C670.5 543 669 545.6 670.5 546.7Z" fill="#161616"/>
<path d="M618 733.3C623.2 744 623.8 757.3 624.9 768.9C626.1 780.7 626.5 792.6 626.5 804.5C626.5 806.4 629.5 806.4 629.5 804.5C629.6 791.3 629 778.1 627.5 765C626.3 753.9 625.5 741.9 620.6 731.7C619.7 730 617.2 731.5 618 733.3Z" fill="#161616"/>
<path d="M628.4 805.1C643.4 823.5 669 828.7 691.3 823C703.7 819.8 715.2 813.7 725.5 806.1C735.8 798.5 745.6 789.7 751.4 778.1C752.3 776.4 749.7 774.9 748.8 776.6C743.2 787.7 733.8 796.2 723.9 803.5C714.3 810.6 703.6 816.4 692 819.7C670.2 825.8 645.1 821.1 630.4 803C629.3 801.5 627.2 803.6 628.4 805.1Z" fill="#161616"/>
<path d="M737.6 690.4C742.5 719.7 747.3 749 749 778.6C749.1 780.5 752.1 780.5 752 778.6C750.2 748.7 745.4 719.1 740.5 689.6C740.2 687.7 737.3 688.5 737.6 690.4Z" fill="#161616"/>
<path opacity="0.13" d="M640.2 559.5C651.3 572.6 666.5 593 679.2 620.6C697.8 661 701.5 695.9 704.3 725.6C706.5 748.2 707.7 779.7 703.3 817.3C711.8 813.6 723.8 807.2 735.4 796.1C741.8 789.9 746.6 783.7 750.2 778.3C746.9 750.4 743.6 722.4 740.3 694.5C740.9 671.5 737.3 652.9 733.9 640.3C723.4 601.3 703.2 576.2 696.4 568.3C687.1 557.4 678 549.4 671.3 544.1C660.9 549.3 650.6 554.4 640.2 559.5Z" fill="#3F3F3F"/>
<path opacity="0.14" d="M714.7 594.5C712.9 595 717.1 611.3 721.1 635.4C721.1 635.4 727.2 672 728.5 707.4C729.4 730.8 728.2 765 717.7 807.5C722.5 805.1 728.4 801.6 734.5 796.7C741.9 790.7 747.2 784.4 750.8 779.4C749.5 739.1 746.1 718.2 742.9 706.4C742.3 704.1 740.7 698.7 739.4 691.1C737 676.9 738.2 670.8 736.9 659C735.9 649.6 734 643.4 730.5 631.9C725.2 614.6 716.7 593.9 714.7 594.5Z" fill="#3F3F3F"/>
<path d="M597 413.5C590.4 417.2 582 422.8 573.9 431.3C557.1 449.2 551.7 469.2 549.8 479.1C548.3 478.9 544.2 478.6 540.9 481.2C536 485 535.9 492.5 537.8 496.9C538.5 498.5 539.5 499.8 541.6 502.4C544.1 505.5 545.7 507.4 548.3 508.5C549.4 509 551.9 509.7 555.5 508.9C556.6 512.2 558.4 516.8 561.1 522.1C564.6 528.9 569.9 539 580.5 547.8C583.6 550.4 588.4 553.8 594.9 556.9C597.3 560 601.7 566.5 602.2 575.3C603.2 590.8 591.9 603.7 581.2 609.4C562.6 619.3 542.4 609.4 535 605.7C531 603.7 510.9 593.3 502.5 570.5C492.3 543 505.6 515.5 513.5 499.1C521.5 482.6 525.2 483.7 531.3 467.6C539.4 446.3 535.1 438.8 544.4 422.5C548 416.1 555.3 403.3 570.6 397.3C583.7 392.2 595.8 394.8 601 396.3C605.3 393.7 612.9 390 622.5 390C645.3 390 659.9 411.6 663.4 416.8C673.8 432.1 668.3 436.8 677.6 458.3C689.3 485.4 700.7 483.8 711.2 509.2C716.3 521.6 724.8 542.1 715.4 561.7C705.7 581.9 683.6 587.8 680.8 588.5C675.7 589.8 662 593.2 648.3 585.9C647 585.2 629.8 575.8 628.4 559.7C627.9 553.8 629.6 548.3 630 547.1C632.1 540.6 635.7 536.4 636.8 535C641.1 529.7 646.3 519.9 649.9 500.4C651.6 500.3 654.4 499.9 657.2 498.3C663.1 494.9 665.9 488 665.6 482C665.5 480.6 665.1 472.6 659.3 469.9C656.9 468.8 654.4 469.1 653 469.4C634.4 450.6 615.7 432.1 597 413.5Z" fill="#5222D0"/>
<path d="M597 413.4C585.9 419.9 578.2 427.1 573.3 432.4C557 450.1 551.8 468.6 550.7 472.9C550 475.6 549.5 477.8 549.3 479.4C548.2 479 545.7 478.3 543.2 479.4C539.4 481.1 538.6 485.7 538.2 488C537.2 493.3 539.2 497.5 540 499.1C541.1 501.4 542.9 505.1 547.2 507C550.7 508.6 554 508 555.4 507.7C556.8 511.3 558.8 516.3 561.9 522C566.6 531 571 539.3 579.5 546.7C582.8 549.6 588.2 553.6 596 556.7C597.6 559.2 599.8 563.1 601 568.2C602 572.2 602.2 575.6 602.1 578.2C604.7 579.5 609.6 581.5 615.7 581.4C627.4 581.2 635.1 573.9 636.9 572.1C635 566.4 633.3 559.4 632.6 551.3C632.3 547.6 632.2 544.1 632.2 540.9C635.3 537.6 639.1 532.9 642.2 526.6C647.7 515.7 648.6 505.6 648.7 499.7C650.1 499.9 652.9 500.2 655.9 499C660.1 497.3 662 493.6 663.1 491.5C663.4 491 667.6 482.4 663.8 473.9C662.9 472 661.4 468.5 658.4 468.2C656.2 468 654.4 469.7 653.7 470.4C649.6 465.5 641.9 456.4 631.1 443.9C621.8 433 615.9 426.2 606 419.2C602.4 416.6 599.2 414.7 597 413.4Z" fill="white"/>
<path d="M583.2 519.5C582.2 521.8 586.9 525.9 589.1 527.6C593.7 531 598.6 531.5 600.4 531.6C602.5 531.8 609.4 532.3 615.7 527.8C617.2 526.7 621.4 523.8 623 518.4C624.1 514.5 623.8 509.1 621.7 508.2C620.1 507.6 618.6 509.6 615.2 512C609.2 516.1 603 517.1 597.7 517.9C588.7 519.3 584.2 517.5 583.2 519.5Z" fill="black"/>
<path d="M551.5 496.4C555.1 511.4 560.9 526.1 570.5 538.3C579 549.2 591.6 559.7 606.3 558.3C619.9 557 631 546.4 638.2 535.6C646.7 523 650.8 507.9 650.4 492.7C650.3 490.8 647.3 490.8 647.4 492.7C647.8 506.6 644.2 520.2 636.9 532C630 543.1 618.6 554.8 604.7 555.4C590 556 577.9 544 570.1 532.8C562.3 521.6 557.5 508.7 554.3 495.5C553.9 493.7 551 494.5 551.5 496.4Z" fill="#161616"/>
<path d="M594 556.9C598.2 563.3 600.3 570.3 600.3 578C600.3 579.9 603.3 579.9 603.3 578C603.3 569.9 601 562.2 596.6 555.4C595.6 553.7 593 555.2 594 556.9Z" fill="#161616"/>
<path d="M601.7 579.2C613.9 586.2 629.7 582.8 638 571.6C639.2 570.1 636.6 568.6 635.4 570.1C628 580 613.8 582.8 603.2 576.6C601.5 575.7 600 578.3 601.7 579.2Z" fill="#161616"/>
<path d="M630.5 543.5C630.6 552.6 632 561.6 634.9 570.3C635.5 572.1 638.4 571.3 637.8 569.5C635.1 561 633.6 552.4 633.5 543.5C633.5 541.5 630.5 541.5 630.5 543.5Z" fill="#161616"/>
<path d="M554.5 505.9C553.2 507.3 550 506.8 548.5 506C547.3 505.4 546.2 504.5 545.3 503.6C543.3 501.7 541.7 499.4 540.7 496.9C538.7 492.2 537.8 478.7 546.7 481.1C548.6 481.6 549.4 478.7 547.5 478.2C536.5 475.3 534.8 489.9 537.6 497.2C539.8 503.1 549.9 515.3 556.7 508C557.9 506.6 555.8 504.5 554.5 505.9Z" fill="#161616"/>
<path d="M655 470.9C656.2 466.9 661.4 474.6 662 476C663.2 479.2 663.6 482.7 663.1 486.1C662.3 492.9 656.9 499.4 649.4 497.5C647.5 497 646.7 499.9 648.6 500.4C660.7 503.5 667.2 490.9 666.1 480.6C665.6 476.1 663.8 470.3 659.5 467.9C656.7 466.4 653.1 466.8 652.1 470C651.5 472 654.4 472.7 655 470.9Z" fill="#161616"/>
<path d="M565.2 449.7C568.5 443.4 574.3 439.3 581.3 438.3C583.2 438 582.4 435.1 580.5 435.4C572.8 436.5 566.2 441.3 562.6 448.2C561.7 449.9 564.3 451.4 565.2 449.7Z" fill="#161616"/>
<path d="M611.4 434.3C619.8 432.3 628.2 436.5 632 444.1C632.9 445.8 635.4 444.3 634.6 442.6C630.2 433.7 620.2 429.1 610.6 431.4C608.7 431.9 609.5 434.8 611.4 434.3Z" fill="#161616"/>
<path d="M589.6 446.6C591.5 457.2 592 468.1 590.9 478.9C590.5 482.2 588.9 486.9 590.4 490.2C592 493.8 596.3 496.9 599 499.7C600.3 501.1 602.5 499 601.1 497.6C599.3 495.7 597.5 493.9 595.7 492C592.9 489.1 592.6 488.2 593.2 484C593.7 480.2 594.2 476.3 594.4 472.4C594.8 463.5 594.1 454.6 592.5 445.9C592.2 443.9 589.3 444.7 589.6 446.6Z" fill="#161616"/>
<path d="M577 472.3C575.5 469.9 574.8 467.3 575 464.5C575 463.9 575.4 461.3 575.9 461.2C576.2 461.2 576.7 464.7 576.8 465.1C577 466.4 577.1 467.8 577.1 469.1C577.1 469.5 577 472.8 577 470.8C576.9 467.9 577.1 465 577.2 462.1C576.2 462.2 575.2 462.4 574.3 462.5C574.8 465.6 575.1 468.7 575.1 471.9C576.1 471.9 577.1 471.9 578.1 471.9C578.1 471.5 578.1 471.1 578.1 470.7C578.1 468.8 575.1 468.8 575.1 470.7C575.1 471.1 575.1 471.5 575.1 471.9C575.1 473.8 578.1 473.8 578.1 471.9C578.1 468.5 577.8 465.1 577.2 461.7C576.9 460 574.3 460.5 574.3 462.1C574.2 465.3 573.8 468.8 574.2 472C574.4 473.5 575.1 474.9 576.8 475.2C581.8 476.2 580.3 466.4 579.9 464C579.6 462.1 579.3 459.2 577.5 458.1C576 457.2 574.4 458.1 573.5 459.5C571 463.7 572.4 469.9 574.7 473.7C575.4 475.4 578 473.9 577 472.3Z" fill="#161616"/>
<path d="M623.2 467C621.7 464.6 621 462 621.2 459.2C621.2 458.6 621.6 456 622.1 455.9C622.4 455.9 622.9 459.4 623 459.8C623.2 461.1 623.3 462.5 623.3 463.8C623.3 464.2 623.2 467.5 623.2 465.5C623.1 462.6 623.3 459.7 623.4 456.8C622.4 456.9 621.4 457.1 620.5 457.2C621 460.3 621.3 463.4 621.3 466.6C622.3 466.6 623.3 466.6 624.3 466.6C624.3 466.2 624.3 465.8 624.3 465.4C624.3 463.5 621.3 463.5 621.3 465.4C621.3 465.8 621.3 466.2 621.3 466.6C621.3 468.5 624.3 468.5 624.3 466.6C624.3 463.2 624 459.8 623.4 456.4C623.1 454.7 620.5 455.2 620.5 456.8C620.4 460 620 463.5 620.4 466.7C620.6 468.2 621.3 469.6 623 469.9C628 470.9 626.5 461.1 626.1 458.7C625.8 456.8 625.5 453.9 623.7 452.8C622.2 451.9 620.6 452.8 619.7 454.2C617.2 458.4 618.6 464.6 620.9 468.4C621.6 470.2 624.2 468.7 623.2 467Z" fill="#161616"/>
<path d="M562.2 481.5C564.1 481.5 564.1 478.5 562.2 478.5C560.3 478.5 560.3 481.5 562.2 481.5Z" fill="#161616"/>
<path d="M574 483.7C574.1 483.7 574.2 483.7 574.4 483.7C575.2 483.7 575.9 483 575.9 482.2C575.9 481.4 575.2 480.7 574.4 480.7C574.3 480.7 574.2 480.7 574 480.7C573.2 480.7 572.5 481.4 572.5 482.2C572.5 483 573.1 483.7 574 483.7Z" fill="#161616"/>
<path d="M567 492.9C568.9 492.9 568.9 489.9 567 489.9C565.1 489.9 565 492.9 567 492.9Z" fill="#161616"/>
<path d="M623.8 480C623.9 480 624 480 624.2 480C625 480 625.7 479.3 625.7 478.5C625.7 477.7 625 477 624.2 477C624.1 477 624 477 623.8 477C623 477 622.3 477.7 622.3 478.5C622.3 479.3 622.9 480 623.8 480Z" fill="#161616"/>
<path d="M634.8 472.6C636.7 472.6 636.7 469.6 634.8 469.6C632.9 469.6 632.9 472.6 634.8 472.6Z" fill="#161616"/>
<path d="M633.3 480.7C633.4 480.7 633.5 480.7 633.7 480.7C634.5 480.7 635.2 480 635.2 479.2C635.2 478.4 634.5 477.7 633.7 477.7C633.6 477.7 633.5 477.7 633.3 477.7C632.5 477.7 631.8 478.4 631.8 479.2C631.9 480 632.5 480.7 633.3 480.7Z" fill="#161616"/>
<path d="M585.7 521.8C584.1 519.5 581.5 516.2 582.6 513.2C583.9 509.8 588 510.3 590.7 510.7C594 511.2 596.7 511.8 599.9 510.8C602.5 510 604.8 508.3 607.2 507C612.9 503.8 619.6 503.5 621.4 511C626.5 531.5 590.3 537.3 584.7 519.3C584.1 517.5 581.2 518.2 581.8 520.1C588.7 542.2 631.5 534 624 509.5C622.7 505.4 619.6 501.9 615.2 501.4C608 500.7 603.3 507.9 596.4 508.4C591.3 508.8 585.1 504.9 581 509.7C577.3 514 580.3 519.5 583 523.3C584.2 524.9 586.8 523.4 585.7 521.8Z" fill="#161616"/>
<path d="M579.9 516.1C582.1 522.2 593.1 520.3 597.9 519.6C607.1 518.2 615.5 514.2 622.6 508.3C624.1 507.1 622 504.9 620.5 506.2C615.3 510.6 609.3 513.8 602.7 515.6C599.8 516.4 584.5 519.8 582.9 515.4C582.1 513.5 579.2 514.3 579.9 516.1Z" fill="#161616"/>
<path d="M597.7 560C609.4 563 625 555.6 631.6 545.9C632.7 544.3 630.1 542.8 629 544.4C623.2 552.9 608.7 559.7 598.5 557.1C596.6 556.6 595.8 559.5 597.7 560Z" fill="#161616"/>
<path d="M598.8 560.9C609.2 567.4 626.3 558.2 631.3 548.3C632.2 546.6 629.6 545.1 628.7 546.8C624.5 555.2 609.2 563.9 600.3 558.4C598.6 557.3 597.1 559.9 598.8 560.9Z" fill="#161616"/>
<path opacity="0.2" d="M640.3 454.9C641 458.5 641.9 464.2 642.5 471.1C643.9 489.5 646.3 520.3 627.7 540.8C623.7 545.2 615.2 553 599.5 557.4C604.5 557.2 610.6 556.6 617.2 554.9C620.5 554.1 623.5 553.1 626.2 552C626.6 560.9 626.9 569.8 627.3 578.7C630.7 576.5 634 574.4 637.4 572.2C632.8 562 632.8 554.1 633.4 549.1C634.3 542.1 636.9 536.4 639.5 530.7C641.8 525.7 644.2 521.7 646.1 518.9C646.3 521 646.8 523.2 648.2 525.3C654.3 534.4 673.4 535.3 685.4 527.5C696.5 520.3 701.9 505.7 699.1 490.7C701 492.3 703 494.2 704.9 496.5C706.4 498.3 710.3 503.5 715.7 521.8C717.4 527.5 718.2 530.4 718.7 533.3C719.3 537.3 720.4 544.9 718.3 553.5C714.7 568.3 704 576.8 700.8 579.2C698.5 580.9 691.5 586 681 588.4C676 589.5 661 593.1 646.9 584.9C641.6 581.8 638.7 579.5 637.1 576.7C635.4 573.6 635.2 570.7 635 568.5C634.1 554.8 633.7 547.9 634.6 543.2C637.3 529.6 643.4 528.2 646.8 512.7C648 507.1 648.3 502.4 648.4 499.4C649.7 499.6 651.7 499.8 654.1 499.2C659.1 497.9 661.6 493.8 662.5 492.3C666.1 486.6 667.7 476.4 662.1 471.7C661.3 471 658.5 468.9 653.1 469.3C649 464.5 644.7 459.7 640.3 454.9Z" fill="#3F3F3F"/>
<path opacity="0.13" d="M592.9 487.3C598 488.8 603.2 490.4 608.3 491.9C607 493.1 605.7 494.2 604.3 495.4C603 496.5 601.8 497.4 600.5 498.4C598.9 497.2 596.6 495.1 594.8 491.9C593.8 490.2 593.2 488.6 592.9 487.3Z" fill="#3F3F3F"/>
<path opacity="0.16" d="M512.7 499.8C501.8 538.3 509.9 569.4 526.2 576.2C539 581.5 562.1 574 566.4 560.9C567 559.2 567.6 556.2 565.3 547C563.3 538.9 559.2 526.7 550 512.8C548.4 511.8 546.3 510.2 544.3 507.8C540.8 503.5 539.8 498.9 539.5 496.7C542.4 499.7 546.6 503.5 549.3 502.3C551.9 501.1 553.5 497.5 552.6 493.9C553.5 498.5 554.9 504.8 557.5 512.1C560.9 521.8 564.3 531.2 572.2 540.1C575.8 544.2 582.9 550.9 594.9 555.7C596.9 558.2 600.6 563.6 601.8 571.5C602 572.7 602.7 578.2 600.9 585.1C600.5 586.7 598.1 595.4 590.2 602.9C581 611.7 570 613.3 566.4 613.8C539.3 617.4 518.3 593.7 514.6 589.6C510.9 585.4 504.8 578.4 501.3 567.6C495.7 550.4 500 534.9 503.1 523.6C506 513 509.9 505 512.7 499.8Z" fill="#3F3F3F"/>
</svg>
